<svg width="99" height="71" viewBox="0 0 99 71" fill="none" xmlns="http://www.w3.org/2000/svg">
<g clip-path="url(#clip0_5369_7446)">
<path d="M88.93 10.2798C85.86 5.22983 79.06 2.84983 72.32 3.03983C72.04 3.03983 71.76 3.03983 71.47 3.03983C64.47 3.03983 57.57 6.56983 54.4 13.0398C50.83 20.2998 54.4 28.1698 61.9 30.7998C68.35 33.0698 76.51 31.6298 82.52 28.6498C89.15 25.2798 93.06 17.1098 88.93 10.2798Z" fill="#FFAF07"/>
<path d="M71.24 5.58989L71.03 5.43988C70.868 5.33943 70.6807 5.28739 70.49 5.28988C69.8831 5.24675 69.2731 5.29394 68.68 5.42989C68.5451 5.39939 68.405 5.39939 68.27 5.42989C67.9926 5.50857 67.7562 5.69125 67.61 5.93988V6.00988C67.6057 6.04977 67.6057 6.09 67.61 6.12988C67.5414 6.30106 67.5173 6.48686 67.54 6.66988C67.563 6.9007 67.6656 7.11634 67.83 7.27988C67.9265 7.3811 68.043 7.46099 68.1722 7.51438C68.3014 7.56778 68.4403 7.5935 68.58 7.58989L70.03 7.43988C70.1121 7.42941 70.1927 7.40927 70.27 7.37988H70.49C70.6298 7.3835 70.7687 7.35778 70.8979 7.30439C71.0271 7.25099 71.1436 7.17111 71.24 7.06989C71.3386 6.97144 71.4168 6.85452 71.4702 6.72583C71.5235 6.59714 71.551 6.4592 71.551 6.31989C71.551 6.18057 71.5235 6.04263 71.4702 5.91394C71.4168 5.78525 71.3386 5.66833 71.24 5.56989V5.58989Z" fill="#7BC91F"/>
</g>
<g clip-path="url(#clip1_5369_7446)">
<path d="M94.3422 15H4.67304C1.33651 15 -0.233627 17.7825 0.0280618 20.3528C0.0179967 20.694 0.0399007 21.0355 0.0934854 21.3727C2.41597 36.5606 2.74391 51.7458 5.0773 66.9283C5.13479 67.4874 5.31025 68.0281 5.59214 68.5147C5.87404 69.0013 6.25599 69.4228 6.71286 69.7516C7.14698 70.167 7.66007 70.4915 8.22187 70.7059C8.78366 70.9203 9.38281 71.0203 9.98396 71H89.0476C89.7559 71.0269 90.4602 70.8829 91.1008 70.5803C91.7414 70.2778 92.2995 69.8256 92.7276 69.262C93.4141 68.5967 93.8477 67.7141 93.9543 66.7651C96.2877 51.5826 96.6156 36.4002 98.9381 21.2177C98.9973 20.8509 99.0165 20.4789 98.9953 20.108C99.1262 17.5785 97.5724 15 94.3422 15Z" fill="#CCB29E"/>
<path d="M7.06349 25H18.9798C19.2456 25 19.5005 24.8946 19.6885 24.7071C19.8764 24.5196 19.982 24.2652 19.982 24C19.982 23.7348 19.8764 23.4804 19.6885 23.2929C19.5005 23.1053 19.2456 23 18.9798 23H7.06349C6.79769 23 6.54277 23.1053 6.35482 23.2929C6.16687 23.4804 6.06128 23.7348 6.06128 24C6.06128 24.2652 6.16687 24.5196 6.35482 24.7071C6.54277 24.8946 6.79769 25 7.06349 25Z" fill="#AA8668"/>
<path d="M77.7776 23H92.7106C92.9764 23 93.2313 22.8946 93.4192 22.7071C93.6072 22.5196 93.7128 22.2652 93.7128 22C93.7128 21.7348 93.6072 21.4804 93.4192 21.2929C93.2313 21.1054 92.9764 21 92.7106 21H77.7776C77.5118 21 77.2569 21.1054 77.0689 21.2929C76.881 21.4804 76.7754 21.7348 76.7754 22C76.7754 22.2652 76.881 22.5196 77.0689 22.7071C77.2569 22.8946 77.5118 23 77.7776 23Z" fill="#AA8668"/>
<path d="M86.8696 27H91.1692C91.435 27 91.6899 26.8947 91.8778 26.7071C92.0658 26.5196 92.1714 26.2652 92.1714 26C92.1714 25.7348 92.0658 25.4804 91.8778 25.2929C91.6899 25.1054 91.435 25 91.1692 25H86.8696C86.6038 25 86.3489 25.1054 86.161 25.2929C85.973 25.4804 85.8674 25.7348 85.8674 26C85.8674 26.2652 85.973 26.5196 86.161 26.7071C86.3489 26.8947 86.6038 27 86.8696 27Z" fill="#AA8668"/>
</g>
<defs>
<clipPath id="clip0_5369_7446">
<rect width="37.62" height="28.83" fill="white" transform="translate(53 3)"/>
</clipPath>
<clipPath id="clip1_5369_7446">
<rect width="99" height="56" fill="white" transform="translate(0 15)"/>
</clipPath>
</defs>
</svg>
