<svg width="current" height="current" viewBox="0 0 99 71" fill="none" xmlns="http://www.w3.org/2000/svg">
<g clip-path="url(#clip0_5369_7447)">
<path d="M38.6399 14.8902C37.0099 9.70015 31.6399 6.40016 25.8999 5.45016H25.8099C19.9199 4.24016 13.6799 5.56015 9.71988 10.3602C8.65887 11.5768 7.87734 13.0112 7.43026 14.5624C6.98318 16.1136 6.88141 17.7439 7.13211 19.3387C7.3828 20.9334 7.97989 22.4539 8.88134 23.7931C9.7828 25.1323 10.9667 26.2577 12.3499 27.0902C17.0499 30.0902 23.6899 30.3602 29.0299 29.2602C35.4899 27.8902 40.7699 21.6802 38.6399 14.8902Z" fill="#FF9D03"/>
<path d="M28.58 6.10996L28.41 5.89995C28.2824 5.76475 28.1197 5.66778 27.94 5.61995C27.3818 5.4087 26.7955 5.28067 26.2 5.23995V5.23995C26.0401 5.17164 25.8665 5.1415 25.693 5.15191C25.5194 5.16233 25.3506 5.21301 25.2 5.29995C25.1297 5.3521 25.0659 5.41254 25.01 5.47995C25.01 5.47995 24.93 5.47995 24.91 5.54995C24.8846 5.57211 24.8642 5.59937 24.85 5.62995V5.62995C24.7353 5.77409 24.6626 5.94712 24.64 6.12995C24.598 6.36368 24.6406 6.60472 24.76 6.80995C24.8268 6.92864 24.9172 7.03244 25.0255 7.11498C25.1338 7.19752 25.2579 7.25706 25.39 7.28995L26.93 7.57995C27.0133 7.58489 27.0968 7.58489 27.18 7.57995L27.39 7.63995C27.6674 7.70929 27.9608 7.66993 28.21 7.52995C28.3287 7.46316 28.4325 7.37283 28.5151 7.2645C28.5976 7.15617 28.6572 7.03211 28.69 6.89995C28.7566 6.63228 28.7172 6.34927 28.58 6.10996V6.10996Z" fill="#7BC91F"/>
</g>
<g clip-path="url(#clip1_5369_7447)">
<path d="M88.93 10.2798C85.86 5.22983 79.06 2.84983 72.32 3.03983C72.04 3.03983 71.76 3.03983 71.47 3.03983C64.47 3.03983 57.57 6.56983 54.4 13.0398C50.83 20.2998 54.4 28.1698 61.9 30.7998C68.35 33.0698 76.51 31.6298 82.52 28.6498C89.15 25.2798 93.06 17.1098 88.93 10.2798Z" fill="#FFAF07"/>
<path d="M71.24 5.58989L71.03 5.43988C70.868 5.33943 70.6807 5.28739 70.49 5.28988C69.8831 5.24675 69.2731 5.29394 68.68 5.42989C68.5451 5.39939 68.405 5.39939 68.27 5.42989C67.9926 5.50857 67.7562 5.69125 67.61 5.93988V6.00988C67.6057 6.04977 67.6057 6.09 67.61 6.12988C67.5414 6.30106 67.5173 6.48686 67.54 6.66988C67.563 6.9007 67.6656 7.11634 67.83 7.27988C67.9265 7.3811 68.043 7.46099 68.1722 7.51438C68.3014 7.56778 68.4403 7.5935 68.58 7.58989L70.03 7.43988C70.1121 7.42941 70.1927 7.40927 70.27 7.37988H70.49C70.6298 7.3835 70.7687 7.35778 70.8979 7.30439C71.0271 7.25099 71.1436 7.17111 71.24 7.06989C71.3386 6.97144 71.4168 6.85452 71.4702 6.72583C71.5235 6.59714 71.551 6.4592 71.551 6.31989C71.551 6.18057 71.5235 6.04263 71.4702 5.91394C71.4168 5.78525 71.3386 5.66833 71.24 5.56989V5.58989Z" fill="#7BC91F"/>
</g>
<g clip-path="url(#clip2_5369_7447)">
<path d="M94.3388 15.0327H4.66962C1.33309 15.0327 -0.237045 17.8152 0.0246439 20.3855C0.0145787 20.7268 0.0364827 21.0682 0.0900675 21.4054C2.41255 36.5934 2.7405 51.7786 5.07388 66.961C5.13137 67.5202 5.30683 68.0608 5.58873 68.5474C5.87062 69.034 6.25257 69.4555 6.70944 69.7843C7.14357 70.1997 7.65665 70.5242 8.21845 70.7386C8.78025 70.953 9.37939 71.053 9.98054 71.0327H89.0442C89.7525 71.0596 90.4568 70.9156 91.0974 70.6131C91.738 70.3105 92.2961 69.8583 92.7242 69.2947C93.4107 68.6294 93.8443 67.7468 93.9509 66.7978C96.2843 51.6154 96.6122 36.4329 98.9347 21.2504C98.9939 20.8836 99.0131 20.5116 98.9919 20.1407C99.1228 17.6112 97.569 15.0327 94.3388 15.0327Z" fill="#CCB29E"/>
<path d="M7.06349 25H18.9798C19.2456 25 19.5005 24.8946 19.6885 24.7071C19.8764 24.5196 19.982 24.2652 19.982 24C19.982 23.7348 19.8764 23.4804 19.6885 23.2929C19.5005 23.1053 19.2456 23 18.9798 23H7.06349C6.79769 23 6.54277 23.1053 6.35482 23.2929C6.16687 23.4804 6.06128 23.7348 6.06128 24C6.06128 24.2652 6.16687 24.5196 6.35482 24.7071C6.54277 24.8946 6.79769 25 7.06349 25Z" fill="#AA8668"/>
<path d="M77.7776 23H92.7106C92.9764 23 93.2313 22.8946 93.4192 22.7071C93.6072 22.5196 93.7128 22.2652 93.7128 22C93.7128 21.7348 93.6072 21.4804 93.4192 21.2929C93.2313 21.1054 92.9764 21 92.7106 21H77.7776C77.5118 21 77.2569 21.1054 77.0689 21.2929C76.881 21.4804 76.7754 21.7348 76.7754 22C76.7754 22.2652 76.881 22.5196 77.0689 22.7071C77.2569 22.8946 77.5118 23 77.7776 23Z" fill="#AA8668"/>
<path d="M86.8696 27H91.1692C91.435 27 91.6899 26.8947 91.8778 26.7071C92.0658 26.5196 92.1714 26.2652 92.1714 26C92.1714 25.7348 92.0658 25.4804 91.8778 25.2929C91.6899 25.1054 91.435 25 91.1692 25H86.8696C86.6038 25 86.3489 25.1054 86.161 25.2929C85.973 25.4804 85.8674 25.7348 85.8674 26C85.8674 26.2652 85.973 26.5196 86.161 26.7071C86.3489 26.8947 86.6038 27 86.8696 27Z" fill="#AA8668"/>
</g>
<defs>
<clipPath id="clip0_5369_7447">
<rect width="32.12" height="24.83" fill="white" transform="translate(7 5)"/>
</clipPath>
<clipPath id="clip1_5369_7447">
<rect width="37.62" height="28.83" fill="white" transform="translate(53 3)"/>
</clipPath>
<clipPath id="clip2_5369_7447">
<rect width="99" height="56" fill="white" transform="translate(0 15)"/>
</clipPath>
</defs>
</svg>
