<svg width="99" height="71" viewBox="0 0 99 71" fill="none" xmlns="http://www.w3.org/2000/svg">
<g clip-path="url(#clip0_5369_7445)">
<path d="M94.3388 15.0327H4.66962C1.33309 15.0327 -0.237045 17.8152 0.0246439 20.3855C0.0145787 20.7268 0.0364827 21.0682 0.0900675 21.4054C2.41255 36.5934 2.7405 51.7786 5.07388 66.961C5.13137 67.5201 5.30683 68.0608 5.58873 68.5474C5.87062 69.034 6.25257 69.4555 6.70944 69.7843C7.14357 70.1997 7.65665 70.5242 8.21845 70.7386C8.78025 70.953 9.37939 71.053 9.98054 71.0327H89.0442C89.7525 71.0596 90.4568 70.9156 91.0974 70.6131C91.738 70.3105 92.2961 69.8583 92.7242 69.2947C93.4107 68.6294 93.8443 67.7468 93.9509 66.7978C96.2843 51.6154 96.6122 36.4329 98.9347 21.2504C98.9939 20.8836 99.0131 20.5116 98.9919 20.1407C99.1228 17.6112 97.569 15.0327 94.3388 15.0327Z" fill="#CCB29E"/>
<path d="M7.06349 25H18.9798C19.2456 25 19.5005 24.8946 19.6885 24.7071C19.8764 24.5196 19.982 24.2652 19.982 24C19.982 23.7348 19.8764 23.4804 19.6885 23.2929C19.5005 23.1053 19.2456 23 18.9798 23H7.06349C6.79769 23 6.54277 23.1053 6.35482 23.2929C6.16687 23.4804 6.06128 23.7348 6.06128 24C6.06128 24.2652 6.16687 24.5196 6.35482 24.7071C6.54277 24.8946 6.79769 25 7.06349 25Z" fill="#AA8668"/>
<path d="M77.7776 23H92.7106C92.9764 23 93.2313 22.8946 93.4192 22.7071C93.6072 22.5196 93.7128 22.2652 93.7128 22C93.7128 21.7348 93.6072 21.4804 93.4192 21.2929C93.2313 21.1054 92.9764 21 92.7106 21H77.7776C77.5118 21 77.2569 21.1054 77.0689 21.2929C76.881 21.4804 76.7754 21.7348 76.7754 22C76.7754 22.2652 76.881 22.5196 77.0689 22.7071C77.2569 22.8946 77.5118 23 77.7776 23Z" fill="#AA8668"/>
<path d="M86.8696 27H91.1692C91.435 27 91.6899 26.8947 91.8778 26.7071C92.0658 26.5196 92.1714 26.2652 92.1714 26C92.1714 25.7348 92.0658 25.4804 91.8778 25.2929C91.6899 25.1054 91.435 25 91.1692 25H86.8696C86.6038 25 86.3489 25.1054 86.161 25.2929C85.973 25.4804 85.8674 25.7348 85.8674 26C85.8674 26.2652 85.973 26.5196 86.161 26.7071C86.3489 26.8947 86.6038 27 86.8696 27Z" fill="#AA8668"/>
</g>
<defs>
<clipPath id="clip0_5369_7445">
<rect width="99" height="56" fill="white" transform="translate(0 15)"/>
</clipPath>
</defs>
</svg>
