<svg width="320" height="56" viewBox="0 0 320 56" fill="none" xmlns="http://www.w3.org/2000/svg">
<rect width="320" height="56" rx="12" fill="#FEE500"/>
<g clip-path="url(#clip0_6038_28371)">
<path d="M112.502 19C107.255 19 103 22.3588 103 26.4943C103 29.0254 104.588 31.2634 107.017 32.626L106.271 36.5708C106.257 36.6407 106.265 36.713 106.293 36.7786C106.32 36.8442 106.367 36.9001 106.426 36.9394C106.485 36.9787 106.555 36.9996 106.626 36.9995C106.697 36.9994 106.767 36.9782 106.826 36.9387L111.292 33.9409C111.694 33.982 112.098 34.0025 112.502 34.0023C117.748 34.0023 122.003 30.6434 122.003 26.5079C122.003 22.3724 117.748 19 112.502 19Z" fill="black"/>
</g>
<path d="M139.916 22.5781H133.322V24.1719H137.923C137.877 24.8438 137.775 25.4844 137.627 26.0859L132.572 26.3906L132.822 28.0938L137.025 27.7031C136.22 29.2812 134.806 30.6016 132.431 31.7812L133.525 33.2812C138.838 30.6172 139.9 26.9688 139.916 22.5781ZM141.713 35.4062H143.713V28.3125H145.728V26.6719H143.713V21.2188H141.713V35.4062ZM153.444 22.5781H146.85V24.1719H151.452C151.405 24.8438 151.303 25.4844 151.155 26.0859L146.1 26.3906L146.35 28.0938L150.553 27.7031C149.748 29.2812 148.334 30.6016 145.959 31.7812L147.053 33.2812C152.366 30.6172 153.428 26.9688 153.444 22.5781ZM155.241 35.4062H157.241V28.3125H159.256V26.6719H157.241V21.2188H155.241V35.4062ZM166.034 21.9531C162.98 21.9531 160.691 23.5 160.691 25.8438C160.691 27.9844 162.495 29.4219 165.034 29.7109V32.1406H159.55V33.7812H172.566V32.1406H167.019V29.7109C169.573 29.4297 171.386 27.9922 171.394 25.8438C171.386 23.5 169.089 21.9531 166.034 21.9531ZM162.659 25.8438C162.659 24.4219 164.042 23.5391 166.034 23.5469C168.034 23.5391 169.417 24.4219 169.425 25.8438C169.417 27.3438 168.034 28.1797 166.034 28.1875C164.042 28.1797 162.659 27.3438 162.659 25.8438ZM189.481 32.2188H183.934V30.0781H188.309V28.4531H179.966V26.8594H187.981V22.1406H177.95V23.7344H186.013V25.2969H177.966V30.0781H181.95V32.2188H176.466V33.8594H189.481V32.2188ZM201.369 22.5312H191.338V24.125H199.384V24.2344C199.377 26.125 199.377 28.1562 198.838 30.8906L200.853 31.0625C201.361 28.1172 201.361 26.1875 201.369 24.2344V22.5312ZM189.994 33.5781H202.963V31.9375H189.994V33.5781ZM215.428 21.2344H213.428V31.4531H215.428V21.2344ZM203.741 25.7188C203.741 27.8359 205.444 29.3281 207.631 29.3281C209.811 29.3281 211.514 27.8359 211.522 25.7188C211.514 23.6328 209.811 22.1328 207.631 22.1406C205.444 22.1328 203.741 23.6328 203.741 25.7188ZM205.694 25.7188C205.678 24.5625 206.514 23.8672 207.631 23.875C208.709 23.8672 209.545 24.5625 209.553 25.7188C209.545 26.9062 208.709 27.5938 207.631 27.5938C206.514 27.5938 205.678 26.9062 205.694 25.7188ZM205.897 35.1875H215.803V33.5938H207.912V30.4219H205.897V35.1875Z" fill="black" fill-opacity="0.85"/>
<defs>
<clipPath id="clip0_6038_28371">
<rect width="19" height="18" fill="white" transform="translate(103 19)"/>
</clipPath>
</defs>
</svg>
