<svg width="current" height="current" viewBox="0 0 155 74" fill="none" xmlns="http://www.w3.org/2000/svg">
<g clip-path="url(#clip0_6116_28502)">
<path d="M151.985 47.9767C151.579 47.5493 151.13 47.1642 150.645 46.8276C152.841 44.4132 154.083 41.2814 154.139 38.0175C154.216 36.0885 153.905 34.1636 153.222 32.3578C152.54 30.5521 151.501 28.9025 150.167 27.5076C149.28 26.5715 148.265 25.7655 147.152 25.1136C148.219 23.3566 148.751 21.3267 148.683 19.2721C148.683 15.0825 146.003 8.09189 128.106 8.09189C120.928 8.09189 113.008 9.26497 109.395 16.7344C108.37 15.2715 107.191 13.923 105.878 12.7124C106.37 12.1186 106.826 11.495 107.241 10.845C107.783 10.0193 108.103 9.06774 108.17 8.08225C108.237 7.09676 108.049 6.11063 107.624 5.21903C107.204 4.32206 106.565 3.5451 105.767 2.95947C104.968 2.37383 104.036 1.9983 103.054 1.86736C101.924 1.76872 100.79 1.72877 99.6565 1.74766C97.6796 1.73151 95.709 1.97294 93.7944 2.46587C93.3319 1.81554 92.7406 1.2674 92.0573 0.855532C91.374 0.443669 90.6133 0.1769 89.8225 0.0718213C89.5518 0.0487168 89.2796 0.0487168 89.009 0.0718213C87.5964 0.0796205 86.2333 0.593391 85.1667 1.52005C84.1001 2.44672 83.4005 3.72498 83.1947 5.12326C82.983 6.71227 82.983 8.32235 83.1947 9.91136C80.0943 12.2809 78.0421 15.7689 77.4761 19.6312V19.3918C77.4761 15.2022 74.7962 8.21159 56.9227 8.21159C50.3188 8.21159 42.9971 9.21708 39.0969 15.3937C36.4013 12.829 33.2186 10.8316 29.7375 9.51981C26.2564 8.208 22.5475 7.60847 18.8307 7.75671C16.3971 7.66396 13.9695 8.05804 11.6901 8.91585C9.41067 9.77366 7.32524 11.078 5.55597 12.7524C3.7867 14.4267 2.36916 16.4375 1.38637 18.667C0.403585 20.8964 -0.124686 23.2997 -0.16749 25.736C-0.328935 29.1804 0.736952 32.5702 2.84027 35.3017C4.94359 38.0331 7.94774 39.9288 11.3175 40.6509C8.94852 42.4666 7.01001 44.7839 5.64082 47.4368C4.27163 50.0898 3.50563 53.0129 3.39765 55.9968C3.39765 67.5361 12.3464 74.1436 27.9948 74.1436C36.9674 74.1436 43.356 70.6723 45.8205 64.7829C46.299 65.3575 46.8015 65.9081 47.304 66.4348C48.9215 68.1551 50.876 69.5233 53.0455 70.4542C55.215 71.3851 57.553 71.8587 59.9136 71.8454C66.5358 71.535 72.9617 69.4964 78.5528 65.9321C83.1302 69.6993 88.9527 71.6128 94.8711 71.2947C98.8361 71.2567 102.703 70.0544 105.991 67.837C109.279 65.6196 111.844 62.4848 113.367 58.8217C114.644 61.5891 116.366 64.1285 118.463 66.3391C120.086 68.0588 122.045 69.4266 124.218 70.3573C126.392 71.288 128.733 71.7619 131.097 71.7496C134.782 71.7496 154.88 68.9246 155.024 56.4756C155.125 54.9263 154.908 53.3727 154.385 51.9108C153.863 50.449 153.046 49.11 151.985 47.9767ZM77.6436 19.6073C77.6346 20.4621 77.5302 21.3133 77.3325 22.1449C77.3727 21.2925 77.4767 20.4442 77.6436 19.6073ZM77.3325 22.1928C77.3325 22.6238 77.3325 23.0786 77.3325 23.5335C77.3325 23.9884 77.3325 25.1854 77.3325 25.9275C76.9247 25.6262 76.5014 25.3466 76.0644 25.0896C76.6446 24.201 77.0732 23.2221 77.3325 22.1928ZM28.1623 69.9301C19.381 69.9301 7.63276 67.5361 7.63276 55.8531C7.63276 46.6839 16.6294 41.6325 21.989 37.6823V36.9641C20.5671 37.1254 19.1371 37.2053 17.7061 37.2035C10.7672 37.2035 3.97191 34.3546 3.97191 25.5924C4.00781 23.6882 4.42625 21.8107 5.20233 20.0717C5.97842 18.3327 7.09628 16.7677 8.48936 15.4699C9.88244 14.1721 11.5223 13.168 13.3112 12.5174C15.1001 11.8668 17.0016 11.5831 18.9024 11.683C26.9898 11.683 33.2587 14.4361 37.3263 19.1763C36.6151 21.5942 36.2525 24.1014 36.2496 26.6218C36.2498 32.603 36.7863 38.5722 37.8527 44.4575C35.3138 47.0317 32.288 49.0745 28.9518 50.4665V50.7777C30.1603 50.4169 31.4034 50.1842 32.6605 50.0835C35.0719 49.9614 37.4709 50.4994 39.5994 51.6396C40.4495 54.5468 41.5877 57.3619 42.9971 60.0427C42.2314 66.6742 36.3932 69.9301 28.1623 69.9301ZM69.8912 48.1682C71.1615 48.1718 72.4254 48.349 73.6477 48.6949C73.2775 49.9706 73.0922 51.2928 73.0974 52.6212C73.0383 56.1937 74.0646 59.7 76.0405 62.6762C71.2138 65.627 65.7293 67.33 60.0811 67.6318C54.2428 67.6318 50.0795 64.1605 47.1365 59.109C45.3727 56.0133 44.0289 52.6963 43.1406 49.2456C42.8057 47.9767 42.4946 46.7079 42.2314 45.4151C41.9682 44.1223 41.8486 43.5477 41.6811 42.614C41.4897 41.3691 41.2982 40.22 41.1547 38.9033C40.6246 34.8716 40.3768 30.8078 40.4129 26.7415C40.3753 25.9918 40.3753 25.2408 40.4129 24.4911C40.4987 23.3094 40.6991 22.1388 41.0111 20.9958C41.2297 20.1747 41.5178 19.3738 41.8725 18.6018C44.3848 13.5264 49.6967 12.2336 56.9705 12.2336C65.01 12.2336 73.4563 13.8855 73.4563 19.4157C73.4563 25.5924 68.0966 25.8078 64.0769 26.5979V27.0049H65.5364C73.9588 27.0049 78.9835 31.0029 78.9117 38.1132C78.9117 42.4465 74.1263 45.7024 67.2831 47.6894V48.6231C68.1311 48.3673 69.0067 48.2145 69.8912 48.1682ZM111.07 52.9563C110.387 55.5009 109.314 57.9239 107.887 60.1385C107.532 60.7115 107.132 61.2558 106.691 61.7664C106.276 62.2738 105.828 62.7536 105.351 63.2029L104.609 63.8732L103.987 64.352L103.006 65.0463C102.658 65.2649 102.299 65.4647 101.93 65.6448C101.589 65.8428 101.228 66.0033 100.853 66.1236C100.438 66.3222 100.005 66.4825 99.5608 66.6024L98.9866 66.77L97.6706 67.0333H96.9049C96.2678 67.0824 95.6279 67.0824 94.9907 67.0333C94.3447 67.0333 93.7226 67.0333 93.0766 67.0333C92.2021 66.9783 91.3314 66.8744 90.4685 66.7221L89.7268 66.5785C88.9137 66.4146 88.1139 66.1905 87.3341 65.9081L86.4248 65.5969C85.9438 65.414 85.4726 65.2062 85.0131 64.9744C84.6981 64.8388 84.394 64.6787 84.1039 64.4956H83.9364L83.7211 64.352C83.0203 63.9383 82.3559 63.4658 81.7351 62.9395C81.2133 62.4807 80.7256 61.9846 80.2756 61.4552C79.807 60.8959 79.3905 60.2949 79.0313 59.6597L78.6724 58.9893C78.4081 58.4757 78.1918 57.9388 78.0264 57.3853C77.5208 55.8408 77.2781 54.2222 77.3086 52.5972C77.3086 52.286 77.3086 51.9508 77.3086 51.6396C77.2969 51.5763 77.2969 51.5114 77.3086 51.4481C77.3312 51.1493 77.3792 50.8529 77.4522 50.5623C77.4389 50.459 77.4389 50.3544 77.4522 50.2511L77.5957 49.7483V49.5089C77.7308 49.1616 77.9075 48.832 78.1221 48.5273C78.2255 48.2606 78.3537 48.0041 78.505 47.7612C78.5356 47.6847 78.5758 47.6123 78.6246 47.5458C78.7652 47.3074 78.9169 47.0757 79.0792 46.8515C79.8072 45.9124 80.8115 45.2257 81.9505 44.8884C82.1191 44.8184 82.296 44.7701 82.4769 44.7447C82.6041 44.7313 82.7324 44.7313 82.8597 44.7447H83.5536C85.1573 44.7478 86.744 45.0735 88.2194 45.7024C85.8267 41.5846 81.3523 32.966 81.3523 23.725C81.3152 23.0312 81.3152 22.336 81.3523 21.6422C81.3523 21.331 81.3523 21.0197 81.4719 20.7085C81.6023 19.8948 81.8024 19.0938 82.0701 18.3145C82.1889 17.9614 82.3328 17.6174 82.5008 17.285C82.5541 17.0869 82.6433 16.9003 82.764 16.7344C82.9315 16.3761 83.1403 16.0387 83.3861 15.7289L83.7928 15.1304C84.0391 14.7838 84.3197 14.463 84.6303 14.1728C84.7297 14.0494 84.842 13.9371 84.9653 13.8376L85.3003 13.5503C85.5974 13.2901 85.9178 13.0577 86.2573 12.856C86.3121 12.8407 86.3701 12.8407 86.4248 12.856C86.5816 12.7426 86.75 12.6462 86.9273 12.5688L87.2623 12.4012C87.5263 12.2549 87.8077 12.1423 88.0997 12.066C87.9331 11.7029 87.797 11.3265 87.693 10.9408C87.693 10.6296 87.5255 10.2944 87.4537 9.98318C87.4306 9.79235 87.4306 9.59944 87.4537 9.40861C87.4537 9.12132 87.4537 8.85797 87.4537 8.61857C87.4537 8.37916 87.4537 8.13977 87.4537 7.9243C87.3957 7.1673 87.3957 6.40696 87.4537 5.64996C87.4295 5.51537 87.4295 5.37755 87.4537 5.24296C87.5077 5.06697 87.5972 4.90398 87.7169 4.76415C87.8201 4.62724 87.9504 4.51314 88.0997 4.42899C88.2322 4.31719 88.3873 4.23551 88.5544 4.18959C88.7277 4.15127 88.9074 4.15127 89.0807 4.18959H89.3439C89.5773 4.21898 89.8026 4.2946 90.0064 4.41206C90.2103 4.52951 90.3887 4.68643 90.5313 4.87365C90.6738 5.06087 90.7777 5.27464 90.8367 5.50247C90.8958 5.73031 90.9089 5.96763 90.8753 6.20059C90.8753 6.20059 90.8753 6.70333 90.8753 7.37366C90.8753 8.044 90.8753 8.18764 90.9949 8.66645C91.0645 8.60003 91.1286 8.52796 91.1863 8.45099C91.425 8.23112 91.681 8.03096 91.952 7.85248C92.1176 7.6748 92.2933 7.50693 92.4784 7.34973H92.622L93.3637 6.99062C93.7413 6.81946 94.1337 6.68323 94.5361 6.58363C95.0831 6.41061 95.6433 6.2825 96.211 6.20059C96.8111 6.08443 97.4189 6.01241 98.0295 5.98512C98.532 5.98512 99.0105 5.98512 99.4651 5.98512H100.949H101.619H102.312H102.456C102.756 6.02385 103.041 6.13879 103.284 6.319C103.527 6.49921 103.72 6.73867 103.844 7.01456C103.99 7.27811 104.067 7.57477 104.067 7.87642C104.067 8.17807 103.99 8.47473 103.844 8.73828C103.484 9.29491 103.092 9.83046 102.671 10.3423C102.255 10.8931 101.799 11.4132 101.308 11.8984C100.804 12.4282 100.251 12.9091 99.6565 13.3348L100.326 13.7179C100.732 13.9508 101.123 14.2065 101.499 14.484C101.738 14.6301 101.962 14.7985 102.169 14.9867L103.078 15.7528C103.461 16.1119 103.82 16.471 104.179 16.8541C104.721 17.4417 105.232 18.057 105.71 18.6975C106.045 19.1524 106.38 19.6312 106.691 20.1339C107.002 20.6367 107.409 21.2591 107.72 21.8577C107.444 23.439 107.3 25.0405 107.289 26.6457C107.222 35.5571 108.463 44.4301 110.974 52.9803L111.07 52.9563ZM131.097 67.584C123.129 67.584 118.248 61.0961 115.353 52.9563C114.85 51.5678 114.42 50.1314 114.037 48.671C113.357 46.0435 112.814 43.3826 112.41 40.6988C112.027 38.1372 111.788 35.6474 111.644 33.3491C111.644 33.3491 111.644 33.2294 111.644 33.1576C111.5 30.7635 111.453 28.5849 111.477 26.7415C111.477 26.1909 111.477 25.6642 111.477 25.1375C111.552 23.8618 111.745 22.5956 112.051 21.3549C113.869 14.0052 119.66 12.2815 128.082 12.2815C136.504 12.2815 144.592 13.9334 144.592 19.4636C144.592 25.6402 139.208 25.8557 135.188 26.6457V27.0527H136.648C145.094 27.0527 150.095 31.0508 150.047 38.1611C150.047 42.4943 147.272 46.3727 140.476 48.3598V49.2934C141.387 49.0874 142.318 48.983 143.252 48.9822C144.286 48.8637 145.334 48.9804 146.316 49.3235C147.299 49.6666 148.192 50.2273 148.928 50.9638C149.664 51.7002 150.224 52.5935 150.567 53.5769C150.91 54.5602 151.027 55.6084 150.908 56.6432C150.861 64.6153 135.045 67.6318 131.097 67.6318V67.584Z" fill="white"/>
<path d="M42.9971 60.0906C42.2553 66.6742 36.3932 69.9301 28.1623 69.9301C19.381 69.9301 7.63277 67.5361 7.63277 55.8531C7.63277 46.6839 16.6294 41.6325 21.9891 37.6823V36.9641C20.5671 37.1254 19.1371 37.2053 17.7061 37.2035C10.7672 37.2035 3.97192 34.3546 3.97192 25.5924C4.00782 23.6882 4.42626 21.8107 5.20234 20.0717C5.97843 18.3327 7.09629 16.7677 8.48937 15.4699C9.88245 14.1721 11.5223 13.168 13.3112 12.5174C15.1002 11.8668 17.0016 11.5831 18.9025 11.683C26.9898 11.683 33.2587 14.4361 37.3264 19.1763C36.6151 21.5942 36.2525 24.1013 36.2496 26.6218C36.2498 32.603 36.7863 38.5722 37.8527 44.4575C35.3138 47.0317 32.288 49.0745 28.9518 50.4665V50.7777C30.1603 50.4169 31.4034 50.1842 32.6606 50.0835C35.0719 49.9614 37.4709 50.4994 39.5994 51.6396C40.4465 54.5632 41.5848 57.3944 42.9971 60.0906Z" fill="#FFA317"/>
<path d="M67.4028 47.4979V48.4316C68.1883 48.2567 68.9907 48.1684 69.7955 48.1682C71.0658 48.1718 72.3297 48.349 73.552 48.6949C73.1818 49.9706 72.9965 51.2928 73.0017 52.6212C72.9426 56.1937 73.9688 59.7 75.9448 62.6762C71.1181 65.627 65.6336 67.33 59.9853 67.6318C54.1471 67.6318 49.9838 64.1605 47.0408 59.109C45.3102 56.0084 43.9987 52.6916 43.1406 49.2456C42.8057 47.9767 42.4946 46.7079 42.2314 45.4151C41.9682 44.1223 41.8486 43.5477 41.6811 42.614C41.4897 41.3691 41.2983 40.22 41.1547 38.9033C40.6246 34.8716 40.3768 30.8078 40.413 26.7415C40.3753 25.9918 40.3753 25.2408 40.413 24.4911C40.4987 23.3094 40.6991 22.1388 41.0111 20.9958C41.2297 20.1747 41.5179 19.3738 41.8725 18.6018C44.3849 13.5264 49.6967 12.2336 56.9705 12.2336C65.01 12.2336 73.4563 13.8855 73.4563 19.4157C73.4563 25.5924 68.0967 25.8078 64.0769 26.5979V27.0049H65.5365C73.9588 27.0049 78.9835 31.0029 78.9117 38.1132C78.9596 42.2549 74.1981 45.5108 67.4028 47.4979Z" fill="#FFA317"/>
<path d="M111.07 52.9803C110.387 55.5248 109.314 57.9478 107.887 60.1624C107.53 60.734 107.13 61.2782 106.691 61.7904C106.276 62.2977 105.828 62.7775 105.351 63.2268L104.609 63.8971L103.987 64.3759L103.006 65.0702C102.658 65.2889 102.299 65.4887 101.93 65.6687C101.589 65.8667 101.228 66.0273 100.853 66.1475C100.438 66.3461 100.005 66.5064 99.5608 66.6263L98.9866 66.7939L97.6706 67.0573H96.9049C96.2678 67.1063 95.6278 67.1063 94.9907 67.0573C94.3447 67.0573 93.7226 67.0573 93.0766 67.0573C92.2021 67.0022 91.3314 66.8983 90.4685 66.746L89.7268 66.6024C88.9137 66.4385 88.1139 66.2145 87.334 65.9321L86.4248 65.6208C85.9438 65.438 85.4726 65.2302 85.0131 64.9984L84.1039 64.5196H83.9364L83.7211 64.3759C83.0203 63.9623 82.3559 63.4897 81.7351 62.9634C81.2133 62.5047 80.7255 62.0086 80.2755 61.4791C79.807 60.9198 79.3905 60.3188 79.0313 59.6836L78.6724 59.0133C78.4284 58.4906 78.2127 57.9552 78.0264 57.4093C77.5208 55.8647 77.2781 54.2462 77.3086 52.6212C77.3086 52.3099 77.3086 51.9748 77.3086 51.6635C77.2969 51.6002 77.2969 51.5353 77.3086 51.472C77.3312 51.1732 77.3792 50.8769 77.4521 50.5862C77.4389 50.4829 77.4389 50.3783 77.4521 50.275L77.5957 49.7722V49.5328C77.729 49.1772 77.9058 48.8395 78.1221 48.5273C78.2352 48.265 78.3631 48.0092 78.5049 47.7612C78.5356 47.6847 78.5758 47.6123 78.6246 47.5458C78.7652 47.3074 78.9169 47.0757 79.0792 46.8515C79.8072 45.9124 80.8115 45.2257 81.9504 44.8884C82.1191 44.8184 82.296 44.7701 82.4768 44.7447C82.6041 44.7313 82.7324 44.7313 82.8597 44.7447H83.5536C85.1573 44.7478 86.744 45.0735 88.2194 45.7024C85.8266 41.5846 81.3523 32.966 81.3523 23.725C81.3152 23.0312 81.3152 22.336 81.3523 21.6422C81.3523 21.331 81.3523 21.0197 81.4719 20.7085C81.6023 19.8948 81.8024 19.0938 82.0701 18.3145C82.1888 17.9614 82.3328 17.6174 82.5008 17.285C82.5647 17.091 82.6531 16.9059 82.764 16.7344C82.9315 16.3761 83.1403 16.0387 83.3861 15.7289L83.7928 15.1304C84.0391 14.7838 84.3197 14.463 84.6303 14.1728C84.7297 14.0494 84.842 13.9371 84.9653 13.8376L85.3002 13.5503C85.5974 13.2901 85.9178 13.0577 86.2573 12.856C86.3121 12.8407 86.37 12.8407 86.4248 12.856C86.5816 12.7426 86.75 12.6462 86.9273 12.5687L87.2623 12.4012C87.5263 12.2549 87.8077 12.1423 88.0997 12.066C88.4033 12.8556 88.8053 13.6036 89.2961 14.2925C89.373 14.3503 89.445 14.4143 89.5114 14.484C89.7256 14.7826 90.0263 15.0082 90.3728 15.1304C91.2494 15.4342 92.1729 15.5801 93.1005 15.5613C94.4784 15.5554 95.8425 15.2873 97.1202 14.7713L97.9098 14.4122C98.5235 14.1068 99.1082 13.7462 99.6565 13.3348L100.326 13.7179C100.732 13.9508 101.123 14.2065 101.499 14.484C101.738 14.6301 101.962 14.7985 102.169 14.9867L103.078 15.7528C103.461 16.1119 103.82 16.471 104.179 16.8541C104.721 17.4417 105.232 18.057 105.71 18.6975C106.045 19.1524 106.38 19.6312 106.691 20.1339C107.002 20.6367 107.409 21.2591 107.72 21.8577C107.444 23.439 107.3 25.0405 107.289 26.6457C107.253 35.5619 108.527 44.4349 111.07 52.9803Z" fill="#FFA317"/>
<path d="M150.932 56.4277C150.932 64.6393 135.045 67.6558 131.097 67.6558C123.129 67.6558 118.248 61.1679 115.353 53.0281C114.85 51.6396 114.42 50.2032 114.037 48.7428C113.357 46.1154 112.814 43.4544 112.41 40.7706C112.027 38.209 111.788 35.7192 111.644 33.4209C111.644 33.4209 111.644 33.3012 111.644 33.2294C111.501 30.8353 111.453 28.6567 111.477 26.8133C111.477 26.2627 111.477 25.736 111.477 25.2093C111.552 23.9336 111.745 22.6674 112.051 21.4267C113.869 14.077 119.66 12.3533 128.082 12.3533C136.504 12.3533 144.592 14.0052 144.592 19.5354C144.592 25.7121 139.208 25.9275 135.188 26.7176V27.1246H136.648C145.094 27.1246 150.095 31.1226 150.047 38.2329C150.047 42.5662 147.272 46.4445 140.476 48.4316V49.3652C141.387 49.1592 142.318 49.0548 143.252 49.054C144.262 48.9388 145.284 49.0477 146.247 49.3729C147.21 49.6982 148.09 50.2318 148.823 50.9359C149.556 51.6399 150.126 52.497 150.49 53.4463C150.855 54.3955 151.006 55.4134 150.932 56.4277Z" fill="#FFA317"/>
<path d="M103.82 8.73827C103.46 9.29491 103.069 9.83045 102.647 10.3423C102.231 10.8931 101.775 11.4132 101.284 11.8984C100.787 12.427 100.243 12.9079 99.6565 13.3348C99.1072 13.738 98.5226 14.0905 97.9098 14.3882L97.1202 14.7473C95.8425 15.2634 94.4784 15.5315 93.1005 15.5374C92.1729 15.5562 91.2494 15.4103 90.3728 15.1064C90.0263 14.9843 89.7256 14.7586 89.5114 14.46C89.445 14.3904 89.373 14.3263 89.2961 14.2685C88.8053 13.5797 88.4033 12.8316 88.0997 12.0421C87.9343 11.6867 87.7983 11.3184 87.693 10.9408C87.693 10.6296 87.5255 10.2944 87.4537 9.98317C87.4306 9.79234 87.4306 9.59943 87.4537 9.4086C87.4537 9.12132 87.4537 8.85797 87.4537 8.61857C87.4537 8.37916 87.4537 8.13976 87.4537 7.9243C87.3956 7.1673 87.3956 6.40695 87.4537 5.64995C87.4295 5.51537 87.4295 5.37754 87.4537 5.24296C87.5076 5.06697 87.5972 4.90398 87.7169 4.76415C87.8201 4.62724 87.9504 4.51313 88.0997 4.42898C88.2321 4.31718 88.3873 4.2355 88.5543 4.18958C88.7277 4.15126 88.9074 4.15126 89.0807 4.18958H89.3439C89.5773 4.21897 89.8025 4.2946 90.0064 4.41205C90.2103 4.5295 90.3887 4.68642 90.5312 4.87365C90.6738 5.06087 90.7777 5.27464 90.8367 5.50247C90.8958 5.7303 90.9089 5.96763 90.8753 6.20058C90.8753 6.20058 90.8753 6.70333 90.8753 7.37366C90.8753 8.04399 90.8753 8.18764 90.9949 8.66645C91.0645 8.60002 91.1285 8.52796 91.1863 8.45098C91.425 8.23111 91.681 8.03096 91.952 7.85247C92.1175 7.67479 92.2933 7.50693 92.4784 7.34972H92.6219L93.3637 6.99061C93.7413 6.81945 94.1337 6.68323 94.5361 6.58363C95.0854 6.41938 95.6449 6.29142 96.211 6.20058C96.8092 6.20058 97.4313 6.033 98.0295 5.98512C98.6277 5.93724 99.0105 5.98512 99.4651 5.98512H100.949H101.619H102.312H102.456C102.756 6.02384 103.041 6.13879 103.284 6.31899C103.527 6.4992 103.72 6.73867 103.844 7.01456C103.987 7.28014 104.06 7.57787 104.055 7.87952C104.051 8.18118 103.97 8.47677 103.82 8.73827Z" fill="#67C891"/>
</g>
<defs>
<clipPath id="clip0_6116_28502">
<rect width="155" height="74" fill="white"/>
</clipPath>
</defs>
</svg>
