<svg width="300" height="107" viewBox="0 0 300 107" fill="none" xmlns="http://www.w3.org/2000/svg">
<g clip-path="url(#clip0_6427_28923)">
<path d="M222.985 47.9767C222.579 47.5493 222.13 47.1642 221.645 46.8276C223.841 44.4132 225.083 41.2814 225.139 38.0175C225.216 36.0885 224.905 34.1636 224.222 32.3578C223.54 30.5521 222.501 28.9025 221.167 27.5076C220.28 26.5715 219.265 25.7655 218.152 25.1136C219.219 23.3566 219.751 21.3267 219.683 19.2721C219.683 15.0825 217.003 8.09189 199.106 8.09189C191.928 8.09189 184.008 9.26497 180.395 16.7344C179.37 15.2715 178.191 13.923 176.878 12.7124C177.37 12.1186 177.826 11.495 178.241 10.845C178.783 10.0193 179.103 9.06774 179.17 8.08225C179.237 7.09677 179.049 6.11063 178.624 5.21903C178.204 4.32207 177.565 3.5451 176.767 2.95947C175.968 2.37384 175.036 1.9983 174.054 1.86736C172.924 1.76873 171.79 1.72877 170.657 1.74766C168.68 1.73152 166.709 1.97295 164.794 2.46587C164.332 1.81555 163.741 1.2674 163.057 0.855536C162.374 0.443673 161.613 0.176904 160.822 0.0718251C160.552 0.0487206 160.28 0.0487206 160.009 0.0718251C158.596 0.0796243 157.233 0.593395 156.167 1.52006C155.1 2.44672 154.401 3.72498 154.195 5.12327C153.983 6.71227 153.983 8.32235 154.195 9.91136C151.094 12.2809 149.042 15.7689 148.476 19.6312V19.3918C148.476 15.2022 145.796 8.21159 127.923 8.21159C121.319 8.21159 113.997 9.21709 110.097 15.3937C107.401 12.829 104.219 10.8316 100.737 9.51981C97.2564 8.20801 93.5475 7.60847 89.8307 7.75671C87.3971 7.66397 84.9695 8.05805 82.6901 8.91586C80.4107 9.77367 78.3252 11.078 76.556 12.7524C74.7867 14.4267 73.3692 16.4376 72.3864 18.667C71.4036 20.8965 70.8753 23.2997 70.8325 25.736C70.6711 29.1804 71.737 32.5702 73.8403 35.3017C75.9436 38.0331 78.9477 39.9288 82.3175 40.6509C79.9485 42.4666 78.01 44.7839 76.6408 47.4368C75.2716 50.0898 74.5056 53.0129 74.3976 55.9968C74.3976 67.5361 83.3464 74.1436 98.9948 74.1436C107.967 74.1436 114.356 70.6723 116.82 64.7829C117.299 65.3575 117.801 65.9081 118.304 66.4348C119.921 68.1551 121.876 69.5233 124.046 70.4542C126.215 71.3851 128.553 71.8587 130.914 71.8454C137.536 71.535 143.962 69.4964 149.553 65.9321C154.13 69.6993 159.953 71.6128 165.871 71.2947C169.836 71.2567 173.703 70.0544 176.991 67.837C180.279 65.6196 182.844 62.4848 184.367 58.8217C185.644 61.5891 187.366 64.1285 189.463 66.3391C191.086 68.0589 193.045 69.4266 195.218 70.3573C197.392 71.288 199.733 71.7619 202.097 71.7496C205.782 71.7496 225.88 68.9246 226.024 56.4756C226.125 54.9263 225.908 53.3727 225.385 51.9108C224.863 50.449 224.046 49.11 222.985 47.9767V47.9767ZM148.644 19.6073C148.635 20.4621 148.53 21.3133 148.333 22.1449C148.373 21.2925 148.477 20.4442 148.644 19.6073V19.6073ZM148.333 22.1928C148.333 22.6238 148.333 23.0786 148.333 23.5335C148.333 23.9884 148.333 25.1854 148.333 25.9275C147.925 25.6262 147.501 25.3466 147.064 25.0896C147.645 24.201 148.073 23.2221 148.333 22.1928V22.1928ZM99.1623 69.9301C90.381 69.9301 78.6328 67.5361 78.6328 55.8531C78.6328 46.6839 87.6294 41.6325 92.989 37.6823V36.9641C91.5671 37.1254 90.1371 37.2053 88.7061 37.2035C81.7672 37.2035 74.9719 34.3546 74.9719 25.5924C75.0078 23.6882 75.4262 21.8107 76.2023 20.0717C76.9784 18.3327 78.0963 16.7677 79.4894 15.4699C80.8824 14.1721 82.5223 13.168 84.3112 12.5174C86.1001 11.8668 88.0016 11.5831 89.9024 11.683C97.9898 11.683 104.259 14.4361 108.326 19.1763C107.615 21.5942 107.253 24.1014 107.25 26.6218C107.25 32.603 107.786 38.5722 108.853 44.4575C106.314 47.0318 103.288 49.0745 99.9518 50.4665V50.7777C101.16 50.4169 102.403 50.1842 103.661 50.0835C106.072 49.9614 108.471 50.4994 110.599 51.6396C111.45 54.5468 112.588 57.3619 113.997 60.0427C113.231 66.6742 107.393 69.9301 99.1623 69.9301ZM140.891 48.1682C142.161 48.1718 143.425 48.349 144.648 48.6949C144.278 49.9706 144.092 51.2928 144.097 52.6212C144.038 56.1937 145.065 59.7 147.04 62.6762C142.214 65.627 136.729 67.33 131.081 67.6318C125.243 67.6318 121.08 64.1605 118.136 59.109C116.373 56.0133 115.029 52.6963 114.141 49.2456C113.806 47.9767 113.495 46.7079 113.231 45.4151C112.968 44.1223 112.849 43.5477 112.681 42.614C112.49 41.3691 112.298 40.22 112.155 38.9033C111.625 34.8716 111.377 30.8078 111.413 26.7415C111.375 25.9919 111.375 25.2408 111.413 24.4911C111.499 23.3094 111.699 22.1388 112.011 20.9958C112.23 20.1747 112.518 19.3738 112.872 18.6018C115.385 13.5264 120.697 12.2336 127.971 12.2336C136.01 12.2336 144.456 13.8855 144.456 19.4157C144.456 25.5924 139.097 25.8078 135.077 26.5979V27.0049H136.536C144.959 27.0049 149.983 31.0029 149.912 38.1132C149.912 42.4465 145.126 45.7024 138.283 47.6894V48.6231C139.131 48.3673 140.007 48.2145 140.891 48.1682V48.1682ZM182.07 52.9563C181.387 55.5009 180.314 57.9239 178.887 60.1385C178.532 60.7115 178.132 61.2558 177.691 61.7664C177.276 62.2738 176.828 62.7536 176.351 63.2029L175.609 63.8732L174.987 64.352L174.006 65.0463C173.658 65.2649 173.299 65.4647 172.93 65.6448C172.589 65.8428 172.228 66.0033 171.853 66.1236C171.438 66.3222 171.005 66.4825 170.561 66.6024L169.987 66.77L168.671 67.0333H167.905C167.268 67.0824 166.628 67.0824 165.991 67.0333C165.345 67.0333 164.723 67.0333 164.077 67.0333C163.202 66.9783 162.331 66.8744 161.469 66.7221L160.727 66.5785C159.914 66.4146 159.114 66.1905 158.334 65.9081L157.425 65.5969C156.944 65.414 156.473 65.2063 156.013 64.9744C155.698 64.8388 155.394 64.6787 155.104 64.4956H154.936L154.721 64.352C154.02 63.9383 153.356 63.4658 152.735 62.9395C152.213 62.4807 151.726 61.9846 151.276 61.4552C150.807 60.8959 150.391 60.2949 150.031 59.6597L149.672 58.9893C149.408 58.4758 149.192 57.9388 149.026 57.3853C148.521 55.8408 148.278 54.2222 148.309 52.5972C148.309 52.286 148.309 51.9508 148.309 51.6396C148.297 51.5763 148.297 51.5114 148.309 51.4481C148.331 51.1493 148.379 50.8529 148.452 50.5623C148.439 50.459 148.439 50.3544 148.452 50.2511L148.596 49.7483V49.5089C148.731 49.1616 148.908 48.832 149.122 48.5273C149.225 48.2606 149.354 48.0041 149.505 47.7612C149.536 47.6847 149.576 47.6123 149.625 47.5458C149.765 47.3074 149.917 47.0757 150.079 46.8515C150.807 45.9124 151.812 45.2257 152.95 44.8884C153.119 44.8184 153.296 44.7701 153.477 44.7448C153.604 44.7313 153.732 44.7313 153.86 44.7448H154.554C156.157 44.7478 157.744 45.0735 159.219 45.7024C156.827 41.5846 152.352 32.966 152.352 23.725C152.315 23.0312 152.315 22.336 152.352 21.6422C152.352 21.331 152.352 21.0197 152.472 20.7085C152.602 19.8948 152.802 19.0938 153.07 18.3145C153.189 17.9614 153.333 17.6174 153.501 17.285C153.554 17.0869 153.643 16.9003 153.764 16.7344C153.931 16.3761 154.14 16.0387 154.386 15.7289L154.793 15.1304C155.039 14.7838 155.32 14.463 155.63 14.1728C155.73 14.0494 155.842 13.9371 155.965 13.8376L156.3 13.5503C156.597 13.2901 156.918 13.0577 157.257 12.856C157.312 12.8407 157.37 12.8407 157.425 12.856C157.582 12.7426 157.75 12.6463 157.927 12.5688L158.262 12.4012C158.526 12.2549 158.808 12.1423 159.1 12.066C158.933 11.7029 158.797 11.3265 158.693 10.9408C158.693 10.6296 158.525 10.2944 158.454 9.98318C158.431 9.79235 158.431 9.59944 158.454 9.40861C158.454 9.12133 158.454 8.85798 158.454 8.61857C158.454 8.37917 158.454 8.13977 158.454 7.92431C158.396 7.1673 158.396 6.40696 158.454 5.64996C158.43 5.51538 158.43 5.37755 158.454 5.24297C158.508 5.06698 158.597 4.90399 158.717 4.76416C158.82 4.62725 158.95 4.51314 159.1 4.42899C159.232 4.31719 159.387 4.23551 159.554 4.18959C159.728 4.15127 159.907 4.15127 160.081 4.18959H160.344C160.577 4.21898 160.803 4.29461 161.006 4.41206C161.21 4.52951 161.389 4.68643 161.531 4.87366C161.674 5.06088 161.778 5.27465 161.837 5.50248C161.896 5.73031 161.909 5.96764 161.875 6.20059C161.875 6.20059 161.875 6.70333 161.875 7.37367C161.875 8.044 161.875 8.18765 161.995 8.66646C162.065 8.60003 162.129 8.52796 162.186 8.45099C162.425 8.23112 162.681 8.03096 162.952 7.85248C163.118 7.6748 163.293 7.50693 163.478 7.34973H163.622L164.364 6.99062C164.741 6.81946 165.134 6.68324 165.536 6.58364C166.083 6.41061 166.643 6.28251 167.211 6.20059C167.811 6.08443 168.419 6.01242 169.029 5.98512C169.532 5.98512 170.011 5.98512 170.465 5.98512H171.949H172.619H173.312H173.456C173.756 6.02385 174.041 6.13879 174.284 6.319C174.527 6.49921 174.72 6.73868 174.844 7.01457C174.99 7.27812 175.067 7.57477 175.067 7.87642C175.067 8.17808 174.99 8.47473 174.844 8.73828C174.484 9.29492 174.092 9.83046 173.671 10.3423C173.255 10.8931 172.799 11.4132 172.308 11.8984C171.804 12.4282 171.251 12.9091 170.657 13.3348L171.326 13.7179C171.732 13.9508 172.123 14.2066 172.499 14.484C172.738 14.6301 172.962 14.7985 173.169 14.9867L174.078 15.7528C174.461 16.1119 174.82 16.471 175.179 16.8541C175.721 17.4417 176.232 18.057 176.71 18.6975C177.045 19.1524 177.38 19.6312 177.691 20.1339C178.002 20.6367 178.409 21.2591 178.72 21.8577C178.444 23.439 178.3 25.0405 178.289 26.6458C178.222 35.5571 179.463 44.4301 181.974 52.9803L182.07 52.9563ZM202.097 67.584C194.129 67.584 189.248 61.0961 186.353 52.9563C185.85 51.5678 185.42 50.1314 185.037 48.671C184.357 46.0435 183.814 43.3826 183.41 40.6988V40.6988C183.027 38.1372 182.788 35.6474 182.644 33.3491C182.644 33.3491 182.644 33.2294 182.644 33.1576C182.5 30.7635 182.453 28.5849 182.477 26.7415C182.477 26.1909 182.477 25.6642 182.477 25.1375C182.552 23.8618 182.745 22.5956 183.051 21.3549C184.869 14.0052 190.66 12.2815 199.082 12.2815C207.504 12.2815 215.592 13.9334 215.592 19.4636C215.592 25.6403 210.208 25.8557 206.188 26.6458V27.0527H207.648C216.094 27.0527 221.095 31.0508 221.047 38.1611C221.047 42.4943 218.272 46.3727 211.476 48.3598V49.2934C212.387 49.0874 213.318 48.983 214.252 48.9822C215.286 48.8637 216.334 48.9804 217.316 49.3235C218.299 49.6666 219.192 50.2273 219.928 50.9638C220.664 51.7002 221.224 52.5935 221.567 53.5769C221.91 54.5602 222.027 55.6084 221.908 56.6432C221.861 64.6153 206.045 67.6318 202.097 67.6318V67.584Z" fill="white"/>
<path d="M113.997 60.0906C113.255 66.6742 107.393 69.9301 99.1623 69.9301C90.381 69.9301 78.6328 67.5361 78.6328 55.8531C78.6328 46.6839 87.6294 41.6325 92.9891 37.6823V36.9641C91.5671 37.1254 90.1371 37.2053 88.7061 37.2035C81.7672 37.2035 74.9719 34.3546 74.9719 25.5924C75.0078 23.6882 75.4263 21.8107 76.2023 20.0717C76.9784 18.3327 78.0963 16.7677 79.4894 15.4699C80.8824 14.1721 82.5223 13.168 84.3112 12.5174C86.1002 11.8668 88.0016 11.5831 89.9025 11.683C97.9898 11.683 104.259 14.4361 108.326 19.1763C107.615 21.5942 107.253 24.1013 107.25 26.6218C107.25 32.603 107.786 38.5722 108.853 44.4575C106.314 47.0317 103.288 49.0745 99.9518 50.4665V50.7777C101.16 50.4169 102.403 50.1842 103.661 50.0835C106.072 49.9614 108.471 50.4994 110.599 51.6396C111.447 54.5632 112.585 57.3944 113.997 60.0906V60.0906Z" fill="#FFA317"/>
<path d="M138.403 47.4979V48.4316C139.188 48.2567 139.991 48.1684 140.795 48.1682C142.066 48.1718 143.33 48.349 144.552 48.6949C144.182 49.9706 143.996 51.2928 144.002 52.6212C143.943 56.1937 144.969 59.7 146.945 62.6762C142.118 65.627 136.634 67.33 130.985 67.6318C125.147 67.6318 120.984 64.1605 118.041 59.109C116.31 56.0084 114.999 52.6916 114.141 49.2455C113.806 47.9767 113.495 46.7079 113.231 45.4151C112.968 44.1223 112.849 43.5477 112.681 42.614C112.49 41.3691 112.298 40.22 112.155 38.9033C111.625 34.8716 111.377 30.8078 111.413 26.7415C111.375 25.9918 111.375 25.2408 111.413 24.4911C111.499 23.3094 111.699 22.1388 112.011 20.9958C112.23 20.1747 112.518 19.3738 112.872 18.6017C115.385 13.5264 120.697 12.2336 127.97 12.2336C136.01 12.2336 144.456 13.8855 144.456 19.4157C144.456 25.5924 139.097 25.8078 135.077 26.5979V27.0048H136.536C144.959 27.0048 149.983 31.0029 149.912 38.1132C149.96 42.2549 145.198 45.5108 138.403 47.4979Z" fill="#FFA317"/>
<path d="M182.07 52.9803C181.387 55.5248 180.314 57.9478 178.887 60.1624C178.53 60.734 178.13 61.2782 177.691 61.7904C177.276 62.2977 176.828 62.7775 176.351 63.2268L175.609 63.8971L174.987 64.3759L174.006 65.0702C173.658 65.2889 173.299 65.4887 172.93 65.6687C172.589 65.8667 172.228 66.0273 171.853 66.1475C171.438 66.3461 171.005 66.5064 170.561 66.6263L169.987 66.7939L168.671 67.0573H167.905C167.268 67.1063 166.628 67.1063 165.991 67.0573C165.345 67.0573 164.723 67.0573 164.077 67.0573C163.202 67.0022 162.331 66.8983 161.469 66.746L160.727 66.6024C159.914 66.4385 159.114 66.2145 158.334 65.9321L157.425 65.6208C156.944 65.438 156.473 65.2302 156.013 64.9984L155.104 64.5196H154.936L154.721 64.3759C154.02 63.9623 153.356 63.4897 152.735 62.9634C152.213 62.5047 151.726 62.0086 151.276 61.4791C150.807 60.9198 150.39 60.3188 150.031 59.6836L149.672 59.0133C149.428 58.4906 149.213 57.9552 149.026 57.4093C148.521 55.8647 148.278 54.2462 148.309 52.6212C148.309 52.3099 148.309 51.9748 148.309 51.6635C148.297 51.6002 148.297 51.5353 148.309 51.472C148.331 51.1732 148.379 50.8769 148.452 50.5862C148.439 50.4829 148.439 50.3783 148.452 50.275L148.596 49.7722V49.5328C148.729 49.1772 148.906 48.8395 149.122 48.5273C149.235 48.265 149.363 48.0092 149.505 47.7612C149.536 47.6847 149.576 47.6123 149.625 47.5458C149.765 47.3074 149.917 47.0757 150.079 46.8515C150.807 45.9124 151.811 45.2257 152.95 44.8884C153.119 44.8184 153.296 44.7701 153.477 44.7447C153.604 44.7313 153.732 44.7313 153.86 44.7447H154.554C156.157 44.7478 157.744 45.0735 159.219 45.7024C156.827 41.5846 152.352 32.966 152.352 23.725C152.315 23.0312 152.315 22.336 152.352 21.6422C152.352 21.331 152.352 21.0197 152.472 20.7085C152.602 19.8948 152.802 19.0938 153.07 18.3145C153.189 17.9614 153.333 17.6174 153.501 17.285C153.565 17.091 153.653 16.9059 153.764 16.7344C153.931 16.3761 154.14 16.0387 154.386 15.7289L154.793 15.1304C155.039 14.7838 155.32 14.463 155.63 14.1728C155.73 14.0494 155.842 13.9371 155.965 13.8376L156.3 13.5503C156.597 13.2901 156.918 13.0577 157.257 12.856C157.312 12.8407 157.37 12.8407 157.425 12.856C157.582 12.7426 157.75 12.6462 157.927 12.5687L158.262 12.4012C158.526 12.2549 158.808 12.1423 159.1 12.066C159.403 12.8556 159.805 13.6036 160.296 14.2925C160.373 14.3503 160.445 14.4143 160.511 14.484C160.726 14.7826 161.026 15.0082 161.373 15.1304C162.249 15.4342 163.173 15.5801 164.1 15.5613C165.478 15.5554 166.843 15.2873 168.12 14.7713L168.91 14.4122C169.524 14.1068 170.108 13.7462 170.657 13.3348L171.326 13.7179C171.732 13.9508 172.123 14.2065 172.499 14.484C172.738 14.6301 172.962 14.7985 173.169 14.9867L174.078 15.7528C174.461 16.1119 174.82 16.471 175.179 16.8541C175.721 17.4417 176.232 18.057 176.71 18.6975C177.045 19.1524 177.38 19.6312 177.691 20.1339C178.002 20.6367 178.409 21.2591 178.72 21.8577C178.444 23.439 178.3 25.0405 178.289 26.6457C178.253 35.5619 179.527 44.4349 182.07 52.9803V52.9803Z" fill="#FFA317"/>
<path d="M221.932 56.4277C221.932 64.6393 206.045 67.6558 202.097 67.6558C194.129 67.6558 189.248 61.1679 186.353 53.0281C185.85 51.6396 185.42 50.2032 185.037 48.7428C184.357 46.1154 183.814 43.4544 183.41 40.7706V40.7706C183.027 38.209 182.788 35.7192 182.644 33.4209C182.644 33.4209 182.644 33.3012 182.644 33.2294C182.501 30.8353 182.453 28.6567 182.477 26.8133C182.477 26.2627 182.477 25.736 182.477 25.2093C182.552 23.9336 182.745 22.6674 183.051 21.4267C184.869 14.077 190.66 12.3533 199.082 12.3533C207.504 12.3533 215.592 14.0052 215.592 19.5354C215.592 25.7121 210.208 25.9275 206.188 26.7176V27.1246H207.648C216.094 27.1246 221.095 31.1226 221.047 38.2329C221.047 42.5662 218.272 46.4445 211.476 48.4316V49.3653C212.387 49.1592 213.318 49.0548 214.252 49.054C215.262 48.9388 216.284 49.0477 217.247 49.3729C218.21 49.6982 219.09 50.2318 219.823 50.9359C220.556 51.6399 221.126 52.497 221.49 53.4463C221.855 54.3955 222.006 55.4134 221.932 56.4277V56.4277Z" fill="#FFA317"/>
<path d="M174.82 8.73827C174.46 9.29491 174.069 9.83045 173.647 10.3423C173.231 10.8931 172.775 11.4132 172.284 11.8984V11.8984C171.787 12.427 171.243 12.9079 170.657 13.3348C170.107 13.738 169.523 14.0905 168.91 14.3882L168.12 14.7473C166.843 15.2634 165.478 15.5315 164.1 15.5374C163.173 15.5562 162.249 15.4103 161.373 15.1064C161.026 14.9843 160.726 14.7586 160.511 14.46C160.445 14.3904 160.373 14.3263 160.296 14.2685C159.805 13.5797 159.403 12.8316 159.1 12.0421C158.934 11.6867 158.798 11.3184 158.693 10.9408C158.693 10.6296 158.525 10.2944 158.454 9.98317C158.431 9.79234 158.431 9.59943 158.454 9.4086C158.454 9.12132 158.454 8.85797 158.454 8.61856C158.454 8.37916 158.454 8.13976 158.454 7.9243C158.396 7.1673 158.396 6.40695 158.454 5.64995C158.429 5.51537 158.429 5.37754 158.454 5.24296C158.508 5.06697 158.597 4.90398 158.717 4.76415C158.82 4.62724 158.95 4.51313 159.1 4.42898C159.232 4.31718 159.387 4.2355 159.554 4.18958C159.728 4.15126 159.907 4.15126 160.081 4.18958H160.344C160.577 4.21897 160.803 4.2946 161.006 4.41205C161.21 4.5295 161.389 4.68642 161.531 4.87365C161.674 5.06087 161.778 5.27464 161.837 5.50247C161.896 5.7303 161.909 5.96763 161.875 6.20058C161.875 6.20058 161.875 6.70333 161.875 7.37366C161.875 8.04399 161.875 8.18764 161.995 8.66645C162.065 8.60002 162.129 8.52796 162.186 8.45098C162.425 8.23111 162.681 8.03096 162.952 7.85247C163.118 7.67479 163.293 7.50693 163.478 7.34972H163.622L164.364 6.99061C164.741 6.81945 165.134 6.68323 165.536 6.58363C166.085 6.41938 166.645 6.29142 167.211 6.20058C167.809 6.20058 168.431 6.033 169.029 5.98512C169.628 5.93724 170.01 5.98512 170.465 5.98512H171.949H172.619H173.312H173.456C173.756 6.02384 174.041 6.13879 174.284 6.31899C174.527 6.4992 174.72 6.73867 174.844 7.01456C174.987 7.28014 175.06 7.57787 175.055 7.87952C175.051 8.18118 174.97 8.47677 174.82 8.73827Z" fill="#67C891"/>
</g>
<path d="M84.2859 101H92.1141V99.75H85.9734L92.0516 90.7031V89.6875H84.2234V90.9375H90.3641L84.2859 99.9844V101ZM96.9672 101.172C98.7172 101.18 99.975 100.305 100.373 99.0156H98.9359C98.6234 99.5391 97.9828 99.9844 96.9672 99.9844C95.4594 99.9844 94.4125 99 94.3422 97.2031H100.498V96.6406C100.506 93.5 98.6234 92.4062 96.8422 92.4062C94.5375 92.4062 92.9984 94.2188 92.9984 96.8281C92.9984 99.4297 94.5141 101.18 96.9672 101.172ZM94.35 96.0625C94.4437 94.75 95.3734 93.5938 96.8422 93.5938C98.2406 93.5938 99.1312 94.6484 99.1391 96.0625H94.35ZM101.648 101H102.992V95.6562C102.992 94.5156 103.898 93.6719 105.117 93.6719C105.469 93.6719 105.828 93.7422 105.93 93.7656V92.4062C105.773 92.3906 105.43 92.3828 105.227 92.375C104.227 92.3828 103.344 92.9531 103.039 93.8125H102.945V92.5156H101.648V101ZM109.83 101.172C112.134 101.18 113.681 99.4297 113.673 96.7969C113.681 94.1484 112.134 92.4062 109.83 92.4062C107.517 92.4062 105.955 94.1484 105.955 96.7969C105.955 99.4297 107.517 101.18 109.83 101.172ZM107.298 96.7969C107.306 95.1094 108.103 93.5938 109.83 93.5938C111.541 93.5938 112.33 95.1094 112.33 96.7969C112.33 98.4922 111.541 99.9844 109.83 99.9844C108.103 99.9844 107.306 98.4922 107.298 96.7969ZM120.161 101H121.505L123.333 94.5312H123.458L125.302 101H126.63L129.208 92.5156H127.802L125.989 98.9531H125.895L124.13 92.5156H122.692L120.895 98.9844H120.817L119.005 92.5156H117.583L120.161 101ZM129.686 98.5938C129.686 100.25 130.967 101.195 132.577 101.203C134.053 101.195 134.827 100.414 135.108 99.8438H135.17V101H136.498V95.4062C136.506 92.7344 134.42 92.4062 133.311 92.4062C131.436 92.4062 130.108 93.3516 129.936 94.7188H131.342C131.53 94.0703 132.178 93.5781 133.248 93.5781C134.53 93.5781 135.17 94.2031 135.17 95.2812V95.9688C134.788 95.9766 133.42 96.0547 132.873 96.0938C131.405 96.2031 129.686 96.6484 129.686 98.5938ZM131.03 98.6562C131.038 97.7266 131.811 97.2969 133.03 97.2188C133.436 97.1953 134.772 97.0938 135.17 97.0703V97.9219C135.17 98.9922 134.327 100.008 132.811 100C131.78 100.008 131.038 99.5547 131.03 98.6562ZM142.773 94.7188H144.086C143.914 93.3438 142.812 92.4062 141.055 92.4062C139.188 92.4062 137.914 93.4531 137.914 94.9062C137.914 96.0391 138.703 96.8438 140.18 97.1875L141.461 97.4844C142.422 97.7109 142.852 98.1016 142.852 98.7031C142.852 99.5 142.094 100.008 140.883 100C139.812 100.008 139.211 99.6094 139.055 98.7812H137.648C137.875 100.328 139.008 101.18 140.914 101.172C143.039 101.18 144.234 100.094 144.242 98.625C144.234 97.4453 143.492 96.6875 141.977 96.3281L140.711 96.0156C139.719 95.7734 139.266 95.3906 139.258 94.8281C139.266 94.1172 140.008 93.5547 141.055 93.5469C142.047 93.5547 142.586 94.0156 142.773 94.7188ZM149.095 92.5156H147.314V90.4844H145.955V92.5156H144.673V93.6406H145.955V98.9062C145.962 100.406 147.15 101.109 148.283 101.109C148.681 101.109 149.009 101.078 149.22 101.047V99.7969C149.025 99.8047 148.666 99.8281 148.423 99.8281C147.853 99.8281 147.306 99.6484 147.314 98.5625V93.6406H149.095V92.5156ZM153.698 101.172C155.448 101.18 156.706 100.305 157.105 99.0156H155.667C155.355 99.5391 154.714 99.9844 153.698 99.9844C152.191 99.9844 151.144 99 151.073 97.2031H157.23V96.6406C157.237 93.5 155.355 92.4062 153.573 92.4062C151.269 92.4062 149.73 94.2188 149.73 96.8281C149.73 99.4297 151.245 101.18 153.698 101.172ZM151.081 96.0625C151.175 94.75 152.105 93.5938 153.573 93.5938C154.972 93.5938 155.862 94.6484 155.87 96.0625H151.081ZM166.295 89.6875V97.7656C166.295 99.1641 165.631 99.9062 164.467 99.9062C163.405 99.9062 162.631 99.2891 162.623 98.3281H161.233C161.233 100.086 162.592 101.156 164.467 101.156C166.444 101.156 167.709 99.9375 167.717 97.7656V89.6875H166.295ZM173.008 101.172C174.758 101.18 176.016 100.305 176.414 99.0156H174.977C174.664 99.5391 174.023 99.9844 173.008 99.9844C171.5 99.9844 170.453 99 170.383 97.2031H176.539V96.6406C176.547 93.5 174.664 92.4062 172.883 92.4062C170.578 92.4062 169.039 94.2188 169.039 96.8281C169.039 99.4297 170.555 101.18 173.008 101.172ZM170.391 96.0625C170.484 94.75 171.414 93.5938 172.883 93.5938C174.281 93.5938 175.172 94.6484 175.18 96.0625H170.391ZM177.689 92.5156V101.609C177.681 102.461 177.33 102.945 176.548 102.938C176.455 102.945 176.377 102.945 176.283 102.938V104.188C176.392 104.18 176.478 104.18 176.564 104.188C178.212 104.18 179.033 103.195 179.033 101.609V92.5156H177.689ZM177.408 90.2188C177.4 90.7109 177.83 91.1094 178.345 91.1094C178.861 91.1094 179.291 90.7109 179.298 90.2188C179.291 89.7188 178.861 89.3203 178.345 89.3281C177.83 89.3203 177.4 89.7188 177.408 90.2188ZM185.933 97.5156C185.925 99.1016 184.722 99.8203 183.761 99.8125C182.675 99.8203 181.917 99.0312 181.917 97.8125V92.5156H180.573V97.9062C180.566 100.062 181.714 101.109 183.323 101.109C184.597 101.109 185.441 100.422 185.839 99.5625H185.933V101H187.261V92.5156H185.933V97.5156ZM191.78 90.9375H195.342V101H196.764V90.9375H200.311V89.6875H191.78V90.9375ZM200.523 101H201.867V95.6562C201.867 94.5156 202.773 93.6719 203.992 93.6719C204.344 93.6719 204.703 93.7422 204.805 93.7656V92.4062C204.648 92.3906 204.305 92.3828 204.102 92.375C203.102 92.3828 202.219 92.9531 201.914 93.8125H201.82V92.5156H200.523V101ZM205.517 101H206.861V92.5156H205.517V101ZM205.252 90.2188C205.244 90.7109 205.673 91.1094 206.189 91.1094C206.705 91.1094 207.134 90.7109 207.142 90.2188C207.134 89.7188 206.705 89.3203 206.189 89.3281C205.673 89.3203 205.244 89.7188 205.252 90.2188ZM208.402 104.188H209.745V99.7031H209.855C210.144 100.172 210.706 101.18 212.323 101.172C214.441 101.18 215.917 99.4766 215.917 96.7812C215.917 94.0938 214.441 92.4062 212.308 92.4062C210.659 92.4062 210.144 93.4062 209.855 93.8594H209.698V92.5156H208.402V104.188ZM209.714 96.75C209.722 94.8672 210.55 93.6094 212.136 93.6094C213.769 93.6094 214.573 94.9766 214.573 96.75C214.573 98.5547 213.745 99.9688 212.136 99.9688C210.573 99.9688 209.722 98.6562 209.714 96.75Z" fill="#A7A7A7"/>
<defs>
<clipPath id="clip0_6427_28923">
<rect width="155" height="74" fill="white" transform="translate(71)"/>
</clipPath>
</defs>
</svg>
