<svg width="55" height="53" viewBox="0 0 55 53" fill="none" xmlns="http://www.w3.org/2000/svg">
<g clip-path="url(#clip0_5374_6931)" filter="url(#filter0_d_5374_6931)">
<path d="M30.4642 3.87107C30.4659 3.84968 30.4671 3.82826 30.4678 3.80681C30.5223 3.61221 30.5339 3.40697 30.5006 3.20606C30.4587 2.95302 30.3456 2.70908 30.1639 2.51009C29.9813 2.31017 29.7383 2.16612 29.4628 2.10756C29.2147 2.05481 28.9611 2.07589 28.7301 2.16187C28.7257 2.16324 28.7212 2.16463 28.7168 2.16602L28.6855 2.16666L28.5949 2.16852L28.5261 2.16993L28.4582 2.18075C28.2493 2.21401 28.0559 2.29569 27.8901 2.41361L27.5603 2.6247C27.4218 2.68951 27.288 2.75657 27.1603 2.82219L27.1603 2.82215L27.1519 2.82655C26.9366 2.93979 26.7601 3.10551 26.6331 3.30066C26.5392 3.44491 26.4732 3.60389 26.4364 3.76912C26.3939 3.89661 26.3706 4.02972 26.367 4.16386C26.3586 4.38102 26.3519 4.59873 26.3461 4.8153C26.3008 4.83143 26.2551 4.84504 26.2091 4.85612L26.1644 4.8669L26.1209 4.88174L24.9547 5.27925C24.5967 5.31422 24.244 5.36207 23.9022 5.4134C23.609 5.42455 23.3163 5.45207 23.0255 5.49581C22.3528 5.58222 21.6861 5.71896 21.0303 5.90486L21.0303 5.90486L21.0264 5.90599C19.9712 6.20979 18.9487 6.63381 17.9766 7.16998L17.8993 7.2046L17.8979 7.20525C17.8086 7.24545 17.7257 7.29563 17.6505 7.35386C17.6125 7.37634 17.5767 7.39792 17.5453 7.41689C17.5393 7.42057 17.5333 7.42414 17.5276 7.4276C17.4651 7.46531 17.4157 7.49478 17.3658 7.52226L17.3376 7.53783L17.3104 7.55519C16.2317 8.24405 15.1107 8.84973 13.956 9.36781C11.5947 10.3513 9.07814 10.7766 6.57849 10.6185C6.04478 10.5828 5.64187 10.8959 5.44555 11.204C5.22267 11.5538 5.12002 12.1397 5.52406 12.6323C6.65284 14.0254 8.04432 15.1542 9.61491 15.9447L9.62476 15.9497L9.63472 15.9544C10.8065 16.5122 12.0664 16.8284 13.3493 16.8909C12.9615 17.4427 12.61 18.023 12.2977 18.6275C10.6456 21.1959 9.68485 24.2571 9.84291 27.46C10.0612 31.9264 12.4797 35.9457 15.651 38.5431L15.651 38.5431C22.4744 44.1314 32.8972 44.7113 40.6662 41.0146L40.6666 41.0144C44.4962 39.19 47.7625 36.0504 48.8888 31.456C49.962 27.0782 49.0831 21.6533 46.3428 18.1266C42.5829 13.2837 36.8514 10.72 31.0193 10.2195C30.9127 10.2045 30.7647 10.1841 30.605 10.1763C30.4274 10.1533 30.2493 10.1343 30.0709 10.1194C30.0712 10.101 30.071 10.0826 30.0705 10.0642C30.0689 10.008 30.0635 9.95183 30.0543 9.89604C30.1623 7.8892 30.2988 5.8825 30.4639 3.87594L30.4642 3.87107ZM6.44221 12.6139L6.44958 12.6143L6.44221 12.6138L6.44221 12.6139ZM25.7109 10.325C25.2892 10.3625 24.8686 10.4129 24.4496 10.476C25.0509 9.54619 25.5709 8.5596 26.0027 7.52897L26.3054 7.42829C26.3009 8.36352 26.3102 9.29832 26.3332 10.2327C26.1249 10.2609 25.9174 10.2918 25.7109 10.325Z" fill="white" stroke="white" stroke-width="2"/>
<path d="M45.5533 18.7402C40.9159 12.7759 33.0774 10.3973 25.8603 11.3289C20.7361 11.7861 15.8114 14.0057 13.1619 19.1478C11.5924 21.5713 10.6917 24.444 10.8391 27.4299C11.0412 31.5692 13.292 35.3397 16.282 37.7886C22.7644 43.0976 32.7633 43.6855 40.2339 40.1308C43.8654 38.4008 46.8773 35.4697 47.9149 31.237C48.9287 27.0935 48.0802 21.9925 45.5533 18.7402ZM44.8802 31.0514C44.8481 31.1514 44.8156 31.2539 44.7794 31.351C44.8154 31.2393 44.845 31.1413 44.8746 31.0433L44.8802 31.0514Z" fill="#FE8002"/>
<path d="M27.3859 24.9049C25.7467 24.6745 24.3823 26.0566 24.1614 27.7575C24.157 27.7885 24.1527 27.8195 24.1483 27.8505C24.0691 28.1267 24.0207 28.4115 24.0043 28.6987C23.9208 30.4018 25.1483 32.0509 26.8339 31.8548C30.0024 31.4901 30.7683 25.3973 27.3859 24.9049Z" fill="white"/>
<path d="M39.1175 26.2781C38.081 25.8259 37.2258 26.1728 36.6489 26.8701C36.1249 27.3536 35.7535 27.9995 35.5876 28.7156C35.3177 30.0739 35.8562 31.9156 37.1111 32.486C40.1476 33.8809 41.9339 27.5034 39.1175 26.2781Z" fill="white"/>
<path d="M27.4424 5.2947C27.1957 5.60302 26.7989 5.71022 26.4527 5.82698L25.1288 6.27823C25.113 6.27371 25.0966 6.27141 25.0801 6.27138C24.7206 6.30599 24.3613 6.35522 24.0035 6.40954C23.7259 6.41791 23.4486 6.44309 23.1729 6.48498C22.546 6.56496 21.9243 6.69217 21.3123 6.86566C20.3169 7.15223 19.3515 7.55407 18.4332 8.06404L18.3174 8.11588C18.2892 8.12861 18.2635 8.14735 18.2419 8.17095C18.1143 8.24302 17.9949 8.32111 17.8578 8.3967C16.7345 9.11405 15.5663 9.7449 14.3623 10.2844C11.8577 11.3298 9.18277 11.7837 6.52206 11.615C6.34761 11.6027 6.17064 11.8332 6.3078 11.9984C7.35022 13.2859 8.63194 14.3245 10.0737 15.0502C11.473 15.7162 13.0106 15.9983 14.5506 15.8716C17.6602 15.6372 20.5078 13.892 22.5635 11.3835C23.6836 9.98999 24.5912 8.41657 25.2515 6.72358L26.696 6.23334C27.1074 6.13146 27.4851 5.90499 27.7839 5.58108C27.983 5.35365 27.6333 5.06125 27.4424 5.2947Z" fill="#6EA333"/>
<path d="M29.7174 28.2994C29.748 27.8775 29.6579 27.4583 29.4593 27.098C29.2674 26.7551 28.9707 26.4954 28.6185 26.3619C28.5898 26.3579 28.5643 26.33 28.5365 26.3188C28.2909 26.2229 28.0249 26.1981 27.7648 26.2469C27.5048 26.2957 27.2597 26.4164 27.054 26.5969C26.8338 26.7405 26.6477 26.938 26.5114 27.1727C26.375 27.4075 26.2924 27.6727 26.2702 27.9463C26.2656 28.0274 26.2655 28.1086 26.2699 28.1895C26.2625 28.2871 26.2638 28.385 26.274 28.482C26.3061 28.7992 26.4136 29.1007 26.5863 29.3575C26.7591 29.6144 26.9912 29.8179 27.2606 29.9487C27.5421 30.0836 27.8542 30.1325 28.1632 30.0902C28.4721 30.0478 28.7661 29.9159 29.0134 29.7086C29.031 29.6935 29.0476 29.6772 29.0632 29.6596C29.0985 29.633 29.1361 29.6066 29.1696 29.5773C29.4299 29.3458 29.6121 29.0288 29.6869 28.677C29.7125 28.5528 29.7227 28.4258 29.7174 28.2994Z" fill="#141414"/>
<path d="M40.7176 29.2975C40.7476 28.8764 40.6575 28.4581 40.4592 28.0984C40.2681 27.7544 39.9714 27.4937 39.6187 27.36C39.5899 27.356 39.5664 27.3308 39.5364 27.3193C39.2908 27.2229 39.0247 27.1979 38.7646 27.2467C38.5045 27.2955 38.2594 27.4164 38.0538 27.5974C37.8338 27.7412 37.6478 27.9386 37.5115 28.1733C37.3752 28.4081 37.2924 28.6732 37.2701 28.9467C37.2658 29.0278 37.2657 29.109 37.2698 29.1899C37.2647 29.2868 37.2661 29.3837 37.2742 29.48C37.3069 29.7974 37.4146 30.0988 37.5872 30.3559C37.7598 30.613 37.9915 30.8172 38.2604 30.9492C38.5424 31.084 38.8548 31.1329 39.164 31.0907C39.4733 31.0484 39.7677 30.9166 40.0155 30.7094L40.0634 30.6577C40.1002 30.6324 40.1357 30.6049 40.1698 30.5754C40.4309 30.3446 40.6133 30.0273 40.6871 29.6751C40.7127 29.5509 40.7229 29.4239 40.7176 29.2975Z" fill="#141414"/>
<path d="M15.5505 19.7195C16.4684 18.2357 17.7604 17.1111 19.1619 16.1721C20.6063 15.2172 22.1917 14.3673 23.8889 14.185C24.1756 14.1547 24.1229 13.6779 23.8337 13.7102C22.0886 13.8955 20.4666 14.7646 18.9764 15.7398C17.4863 16.715 16.1543 17.8827 15.2034 19.425C15.0427 19.6846 15.3895 19.9815 15.5509 19.7171L15.5505 19.7195Z" fill="#FFAD56"/>
<path d="M14.1175 21.3327C13.9495 21.6773 13.8084 22.0358 13.6958 22.4045C13.6714 22.4634 13.6695 22.5297 13.6906 22.589C13.7117 22.6483 13.7541 22.6957 13.8084 22.7208C13.8627 22.7458 13.9244 22.7465 13.9801 22.7226C14.0358 22.6987 14.0808 22.6523 14.1052 22.5934C14.2177 22.2238 14.3588 21.8645 14.5273 21.5192C14.5393 21.4901 14.5458 21.4588 14.5466 21.4272C14.5473 21.3956 14.5423 21.3642 14.5317 21.3349C14.5211 21.3057 14.5053 21.279 14.485 21.2566C14.4647 21.2341 14.4404 21.2162 14.4135 21.204C14.3866 21.1918 14.3576 21.1853 14.3281 21.1852C14.2987 21.185 14.2694 21.1911 14.2419 21.203C14.2144 21.215 14.1893 21.2326 14.1679 21.2548C14.1466 21.2771 14.1295 21.3035 14.1175 21.3327Z" fill="#FFAD56"/>
<path d="M31.7424 11.314L31.1171 11.2626C31.0884 11.242 31.0554 11.2291 31.0208 11.2247C30.8524 11.2011 30.6841 11.1774 30.5131 11.1728C30.1093 11.1189 29.7027 11.0878 29.2951 11.0795C29.1985 11.0599 29.1009 11.0461 29.0027 11.0384L29.0405 10.2386C29.0425 10.2243 29.0449 10.2076 29.0469 10.1933C29.0594 10.1611 29.0654 10.1266 29.0644 10.092C29.0634 10.0574 29.0555 10.0237 29.0412 9.99298C29.1509 7.92619 29.2908 5.85958 29.4607 3.79315C29.4638 3.75372 29.4617 3.71414 29.4546 3.67553C29.4593 3.64214 29.464 3.60874 29.4842 3.57753C29.5111 3.51151 29.5192 3.43882 29.5076 3.36868C29.4959 3.29854 29.4651 3.23412 29.419 3.18359C29.3728 3.13306 29.3134 3.0987 29.2484 3.08487C29.1833 3.07103 29.1155 3.07836 29.0536 3.10591C28.964 3.13224 28.8782 3.16397 28.7902 3.19539C28.7617 3.1806 28.7311 3.17056 28.6995 3.16562L28.6089 3.16748C28.5517 3.1766 28.4971 3.20067 28.45 3.23757L28.0421 3.50377C27.8997 3.56889 27.7588 3.6391 27.6176 3.71168C27.5591 3.74245 27.5087 3.78879 27.4714 3.84621C27.434 3.90362 27.4109 3.97014 27.4044 4.0393C27.3804 4.08728 27.3675 4.14055 27.3668 4.19455C27.2744 6.50216 27.2692 8.81068 27.3512 11.1201C26.7698 11.1746 26.1876 11.2509 25.6095 11.3618C25.5496 11.3618 25.4916 11.3873 25.4484 11.4328C25.4052 11.4783 25.3801 11.5399 25.3789 11.6043C25.3776 11.6686 25.4002 11.7303 25.4417 11.7759C25.4832 11.8214 25.5401 11.847 25.6 11.847C26.0069 11.8972 26.4106 11.9702 26.8095 12.0656C26.6195 12.5521 26.473 13.0561 26.372 13.5707C26.3651 13.618 26.3715 13.6662 26.3902 13.7091C26.409 13.752 26.4394 13.7877 26.4775 13.8115C26.5155 13.8354 26.5596 13.8464 26.6041 13.8432C26.6485 13.8399 26.6913 13.8225 26.727 13.7933C27.0861 13.5213 27.4847 13.3165 27.9054 13.1878C27.9603 13.4241 28.0127 13.6626 28.0672 13.9013C28.1095 14.0824 28.3411 14.2025 28.4645 14.0156C28.5879 13.8286 28.7511 13.5839 28.8921 13.3678C29.0332 13.1517 29.1582 12.8409 29.4104 12.7985C29.9217 12.7455 30.4357 12.7971 30.9251 12.9505C30.9639 12.9557 31.0035 12.9499 31.0399 12.9335C31.0764 12.9172 31.1084 12.891 31.1328 12.8575C31.1571 12.8239 31.173 12.7843 31.1788 12.7426C31.1846 12.7008 31.1802 12.6584 31.1659 12.6195C31.0407 12.3264 30.8736 12.0567 30.6706 11.8201C30.9981 11.7929 31.3267 11.7927 31.6533 11.8196C31.9609 11.8166 32.0295 11.3446 31.7424 11.314ZM26.9725 13.0275C27.0082 13.0345 27.0453 13.0314 27.0799 13.0182L26.9574 13.0862L26.9725 13.0275ZM27.8422 12.6413C27.8532 12.66 27.8669 12.6766 27.8827 12.6908L27.6798 12.7523C27.7345 12.7162 27.7893 12.6801 27.8422 12.6413ZM28.2953 12.632C28.2899 12.6702 28.2849 12.706 28.2795 12.7441C28.2663 12.7204 28.2504 12.6986 28.2322 12.6791L28.2953 12.632Z" fill="#A8C265"/>
<path d="M29.5562 34.1095C30.2227 34.6697 31.0241 35.0399 31.8789 35.1824C32.7337 35.3249 33.6115 35.2346 34.4229 34.9207C34.8187 34.7617 34.5741 34.1368 34.1728 34.295C33.472 34.5633 32.7146 34.6383 31.9777 34.5124C31.2408 34.3865 30.5509 34.0642 29.9782 33.5783C29.6444 33.2959 29.2368 33.831 29.5635 34.1105L29.5562 34.1095Z" fill="#141414"/>
</g>
<defs>
<filter id="filter0_d_5374_6931" x="0" y="0" width="56" height="56" filterUnits="userSpaceOnUse" color-interpolation-filters="sRGB">
<feFlood flood-opacity="0" result="BackgroundImageFix"/>
<feColorMatrix in="SourceAlpha" type="matrix" values="0 0 0 0 0 0 0 0 0 0 0 0 0 0 0 0 0 0 127 0" result="hardAlpha"/>
<feOffset dy="4"/>
<feGaussianBlur stdDeviation="2"/>
<feComposite in2="hardAlpha" operator="out"/>
<feColorMatrix type="matrix" values="0 0 0 0 0 0 0 0 0 0 0 0 0 0 0 0 0 0 0.25 0"/>
<feBlend mode="normal" in2="BackgroundImageFix" result="effect1_dropShadow_5374_6931"/>
<feBlend mode="normal" in="SourceGraphic" in2="effect1_dropShadow_5374_6931" result="shape"/>
</filter>
<clipPath id="clip0_5374_6931">
<rect width="48" height="48" fill="white" transform="translate(4)"/>
</clipPath>
</defs>
</svg>
