<svg width="52" height="51" viewBox="0 0 52 51" fill="none" xmlns="http://www.w3.org/2000/svg">
<g filter="url(#filter0_d_5374_6932)">
<path d="M16.5039 12.1017C16.386 12.0048 16.2855 11.8864 16.2085 11.7513C16.0455 11.4654 16.0002 11.1273 16.0823 10.8087L16.0982 10.747L16.1218 10.6878L16.4608 9.8378C16.5611 9.5495 16.7626 9.30638 17.0291 9.15445L17.0291 9.15445C17.3149 8.99145 17.653 8.9462 17.9716 9.02831L18.0025 9.03626L18.0328 9.04615C18.5178 9.20468 18.9884 9.40446 19.4393 9.64331C19.6634 9.76144 19.8826 9.89069 20.0944 10.0279L20.1715 10.0778L20.2382 10.141C20.2423 10.1449 20.2469 10.1482 20.2519 10.1508C20.5158 10.1476 20.7623 10.1236 21.0467 10.096C21.2208 10.0791 21.4092 10.0608 21.6245 10.045L21.6263 10.0448L23.0877 9.94045C23.2872 9.91914 23.4879 9.948 23.6719 10.0231C27.1331 9.36467 30.7557 9.26467 34.2454 10.2069L16.5039 12.1017ZM16.5039 12.1017C16.407 12.1889 16.3113 12.2773 16.2167 12.367C13.4478 13.7558 11.0249 15.748 9.12667 18.1976L9.12665 18.1976L9.12226 18.2034C6.61838 21.4834 5.0181 25.9385 6.32491 30.2466L6.32507 30.2471C7.48848 34.0747 10.5173 36.8962 13.7801 38.6882L13.7806 38.6885C20.9987 42.6474 30.7689 43.4493 38.0802 38.9277C45.0309 34.6313 48.9517 25.1711 44.3567 17.5052L44.3556 17.5033C42.1289 13.8064 38.2899 11.2963 34.2456 10.2069L16.5039 12.1017Z" fill="white" stroke="white" stroke-width="2"/>
<path d="M43.499 18.0327C41.429 14.5827 37.8277 12.1942 33.9849 11.1725C30.4367 10.2144 26.7213 10.3923 23.1439 11.1486C21.813 11.3644 20.5039 11.6983 19.2322 12.1465C15.552 13.4224 12.3178 15.7324 9.91713 18.7997C7.52866 21.9286 6.10089 26.0527 7.28185 29.9459C8.3434 33.4383 11.1353 36.0842 14.2615 37.8013C21.2438 41.6308 30.6199 42.3553 37.5544 38.0667C44.1704 34.001 47.7399 25.1079 43.499 18.0327Z" fill="#459B16"/>
<path d="M27.1325 26.6204C27.1057 26.6124 27.0782 26.607 27.0503 26.6045L16.7347 25.7898C16.6472 25.7912 16.5636 25.8266 16.5017 25.8885C16.4398 25.9504 16.4044 26.034 16.403 26.1215C16.3818 28.0933 18.3138 29.7387 20.0069 30.4049C20.9379 30.7618 21.9457 30.8702 22.9313 30.7194C23.9168 30.5687 24.8461 30.1639 25.6278 29.545C26.4512 28.8829 27.0795 28.0097 27.4457 27.0185C27.4641 26.9709 27.4698 26.9192 27.4622 26.8687C27.4546 26.8182 27.434 26.7705 27.4024 26.7304C27.3708 26.6902 27.3293 26.659 27.282 26.6397C27.2347 26.6204 27.1832 26.6138 27.1325 26.6204Z" fill="white"/>
<path d="M41.7711 22.6767C41.7575 22.6283 41.7331 22.5835 41.6996 22.5459C41.6662 22.5083 41.6246 22.4788 41.5781 22.4596C41.5316 22.4404 41.4813 22.4321 41.431 22.4352C41.3808 22.4384 41.3319 22.4529 41.2881 22.4777C39.3467 23.6378 37.2723 24.5592 35.1099 25.2218C35.0578 25.2076 35.0028 25.2076 34.9507 25.2218L33.9608 25.5588C33.9125 25.5731 33.868 25.598 33.8307 25.6319C33.7934 25.6657 33.7642 25.7075 33.7453 25.7542C33.7265 25.8009 33.7184 25.8513 33.7217 25.9015C33.725 25.9518 33.7396 26.0007 33.7644 26.0445C34.2704 26.9478 35.0903 27.6341 36.0687 27.973C37.047 28.312 38.1157 28.2802 39.0721 27.8836C41.1262 27.0344 42.1878 24.8237 41.7711 22.6767Z" fill="white"/>
<path d="M27.4378 26.6205C25.3466 26.4436 23.2562 26.2817 21.1667 26.1349C21.1502 26.1308 21.1329 26.1308 21.1163 26.1349L20.9783 26.1189C20.9585 26.1149 20.938 26.1171 20.9194 26.1251C20.9009 26.1332 20.8853 26.1468 20.8748 26.164C20.8586 26.1788 20.8474 26.1982 20.8426 26.2195C20.8379 26.2409 20.8398 26.2633 20.8483 26.2835C21.1732 27.3044 21.8657 28.1684 22.7915 28.7078C23.7172 29.2471 24.8103 29.4235 25.8588 29.2027C25.8982 29.1976 25.9372 29.1896 25.9755 29.1788H26.0074C26.0511 29.1643 26.0929 29.1447 26.1321 29.1204C26.276 29.0142 26.4015 28.8851 26.5036 28.7383C26.9793 28.1651 27.3397 27.5055 27.5652 26.7957C27.5726 26.7756 27.575 26.7539 27.5721 26.7327C27.5692 26.7115 27.561 26.6913 27.5484 26.6739C27.5358 26.6566 27.5191 26.6427 27.4998 26.6333C27.4805 26.624 27.4592 26.6196 27.4378 26.6205Z" fill="#141414"/>
<path d="M37.3313 24.9592C37.4017 24.9592 37.4692 24.9313 37.519 24.8815C37.5687 24.8317 37.5967 24.7642 37.5967 24.6939C37.5967 24.6235 37.5687 24.556 37.519 24.5062C37.4692 24.4564 37.4017 24.4285 37.3313 24.4285C37.2609 24.4285 37.1934 24.4564 37.1436 24.5062C37.0939 24.556 37.0659 24.6235 37.0659 24.6939C37.0659 24.7642 37.0939 24.8317 37.1436 24.8815C37.1934 24.9313 37.2609 24.9592 37.3313 24.9592Z" fill="#141414"/>
<path d="M41.904 22.3662C41.8928 22.3279 41.873 22.2926 41.8463 22.263C41.8195 22.2334 41.7864 22.2102 41.7494 22.1951C41.7124 22.1801 41.6725 22.1735 41.6326 22.1761C41.5928 22.1786 41.554 22.1901 41.5192 22.2096C40.1522 23.1098 38.6844 23.8464 37.1457 24.4044C37.0874 24.4197 37.036 24.4544 37.0001 24.5028C36.9642 24.5512 36.9458 24.6103 36.9479 24.6706C36.9501 24.7308 36.9727 24.7885 37.012 24.8342C37.0513 24.8798 37.105 24.9108 37.1642 24.9219C37.8781 25.5084 38.807 25.9834 39.7464 25.9834C40.1599 25.9843 40.5669 25.8812 40.9301 25.6835C41.2036 25.5419 41.4372 25.3339 41.6094 25.0785C41.6623 25.0044 41.7076 24.9253 41.7448 24.8423C41.8818 24.4697 41.9553 24.0768 41.9624 23.6799C41.9898 23.2412 41.9702 22.8008 41.904 22.3662Z" fill="#141414"/>
<path d="M25.6651 31.4744C26.4613 32.5359 28.0536 32.8411 29.3142 32.8411C30.5748 32.8411 31.9097 32.3581 32.7191 31.3231C32.9234 31.0577 32.5545 30.6889 32.3475 30.9542C31.9956 31.3817 31.553 31.7256 31.0518 31.9611C30.5506 32.1965 30.0033 32.3177 29.4495 32.3157C28.8133 32.3246 28.1795 32.2351 27.5706 32.0503C27.013 31.9303 26.5082 31.6356 26.1296 31.209C25.9279 30.9436 25.4741 31.209 25.6784 31.4744H25.6651Z" fill="#141414"/>
<path d="M23.1836 10.9361L21.6974 11.0423C21.1905 11.0794 20.6704 11.1538 20.1608 11.1511C19.9319 11.1252 19.7177 11.0255 19.5504 10.8671C19.362 10.7451 19.1683 10.6309 18.9719 10.5274C18.5712 10.3151 18.153 10.1376 17.7219 9.99668C17.6551 9.97946 17.5842 9.98895 17.5243 10.0231C17.4643 10.0573 17.42 10.1135 17.4008 10.1798L17.0505 11.0582C17.0333 11.125 17.0428 11.196 17.077 11.2559C17.1111 11.3158 17.1673 11.3601 17.2336 11.3793L18.5022 11.7907C17.8663 12.2333 17.2688 12.7287 16.7161 13.2715C16.5118 13.4732 16.7851 13.8607 17.0319 13.6829C17.5362 13.3193 18.0935 12.9053 18.7145 12.8151C18.9664 12.7613 19.2287 12.7862 19.466 12.8864C19.7033 12.9865 19.9042 13.1571 20.0414 13.375C20.1608 13.5953 20.5536 13.5077 20.5297 13.245C20.4023 11.8809 22.3874 11.7801 23.2605 11.443C23.5073 11.3501 23.4994 10.9123 23.1836 10.9361ZM20.957 11.6315H21.0074L20.9543 11.658C20.9543 11.658 20.957 11.6394 20.957 11.6315Z" fill="#1D6A01"/>
<path d="M22.5043 21.3898C23.177 20.566 24.0601 19.9397 25.06 19.5772C25.0986 19.5736 25.1359 19.5616 25.1693 19.542C25.2027 19.5225 25.2315 19.4958 25.2535 19.464C25.2755 19.4321 25.2903 19.3958 25.2968 19.3576C25.3034 19.3194 25.3014 19.2803 25.2912 19.2429C25.281 19.2056 25.2627 19.1709 25.2377 19.1414C25.2126 19.1118 25.1814 19.0881 25.1462 19.0719C25.111 19.0557 25.0727 19.0474 25.034 19.0476C24.9952 19.0478 24.957 19.0565 24.922 19.073C23.8349 19.4587 22.8722 20.1308 22.1354 21.0183C22.0868 21.0679 22.0596 21.1346 22.0596 21.204C22.0596 21.2735 22.0868 21.3402 22.1354 21.3898C22.1849 21.4376 22.251 21.4644 22.3199 21.4644C22.3887 21.4644 22.4548 21.4376 22.5043 21.3898Z" fill="#1D6A01"/>
<path d="M16.342 29.7307V29.9271C16.3423 29.9967 16.37 30.0634 16.419 30.1129C16.441 30.1384 16.4694 30.1576 16.5013 30.1686C16.5324 30.1846 16.5672 30.192 16.6021 30.1898H16.6711C16.7154 30.1773 16.7556 30.1535 16.7879 30.1208L16.8277 30.0677C16.8516 30.0275 16.8644 29.9818 16.8649 29.935V29.7387C16.8662 29.7035 16.8579 29.6686 16.841 29.6378C16.8311 29.6053 16.8128 29.576 16.7879 29.5529C16.7645 29.5283 16.7353 29.5101 16.703 29.4998C16.6721 29.4832 16.6371 29.4759 16.6021 29.4786H16.5331C16.4901 29.4907 16.4509 29.5136 16.419 29.5449L16.3765 29.598C16.3536 29.6384 16.3417 29.6842 16.342 29.7307Z" fill="#1D6A01"/>
<path d="M13.359 28.9108L13.3935 29.0754C13.4015 29.1077 13.4169 29.1377 13.4386 29.1629C13.4574 29.191 13.4829 29.2138 13.5129 29.2293C13.5415 29.25 13.5758 29.2611 13.6111 29.2611C13.645 29.2704 13.6807 29.2704 13.7146 29.2611L13.7783 29.2346C13.8166 29.2119 13.8485 29.18 13.8712 29.1417L13.8977 29.0807C13.9083 29.0344 13.9083 28.9863 13.8977 28.94L13.8632 28.7755C13.8559 28.7429 13.8404 28.7128 13.8181 28.6879C13.8002 28.6585 13.7745 28.6346 13.7438 28.6189C13.7147 28.5997 13.6805 28.5896 13.6456 28.5897C13.6117 28.5804 13.576 28.5804 13.5421 28.5897L13.4811 28.6162C13.4415 28.6393 13.4086 28.6722 13.3855 28.7118L13.359 28.7728C13.3484 28.8191 13.3484 28.8672 13.359 28.9135V28.9108Z" fill="#1D6A01"/>
<path d="M14.5717 30.0624L14.6116 30.2588C14.6195 30.2911 14.635 30.3211 14.6567 30.3464C14.676 30.3746 14.7014 30.3982 14.731 30.4154C14.7603 30.4341 14.7943 30.4442 14.8292 30.4446C14.863 30.4538 14.8988 30.4538 14.9327 30.4446L14.9964 30.418C15.0343 30.3938 15.0661 30.3611 15.0892 30.3225L15.1158 30.2614C15.1284 30.2154 15.1284 30.1668 15.1158 30.1208L15.076 29.9244C15.0541 29.8614 15.0121 29.8074 14.9566 29.7705C14.9278 29.7501 14.8936 29.739 14.8584 29.7386C14.8245 29.7294 14.7887 29.7294 14.7549 29.7386L14.6912 29.7652C14.6522 29.787 14.6201 29.8191 14.5983 29.8581L14.5717 29.9191C14.5591 29.9651 14.5591 30.0137 14.5717 30.0597V30.0624Z" fill="#1D6A01"/>
<path d="M11.2202 30.1552L11.26 30.3834C11.2678 30.4172 11.2842 30.4483 11.3077 30.4737C11.3278 30.5008 11.3533 30.5235 11.3825 30.5404C11.4117 30.5573 11.4441 30.568 11.4776 30.5719C11.5124 30.5811 11.549 30.5811 11.5837 30.5719L11.6448 30.5453C11.6845 30.5237 11.7176 30.4916 11.7403 30.4524L11.7642 30.3887C11.7775 30.3437 11.7775 30.2958 11.7642 30.2507L11.7244 30.0225C11.7061 29.9569 11.6634 29.9009 11.605 29.8659C11.5753 29.8475 11.5416 29.8366 11.5068 29.8341C11.4729 29.8248 11.4372 29.8248 11.4033 29.8341L11.3396 29.8606C11.3024 29.8846 11.2707 29.9163 11.2467 29.9535L11.2202 30.0172C11.2069 30.0622 11.2069 30.1102 11.2202 30.1552Z" fill="#1D6A01"/>
<path d="M42.8646 25.8215L42.8355 25.7817C42.8369 25.772 42.8369 25.7622 42.8355 25.7525C42.8275 25.7194 42.8121 25.6885 42.7903 25.6623C42.7716 25.6342 42.746 25.6114 42.716 25.5959C42.6869 25.5764 42.6529 25.5653 42.6178 25.5641C42.584 25.5548 42.5482 25.5548 42.5143 25.5641L42.4533 25.5906C42.4135 25.6122 42.3805 25.6444 42.3578 25.6835C42.35 25.7052 42.3412 25.7264 42.3312 25.7472C42.3206 25.7926 42.3206 25.8398 42.3312 25.8852C42.3312 25.917 42.3498 25.9515 42.3631 25.9834C42.3782 26.038 42.4064 26.0881 42.4453 26.1293C42.4811 26.1622 42.5237 26.1867 42.5701 26.201C42.6169 26.2141 42.6665 26.2141 42.7134 26.201C42.7378 26.1952 42.7612 26.1853 42.7824 26.1718C42.8379 26.1349 42.8799 26.0809 42.9018 26.0179C42.911 25.9831 42.911 25.9465 42.9018 25.9117C42.8969 25.8791 42.8841 25.8481 42.8646 25.8215ZM42.7664 25.7339H42.7452H42.7585H42.7664Z" fill="#1D6A01"/>
<path d="M43.6025 24.6432L43.6476 24.9086C43.6554 24.9423 43.6719 24.9734 43.6954 24.9988C43.7134 25.0274 43.7392 25.0504 43.7697 25.0651C43.8312 25.0988 43.9032 25.1083 43.9714 25.0917L44.0324 25.0651C44.0716 25.0428 44.1045 25.0108 44.1279 24.9723L44.1518 24.9086C44.1651 24.8635 44.1651 24.8156 44.1518 24.7706L44.1067 24.5052C44.0989 24.4715 44.0824 24.4404 44.0589 24.4149C44.042 24.3864 44.0171 24.3634 43.9873 24.3486C43.9576 24.3302 43.9239 24.3192 43.8891 24.3168C43.8552 24.3075 43.8195 24.3075 43.7856 24.3168L43.7219 24.3433C43.684 24.3665 43.6522 24.3983 43.629 24.4362L43.6025 24.4999C43.5892 24.5449 43.5892 24.5928 43.6025 24.6379V24.6432Z" fill="#1D6A01"/>
<path d="M31.8007 27.39L31.8618 27.6209C31.869 27.6541 31.8856 27.6845 31.9096 27.7085C31.9272 27.7372 31.9519 27.7609 31.9812 27.7775C32.0106 27.7962 32.0446 27.8064 32.0794 27.8067C32.1133 27.8159 32.149 27.8159 32.1829 27.8067L32.2466 27.7802C32.2845 27.7559 32.3163 27.7232 32.3395 27.6846L32.366 27.6236C32.3787 27.5775 32.3787 27.529 32.366 27.4829L32.305 27.252C32.2977 27.2189 32.2812 27.1885 32.2572 27.1645C32.2396 27.1358 32.2149 27.112 32.1856 27.0955C32.1561 27.077 32.1221 27.0669 32.0874 27.0663C32.0535 27.057 32.0177 27.057 31.9839 27.0663L31.9202 27.0928C31.8816 27.1162 31.8496 27.1491 31.8273 27.1883L31.8007 27.2494C31.7881 27.2954 31.7881 27.344 31.8007 27.39Z" fill="#1D6A01"/>
<path d="M30.1472 26.8248L30.187 27.1512C30.1916 27.2199 30.2186 27.2852 30.264 27.337C30.2871 27.3619 30.3164 27.3802 30.3489 27.39C30.3801 27.406 30.4147 27.4142 30.4498 27.4139C30.5194 27.4136 30.5861 27.386 30.6355 27.337L30.6753 27.2839C30.6992 27.2437 30.712 27.1979 30.7125 27.1512L30.67 26.8248C30.6717 26.7896 30.6634 26.7546 30.6461 26.7239C30.6363 26.6914 30.618 26.6621 30.5931 26.639C30.5692 26.615 30.5402 26.5969 30.5081 26.5859C30.4771 26.5697 30.4424 26.5614 30.4073 26.562C30.3386 26.563 30.273 26.5906 30.2242 26.639L30.1817 26.6921C30.1588 26.7325 30.1469 26.7783 30.1472 26.8248Z" fill="#1D6A01"/>
<path d="M28.4515 27.8703C28.4503 27.8791 28.4503 27.8881 28.4515 27.8969C28.4515 27.926 28.4515 27.9579 28.4383 27.9897C28.4369 28.0074 28.4369 28.0251 28.4383 28.0428C28.4412 28.0832 28.4483 28.1233 28.4595 28.1622C28.4595 28.1914 28.4834 28.218 28.494 28.2472L28.5073 28.271C28.5228 28.301 28.5456 28.3265 28.5736 28.3454C28.5997 28.3679 28.6305 28.3842 28.6638 28.3931C28.6977 28.4024 28.7335 28.4024 28.7673 28.3931C28.8022 28.3928 28.8362 28.3827 28.8655 28.3639L28.9186 28.3215C28.95 28.2896 28.9728 28.2504 28.9849 28.2074V28.1357C28.984 28.0899 28.9712 28.0451 28.9478 28.0057C28.9467 27.9951 28.9467 27.9844 28.9478 27.9738L28.9743 28.0375C28.9645 28.0175 28.9582 27.996 28.9558 27.9738V28.0428C28.9504 28.0201 28.9504 27.9965 28.9558 27.9738V28.0428V28.0057C28.965 27.9718 28.965 27.936 28.9558 27.9022C28.9521 27.8668 28.9393 27.8329 28.9186 27.804C28.8826 27.7459 28.8271 27.7026 28.762 27.6819H28.693C28.6465 27.6816 28.6008 27.6935 28.5603 27.7164L28.5073 27.7589C28.4759 27.7907 28.4531 27.8299 28.4409 27.873L28.4515 27.8703Z" fill="#1D6A01"/>
<path d="M29.4893 28.6003V28.733C29.4893 28.768 29.4975 28.8025 29.5131 28.8338C29.523 28.8656 29.5414 28.894 29.5662 28.9161C29.5892 28.9417 29.6185 28.9609 29.6511 28.9718C29.6821 28.9881 29.7171 28.9955 29.752 28.9931H29.821C29.8648 28.9812 29.9043 28.9573 29.9351 28.9241L29.9776 28.871C30 28.8313 30.0119 28.7865 30.0121 28.7409V28.6003C30.0142 28.5654 30.0069 28.5305 29.9908 28.4994C29.9798 28.4675 29.9617 28.4384 29.9377 28.4145C29.9138 28.3906 29.8848 28.3725 29.8528 28.3614C29.8218 28.3454 29.7869 28.3381 29.752 28.3402H29.683C29.639 28.352 29.5988 28.3748 29.5662 28.4066L29.5264 28.4596C29.5026 28.4998 29.4897 28.5456 29.4893 28.5923V28.6003Z" fill="#1D6A01"/>
<path d="M36.2751 18.9403C36.81 19.0589 37.3196 19.2719 37.7798 19.5692C37.8094 19.594 37.8439 19.6121 37.8812 19.6221C37.9184 19.6322 37.9574 19.634 37.9954 19.6275C38.0334 19.621 38.0696 19.6062 38.1013 19.5843C38.133 19.5623 38.1596 19.5338 38.1792 19.5005C38.1987 19.4673 38.2108 19.4302 38.2146 19.3918C38.2183 19.3534 38.2136 19.3146 38.2009 19.2782C38.1881 19.2418 38.1676 19.2086 38.1407 19.181C38.1138 19.1533 38.0812 19.1318 38.0452 19.1181C37.5439 18.7996 36.9919 18.569 36.4131 18.436C36.378 18.4195 36.3398 18.4108 36.3011 18.4106C36.2623 18.4105 36.224 18.4188 36.1888 18.435C36.1537 18.4511 36.1224 18.4749 36.0974 18.5044C36.0723 18.5339 36.0541 18.5686 36.0438 18.606C36.0336 18.6433 36.0317 18.6825 36.0382 18.7207C36.0447 18.7589 36.0595 18.7951 36.0816 18.827C36.1036 18.8589 36.1323 18.8855 36.1658 18.9051C36.1992 18.9246 36.2365 18.9366 36.2751 18.9403Z" fill="#1D6A01"/>
</g>
<defs>
<filter id="filter0_d_5374_6932" x="-2" y="0" width="56" height="56" filterUnits="userSpaceOnUse" color-interpolation-filters="sRGB">
<feFlood flood-opacity="0" result="BackgroundImageFix"/>
<feColorMatrix in="SourceAlpha" type="matrix" values="0 0 0 0 0 0 0 0 0 0 0 0 0 0 0 0 0 0 127 0" result="hardAlpha"/>
<feOffset dy="4"/>
<feGaussianBlur stdDeviation="2"/>
<feComposite in2="hardAlpha" operator="out"/>
<feColorMatrix type="matrix" values="0 0 0 0 0 0 0 0 0 0 0 0 0 0 0 0 0 0 0.25 0"/>
<feBlend mode="normal" in2="BackgroundImageFix" result="effect1_dropShadow_5374_6932"/>
<feBlend mode="normal" in="SourceGraphic" in2="effect1_dropShadow_5374_6932" result="shape"/>
</filter>
</defs>
</svg>
