<svg width="120" height="120" viewBox="0 0 120 120" fill="none" xmlns="http://www.w3.org/2000/svg">
<path d="M107.367 54.4251L107.367 54.4262C107.716 55.9062 107.961 57.409 108.098 58.9235C109.199 63.8868 109.323 69.0174 108.461 74.0284C106.719 84.5496 100.568 94.2728 90.8702 99.3733L90.8628 99.3772C90.5471 99.5398 90.1973 99.618 89.8469 99.6074C82.9958 103.009 75.0152 104.018 67.7508 104.769C63.4359 105.22 58.7728 105.681 54.2878 105.229C46.5004 105.288 38.7238 103.88 31.5496 100.376L31.5477 100.375C30.4501 99.836 29.3798 99.243 28.3408 98.5983C27.9955 98.4888 27.6845 98.291 27.4391 98.0246C26.3653 97.3206 25.3278 96.5628 24.3306 95.754C22.9481 94.6898 21.6487 93.5217 20.4437 92.26L20.4394 92.2555C17.229 88.8516 14.7369 84.8363 13.1115 80.4487C11.4873 76.0644 10.7619 71.3982 10.9783 66.7278C11.2367 56.7533 15.5306 47.5178 21.7087 39.6184C27.0708 32.7417 34.239 26.893 42.4403 23.5588L42.4453 23.5541L42.4622 23.5396C43.625 22.5435 44.9082 21.6973 46.2818 21.0208C46.8461 20.7345 47.4268 20.4834 48.0206 20.2688C46.7057 19.4456 45.3097 18.9246 43.853 18.9636L43.8375 18.964L43.822 18.9639C43.628 18.9631 43.4367 18.9174 43.2633 18.8305C43.0897 18.7435 42.9387 18.6177 42.8219 18.4628L42.8218 18.4628C42.705 18.3079 42.6256 18.1281 42.5897 17.9373C42.5897 17.9373 42.5897 17.9373 42.5897 17.9373L43.5724 17.7524C43.5651 17.7131 43.5668 17.6727 43.5777 17.6342L107.367 54.4251ZM107.367 54.4251C104.669 43.0485 95.9324 33.8479 86.6605 27.6047L86.6596 27.6041C79.4286 22.7475 70.959 19.7402 62.3309 19.5353L107.367 54.4251ZM43.6203 17.8607C43.6443 17.8926 43.6755 17.9185 43.7112 17.9364C43.747 17.9544 43.7863 17.9638 43.8263 17.9639L43.6203 17.8607Z" fill="white" stroke="white" stroke-width="2"/>
<path d="M107.107 59.0774C106.975 57.5884 106.737 56.1107 106.394 54.6558C103.777 43.6234 95.2692 34.6072 86.1016 28.4342C75.7016 21.4342 62.7287 18.4018 50.5719 22.1207C50.426 22.1639 50.28 22.218 50.1341 22.2666C49.8584 22.3207 49.5935 22.3693 49.307 22.4288C38.5881 24.8126 29.1449 31.6882 22.4638 40.218C14.9665 49.7963 10.4152 61.2991 12.3935 73.5423C14.2152 84.8936 21.7665 94.4612 32.0151 99.4612C39.0422 102.894 46.68 104.277 54.3611 104.213C58.7449 104.661 63.3287 104.213 67.6746 103.759C76.507 102.845 86.1287 101.596 93.5233 96.2504C105.653 87.5045 110.188 72.8936 107.107 59.0774Z" fill="#FE5101"/>
<path d="M36.5557 52.1639L36.4206 52.2991C35.7138 52.9367 35.188 53.7497 34.8963 54.6558C34.4797 55.5353 34.2637 56.4962 34.2637 57.4693C34.2637 58.4424 34.4797 59.4034 34.8963 60.2828C35.1851 61.1833 35.7051 61.9922 36.4044 62.6288L37.88 63.7693C38.9961 64.4239 40.2673 64.7674 41.5611 64.7639L43.5017 64.5045C44.7279 64.1728 45.846 63.5262 46.7449 62.6288L46.88 62.4936C47.5801 61.8555 48.1002 61.0447 48.3882 60.1423C48.8046 59.2638 49.0206 58.3037 49.0206 57.3315C49.0206 56.3593 48.8046 55.3992 48.3882 54.5207C48.0993 53.6202 47.5793 52.8113 46.88 52.1747L45.4044 51.0342C44.2887 50.3779 43.0176 50.0326 41.7233 50.0342L39.7828 50.2936C38.5562 50.6273 37.4382 51.2757 36.5395 52.1747L36.5557 52.1639Z" fill="white"/>
<path d="M79.0965 63.8719H79.2208C81.1436 63.7868 82.9734 63.0204 84.383 61.7098C85.0816 61.0705 85.6015 60.2601 85.8911 59.3584C86.3476 58.4944 86.5642 57.5238 86.5181 56.5476L86.2478 54.6557C85.915 53.43 85.2686 52.3122 84.3721 51.4125L82.8965 50.2719C81.7777 49.6191 80.5053 49.2758 79.21 49.2773H79.0748C77.1574 49.3564 75.3302 50.1129 73.9181 51.4125C73.2204 52.0525 72.7007 52.8627 72.41 53.7638C71.9518 54.6274 71.7334 55.598 71.7776 56.5746L72.0424 58.5152C72.3731 59.7418 73.0199 60.8601 73.9181 61.7584L75.3938 62.899C76.5109 63.5511 77.7813 63.8944 79.0748 63.8936L79.0965 63.8719Z" fill="white"/>
<path d="M33.7505 88.429C33.0857 91.6722 31.9505 94.9587 29.583 97.3749C29.4706 97.4899 29.3314 97.5751 29.1778 97.6228C29.0243 97.6705 28.8613 97.6792 28.7036 97.6481C28.5458 97.617 28.3983 97.547 28.2744 97.4446C28.1505 97.3422 28.054 97.2105 27.9938 97.0614V97.0614C22.0106 93.4137 17.3183 87.9857 14.5742 81.5379C11.8301 75.0901 11.1717 67.9454 12.6911 61.1047C12.6563 61.0073 12.6362 60.9053 12.6316 60.802C12.6568 60.5308 12.7809 60.2784 12.9803 60.093C13.1797 59.9076 13.4404 59.802 13.7127 59.7966C17.3235 59.3803 21.1127 60.9911 24.0911 62.9155C26.6653 64.5638 28.8751 66.7214 30.5847 69.2554C32.2942 71.7894 33.4672 74.6464 34.0316 77.6506C34.6225 81.2287 34.5271 84.8866 33.7505 88.429V88.429Z" fill="#FF1D00"/>
<path d="M107.962 69.4234C107.421 81.3153 101.151 92.8342 90.4318 98.472C90.3002 98.5499 90.1527 98.5969 90.0004 98.6095C89.848 98.6221 89.6948 98.6 89.5522 98.5449C89.4097 98.4897 89.2815 98.403 89.1773 98.2911C89.0731 98.1792 88.9956 98.0452 88.9507 97.899C88.9129 97.7585 88.875 97.618 88.8318 97.4774C88.8087 97.432 88.7888 97.3851 88.7723 97.3369C88.7723 97.3045 88.7129 97.272 88.6858 97.2342C87.7542 95.739 87.1329 94.0717 86.8588 92.3315C86.4836 90.4589 86.2397 88.5624 86.1291 86.6558C85.7669 80.2342 87.1507 73.6018 90.7291 68.1963C92.5418 65.5465 94.7684 63.2049 97.3237 61.2612C99.6426 59.445 102.389 57.818 105.432 58.018C105.548 57.9303 105.683 57.8706 105.826 57.8436C105.969 57.8166 106.116 57.8229 106.256 57.8622C106.397 57.9014 106.526 57.9724 106.634 58.0698C106.742 58.1671 106.827 58.2881 106.88 58.4234C107.004 58.6119 107.057 58.8375 107.032 59.0612C107.78 62.4619 108.092 65.9439 107.962 69.4234V69.4234Z" fill="#FF1D00"/>
<path d="M43.9937 51.9536L44.0856 51.9969C44.1511 52.0412 44.2281 52.0656 44.3072 52.0672C44.385 52.0886 44.4672 52.0886 44.545 52.0672C44.619 52.0496 44.6876 52.0144 44.745 51.9645C44.8088 51.9222 44.8608 51.8646 44.8964 51.7969L44.9558 51.6563C44.9828 51.5518 44.9828 51.442 44.9558 51.3374L44.8964 51.1969C44.8433 51.1113 44.7711 51.0392 44.6856 50.9861L44.5937 50.9428C44.5281 50.8986 44.4511 50.8742 44.372 50.8726C44.2961 50.8511 44.2156 50.8511 44.1396 50.8726C44.0632 50.8909 43.9926 50.928 43.9342 50.9807C43.8705 51.0229 43.8184 51.0805 43.7829 51.1482L43.7234 51.2888C43.6964 51.3915 43.6964 51.4995 43.7234 51.6023L43.7829 51.7428C43.8343 51.8311 43.9067 51.9054 43.9937 51.959V51.9536Z" fill="#141414"/>
<path d="M43.9667 51.8938C44.0096 51.9712 44.0676 52.0394 44.1372 52.0941C44.2068 52.1489 44.2867 52.1892 44.3721 52.2127C44.4355 52.23 44.5009 52.2391 44.5667 52.2397C44.6824 52.2361 44.7955 52.2045 44.8964 52.1478C44.9909 52.0942 45.0684 52.0151 45.1201 51.9195C45.1717 51.8239 45.1953 51.7157 45.1883 51.6073C45.1884 51.5027 45.1604 51.4 45.1072 51.31C45.0541 51.2244 44.982 51.1523 44.8964 51.0992C44.8109 51.0349 44.7185 50.9805 44.6207 50.937C44.4914 50.878 44.3577 50.8292 44.2207 50.7911C43.928 50.7343 43.627 50.7343 43.3342 50.7911C43.1858 50.8338 43.0597 50.9327 42.9829 51.0667C42.9193 51.182 42.8947 51.3147 42.9126 51.4451C42.924 51.5744 42.9816 51.6953 43.0748 51.7857C43.1874 51.896 43.3387 51.9581 43.4964 51.9586C43.7083 51.9343 43.9223 51.9343 44.1342 51.9586H43.9775C44.0757 51.9714 44.1731 51.9895 44.2694 52.0127C44.4078 52.0485 44.5544 52.0332 44.6825 51.9697C44.8106 51.9061 44.9114 51.7986 44.9667 51.6667C45.0267 51.5362 45.035 51.3877 44.9899 51.2512C44.9447 51.1148 44.8495 51.0006 44.7234 50.9316C44.5128 50.8224 44.2868 50.7458 44.0532 50.7046C43.9138 50.6813 43.7728 50.6686 43.6315 50.6667C43.4868 50.6713 43.3424 50.6839 43.1991 50.7046C43.0506 50.7473 42.9246 50.8462 42.8478 50.9802C42.7818 51.0947 42.757 51.2282 42.7775 51.3586C42.7968 51.4991 42.8657 51.6281 42.9718 51.7223C43.0778 51.8164 43.2141 51.8696 43.3559 51.8721C43.7613 51.8721 44.1613 51.8992 44.5613 51.9316C44.7171 51.9297 44.8662 51.8677 44.9775 51.7586C45.0674 51.6659 45.1244 51.5463 45.1397 51.4181C45.1607 51.2771 45.1294 51.1334 45.0517 51.0139C44.9741 50.8944 44.8554 50.8075 44.718 50.7694L43.7559 50.564L43.5937 51.7262H43.7937H43.6369C43.8261 51.7262 44.0153 51.7911 44.1775 51.8343C44.3172 51.8772 44.4678 51.8667 44.6002 51.8048C44.7326 51.7429 44.8372 51.634 44.8938 51.4993C44.9504 51.3645 44.9549 51.2136 44.9065 51.0757C44.858 50.9378 44.76 50.8229 44.6315 50.7532C44.3499 50.6123 44.0383 50.5418 43.7234 50.5478C43.5678 50.5508 43.4191 50.6126 43.3072 50.7208C43.1981 50.8321 43.1362 50.9812 43.1342 51.137C43.1333 51.2153 43.1482 51.293 43.1779 51.3654C43.2076 51.4378 43.2516 51.5035 43.3072 51.5586L43.4261 51.6505C43.5162 51.7037 43.6189 51.7317 43.7234 51.7316H43.8748H43.7126C43.884 51.7549 44.0537 51.7892 44.2207 51.8343C44.3742 51.8724 44.5363 51.8512 44.6748 51.7748C44.7426 51.7362 44.8021 51.6845 44.8498 51.6226C44.8975 51.5608 44.9324 51.4901 44.9525 51.4147C44.9726 51.3392 44.9776 51.2605 44.967 51.1832C44.9564 51.1058 44.9306 51.0313 44.891 50.964C44.8075 50.8337 44.6814 50.7363 44.5342 50.6884L43.8694 50.4992L43.5559 51.6451L44.1721 51.7532C44.3275 51.7882 44.4902 51.7671 44.6315 51.6938C44.7632 51.6129 44.8596 51.4856 44.9018 51.337C44.9233 51.2613 44.9292 51.1819 44.9189 51.1038C44.9087 51.0258 44.8827 50.9506 44.8424 50.883C44.7655 50.7489 44.6395 50.65 44.491 50.6073L44.064 50.5208L43.7505 51.6613L44.0964 51.7208C44.2075 51.7305 44.3177 51.7485 44.4261 51.7748L44.2856 51.7154H44.318L44.1991 51.6235L44.1072 51.5046L44.0856 51.4127V51.2505V51.0938L44.1451 50.9532L44.2369 50.8343L44.4964 50.6775H44.6532C44.4957 50.6792 44.3448 50.7411 44.2315 50.8505C44.1212 50.9632 44.0591 51.1144 44.0586 51.2721C44.0626 51.4275 44.1243 51.5759 44.2315 51.6884C44.3468 51.7947 44.4964 51.8561 44.6532 51.8613C44.7495 51.8637 44.845 51.8428 44.9315 51.8005C45.0181 51.7582 45.0932 51.6956 45.1505 51.6181C45.2042 51.5523 45.2436 51.476 45.2659 51.3941C45.2883 51.3121 45.2932 51.2264 45.2802 51.1424C45.2756 51.0546 45.2496 50.9693 45.2045 50.8938C45.146 50.8027 45.0685 50.7253 44.9775 50.6667C44.9068 50.6251 44.8303 50.5941 44.7505 50.5748C44.5451 50.537 44.3397 50.51 44.1288 50.4775C43.9754 50.44 43.8134 50.4612 43.6748 50.537C43.6085 50.5744 43.5504 50.6248 43.5039 50.6852C43.4575 50.7456 43.4237 50.8147 43.4045 50.8884C43.3832 50.965 43.3774 51.0452 43.3877 51.1241C43.3979 51.203 43.4238 51.2791 43.464 51.3478C43.5414 51.4802 43.6675 51.5772 43.8153 51.6181L44.2369 51.71L44.5559 50.564L43.9342 50.4559C43.7789 50.421 43.6161 50.442 43.4748 50.5154C43.3446 50.5978 43.2486 50.7245 43.2045 50.8721C43.1641 51.0254 43.1855 51.1885 43.264 51.3262C43.3446 51.4591 43.4717 51.5574 43.6207 51.6019L44.2856 51.7911L44.5991 50.6451C44.3329 50.5782 44.0618 50.533 43.7883 50.51V51.6938C43.8656 51.6854 43.9435 51.6854 44.0207 51.6938H43.864C43.9717 51.7092 44.0771 51.7383 44.1775 51.7802L44.037 51.7208H44.1018L44.5559 50.6397C44.2541 50.5648 43.9468 50.5142 43.6369 50.4884C43.4964 50.493 43.3621 50.5472 43.2578 50.6414C43.1535 50.7357 43.0859 50.8638 43.0671 51.0032C43.0483 51.1425 43.0795 51.2839 43.1551 51.4025C43.2308 51.521 43.3459 51.6089 43.4802 51.6505L44.4424 51.8559L44.6045 50.6938C44.2045 50.6613 43.8045 50.6397 43.3991 50.6343L43.5613 51.7965H43.4045C43.5696 51.7748 43.7368 51.7748 43.9018 51.7965H43.7451C43.9047 51.8206 44.0608 51.8641 44.2099 51.9262L44.064 51.8667L44.1505 51.9046L44.6045 50.8235C44.251 50.7377 43.8858 50.7103 43.5234 50.7424L43.6802 51.9046H43.7397H43.5829C43.7085 51.8883 43.8357 51.8883 43.9613 51.9046H43.8045C43.9309 51.9203 44.0545 51.9531 44.1721 52.0019L44.0315 51.9424C44.1346 51.9876 44.2324 52.0438 44.3234 52.11V51.0884L44.464 51.0289H44.6207H44.7775H44.7505L44.891 51.0884L45.0099 51.1803L45.1018 51.2992C45.025 51.1651 44.899 51.0662 44.7505 51.0235C44.5954 50.9834 44.4308 51.0047 44.291 51.083C44.1583 51.1626 44.0614 51.2904 44.0207 51.4397C43.9831 51.5932 44.0043 51.7552 44.0802 51.8938H43.9667Z" fill="#141414"/>
<path d="M48.9505 56.0294C48.5289 53.7051 47.0748 51.5321 44.8208 50.6673C44.7628 50.642 44.7002 50.6289 44.637 50.6289C44.5738 50.6289 44.5112 50.642 44.4532 50.6673C43.6891 50.4078 42.8606 50.4078 42.0965 50.6673C41.0425 51.0463 40.1637 51.7981 39.6262 52.7808C38.5451 54.6619 38.2965 57.3483 39.5829 59.197C40.2952 60.1467 41.257 60.8803 42.3613 61.3159C43.4927 61.8687 44.7719 62.0431 46.01 61.8132C46.5689 61.6871 47.0919 61.4357 47.5394 61.0781C47.987 60.7204 48.3475 60.2657 48.5938 59.7484C49.1058 58.5784 49.2308 57.2754 48.9505 56.0294Z" fill="#141414"/>
<path d="M86.4315 55.3206C86.0099 53.0017 84.5504 50.8233 82.3018 49.9585C82.1821 49.9101 82.0484 49.9101 81.9288 49.9585C81.167 49.6961 80.3393 49.6961 79.5774 49.9585C78.5216 50.3337 77.6405 51.084 77.1018 52.0666C76.0207 53.9477 75.7774 56.6342 77.0639 58.4828C77.7725 59.434 78.733 60.1679 79.8369 60.6017C80.9702 61.1546 82.2511 61.3289 83.491 61.099C84.0499 60.9729 84.5728 60.7216 85.0204 60.3639C85.468 60.0062 85.8285 59.5515 86.0747 59.0342C86.583 57.8651 86.7079 56.5651 86.4315 55.3206V55.3206Z" fill="#141414"/>
<path d="M44.118 57.0285C44.2653 57.0144 44.402 56.946 44.5014 56.8365C44.6009 56.7271 44.656 56.5845 44.656 56.4366C44.656 56.2887 44.6009 56.1461 44.5014 56.0367C44.402 55.9273 44.2653 55.8588 44.118 55.8447C43.9708 55.8588 43.8341 55.9273 43.7347 56.0367C43.6352 56.1461 43.5801 56.2887 43.5801 56.4366C43.5801 56.5845 43.6352 56.7271 43.7347 56.8365C43.8341 56.946 43.9708 57.0144 44.118 57.0285V57.0285Z" fill="#141414"/>
<path d="M57.9038 82.265C61.731 82.4261 65.5601 81.994 69.2551 80.9839C69.401 80.9371 69.5232 80.8357 69.5962 80.701C69.6692 80.5663 69.6873 80.4086 69.6469 80.2609C69.6065 80.1131 69.5106 79.9866 69.3792 79.9078C69.2478 79.829 69.091 79.804 68.9416 79.8379C65.3542 80.8202 61.6361 81.2396 57.92 81.0812C57.1578 81.0488 57.1578 82.238 57.92 82.265H57.9038Z" fill="#141414"/>
<path d="M61.518 20.7803C60.2005 20.8491 58.8913 21.03 57.6045 21.3209C57.3046 21.3916 57.0087 21.4783 56.718 21.5803C56.5543 21.6078 56.3979 21.6685 56.2585 21.7587C56.0856 21.9317 56.2099 22.1587 56.2585 22.3425L56.7991 24.3857C56.8117 24.4357 56.8095 24.4883 56.7927 24.537C56.7759 24.5857 56.7452 24.6284 56.7045 24.66C56.6637 24.6915 56.6147 24.7105 56.5633 24.7146C56.512 24.7187 56.4605 24.7077 56.4153 24.683C55.8061 24.2465 55.1358 23.9022 54.4261 23.6614C53.7937 23.4452 52.9829 23.1966 52.3721 23.6074C51.8853 24.0513 51.492 24.5879 51.2153 25.1857C50.8045 25.8344 50.3775 26.4722 49.9288 27.0993C49.9083 27.1334 49.8803 27.1624 49.847 27.1842C49.8137 27.2061 49.7759 27.2201 49.7364 27.2253C49.697 27.2305 49.6568 27.2267 49.619 27.2142C49.5812 27.2018 49.5467 27.181 49.518 27.1533C49.172 26.7137 48.92 26.2078 48.7775 25.6668C48.6668 25.0986 48.3514 24.5908 47.891 24.2398C47.2423 23.8722 46.3829 24.0452 45.691 24.1695C44.93 24.2982 44.1787 24.4788 43.4423 24.7101C43.3885 24.7415 43.3254 24.753 43.264 24.7425C43.2461 24.7456 43.2278 24.7456 43.2099 24.7425H43.1721C43.1337 24.7239 43.1005 24.6961 43.0755 24.6617C43.0504 24.6272 43.0342 24.5871 43.0284 24.5449C43.0225 24.5026 43.0271 24.4596 43.0418 24.4196C43.0565 24.3796 43.0808 24.3439 43.1126 24.3155C44.2137 23.3744 45.4286 22.5754 46.7288 21.9371C47.8438 21.3639 49.0311 20.9439 50.2585 20.6885C48.4315 19.1857 46.2531 17.9371 43.8261 17.9857C43.7861 17.9856 43.7467 17.9762 43.711 17.9583C43.6753 17.9404 43.6441 17.9144 43.6201 17.8825C43.596 17.8506 43.5796 17.8135 43.5722 17.7743C43.5648 17.735 43.5666 17.6945 43.5775 17.656C43.7783 17.1457 44.0573 16.6697 44.4045 16.2452C44.4367 16.2119 44.4773 16.1878 44.5219 16.1754C44.5666 16.163 44.6138 16.1629 44.6585 16.1749C45.8626 16.3955 47.0281 16.7907 48.118 17.3479C49.0719 17.8371 49.9585 18.4475 50.7558 19.1641C50.9667 19.3587 51.1775 19.5587 51.3721 19.7695C51.5667 19.9803 51.7126 20.2236 51.9667 20.256C52.3193 20.2338 52.6678 20.1684 53.0045 20.0614C53.2856 20.0236 53.545 19.9857 53.8477 19.9587C56.4281 19.678 59.0357 19.7745 61.5883 20.2452C61.9234 20.3209 61.7937 20.7587 61.518 20.7803Z" fill="#ADC46A"/>
</svg>
