<svg width="320" height="178" viewBox="0 0 320 178" fill="none" xmlns="http://www.w3.org/2000/svg">
<path d="M0 0H320V178H0V0Z" fill="#FFA317"/>
<g clip-path="url(#clip0_7051_29726)">
<path d="M192.658 93.395C192.477 93.2044 192.277 93.0327 192.061 92.8826C193.039 91.8059 193.592 90.4092 193.617 88.9537C193.651 88.0935 193.512 87.2351 193.209 86.4298C192.905 85.6246 192.442 84.8889 191.848 84.2669C191.453 83.8494 191.002 83.49 190.506 83.1993C190.981 82.4158 191.218 81.5106 191.188 80.5943C191.188 78.726 189.995 75.6085 182.028 75.6085C178.832 75.6085 175.307 76.1317 173.698 79.4626C173.242 78.8102 172.717 78.2089 172.133 77.669C172.352 77.4042 172.555 77.1261 172.74 76.8363C172.981 76.4681 173.123 76.0437 173.153 75.6042C173.183 75.1648 173.099 74.725 172.91 74.3274C172.723 73.9274 172.439 73.5809 172.083 73.3198C171.728 73.0586 171.313 72.8911 170.876 72.8327C170.373 72.7887 169.868 72.7709 169.363 72.7794C168.483 72.7722 167.606 72.8798 166.754 73.0996C166.548 72.8096 166.285 72.5652 165.98 72.3815C165.676 72.1978 165.338 72.0789 164.986 72.032C164.865 72.0217 164.744 72.0217 164.623 72.032C163.995 72.0355 163.388 72.2646 162.913 72.6779C162.438 73.0911 162.127 73.6611 162.035 74.2847C161.941 74.9933 161.941 75.7113 162.035 76.4199C160.655 77.4766 159.741 79.0321 159.489 80.7544V80.6477C159.489 78.7794 158.296 75.6619 150.34 75.6619C147.4 75.6619 144.141 76.1103 142.404 78.8648C141.204 77.721 139.788 76.8303 138.238 76.2453C136.688 75.6603 135.037 75.393 133.383 75.4591C132.299 75.4177 131.219 75.5934 130.204 75.976C129.189 76.3585 128.261 76.9402 127.473 77.6869C126.686 78.4335 126.055 79.3302 125.617 80.3245C125.18 81.3187 124.945 82.3904 124.925 83.4769C124.854 85.0129 125.328 86.5246 126.264 87.7426C127.201 88.9607 128.538 89.8061 130.038 90.1281C128.984 90.9378 128.121 91.9712 127.511 93.1543C126.902 94.3373 126.561 95.6409 126.513 96.9715C126.513 102.117 130.496 105.064 137.462 105.064C141.456 105.064 144.3 103.516 145.398 100.89C145.611 101.146 145.834 101.391 146.058 101.626C146.778 102.393 147.648 103.004 148.614 103.419C149.58 103.834 150.62 104.045 151.671 104.039C154.619 103.901 157.48 102.992 159.969 101.402C162.006 103.082 164.598 103.935 167.233 103.794C168.998 103.777 170.719 103.24 172.183 102.252C173.647 101.263 174.788 99.8648 175.467 98.2313C176.035 99.4654 176.801 100.598 177.735 101.584C178.458 102.351 179.33 102.96 180.297 103.376C181.265 103.791 182.307 104.002 183.359 103.996C185 103.996 193.947 102.737 194.011 97.185C194.056 96.4942 193.959 95.8013 193.726 95.1494C193.494 94.4975 193.13 93.9004 192.658 93.395ZM159.564 80.7438C159.56 81.125 159.513 81.5045 159.425 81.8754C159.443 81.4953 159.49 81.117 159.564 80.7438ZM159.425 81.8968C159.425 82.089 159.425 82.2918 159.425 82.4947C159.425 82.6975 159.425 83.2313 159.425 83.5623C159.244 83.4279 159.055 83.3032 158.861 83.1886C159.119 82.7923 159.31 82.3558 159.425 81.8968ZM137.537 103.185C133.628 103.185 128.398 102.117 128.398 96.9075C128.398 92.8185 132.403 90.5658 134.789 88.8043V88.484C134.156 88.5559 133.519 88.5916 132.882 88.5907C129.793 88.5907 126.768 87.3203 126.768 83.4128C126.784 82.5637 126.97 81.7264 127.316 80.9509C127.661 80.1754 128.159 79.4775 128.779 78.8987C129.399 78.32 130.129 77.8722 130.926 77.5821C131.722 77.292 132.568 77.1654 133.415 77.21C137.015 77.21 139.806 78.4377 141.616 80.5516C141.3 81.6298 141.138 82.7479 141.137 83.8719C141.137 86.5392 141.376 89.2011 141.851 91.8256C140.72 92.9736 139.373 93.8846 137.888 94.5053V94.6441C138.426 94.4832 138.98 94.3794 139.539 94.3345C140.613 94.2801 141.681 94.52 142.628 95.0285C143.007 96.3249 143.513 97.5803 144.141 98.7758C143.8 101.733 141.201 103.185 137.537 103.185ZM156.113 93.4804C156.678 93.482 157.241 93.561 157.785 93.7153C157.62 94.2842 157.538 94.8738 157.54 95.4662C157.514 97.0593 157.971 98.6229 158.85 99.9502C156.702 101.266 154.26 102.026 151.746 102.16C149.147 102.16 147.293 100.612 145.983 98.3594C145.198 96.9789 144.6 95.4997 144.205 93.9608C144.055 93.395 143.917 92.8292 143.8 92.2527C143.683 91.6761 143.629 91.4199 143.555 91.0035C143.47 90.4484 143.384 89.9359 143.32 89.3487C143.085 87.5508 142.974 85.7386 142.99 83.9253C142.974 83.591 142.974 83.256 142.99 82.9217C143.028 82.3947 143.118 81.8727 143.257 81.363C143.354 80.9968 143.482 80.6397 143.64 80.2954C144.758 78.032 147.123 77.4555 150.361 77.4555C153.94 77.4555 157.7 78.1922 157.7 80.6584C157.7 83.4128 155.314 83.5089 153.525 83.8612V84.0427H154.174C157.924 84.0427 160.16 85.8256 160.128 88.9964C160.128 90.9288 157.998 92.3808 154.952 93.2669V93.6833C155.329 93.5692 155.719 93.5011 156.113 93.4804ZM174.444 95.6156C174.14 96.7504 173.662 97.8309 173.027 98.8185C172.869 99.074 172.691 99.3168 172.495 99.5445C172.31 99.7707 172.111 99.9847 171.898 100.185L171.568 100.484L171.291 100.698L170.854 101.007C170.7 101.105 170.54 101.194 170.375 101.274C170.224 101.362 170.063 101.434 169.896 101.488C169.711 101.576 169.518 101.648 169.321 101.701L169.065 101.776L168.479 101.893H168.138C167.855 101.915 167.57 101.915 167.286 101.893C166.999 101.893 166.722 101.893 166.434 101.893C166.045 101.869 165.657 101.822 165.273 101.754L164.943 101.69C164.581 101.617 164.225 101.517 163.878 101.391L163.473 101.253C163.259 101.171 163.049 101.078 162.845 100.975C162.704 100.915 162.569 100.843 162.44 100.762H162.365L162.269 100.698C161.957 100.513 161.662 100.302 161.385 100.068C161.153 99.863 160.936 99.6418 160.736 99.4057C160.527 99.1563 160.342 98.8882 160.182 98.605L160.022 98.306C159.904 98.077 159.808 97.8376 159.734 97.5907C159.509 96.902 159.401 96.1802 159.415 95.4555C159.415 95.3167 159.415 95.1673 159.415 95.0285C159.41 95.0002 159.41 94.9713 159.415 94.9431C159.425 94.8098 159.446 94.6776 159.479 94.548C159.473 94.502 159.473 94.4553 159.479 94.4092L159.543 94.185V94.0783C159.603 93.9234 159.681 93.7764 159.777 93.6406C159.823 93.5216 159.88 93.4072 159.947 93.2989C159.961 93.2648 159.979 93.2325 160.001 93.2028C160.063 93.0965 160.131 92.9932 160.203 92.8932C160.527 92.4744 160.974 92.1682 161.481 92.0178C161.556 91.9866 161.635 91.965 161.716 91.9537C161.772 91.9477 161.829 91.9477 161.886 91.9537H162.195C162.909 91.9551 163.615 92.1003 164.272 92.3808C163.207 90.5445 161.215 86.7011 161.215 82.5801C161.198 82.2707 161.198 81.9606 161.215 81.6512C161.215 81.5124 161.215 81.3737 161.268 81.2349C161.326 80.872 161.415 80.5148 161.534 80.1673C161.587 80.0098 161.651 79.8564 161.726 79.7082C161.75 79.6198 161.79 79.5366 161.843 79.4626C161.918 79.3029 162.011 79.1524 162.12 79.0142L162.301 78.7473C162.411 78.5928 162.536 78.4497 162.674 78.3203C162.718 78.2653 162.768 78.2152 162.823 78.1708L162.972 78.0427C163.105 77.9267 163.247 77.823 163.398 77.7331C163.423 77.7263 163.449 77.7263 163.473 77.7331C163.543 77.6825 163.618 77.6395 163.697 77.605L163.846 77.5302C163.963 77.465 164.089 77.4148 164.219 77.3808C164.144 77.2189 164.084 77.051 164.038 76.879C164.038 76.7402 163.963 76.5907 163.931 76.4519C163.921 76.3668 163.921 76.2808 163.931 76.1957C163.931 76.0676 163.931 75.9502 163.931 75.8434C163.931 75.7366 163.931 75.6299 163.931 75.5338C163.905 75.1962 163.905 74.8571 163.931 74.5196C163.92 74.4595 163.92 74.3981 163.931 74.3381C163.955 74.2596 163.995 74.1869 164.048 74.1245C164.094 74.0635 164.152 74.0126 164.219 73.9751C164.278 73.9252 164.347 73.8888 164.421 73.8683C164.498 73.8512 164.578 73.8512 164.655 73.8683H164.772C164.876 73.8814 164.977 73.9152 165.067 73.9675C165.158 74.0199 165.238 74.0899 165.301 74.1734C165.364 74.2569 165.411 74.3522 165.437 74.4538C165.463 74.5554 165.469 74.6612 165.454 74.7651C165.454 74.7651 165.454 74.9893 165.454 75.2882C165.454 75.5872 165.454 75.6512 165.507 75.8648C165.538 75.8351 165.567 75.803 165.593 75.7687C165.699 75.6706 165.813 75.5814 165.933 75.5018C166.007 75.4225 166.085 75.3477 166.168 75.2776H166.232L166.562 75.1174C166.73 75.0411 166.905 74.9804 167.084 74.9359C167.327 74.8588 167.577 74.8016 167.829 74.7651C168.097 74.7133 168.367 74.6812 168.639 74.669C168.863 74.669 169.076 74.669 169.278 74.669H169.938H170.237H170.546H170.609C170.743 74.6863 170.87 74.7376 170.978 74.8179C171.086 74.8983 171.172 75.0051 171.227 75.1281C171.293 75.2456 171.327 75.3779 171.327 75.5124C171.327 75.647 171.293 75.7793 171.227 75.8968C171.067 76.145 170.893 76.3838 170.705 76.6121C170.52 76.8577 170.317 77.0897 170.098 77.306C169.874 77.5423 169.628 77.7568 169.363 77.9466L169.661 78.1174C169.842 78.2213 170.016 78.3353 170.183 78.4591C170.29 78.5242 170.389 78.5993 170.482 78.6833L170.886 79.0249C171.057 79.185 171.217 79.3452 171.376 79.516C171.618 79.7781 171.845 80.0524 172.058 80.3381C172.207 80.5409 172.356 80.7544 172.495 80.9786C172.633 81.2028 172.814 81.4804 172.953 81.7473C172.83 82.4525 172.766 83.1667 172.761 83.8826C172.731 87.8565 173.284 91.8134 174.401 95.6263L174.444 95.6156ZM183.359 102.139C179.812 102.139 177.639 99.2455 176.351 95.6156C176.127 94.9964 175.935 94.3559 175.765 93.7046C175.462 92.5329 175.22 91.3463 175.04 90.1495C174.87 89.0071 174.764 87.8968 174.7 86.8719C174.7 86.8719 174.7 86.8185 174.7 86.7865C174.636 85.7189 174.614 84.7473 174.625 83.9253C174.625 83.6797 174.625 83.4448 174.625 83.21C174.659 82.641 174.744 82.0764 174.881 81.5231C175.69 78.2455 178.268 77.4769 182.017 77.4769C185.766 77.4769 189.367 78.2135 189.367 80.6797C189.367 83.4342 186.97 83.5302 185.181 83.8826V84.064H185.83C189.59 84.064 191.816 85.847 191.795 89.0178C191.795 90.9502 190.56 92.6797 187.535 93.5658V93.9822C187.94 93.8903 188.354 93.8438 188.77 93.8434C189.231 93.7906 189.697 93.8426 190.134 93.9956C190.572 94.1486 190.969 94.3986 191.297 94.7271C191.625 95.0555 191.874 95.4538 192.027 95.8924C192.179 96.3309 192.231 96.7983 192.179 97.2598C192.157 100.815 185.117 102.16 183.359 102.16V102.139Z" fill="white"/>
<path d="M144.141 98.7971C143.81 101.733 141.201 103.185 137.537 103.185C133.628 103.185 128.398 102.117 128.398 96.9075C128.398 92.8185 132.403 90.5658 134.789 88.8043V88.484C134.156 88.5559 133.519 88.5915 132.882 88.5907C129.793 88.5907 126.768 87.3203 126.768 83.4128C126.784 82.5636 126.97 81.7264 127.316 80.9509C127.661 80.1754 128.159 79.4775 128.779 78.8987C129.399 78.32 130.129 77.8722 130.926 77.5821C131.722 77.292 132.568 77.1654 133.415 77.2099C137.015 77.2099 139.805 78.4377 141.616 80.5516C141.3 81.6298 141.138 82.7479 141.137 83.8719C141.137 86.5392 141.376 89.2011 141.851 91.8256C140.72 92.9736 139.373 93.8845 137.888 94.5053V94.6441C138.426 94.4832 138.98 94.3794 139.539 94.3345C140.613 94.2801 141.681 94.52 142.628 95.0285C143.005 96.3322 143.512 97.5948 144.141 98.7971Z" fill="#FFA317"/>
<path d="M155.005 93.1815V93.5979C155.355 93.5199 155.712 93.4805 156.07 93.4804C156.636 93.482 157.198 93.561 157.743 93.7153C157.578 94.2842 157.495 94.8738 157.498 95.4662C157.471 97.0593 157.928 98.6229 158.808 99.9502C156.659 101.266 154.218 102.026 151.703 102.16C149.104 102.16 147.251 100.612 145.941 98.3594C145.17 96.9767 144.587 95.4976 144.205 93.9608C144.055 93.395 143.917 92.8292 143.8 92.2527C143.683 91.6761 143.629 91.4199 143.555 91.0035C143.47 90.4484 143.384 89.9359 143.32 89.3487C143.084 87.5508 142.974 85.7386 142.99 83.9253C142.973 83.5909 142.973 83.256 142.99 82.9217C143.028 82.3947 143.118 81.8727 143.257 81.363C143.354 80.9968 143.482 80.6397 143.64 80.2954C144.758 78.032 147.123 77.4555 150.361 77.4555C153.94 77.4555 157.7 78.1922 157.7 80.6584C157.7 83.4128 155.314 83.5089 153.525 83.8612V84.0427H154.174C157.924 84.0427 160.16 85.8256 160.128 88.9964C160.15 90.8434 158.03 92.2954 155.005 93.1815Z" fill="#FFA317"/>
<path d="M174.444 95.6263C174.14 96.7611 173.662 97.8416 173.027 98.8292C172.868 99.0841 172.69 99.3268 172.495 99.5552C172.31 99.7814 172.111 99.9954 171.898 100.196L171.568 100.495L171.291 100.708L170.854 101.018C170.7 101.115 170.54 101.204 170.375 101.285C170.224 101.373 170.063 101.445 169.896 101.498C169.711 101.587 169.518 101.658 169.321 101.712L169.065 101.786L168.479 101.904H168.138C167.855 101.926 167.57 101.926 167.286 101.904C166.999 101.904 166.722 101.904 166.434 101.904C166.045 101.879 165.657 101.833 165.273 101.765L164.943 101.701C164.581 101.628 164.225 101.528 163.878 101.402L163.473 101.263C163.259 101.182 163.049 101.089 162.845 100.986L162.44 100.772H162.365L162.269 100.708C161.957 100.524 161.662 100.313 161.385 100.078C161.153 99.8737 160.936 99.6525 160.736 99.4164C160.527 99.167 160.342 98.8989 160.182 98.6157L160.022 98.3167C159.913 98.0837 159.817 97.8449 159.734 97.6014C159.509 96.9127 159.401 96.1909 159.415 95.4662C159.415 95.3274 159.415 95.1779 159.415 95.0392C159.41 95.0109 159.41 94.982 159.415 94.9538C159.425 94.8205 159.446 94.6883 159.479 94.5587C159.473 94.5127 159.473 94.466 159.479 94.4199L159.543 94.1957V94.089C159.602 93.9304 159.681 93.7798 159.777 93.6406C159.827 93.5236 159.884 93.4095 159.947 93.2989C159.961 93.2648 159.979 93.2325 160.001 93.2029C160.063 93.0966 160.131 92.9932 160.203 92.8933C160.527 92.4745 160.974 92.1682 161.481 92.0178C161.556 91.9866 161.635 91.9651 161.716 91.9538C161.772 91.9477 161.829 91.9477 161.886 91.9538H162.195C162.909 91.9551 163.615 92.1004 164.272 92.3808C163.207 90.5445 161.215 86.7011 161.215 82.5801C161.198 82.2707 161.198 81.9606 161.215 81.6513C161.215 81.5125 161.215 81.3737 161.268 81.2349C161.326 80.872 161.415 80.5148 161.534 80.1673C161.587 80.0098 161.651 79.8564 161.726 79.7082C161.755 79.6217 161.794 79.5392 161.843 79.4626C161.918 79.3029 162.011 79.1524 162.12 79.0142L162.301 78.7473C162.411 78.5928 162.536 78.4497 162.674 78.3203C162.718 78.2653 162.768 78.2152 162.823 78.1708L162.972 78.0427C163.105 77.9267 163.247 77.823 163.398 77.7331C163.423 77.7263 163.449 77.7263 163.473 77.7331C163.543 77.6825 163.618 77.6396 163.697 77.605L163.846 77.5303C163.963 77.465 164.089 77.4148 164.219 77.3808C164.354 77.7329 164.533 78.0665 164.751 78.3737C164.785 78.3995 164.817 78.428 164.847 78.4591C164.942 78.5922 165.076 78.6929 165.23 78.7473C165.621 78.8828 166.032 78.9479 166.445 78.9395C167.058 78.9369 167.665 78.8173 168.234 78.5872L168.586 78.4271C168.859 78.2909 169.119 78.1301 169.363 77.9466L169.661 78.1175C169.842 78.2213 170.016 78.3354 170.183 78.4591C170.29 78.5243 170.389 78.5993 170.482 78.6833L170.886 79.0249C171.057 79.1851 171.217 79.3452 171.376 79.516C171.618 79.7781 171.845 80.0525 172.058 80.3381C172.207 80.5409 172.356 80.7545 172.495 80.9787C172.633 81.2029 172.814 81.4804 172.953 81.7473C172.83 82.4525 172.766 83.1667 172.761 83.8826C172.745 87.8587 173.312 91.8156 174.444 95.6263Z" fill="#FFA317"/>
<path d="M192.189 97.1637C192.189 100.826 185.117 102.171 183.359 102.171C179.812 102.171 177.639 99.2776 176.351 95.6477C176.127 95.0285 175.935 94.3879 175.765 93.7367C175.462 92.565 175.22 91.3783 175.04 90.1815C174.87 89.0392 174.764 87.9288 174.7 86.9039C174.7 86.9039 174.7 86.8505 174.7 86.8185C174.636 85.7509 174.614 84.7794 174.625 83.9573C174.625 83.7118 174.625 83.4769 174.625 83.242C174.659 82.6731 174.744 82.1085 174.881 81.5552C175.69 78.2776 178.268 77.5089 182.017 77.5089C185.766 77.5089 189.367 78.2456 189.367 80.7118C189.367 83.4662 186.97 83.5623 185.181 83.9146V84.0961H185.83C189.59 84.0961 191.816 85.879 191.795 89.0498C191.795 90.9822 190.56 92.7118 187.535 93.5979V94.0142C187.94 93.9224 188.354 93.8758 188.77 93.8755C189.22 93.8241 189.675 93.8726 190.104 94.0177C190.532 94.1627 190.924 94.4007 191.25 94.7147C191.577 95.0286 191.83 95.4109 191.992 95.8342C192.155 96.2575 192.222 96.7114 192.189 97.1637Z" fill="#FFA317"/>
<path d="M171.217 75.8968C171.056 76.145 170.882 76.3839 170.695 76.6121C170.509 76.8578 170.306 77.0897 170.088 77.3061C169.867 77.5418 169.624 77.7563 169.363 77.9466C169.119 78.1264 168.858 78.2836 168.586 78.4164L168.234 78.5765C167.665 78.8067 167.058 78.9262 166.445 78.9288C166.032 78.9372 165.621 78.8722 165.23 78.7367C165.076 78.6822 164.942 78.5816 164.847 78.4484C164.817 78.4174 164.785 78.3888 164.751 78.363C164.533 78.0558 164.354 77.7222 164.219 77.3701C164.145 77.2116 164.084 77.0474 164.038 76.879C164.038 76.7402 163.963 76.5908 163.931 76.452C163.921 76.3669 163.921 76.2808 163.931 76.1957C163.931 76.0676 163.931 75.9502 163.931 75.8434C163.931 75.7367 163.931 75.6299 163.931 75.5338C163.905 75.1962 163.905 74.8572 163.931 74.5196C163.92 74.4596 163.92 74.3981 163.931 74.3381C163.955 74.2596 163.995 74.1869 164.048 74.1246C164.094 74.0635 164.152 74.0126 164.219 73.9751C164.278 73.9252 164.347 73.8888 164.421 73.8683C164.498 73.8513 164.578 73.8513 164.655 73.8683H164.772C164.876 73.8815 164.977 73.9152 165.067 73.9676C165.158 74.0199 165.238 74.0899 165.301 74.1734C165.364 74.2569 165.411 74.3522 165.437 74.4538C165.463 74.5554 165.469 74.6613 165.454 74.7651C165.454 74.7651 165.454 74.9893 165.454 75.2883C165.454 75.5872 165.454 75.6513 165.507 75.8648C165.538 75.8352 165.567 75.803 165.593 75.7687C165.699 75.6707 165.813 75.5814 165.933 75.5018C166.007 75.4226 166.085 75.3477 166.168 75.2776H166.232L166.562 75.1175C166.73 75.0411 166.905 74.9804 167.084 74.936C167.328 74.8627 167.577 74.8057 167.829 74.7651C168.096 74.7651 168.373 74.6904 168.639 74.6691C168.905 74.6477 169.076 74.6691 169.278 74.6691H169.938H170.237H170.546H170.609C170.743 74.6863 170.87 74.7376 170.978 74.8179C171.086 74.8983 171.172 75.0051 171.227 75.1281C171.291 75.2466 171.323 75.3793 171.321 75.5139C171.32 75.6484 171.284 75.7802 171.217 75.8968Z" fill="#67C891"/>
</g>
<defs>
<clipPath id="clip0_7051_29726">
<rect width="69" height="33" fill="white" transform="translate(125 72)"/>
</clipPath>
</defs>
</svg>
