<svg width="120" height="120" viewBox="0 0 120 120" fill="none" xmlns="http://www.w3.org/2000/svg">
<path d="M92.713 40.3973L92.7129 40.3973C92.5569 40.5832 92.3928 40.7772 92.2215 40.9741C92.1925 41.1102 92.1642 41.2465 92.1365 41.3829C92.8615 42.2481 93.5979 43.1343 94.3052 44.0396C94.3055 44.04 94.3059 44.0404 94.3062 44.0409L93.5182 44.6565C98.4923 51.0024 102.519 58.1601 104.056 65.8445L92.713 40.3973ZM92.713 40.3973L92.7206 40.388M92.713 40.3973L92.7206 40.388M92.7206 40.388C93.9854 38.8433 95.2007 36.9996 95.5051 34.843L95.5052 34.8425M92.7206 40.388L95.5052 34.8425M95.5052 34.8425C96.0173 31.2011 93.661 29.0242 91.524 27.219M95.5052 34.8425L91.524 27.219M91.524 27.219C94.254 25.1312 97.5845 23.5606 101.018 22.151L101.049 22.1383L101.079 22.1235C101.304 22.0127 101.508 21.8501 101.666 21.6405C101.825 21.4302 101.932 21.1799 101.968 20.9092C102.004 20.6381 101.967 20.3652 101.863 20.1161C101.863 20.1161 101.863 20.116 101.863 20.116L100.94 20.5002M91.524 27.219L101.138 19.2324L101.129 19.224C101.008 19.1 100.859 18.9486 100.697 18.803C100.392 18.5282 99.9276 18.1634 99.3282 18.0426C98.7257 17.9211 98.1303 18.0822 97.7153 18.2301C97.3677 18.354 97.0172 18.5196 96.762 18.6402C96.7086 18.6654 96.6594 18.6887 96.6152 18.7092M100.94 20.5002C100.903 20.4119 100.844 20.3327 100.766 20.2692M100.94 20.5002C100.977 20.5885 100.989 20.6834 100.977 20.7769C100.965 20.8704 100.927 20.96 100.868 21.0381C100.809 21.1162 100.73 21.1806 100.638 21.2259L100.94 20.5002ZM100.766 20.2692L101.436 19.5273C101.432 19.5235 101.428 19.5196 101.423 19.5157C101.415 19.5085 101.407 19.5015 101.398 19.4945L100.766 20.2692ZM100.766 20.2692C100.661 20.175 100.552 20.0631 100.436 19.9454C100.063 19.5647 99.6295 19.1235 99.1306 19.0229C98.5452 18.9049 97.7861 19.2629 97.2107 19.5344C97.1443 19.5657 97.0802 19.5959 97.0192 19.6241M97.0192 19.6241L96.632 18.7021C96.6264 18.7045 96.6208 18.7068 96.6152 18.7092M97.0192 19.6241C95.5577 20.2378 94.1636 20.9725 92.8553 21.8184L97.0192 19.6241ZM96.6152 18.7092C95.1081 19.3432 93.6689 20.1019 92.3166 20.9759C91.4239 21.5403 90.5723 22.1551 89.767 22.8162M96.6152 18.7092L89.767 22.8162M89.767 22.8162C89.7625 22.1146 89.7295 21.4131 89.6679 20.713L89.767 22.8162ZM74.8606 4.67619C74.8606 4.67618 74.8606 4.67617 74.8606 4.67617L75.6968 5.22462L74.8606 4.67619ZM74.8606 4.67619C74.6576 4.98569 74.5802 5.3665 74.6606 5.73978M74.8606 4.67619L74.6606 5.73978M74.6606 5.73978C74.8086 6.50727 75.017 7.26385 75.2839 8.00387C75.4044 8.59665 75.495 9.19202 75.5899 9.81565C75.6151 9.98103 75.6405 10.1484 75.667 10.3182C75.7944 11.1374 75.9414 11.9964 76.1788 12.8522M74.6606 5.73978L26.1682 46.345C29.2949 43.7464 32.5697 41.2947 35.9793 38.9995C39.5958 36.4823 43.3171 33.9506 47.3847 31.8853C53.6233 28.7131 61.0073 26.7147 68.2192 27.5799C68.5456 27.5251 68.8682 27.4633 69.1893 27.393C70.7513 26.2353 72.3359 25.0713 73.9451 23.9267M76.1788 12.8522C76.1787 12.8518 76.1786 12.8515 76.1785 12.8511L77.1424 12.5848L76.1788 12.8522ZM76.1788 12.8522C76.628 14.4777 77.4041 16.0103 78.4638 17.3759L78.4659 17.3786C79.7172 18.9795 81.2832 20.3365 83.0692 21.3932M83.0692 21.3932C81.8452 21.0709 80.5054 21.0014 79.0341 21.3344M83.0692 21.3932C84.075 21.9883 85.1505 22.4882 86.2789 22.8827M83.0692 21.3932C84.2407 21.7017 85.306 22.2419 86.2789 22.8827M79.0341 21.3344C77.0043 21.7916 75.3745 22.9073 73.9451 23.9267M79.0341 21.3344L79.2538 22.3099L79.033 21.3346C79.0334 21.3345 79.0337 21.3344 79.0341 21.3344ZM73.9451 23.9267C73.9449 23.9268 73.9448 23.9269 73.9446 23.927L74.5252 24.7412L73.9456 23.9263C73.9454 23.9264 73.9452 23.9266 73.9451 23.9267ZM86.2789 22.8827C86.4479 22.9419 86.6182 22.9986 86.7895 23.053M86.2789 22.8827C86.3175 22.9082 86.3559 22.9337 86.3942 22.9594M86.7895 23.053L85.8876 23.824M86.7895 23.053C86.7894 23.0911 86.7892 23.1293 86.7889 23.1676M86.7895 23.053L87.755 23.7514M86.3942 22.9594C86.3746 22.9495 86.3549 22.9396 86.3352 22.9297L85.8876 23.824M86.3942 22.9594C86.4124 22.9717 86.4306 22.9839 86.4487 22.9962L85.8876 23.824M86.3942 22.9594C86.5271 23.0268 86.6587 23.0961 86.7889 23.1676M85.8876 23.824C86.1841 23.9724 86.4733 24.1316 86.7546 24.3014C86.7737 23.9165 86.7858 23.5397 86.7889 23.1676M86.7889 23.1676C87.1201 23.3492 87.4424 23.544 87.755 23.7514M87.755 23.7514C87.7423 24.1427 87.72 24.5338 87.688 24.9244L87.755 23.7514ZM87.755 23.7514C87.7624 23.7563 87.7697 23.7612 87.7771 23.7661L87.755 23.7514ZM18.5273 85.3565C22.2598 91.6607 27.9665 96.8325 34.9273 100.248L26.1681 46.345C22.9935 48.9826 20.2631 52.0236 18.0656 55.3735L18.06 55.3819L18.0546 55.3905C16.0891 58.5228 14.8091 61.9682 14.2886 65.5407C13.2676 72.388 15.0191 79.3518 18.5244 85.3515L18.5273 85.3565Z" fill="white" stroke="white" stroke-width="2"/>
<path d="M104.322 65.8851C102.781 58.2421 98.7435 51.1228 93.7555 44.8111C92.9578 43.7985 92.1207 42.8076 91.2935 41.8299C91.3674 41.4457 91.4462 41.066 91.5299 40.6862C91.7564 40.4331 91.973 40.1799 92.1798 39.9355C93.4157 38.4383 94.4892 36.7796 94.7551 34.9114C95.213 31.6813 93.0218 29.8219 90.7076 27.8926C89.5252 26.3245 87.9494 25.0202 86.1037 24.082C84.208 22.8074 82.0562 21.9911 79.4514 22.5761C77.6345 22.982 76.1474 23.9772 74.7096 24.9942C73.0453 26.1684 71.4057 27.3644 69.7857 28.556C69.3278 28.6608 68.8698 28.7481 68.407 28.8223C61.3854 27.9493 54.1275 29.8699 47.948 32.9865C43.9349 35.0074 40.2518 37.4911 36.6229 39.9966C33.229 42.2622 29.9699 44.6821 26.8587 47.2468C23.7492 49.8092 21.0785 52.7605 18.9311 56.0072C17.0318 59.0093 15.7984 62.306 15.2972 65.7192C14.3125 72.2667 15.9964 78.9669 19.4186 84.7766C23.0561 90.8704 28.6282 95.8857 35.4461 99.2028C42.6498 102.751 50.8531 104.493 59.081 104.777C67.3089 105.061 75.7584 103.991 83.361 101.285C87.3299 99.9211 91.0105 97.9731 94.2479 95.5231C97.2874 93.1512 99.7545 90.2589 101.501 87.0202C104.967 80.4728 105.755 72.9825 104.322 65.8851ZM54.4279 101.573C55.2896 101.704 56.1513 101.826 57.013 101.927C55.7377 101.844 54.4722 101.726 53.2117 101.56C53.6204 101.577 54.029 101.577 54.4279 101.573Z" fill="#FE9F01"/>
<path d="M41.9505 56.1776C41.554 55.7357 41.0529 55.3764 40.4826 55.125C39.9123 54.8735 39.2868 54.7361 38.65 54.7223C38.0133 54.7086 37.3809 54.8189 36.7975 55.0455C36.2141 55.272 35.6939 55.6093 35.2736 56.0336C32.9643 57.5089 31.9106 60.4552 32.6393 63.0175C33.6635 66.6404 38.0557 69.159 41.8274 66.6622C45.348 64.3313 44.5799 58.8402 41.9505 56.1776Z" fill="white"/>
<path d="M39.6938 59.722C39.6632 59.2311 39.4909 58.7553 39.1935 58.3403C38.896 57.9253 38.4834 57.5849 37.9951 57.3518C37.9462 57.3327 37.8934 57.3228 37.84 57.3228C37.7865 57.3228 37.7337 57.3327 37.6849 57.3518C37.2235 57.0872 36.6932 56.9322 36.1448 56.9016C35.5964 56.871 35.0483 56.9659 34.5532 57.1772C33.7628 57.5858 33.1518 58.2197 32.82 58.9756C32.3691 59.8699 32.1487 60.8422 32.1749 61.8215C32.1708 62.7752 32.4955 63.7073 33.1056 64.4929C33.3824 64.8247 33.7399 65.0971 34.1516 65.2898C34.5633 65.4824 35.0186 65.5905 35.4838 65.6059C36.3698 65.6161 37.2349 65.3676 37.9458 64.8988C38.7109 64.3794 39.2515 63.6428 39.4772 62.8124C39.7605 61.8024 39.8339 60.7552 39.6938 59.722ZM38.709 59.316C38.6598 59.1851 38.6007 59.0585 38.5465 58.9276L38.6007 58.9057C38.6952 59.0777 38.7647 59.2595 38.8075 59.447C38.7936 59.3964 38.7627 59.3507 38.7189 59.316H38.709Z" fill="#141414"/>
<path d="M71.888 57.7142C71.4915 57.2724 70.9904 56.913 70.4201 56.6616C69.8498 56.4101 69.2243 56.2727 68.5875 56.259C67.9508 56.2452 67.3184 56.3555 66.735 56.5821C66.1516 56.8086 65.6314 57.1459 65.2111 57.5702C62.9018 59.0455 61.8481 61.9919 62.5768 64.5541C63.601 68.177 67.9931 70.6956 71.76 68.1988C75.2806 65.8679 74.5026 60.3812 71.888 57.7142Z" fill="white"/>
<path d="M70.5337 59.469C70.5023 59.4317 70.4743 59.3923 70.45 59.3511C70.5239 59.5082 70.5386 59.5344 70.4992 59.4209C70.4992 59.6043 70.5288 59.6392 70.4992 59.517V59.4515C70.4648 59.6305 70.4648 59.6654 70.4992 59.5475C70.4254 59.7003 70.4155 59.7309 70.4648 59.6392C70.5811 59.4547 70.6453 59.2481 70.6519 59.0368C70.659 58.8207 70.5989 58.6071 70.4781 58.4192C70.3574 58.2314 70.1808 58.0766 69.9675 57.9718C69.7382 57.8641 69.4809 57.8118 69.2216 57.8202C68.9623 57.8286 68.71 57.8975 68.4903 58.0198C67.9827 58.2713 67.6049 58.6875 67.4365 59.1809C67.3477 59.494 67.3783 59.8243 67.5235 60.1204C67.6686 60.4165 67.9203 60.6617 68.2391 60.8177C68.5224 60.9535 68.8541 60.9863 69.1642 60.9092C69.4743 60.8322 69.7384 60.6513 69.9008 60.4048C70.0631 60.1582 70.1111 59.8654 70.0344 59.5882C69.9577 59.3109 69.7624 59.0709 69.4898 58.919C69.3027 58.8317 69.3914 58.919 69.7557 59.1809C69.8281 59.2923 69.8655 59.4189 69.8641 59.5475L69.8296 59.7396C69.7311 59.9142 69.7163 59.9535 69.7853 59.8487C69.5834 60.1237 69.7459 59.936 69.7853 59.8836C69.6326 59.984 69.608 60.0015 69.7163 59.9316C69.9034 59.8356 69.7754 59.8662 69.3372 60.0189L68.7118 59.8662L68.7611 59.8924L68.3179 59.4995V59.5432L68.1505 58.9888L68.2687 58.5785C68.2325 58.6405 68.2012 58.7047 68.1751 58.7706C68.1335 58.8435 68.0989 58.9194 68.0717 58.9975C68.0139 59.1778 67.9857 59.3645 67.988 59.5519C67.9995 59.9153 68.1202 60.2694 68.3376 60.5777C68.5091 60.8193 68.7798 60.9924 69.0925 61.0604C69.4053 61.1284 69.7356 61.0859 70.0137 60.9419C70.2918 60.798 70.4958 60.5639 70.5828 60.289C70.6697 60.0141 70.6327 59.7201 70.4795 59.469H70.5337Z" fill="white"/>
<path d="M69.6321 61.2582C69.6001 60.7676 69.4272 60.2924 69.1299 59.8776C68.8326 59.4628 68.4207 59.1222 67.9333 58.8881C67.8836 58.8689 67.83 58.8589 67.7757 58.8589C67.7215 58.8589 67.6679 58.8689 67.6182 58.8881C67.157 58.6231 66.6266 58.4678 66.0781 58.4372C65.5297 58.4067 64.9815 58.5018 64.4865 58.7135C63.6987 59.1236 63.0898 59.7572 62.7582 60.5118C62.3057 61.4058 62.0853 62.3783 62.1132 63.3578C62.1059 64.3119 62.4309 65.2448 63.0438 66.0291C63.3206 66.361 63.6781 66.6333 64.0898 66.826C64.5015 67.0187 64.9569 67.1268 65.4221 67.1422C66.3083 67.154 67.174 66.9053 67.8841 66.4351C68.6489 65.9147 69.1908 65.1787 69.4203 64.3486C69.6995 63.3381 69.7713 62.2913 69.6321 61.2582ZM68.6473 60.8523L68.4848 60.4638L68.539 60.442C68.6291 60.6155 68.6984 60.7969 68.7458 60.9833C68.73 60.9333 68.6994 60.8881 68.6571 60.8523H68.6473Z" fill="#141414"/>
<path d="M74.4436 29.9668C75.0611 29.2653 75.7814 28.6399 76.5855 28.1073C76.9918 27.842 77.4178 27.6013 77.8608 27.3871C78.0873 27.2736 78.3188 27.1732 78.5551 27.0772C78.7679 26.9859 78.9866 26.9057 79.21 26.8371C79.3961 26.7864 79.5533 26.6745 79.6494 26.5244C79.7455 26.3743 79.7733 26.1972 79.727 26.0296C79.6679 25.8668 79.5402 25.7305 79.3704 25.6491C79.2007 25.5678 79.0021 25.5477 78.8161 25.5931C76.6813 26.291 74.8064 27.4997 73.3997 29.0851C73.2671 29.2104 73.1934 29.3759 73.1934 29.5477C73.1934 29.7196 73.2671 29.885 73.3997 30.0104C73.5382 30.133 73.7259 30.2019 73.9217 30.2019C74.1174 30.2019 74.3051 30.133 74.4436 30.0104V29.9668Z" fill="#FFD187"/>
<path d="M73.3946 30.647C73.5325 30.7212 73.6703 30.7998 73.8033 30.8827L74.0002 31.005C74.1086 31.0792 73.9165 30.9439 74.0002 31.005L74.0938 31.0748C74.3492 31.2539 74.588 31.451 74.8078 31.6641C74.9161 31.7688 75.0244 31.878 75.1229 31.9871C75.1427 32.0114 75.1641 32.0347 75.1869 32.0569C75.054 31.9303 75.1574 32.0264 75.1869 32.0569L75.3149 32.2141C75.4085 32.3319 75.4971 32.4541 75.5808 32.5763L75.699 32.764C75.7581 32.8601 75.699 32.764 75.699 32.7291V32.764C75.6753 32.6577 75.689 32.5475 75.7383 32.4483C75.7876 32.3492 75.8702 32.2658 75.9747 32.2097L76.349 32.118L76.5115 32.1398L76.8364 32.3057C76.9237 32.3989 76.9778 32.5129 76.9918 32.6334C77.0059 32.7538 76.9792 32.8753 76.9152 32.9823L76.6493 33.218L76.2751 33.3053L75.9009 33.2136C76.0685 33.291 76.2627 33.3097 76.4451 33.266C76.6275 33.2223 76.7848 33.1195 76.8857 32.9779C76.9745 32.8301 76.997 32.6579 76.9486 32.496C76.9002 32.3341 76.7845 32.1944 76.6247 32.1049C76.4769 32.029 76.3052 31.9977 76.1356 32.0158C75.9659 32.0339 75.8075 32.1004 75.6842 32.2053C75.586 32.2957 75.5165 32.4075 75.4828 32.5294C75.4491 32.6513 75.4523 32.7789 75.4922 32.8994C75.5274 33.019 75.5971 33.1285 75.6942 33.2172C75.7914 33.3059 75.9129 33.3708 76.0468 33.4055C76.1807 33.4403 76.3224 33.4437 76.4582 33.4154C76.594 33.3871 76.7192 33.3281 76.8217 33.2442C77.4519 32.7509 76.8561 31.9914 76.4868 31.5331C75.8665 30.722 75.0613 30.0351 74.1233 29.5165C73.9539 29.4304 73.753 29.4068 73.5641 29.4509C73.3752 29.495 73.2135 29.6033 73.1139 29.7522C73.0267 29.9008 73.0056 30.073 73.0549 30.2347C73.1041 30.3964 73.2201 30.5358 73.3798 30.6252L73.3946 30.647Z" fill="#FFD187"/>
<path d="M101.004 20.5557C100.56 20.1585 100.019 19.447 99.3639 19.3161C98.709 19.1851 97.8572 19.6434 97.2663 19.9141C95.8007 20.5245 94.4028 21.2551 93.0908 22.0965C91.555 23.0593 90.1475 24.1737 88.8956 25.4183C89.0236 23.9757 89.0236 22.5264 88.8956 21.0839C88.738 19.2986 88.5115 17.3649 87.6154 15.7455C86.217 13.1964 83.2183 11.6949 80.6775 9.99252C79.2003 9.00168 77.7724 7.88425 76.9698 6.42636C76.9698 6.42636 76.9452 6.42636 76.9353 6.39144C76.8713 6.13827 76.8122 5.88947 76.763 5.6363C76.7137 5.38314 76.3937 5.32639 76.1622 5.39623C76.0454 5.42864 75.9464 5.49845 75.8845 5.59206C75.8226 5.68568 75.8022 5.79637 75.8274 5.90257C75.9705 6.6423 76.1746 7.37175 76.438 8.08504C76.7728 9.68698 76.891 11.3282 77.3341 12.9127C77.7486 14.4006 78.4661 15.8088 79.4514 17.0681C81.4902 19.6532 84.4316 21.572 87.8222 22.5287C87.8793 22.5459 87.9391 22.5547 87.9994 22.5549C88.0444 23.9471 87.9736 25.3404 87.7877 26.7234C87.4404 27.1892 87.1405 27.6815 86.8915 28.1944C86.7487 28.5043 87.0737 28.836 87.4233 28.8971C87.5161 28.9124 87.6112 28.9124 87.704 28.8971C87.8495 29.0032 88.0355 29.0556 88.2235 29.0434C88.4114 29.0312 88.5868 28.9554 88.7134 28.8317C91.8943 25.5143 96.38 23.3536 100.895 21.516C100.988 21.4696 101.068 21.4041 101.126 21.3248C101.185 21.2456 101.221 21.155 101.231 21.0608C101.242 20.9666 101.227 20.8715 101.187 20.7836C101.147 20.6957 101.085 20.6175 101.004 20.5557ZM99.29 20.8613C99.29 20.8613 99.29 20.8613 99.29 20.8351V20.8613Z" fill="#70A333"/>
<path d="M82.0017 65.9549L79.8794 66.2037C79.6924 66.216 79.5065 66.2393 79.323 66.2736C79.1964 66.3026 79.0841 66.368 79.0039 66.4597C78.9237 66.5513 78.8801 66.6639 78.8799 66.7799C78.885 66.9065 78.9464 67.0262 79.0506 67.1128C79.1548 67.1995 79.2934 67.2461 79.4363 67.2426C79.5095 67.2433 79.5819 67.2296 79.6483 67.2024C79.7148 67.1753 79.7735 67.1353 79.8204 67.0855L80.0567 67.0549L80.7067 66.9807L82.0017 66.8279C82.1306 66.8224 82.253 66.7759 82.3463 66.697C82.4391 66.6164 82.4922 66.5066 82.4941 66.3914C82.4547 66.1776 82.2479 65.9113 82.0017 65.9549Z" fill="#FF9400"/>
<path d="M80.6428 68.1946C81.767 68.2736 82.8982 68.2074 84.0009 67.9982C84.1301 67.984 84.2476 67.925 84.3279 67.8342C84.4082 67.7435 84.4446 67.6282 84.4293 67.5136C84.4133 67.3992 84.3468 67.295 84.2444 67.2238C84.142 67.1527 84.012 67.1203 83.8828 67.1339C82.8681 67.3315 81.8265 67.3976 80.7905 67.3303C80.7258 67.3217 80.6599 67.3245 80.5965 67.3385C80.533 67.3525 80.4733 67.3774 80.4207 67.4119C80.3681 67.4463 80.3237 67.4896 80.29 67.5393C80.2563 67.5889 80.234 67.644 80.2243 67.7013C80.2146 67.7587 80.2177 67.8171 80.2335 67.8734C80.2493 67.9296 80.2774 67.9825 80.3163 68.0292C80.3551 68.0758 80.404 68.1151 80.46 68.145C80.516 68.1749 80.5781 68.1947 80.6428 68.2033V68.1946Z" fill="#FF9400"/>
<path d="M88.6191 68.9321L82.2179 68.4956C81.5877 68.4475 81.5926 69.3205 82.2179 69.3685L87.7229 69.7614C87.7649 69.7974 87.8154 69.8248 87.8707 69.8414C87.9261 69.858 87.9849 69.8635 88.043 69.8574L88.6289 69.8269C88.6952 69.8263 88.7607 69.8142 88.8217 69.7911C88.8827 69.7681 88.9379 69.7347 88.9843 69.6927C89.0308 69.6508 89.0674 69.6011 89.0922 69.5466C89.1169 69.4921 89.1293 69.4338 89.1287 69.3751C89.128 69.3163 89.1143 69.2583 89.0884 69.2042C89.0624 69.1502 89.0247 69.1012 88.9774 69.06C88.9301 69.0189 88.8741 68.9864 88.8126 68.9644C88.7511 68.9425 88.6853 68.9315 88.6191 68.9321Z" fill="#FF9400"/>
<path d="M82.332 70.888C82.8355 71.0981 83.3922 71.1884 83.947 71.1499C84.0774 71.1483 84.2023 71.1031 84.2966 71.0233C84.3467 70.9844 84.3874 70.9369 84.4162 70.8836C84.445 70.8303 84.4612 70.7724 84.464 70.7134C84.464 70.5976 84.4122 70.4866 84.3198 70.4048C84.2275 70.3229 84.1022 70.2769 83.9716 70.2769C83.7671 70.2965 83.5607 70.2965 83.3562 70.2769H83.4891C83.2533 70.2505 83.0229 70.1947 82.8047 70.111L82.9228 70.1547L82.8539 70.1285C82.7379 70.0732 82.6029 70.0577 82.4748 70.0849C82.3504 70.1149 82.2444 70.187 82.1793 70.2856C82.1463 70.3359 82.1249 70.3916 82.1164 70.4493C82.1079 70.507 82.1126 70.5656 82.1301 70.6217C82.164 70.732 82.2453 70.826 82.3566 70.8836L82.332 70.888Z" fill="#FF9400"/>
<path d="M28.6362 65.0387C27.7689 64.8743 26.8694 64.9013 26.0166 65.1172C25.9542 65.1324 25.8958 65.1583 25.8447 65.1935C25.7935 65.2287 25.7508 65.2725 25.7187 65.3223C25.6867 65.3722 25.6661 65.4272 25.6581 65.4841C25.6501 65.541 25.6548 65.5988 25.672 65.6541C25.6891 65.7095 25.7183 65.7613 25.758 65.8066C25.7977 65.8519 25.8471 65.8898 25.9033 65.9182C25.9596 65.9466 26.0216 65.9648 26.0858 65.972C26.15 65.9791 26.2152 65.9749 26.2776 65.9597C26.4569 65.9115 26.6394 65.8736 26.8242 65.8462C26.8242 65.8462 27.031 65.82 26.9079 65.8462H27.0408H27.3215C27.5084 65.8353 27.6959 65.8353 27.8828 65.8462H28.0355C28.1438 65.8462 27.9567 65.8462 28.0749 65.8462L28.3752 65.8942C28.4376 65.9094 28.5028 65.9135 28.567 65.9064C28.6312 65.8993 28.6932 65.881 28.7494 65.8526C28.8057 65.8242 28.8551 65.7863 28.8948 65.741C28.9345 65.6957 28.9637 65.644 28.9809 65.5886C28.998 65.5333 29.0027 65.4756 28.9946 65.4187C28.9866 65.3617 28.966 65.3068 28.934 65.2569C28.902 65.2071 28.8592 65.1633 28.8081 65.1281C28.757 65.0929 28.6986 65.0669 28.6362 65.0518V65.0387Z" fill="#FF9400"/>
<path d="M28.7594 66.3746C28.5508 66.4388 28.3367 66.4884 28.1193 66.523H27.9765C28.0799 66.523 27.9421 66.523 27.9224 66.523H27.5925C27.3885 66.5274 27.1844 66.5187 26.9819 66.4968H26.908L26.7505 66.4662C26.6421 66.4662 26.5338 66.4226 26.4255 66.3964C26.2995 66.3657 26.1649 66.3807 26.0513 66.438C25.9377 66.4953 25.8544 66.5902 25.8198 66.702C25.7852 66.8137 25.8021 66.933 25.8667 67.0337C25.9314 67.1344 26.0385 67.2082 26.1645 67.2388C27.097 67.4867 28.0919 67.4806 29.0204 67.2214C29.0828 67.2062 29.1413 67.1803 29.1924 67.1451C29.2435 67.1099 29.2863 67.0661 29.3183 67.0163C29.3503 66.9664 29.3709 66.9114 29.379 66.8545C29.387 66.7976 29.3823 66.7398 29.3651 66.6845C29.348 66.6292 29.3188 66.5773 29.2791 66.532C29.2394 66.4867 29.19 66.4488 29.1337 66.4204C29.0775 66.392 29.0155 66.3738 28.9512 66.3666C28.887 66.3595 28.8218 66.3637 28.7594 66.379V66.3746Z" fill="#FF9400"/>
<path d="M28.8812 67.8149C26.7934 68.0114 24.7106 68.2907 22.6524 68.6574C22.59 68.6725 22.5315 68.6984 22.4804 68.7336C22.4293 68.7688 22.3865 68.8126 22.3545 68.8625C22.3225 68.9123 22.3019 68.9673 22.2938 69.0242C22.2858 69.0812 22.2905 69.139 22.3077 69.1943C22.3499 69.3138 22.4189 69.4246 22.5105 69.5199C22.6022 69.6152 22.7146 69.6931 22.841 69.749C22.9675 69.8048 23.1054 69.8375 23.2464 69.8449C23.3875 69.8523 23.5288 69.8344 23.6618 69.7923C23.7242 69.7771 23.7827 69.7512 23.8338 69.716C23.8849 69.6808 23.9277 69.637 23.9597 69.5872C23.9917 69.5373 24.0123 69.4823 24.0203 69.4254C24.0284 69.3685 24.0237 69.3107 24.0065 69.2554C23.9678 69.1478 23.8836 69.0577 23.7716 69.004C23.6596 68.9503 23.5285 68.9371 23.4058 68.9673C23.4058 68.9673 23.2827 69.0284 23.263 68.9673L22.9183 69.5042C24.8879 69.1492 26.8771 68.8785 28.8861 68.6923C29.0167 68.6923 29.1419 68.6463 29.2343 68.5644C29.3266 68.4826 29.3785 68.3716 29.3785 68.2558C29.3785 68.14 29.3266 68.029 29.2343 67.9472C29.1419 67.8653 29.0167 67.8193 28.8861 67.8193L28.8812 67.8149Z" fill="#FF9400"/>
<path d="M28.4036 68.7226C27.4888 69.0307 26.5086 69.1559 25.5329 69.0893C25.4023 69.0893 25.2771 69.1353 25.1847 69.2171C25.0924 69.299 25.0405 69.41 25.0405 69.5258C25.0405 69.6415 25.0924 69.7526 25.1847 69.8344C25.2771 69.9163 25.4023 69.9623 25.5329 69.9623C26.5966 70.0235 27.663 69.8883 28.6646 69.5651C28.7906 69.5344 28.8977 69.4606 28.9623 69.3599C29.027 69.2592 29.0438 69.1399 29.0092 69.0282C28.9746 68.9165 28.8914 68.8215 28.7778 68.7642C28.6642 68.7069 28.5296 68.6919 28.4036 68.7226Z" fill="#FF9400"/>
<path d="M54.5956 62.6943C54.5785 62.6389 54.5493 62.5871 54.5096 62.5418C54.4699 62.4965 54.4205 62.4586 54.3642 62.4302C54.308 62.4018 54.246 62.3835 54.1817 62.3764C54.1175 62.3693 54.0523 62.3735 53.9899 62.3887L50.9075 62.8863C50.8151 62.9096 50.7324 62.9564 50.6696 63.0208C50.6068 63.0853 50.5666 63.1647 50.554 63.2491C50.5415 63.3336 50.5571 63.4194 50.5989 63.4961C50.6407 63.5728 50.7069 63.637 50.7894 63.6807C51.0546 63.8076 51.3637 63.8418 51.656 63.7768C51.7633 63.7498 51.8559 63.6893 51.917 63.6065L54.2509 63.2312C54.3133 63.216 54.3718 63.1901 54.4229 63.1549C54.474 63.1197 54.5168 63.0759 54.5488 63.0261C54.5808 62.9762 54.6014 62.9212 54.6095 62.8643C54.6175 62.8074 54.6128 62.7496 54.5956 62.6943Z" fill="#FF9400"/>
<path d="M56.1904 64.1662C55.954 63.8083 55.4222 63.9043 55.0332 63.9174L52.8913 64.0003C52.7607 64.0003 52.6355 64.0463 52.5431 64.1282C52.4508 64.21 52.3989 64.3211 52.3989 64.4368C52.3989 64.5526 52.4508 64.6636 52.5431 64.7455C52.6355 64.8273 52.7607 64.8733 52.8913 64.8733L54.2996 64.8166H54.9742H55.3139H55.3631C55.447 64.881 55.5516 64.9203 55.6621 64.929C55.7726 64.9376 55.8834 64.9151 55.9786 64.8646C56.0464 64.8329 56.106 64.7892 56.1538 64.7362C56.2016 64.6831 56.2365 64.6219 56.2564 64.5564C56.2763 64.4908 56.2807 64.4223 56.2693 64.3552C56.2579 64.288 56.2311 64.2237 56.1904 64.1662Z" fill="#FF9400"/>
<path d="M49.051 66.9857C51.9477 66.9318 54.8451 67.0573 57.7221 67.3611C58.3474 67.4266 58.3425 66.5536 57.7221 66.4881C54.8451 66.1843 51.9477 66.0589 49.051 66.1127C48.9204 66.1127 48.7952 66.1587 48.7028 66.2406C48.6105 66.3224 48.5586 66.4335 48.5586 66.5492C48.5586 66.665 48.6105 66.776 48.7028 66.8579C48.7952 66.9397 48.9204 66.9857 49.051 66.9857Z" fill="#FF9400"/>
<path d="M53.9941 68.1769C54.729 68.3572 55.5037 68.3677 56.2444 68.2074C56.3704 68.1762 56.4773 68.1018 56.5414 68.0007C56.6056 67.8996 56.6219 67.7801 56.5866 67.6683C56.5513 67.5566 56.4675 67.4619 56.3534 67.405C56.2394 67.3481 56.1045 67.3337 55.9785 67.365L55.7323 67.413H55.624C55.5107 67.413 55.7126 67.413 55.624 67.413C55.46 67.4216 55.2956 67.4216 55.1316 67.413H54.8903H54.782H54.7081H54.7524C54.5899 67.3868 54.4275 67.3606 54.26 67.3213C54.1976 67.3061 54.1325 67.3019 54.0682 67.309C54.004 67.3161 53.942 67.3344 53.8858 67.3628C53.8295 67.3912 53.7801 67.4291 53.7404 67.4744C53.7007 67.5197 53.6715 67.5715 53.6544 67.6269C53.6372 67.6822 53.6325 67.74 53.6405 67.7969C53.6485 67.8538 53.6692 67.9088 53.7012 67.9587C53.7332 68.0085 53.776 68.0523 53.8271 68.0875C53.8782 68.1227 53.9366 68.1486 53.9991 68.1638L53.9941 68.1769Z" fill="#FF9400"/>
<path d="M74.9152 73.1138C76.1385 73.0835 77.3578 73.2491 78.5147 73.6026C78.6407 73.6339 78.7755 73.6195 78.8896 73.5626C79.0036 73.5057 79.0875 73.411 79.1228 73.2993C79.158 73.1876 79.1418 73.068 79.0776 72.9669C79.0134 72.8658 78.9066 72.7915 78.7806 72.7602C77.5369 72.3858 76.2282 72.2099 74.9152 72.2408C74.7847 72.2408 74.6594 72.2868 74.5671 72.3686C74.4747 72.4505 74.4229 72.5615 74.4229 72.6773C74.4229 72.793 74.4747 72.9041 74.5671 72.9859C74.6594 73.0678 74.7847 73.1138 74.9152 73.1138Z" fill="#FF9400"/>
<path d="M64.526 72.795C58.979 72.6181 53.4266 72.9634 47.9618 73.8251C47.893 73.8334 47.8272 73.8558 47.7698 73.8906H47.6959C47.6189 73.8882 47.5424 73.9019 47.4725 73.9306C47.4025 73.9592 47.3411 74.002 47.2932 74.0555C47.2453 74.109 47.2123 74.1717 47.1967 74.2386C47.1811 74.3054 47.1835 74.3746 47.2035 74.4406C48.0357 77.9805 51.6351 80.8963 55.8746 80.342C57.9181 80.0713 59.6414 78.9627 61.1334 77.7536C62.6253 76.5445 64.2256 75.1346 64.9888 73.3406C65.0074 73.2771 65.0095 73.2107 64.9951 73.1464C64.9807 73.082 64.9501 73.0214 64.9057 72.969C64.8612 72.9165 64.804 72.8737 64.7382 72.8436C64.6725 72.8134 64.6 72.7968 64.526 72.795Z" fill="#E35002"/>
<path d="M67.3633 60.9574L67.4322 61.3939L68.8552 61.0447C68.8552 60.9967 68.8306 60.9486 68.8207 60.9006L68.8503 61.0752C68.838 60.9868 68.838 60.8974 68.8503 60.809H67.3731V61.1101C67.3764 61.2832 67.4538 61.4486 67.5898 61.5728C67.6822 61.6517 67.796 61.7081 67.9202 61.7368C68.0444 61.7654 68.1748 61.7653 68.2989 61.7363C68.423 61.7074 68.5367 61.6507 68.6289 61.5716C68.7211 61.4925 68.7889 61.3937 68.8257 61.2847L68.8798 61.1276L67.4568 60.7784C67.3649 61.2178 67.296 61.663 67.25 62.1141C67.25 62.2877 67.3278 62.4543 67.4663 62.5771C67.6048 62.6998 67.7927 62.7688 67.9886 62.7688C68.184 62.7668 68.371 62.698 68.5105 62.5768L68.6287 62.4458C68.6927 62.3444 68.7266 62.2303 68.7272 62.1141C68.7272 61.9264 68.7666 61.7431 68.7961 61.5554V61.73C68.8257 61.5292 68.8601 61.3284 68.9044 61.1276C68.9523 60.9566 68.9259 60.7759 68.8306 60.6213C68.7322 60.474 68.5735 60.366 68.3874 60.3201C68.2929 60.2969 68.1941 60.2907 68.0968 60.302C67.9996 60.3132 67.9058 60.3416 67.8212 60.3856C67.656 60.4738 67.5346 60.6141 67.4814 60.7784L67.4273 60.9356L68.8749 61.1101V60.8133C68.8754 60.7273 68.8564 60.6421 68.8192 60.5626C68.782 60.4832 68.7273 60.4111 68.6583 60.3506C68.5199 60.2278 68.3321 60.1587 68.1363 60.1586C68.0392 60.1579 67.943 60.1746 67.8533 60.2076C67.7637 60.2406 67.6824 60.2892 67.6144 60.3506L67.5011 60.4816C67.4328 60.5816 67.397 60.6964 67.3977 60.8133C67.3771 61.0101 67.3989 61.2086 67.4617 61.3982C67.5152 61.5613 67.6366 61.7002 67.8015 61.7867C67.9746 61.8744 68.1792 61.8994 68.3727 61.8566C68.5564 61.8088 68.713 61.7012 68.8109 61.5554L68.8848 61.3982C68.9243 61.2845 68.9243 61.1628 68.8848 61.049L68.8158 60.6125C68.7772 60.4885 68.6982 60.3772 68.5887 60.2927C68.4792 60.2082 68.344 60.1542 68.2 60.1374C68.056 60.1206 67.9097 60.1419 67.7793 60.1984C67.6488 60.255 67.5401 60.3444 67.4667 60.4554L67.3928 60.6125C67.3583 60.7254 67.3583 60.8445 67.3928 60.9574H67.3633Z" fill="#141414"/>
<path d="M37.2231 59.3646C37.2391 59.3834 37.2523 59.4039 37.2625 59.4257L37.1887 59.2685C37.1909 59.2903 37.1909 59.3122 37.1887 59.334L37.1591 59.1594C37.164 59.1825 37.164 59.2062 37.1591 59.2293L37.1887 59.0547H38.6117L38.5329 58.7666C38.5142 58.6824 38.468 58.605 38.3999 58.544C38.3512 58.4705 38.2793 58.4114 38.1931 58.3737C38.1122 58.327 38.0188 58.2999 37.9223 58.2952C37.8254 58.2734 37.7238 58.2734 37.6269 58.2952C37.4402 58.3398 37.2809 58.4481 37.1837 58.5963L37.1099 58.7535C37.0754 58.8664 37.0754 58.9854 37.1099 59.0983C37.1363 59.2027 37.1725 59.3049 37.2182 59.4039C37.2827 59.5544 37.36 59.7003 37.4496 59.8403C37.5147 59.9373 37.6061 60.0184 37.7155 60.0761C37.797 60.1246 37.8931 60.1505 37.9913 60.1503C38.0862 60.1742 38.1868 60.1742 38.2818 60.1503C38.4069 60.1207 38.5209 60.0619 38.6117 59.98L38.7594 59.8142L38.7889 59.7661C38.8268 59.7027 38.8597 59.6371 38.8874 59.5697C38.8874 59.5697 38.8874 59.5348 38.8874 59.513C38.8874 59.4912 38.8874 59.4257 38.8874 59.382C38.8919 59.3356 38.8919 59.2888 38.8874 59.2424V59.19C38.8795 59.1137 38.8663 59.0379 38.848 58.963L37.686 59.5959C37.7196 59.6228 37.7509 59.652 37.7795 59.6832L37.6614 59.5523C37.7083 59.6062 37.748 59.6648 37.7795 59.7269L37.7057 59.5697C37.7344 59.6361 37.7559 59.7048 37.7697 59.7749L37.7401 59.6046C37.75 59.6713 37.75 59.7388 37.7401 59.8054C37.7365 59.8933 37.7586 59.9805 37.8041 60.0586C37.8341 60.1388 37.8867 60.2109 37.9568 60.2681C38.0226 60.3289 38.1036 60.3753 38.1931 60.4034C38.2811 60.4442 38.3796 60.4638 38.4787 60.4602C38.6741 60.4582 38.8611 60.3894 39.0007 60.2681L39.1188 60.1328C39.1835 60.0332 39.2175 59.9203 39.2173 59.8054C39.2272 59.7388 39.2272 59.6713 39.2173 59.6046C39.2103 59.4873 39.1854 59.3713 39.1435 59.2598C39.0589 59.0387 38.9192 58.8373 38.7348 58.6705L38.5821 58.5658C38.4998 58.5183 38.4046 58.4912 38.3064 58.4872C38.2432 58.4742 38.1775 58.4742 38.1144 58.4872C38.0162 58.4912 37.921 58.5183 37.8386 58.5658C37.7314 58.6259 37.6406 58.7064 37.5727 58.8015C37.4753 58.9539 37.4488 59.134 37.4989 59.3035C37.4989 59.3035 37.4989 59.3296 37.4989 59.3427L37.4693 59.1725C37.4742 59.2117 37.4742 59.2512 37.4693 59.2904V59.1158C37.4648 59.1503 37.4548 59.1841 37.4398 59.2162L37.5136 59.059C37.4999 59.0923 37.4799 59.1233 37.4545 59.1507L37.5678 59.0197C37.5608 59.0318 37.5507 59.0423 37.5383 59.0503L38.7003 59.1812C38.6401 59.0963 38.5874 59.0072 38.5427 58.915L38.6166 59.0721C38.5738 58.9737 38.5376 58.8731 38.5083 58.7709L37.0853 59.1158L37.164 59.4082L37.2379 59.5654C37.2859 59.6383 37.3514 59.7009 37.4299 59.7487C37.4742 59.7893 37.5306 59.818 37.5924 59.8316C37.6796 59.8743 37.7787 59.894 37.878 59.8884C38.0069 59.8837 38.133 59.8539 38.2473 59.8011C38.3321 59.76 38.4046 59.7016 38.459 59.6308C38.5253 59.5693 38.5698 59.4919 38.5871 59.4082C38.6057 59.335 38.6173 59.2605 38.6215 59.1856C38.6201 59.109 38.6085 59.0328 38.5871 58.9586C38.5679 58.8871 38.5381 58.8181 38.4984 58.7535C38.4872 58.7322 38.474 58.7118 38.459 58.6924C38.4144 58.6187 38.3502 58.5558 38.2719 58.509C38.1996 58.4531 38.1137 58.4127 38.0208 58.3912C37.827 58.3549 37.6251 58.3796 37.4496 58.461C37.2872 58.5483 37.1689 58.6877 37.1194 58.8503C37.0699 59.0129 37.0929 59.1861 37.1837 59.334L37.2231 59.3646Z" fill="#141414"/>
<path d="M64.9058 72.4326C61.7545 72.4326 58.5982 72.4326 55.4469 72.4937C52.4433 72.5417 49.4003 72.7294 46.5444 73.6199C46.5081 73.6308 46.4734 73.6455 46.441 73.6635C46.258 73.7168 46.1051 73.8302 46.0135 73.9804C45.9219 74.1306 45.8987 74.3062 45.9486 74.471C46.4583 75.8897 47.3186 77.1898 48.4668 78.2764C49.6151 79.363 51.0224 80.2088 52.5861 80.7522C53.513 81.0919 54.5102 81.255 55.5129 81.2309C56.5156 81.2069 57.5013 80.9962 58.4062 80.6125C60.0133 79.9442 61.4531 78.9973 62.6408 77.8277C63.9821 76.5086 64.9895 74.9504 65.5952 73.2576C65.6223 73.1624 65.6252 73.063 65.6037 72.9666C65.5822 72.8702 65.5368 72.7793 65.4709 72.7004C65.4049 72.6215 65.32 72.5565 65.2223 72.5102C65.1246 72.4639 65.0165 72.4374 64.9058 72.4326ZM61.2079 77.2602C59.8538 78.4737 57.9483 79.709 55.9836 79.9316C54.0189 80.1542 51.8573 79.2157 50.3949 78.1201C49.1772 77.2181 48.2243 76.0678 47.6178 74.7679L48.8537 74.5365C49.0179 74.5105 49.1644 74.4292 49.2624 74.3095C51.3728 73.9575 53.5161 73.7835 55.6635 73.7901C58.3865 73.7552 61.1094 73.7508 63.8324 73.7377C63.224 75.0519 62.3326 76.2484 61.2079 77.2602Z" fill="#141414"/>
</svg>
