<svg width="48" height="48" viewBox="0 0 48 48" fill="none" xmlns="http://www.w3.org/2000/svg">
<path d="M37.5747 10.9418C38.2951 11.6368 38.9955 12.6037 38.7962 14.0205L38.7962 14.0211C38.6539 15.0285 38.1022 15.8574 37.5864 16.4937C37.7898 16.7389 37.9947 16.9902 38.1944 17.2458M37.5747 10.9418L37.4073 17.8626M37.5747 10.9418C38.4782 10.3555 39.5258 9.87084 40.635 9.41545L40.666 9.40271L40.6962 9.38791C40.8661 9.30443 41.0227 9.18041 41.1455 9.01763M37.5747 10.9418L41.1455 9.01763M38.1944 17.2458C38.1947 17.2462 38.195 17.2466 38.1953 17.2469L37.4073 17.8626M38.1944 17.2458C38.1944 17.2458 38.1943 17.2457 38.1943 17.2457L37.4073 17.8626M38.1944 17.2458C40.2404 19.8561 41.9468 22.8614 42.6028 26.1417M37.4073 17.8626C39.3969 20.401 41.0075 23.2641 41.6222 26.3378M42.6028 26.1417C42.6028 26.1416 42.6028 26.1415 42.6028 26.1415L41.6222 26.3378M42.6028 26.1417C43.2141 29.1945 42.8832 32.4437 41.3824 35.3055L41.3787 35.3127L41.3786 35.3127C40.614 36.7425 39.5381 38.0111 38.222 39.0466L38.2162 39.0512L38.2103 39.0557C36.8332 40.1064 35.2719 40.9389 33.5935 41.521M42.6028 26.1417L41.6222 26.3378M41.6222 26.3378L33.5935 41.521M33.5935 41.521C33.5953 41.5203 33.597 41.5197 33.5988 41.5191L33.261 40.5778M33.5935 41.521L40.4968 34.8411C39.8002 36.1436 38.8161 37.3068 37.6037 38.2607C36.3123 39.246 34.8442 40.0294 33.261 40.5778M33.5935 41.521C33.5918 41.5216 33.5901 41.5222 33.5884 41.5227L33.261 40.5778M33.5935 41.521C30.4242 42.6575 26.9265 43.0993 23.5413 42.9816C20.1463 42.8636 16.7298 42.1387 13.7055 40.6371M33.261 40.5778C30.2285 41.6662 26.858 42.0963 23.576 41.9822C20.294 41.8681 17.0218 41.1677 14.1483 39.7405M41.1455 9.01763C41.2689 8.85415 41.3534 8.65755 41.382 8.44305C41.4107 8.22804 41.3809 8.01206 41.2993 7.81595L41.2993 7.81586C41.2235 7.63392 41.1078 7.47947 40.9692 7.35873M41.1455 9.01763L10.0838 18.0765C11.349 17.025 12.6738 16.0331 14.0528 15.1047C15.4982 14.0987 17.0159 13.0652 18.6824 12.219C21.2233 10.9271 24.2628 10.0883 27.2707 10.426C27.3222 10.4168 27.3733 10.4071 27.4241 10.3969C28.016 9.95868 28.6181 9.51716 29.2299 9.08197C29.797 8.67759 30.5336 8.16464 31.4711 7.95083C31.2728 7.75227 31.0865 7.54207 30.9136 7.32091L30.9115 7.3182C30.4411 6.71206 30.0943 6.02858 29.8931 5.30023M40.9692 7.35873C40.9527 7.34327 40.929 7.3193 40.8799 7.26926L40.8795 7.26891C40.8316 7.22011 40.7603 7.1475 40.6807 7.07565C40.539 6.94794 40.2533 6.7102 39.8499 6.62887C39.4433 6.54691 39.0762 6.65863 38.8847 6.72685C38.7132 6.78797 38.5353 6.87233 38.4368 6.91902C38.4239 6.92511 38.4124 6.93056 38.4025 6.93523M40.9692 7.35873C40.9719 7.36128 40.9744 7.3636 40.9768 7.36576L40.3063 8.10769L40.9385 7.33291C40.9488 7.34134 40.9591 7.34994 40.9692 7.35873ZM38.4025 6.93523C37.7727 7.2009 37.1704 7.51862 36.6034 7.88483M38.4025 6.93523C38.4085 6.93269 38.4145 6.93016 38.4205 6.92763L38.8077 7.84965L38.3884 6.94177C38.3927 6.9398 38.3974 6.93762 38.4025 6.93523ZM36.6034 7.88483C36.5495 7.91898 36.4958 7.95357 36.4426 7.9886M36.6034 7.88483C36.6049 7.8839 36.6064 7.88297 36.6079 7.88204L37.1421 8.72736L36.5991 7.88761C36.6006 7.88668 36.602 7.88576 36.6034 7.88483ZM36.4426 7.9886C36.377 7.3133 36.2537 6.45644 35.8355 5.69365M36.4426 7.9886C36.4507 8.07305 36.458 8.15466 36.4649 8.23289L36.0783 7.91422L36.0889 8.23118C36.205 8.14816 36.3229 8.06728 36.4426 7.9886ZM35.8355 5.69365C35.4546 4.99444 34.8817 4.48357 34.338 4.08333C34.0148 3.84543 33.6222 3.59418 33.2725 3.37036C33.079 3.2465 32.8986 3.13105 32.7504 3.0309M35.8355 5.69365C35.8352 5.69312 35.8349 5.69258 35.8347 5.69204L34.958 6.1732L35.8364 5.69527C35.8361 5.69473 35.8358 5.69419 35.8355 5.69365ZM32.7504 3.0309C32.213 2.66746 31.8392 2.35098 31.6323 2.01957M32.7504 3.0309L32.1906 3.8595L32.7508 3.0312C32.7507 3.0311 32.7505 3.031 32.7504 3.0309ZM31.6323 2.01957C31.6244 1.98454 31.6174 1.95101 31.611 1.91823L31.611 1.91821C31.5138 1.4144 31.1342 1.15338 30.8457 1.05962C30.5867 0.975472 30.326 0.987798 30.1112 1.05058M31.6323 2.01957C31.617 1.99518 31.6027 1.9707 31.5893 1.94612L31.5776 1.92468L31.5776 1.92467L31.305 1.42539L30.7173 1.42539L30.723 1.42544L30.7345 1.42564L30.7585 1.42648C30.7749 1.42725 30.7921 1.42846 30.8101 1.43024C30.8458 1.4338 30.8855 1.43971 30.9282 1.44923C31.0132 1.46823 31.1143 1.50268 31.2182 1.5646C31.3738 1.65735 31.4916 1.78483 31.5712 1.92591C31.5712 1.92591 31.5712 1.92592 31.5712 1.92592C31.5755 1.93361 31.5797 1.94134 31.5838 1.94911C31.6169 2.01161 31.6426 2.07651 31.6609 2.14201L31.286 2.24686L31.4787 2.88944L31.4638 2.8175L31.4385 2.74851C31.3799 2.58856 31.3304 2.42648 31.2899 2.26285L31.6678 2.16808C31.6545 2.11479 31.6427 2.06586 31.6323 2.01957ZM30.1112 1.05058C29.8539 1.12471 29.6083 1.2887 29.4425 1.5414C29.277 1.79377 29.2118 2.10666 29.2761 2.41491M30.1112 1.05058C30.1142 1.04972 30.1172 1.04888 30.1202 1.04804L30.3895 2.01109L30.0984 1.05439C30.1027 1.0531 30.1069 1.05183 30.1112 1.05058ZM29.2761 2.41491C29.3383 2.73601 29.4245 3.05246 29.5338 3.36211M29.2761 2.41491C29.2754 2.41099 29.2746 2.40707 29.2739 2.40316L29.6538 2.33026L29.7348 2.68065L29.7312 2.66766L29.7279 2.65458C29.7045 2.56142 29.6805 2.4611 29.6588 2.35511L29.2825 2.44358C29.2802 2.43403 29.2781 2.42447 29.2761 2.41491ZM29.5338 3.36211C29.5746 3.569 29.6062 3.77675 29.6416 4.00873C29.6519 4.07671 29.6626 4.14677 29.6739 4.2195C29.7254 4.55056 29.7884 4.92271 29.8931 5.30023M29.5338 3.36211C29.5294 3.33988 29.5249 3.31767 29.5203 3.29543L30.011 3.19371L30.054 3.2556L29.5605 3.43635C29.5515 3.41165 29.5426 3.3869 29.5338 3.36211ZM29.8931 5.30023C29.8932 5.30057 29.8933 5.30091 29.8934 5.30125L30.857 5.03394L29.8931 5.30023ZM14.1483 39.7405L13.7079 40.6383C13.7071 40.6379 13.7063 40.6375 13.7055 40.6371M14.1483 39.7405L13.7035 40.6361C13.7042 40.6365 13.7048 40.6368 13.7055 40.6371M14.1483 39.7405L10.0837 18.0766C8.76967 19.1684 7.63722 20.429 6.72454 21.8203L6.719 21.8287L6.71363 21.8373C5.8845 23.1586 5.3425 24.6152 5.12185 26.1288C4.69006 29.0263 5.434 31.9483 6.89167 34.4433L6.89464 34.4483C8.45082 37.0767 10.8238 39.2231 13.7055 40.6371M21.7219 40.6849C22.0656 40.7376 22.4093 40.7867 22.7531 40.8271C22.4077 40.8081 22.0642 40.7801 21.7219 40.7432V40.6849ZM21.7219 40.6849H21.2368C21.3953 40.706 21.5541 40.7251 21.7131 40.7423L21.7219 40.6849ZM36.4252 16.6636L37.2055 16.8125M36.4252 16.6636L37.4805 16.4907C37.4814 16.4866 37.4823 16.4826 37.4831 16.4785C37.4875 16.4581 37.492 16.4377 37.4964 16.4173L37.3763 16.3911L37.3567 16.3868L36.8795 16.2824L36.7401 16.3994M36.4252 16.6636L36.7401 16.3994M36.4252 16.6636L36.5195 16.2037L36.7401 16.3994M37.2055 16.8125L37.2675 16.8675C37.2784 16.8551 37.2893 16.8428 37.3001 16.8305M37.2055 16.8125L37.3001 16.8305M37.2055 16.8125L36.7401 16.3994M37.3001 16.8305L37.4075 16.851C37.4195 16.7883 37.4318 16.7258 37.4445 16.6634C37.3982 16.7177 37.35 16.7737 37.3001 16.8305ZM30.6293 2.1076L30.6291 2.10764L30.6293 2.1076ZM30.6293 2.1076L30.6295 2.10756L30.6293 2.1076ZM30.7116 2.42537C30.7116 2.41951 30.7116 2.41368 30.7116 2.40788V2.42537Z" fill="white" stroke="white" stroke-width="2"/>
<path d="M41.7288 26.3541C41.1123 23.2969 39.4973 20.4492 37.5021 17.9245C37.183 17.5194 36.8482 17.1231 36.5173 16.732C36.5469 16.5783 36.5784 16.4264 36.6119 16.2745C36.7025 16.1733 36.7891 16.072 36.8718 15.9742C37.3662 15.3754 37.7956 14.7119 37.9019 13.9646C38.0851 12.6726 37.2086 11.9288 36.2829 11.1571C35.81 10.5298 35.1797 10.0081 34.4414 9.63283C33.6831 9.12301 32.8224 8.79651 31.7805 9.03047C31.0537 9.19285 30.4589 9.59093 29.8838 9.99774C29.218 10.4674 28.5622 10.9458 27.9142 11.4225C27.731 11.4644 27.5478 11.4993 27.3627 11.529C24.5541 11.1798 21.6509 11.948 19.1791 13.1946C17.5739 14.003 16.1006 14.9965 14.6491 15.9987C13.2915 16.9049 11.9879 17.8729 10.7434 18.8988C9.49957 19.9237 8.43129 21.1043 7.57235 22.4029C6.81264 23.6038 6.31924 24.9224 6.1188 26.2877C5.72488 28.9067 6.39848 31.5868 7.76734 33.9107C9.22235 36.3482 11.4512 38.3543 14.1783 39.6812C17.0598 41.1006 20.3411 41.7973 23.6323 41.9108C26.9235 42.0243 30.3033 41.5965 33.3443 40.514C34.9319 39.9685 36.4041 39.1893 37.6991 38.2093C38.9149 37.2605 39.9017 36.1036 40.6003 34.8081C41.9868 32.1892 42.302 29.1931 41.7288 26.3541ZM21.7711 40.6292C22.1157 40.6816 22.4604 40.7305 22.8051 40.7707C22.295 40.7375 21.7888 40.6903 21.2846 40.624C21.448 40.631 21.6115 40.631 21.7711 40.6292Z" fill="#FE9F01"/>
<path d="M16.7801 22.471C16.6215 22.2942 16.4211 22.1505 16.193 22.0499C15.9648 21.9494 15.7146 21.8944 15.4599 21.8889C15.2052 21.8834 14.9523 21.9275 14.7189 22.0181C14.4856 22.1088 14.2775 22.2437 14.1093 22.4134C13.1856 23.0035 12.7641 24.182 13.0556 25.2069C13.4653 26.6561 15.2222 27.6635 16.7309 26.6648C18.1391 25.7325 17.8319 23.536 16.7801 22.471Z" fill="white"/>
<path d="M15.8775 23.8887C15.8653 23.6923 15.7964 23.502 15.6774 23.336C15.5584 23.17 15.3934 23.0339 15.198 22.9406C15.1785 22.933 15.1573 22.929 15.136 22.929C15.1146 22.929 15.0935 22.933 15.0739 22.9406C14.8894 22.8348 14.6773 22.7728 14.4579 22.7605C14.2386 22.7483 14.0193 22.7863 13.8213 22.8708C13.5051 23.0342 13.2607 23.2878 13.128 23.5901C12.9476 23.9479 12.8595 24.3368 12.87 24.7285C12.8683 25.11 12.9982 25.4828 13.2422 25.7971C13.3529 25.9298 13.4959 26.0387 13.6606 26.1158C13.8253 26.1929 14.0074 26.2361 14.1935 26.2423C14.5479 26.2463 14.894 26.1469 15.1783 25.9594C15.4843 25.7517 15.7006 25.457 15.7909 25.1248C15.9042 24.7209 15.9336 24.302 15.8775 23.8887ZM15.4836 23.7263C15.4639 23.6739 15.4403 23.6233 15.4186 23.5709L15.4403 23.5622C15.4781 23.631 15.5059 23.7037 15.523 23.7787C15.5174 23.7585 15.5051 23.7402 15.4876 23.7263H15.4836Z" fill="#141414"/>
<path d="M28.7552 23.0855C28.5966 22.9087 28.3962 22.765 28.168 22.6644C27.9399 22.5639 27.6897 22.5089 27.435 22.5034C27.1803 22.4979 26.9274 22.542 26.694 22.6326C26.4606 22.7233 26.2526 22.8582 26.0844 23.0279C25.1607 23.618 24.7392 24.7966 25.0307 25.8214C25.4404 27.2706 27.1973 28.278 28.704 27.2793C30.1122 26.347 29.801 24.1523 28.7552 23.0855Z" fill="white"/>
<path d="M28.2134 23.7878C28.2008 23.7729 28.1896 23.7571 28.1799 23.7406C28.2094 23.8035 28.2154 23.814 28.1996 23.7686C28.1996 23.8419 28.2114 23.8559 28.1996 23.807V23.7808C28.1858 23.8524 28.1858 23.8663 28.1996 23.8192C28.1701 23.8803 28.1661 23.8925 28.1858 23.8559C28.2323 23.7821 28.258 23.6994 28.2607 23.6149C28.2635 23.5285 28.2394 23.443 28.1912 23.3679C28.1429 23.2927 28.0722 23.2308 27.9869 23.1889C27.8952 23.1458 27.7923 23.1249 27.6885 23.1283C27.5848 23.1317 27.4839 23.1592 27.396 23.2081C27.193 23.3087 27.0419 23.4752 26.9745 23.6725C26.939 23.7978 26.9512 23.9299 27.0093 24.0484C27.0674 24.1668 27.168 24.2649 27.2956 24.3273C27.4089 24.3816 27.5416 24.3947 27.6656 24.3639C27.7896 24.3331 27.8953 24.2607 27.9602 24.1621C28.0252 24.0635 28.0443 23.9464 28.0137 23.8355C27.983 23.7246 27.9049 23.6286 27.7958 23.5678C27.721 23.5329 27.7564 23.5678 27.9022 23.6725C27.9311 23.7171 27.9461 23.7678 27.9455 23.8192L27.9317 23.896C27.8923 23.9659 27.8864 23.9816 27.914 23.9397C27.8333 24.0497 27.8983 23.9746 27.914 23.9536C27.853 23.9938 27.8431 24.0008 27.8864 23.9729C27.9613 23.9344 27.9101 23.9467 27.7348 24.0078L27.4846 23.9467L27.5043 23.9571L27.3271 23.8V23.8175L27.2601 23.5957L27.3074 23.4316C27.2929 23.4564 27.2804 23.4821 27.27 23.5084C27.2533 23.5376 27.2395 23.568 27.2286 23.5992C27.2055 23.6713 27.1942 23.746 27.1951 23.821C27.1997 23.9663 27.248 24.108 27.335 24.2313C27.4035 24.3279 27.5118 24.3972 27.6369 24.4243C27.762 24.4515 27.8941 24.4346 28.0054 24.377C28.1166 24.3194 28.1982 24.2257 28.233 24.1158C28.2678 24.0059 28.253 23.8882 28.1917 23.7878H28.2134Z" fill="white"/>
<path d="M27.8527 24.5032C27.8399 24.307 27.7708 24.1169 27.6519 23.9509C27.5329 23.785 27.3682 23.6488 27.1732 23.5551C27.1533 23.5474 27.1319 23.5435 27.1102 23.5435C27.0885 23.5435 27.067 23.5474 27.0472 23.5551C26.8627 23.4491 26.6506 23.387 26.4312 23.3748C26.2118 23.3626 25.9925 23.4006 25.7945 23.4853C25.4794 23.6493 25.2358 23.9028 25.1032 24.2046C24.9222 24.5622 24.834 24.9512 24.8452 25.343C24.8423 25.7247 24.9723 26.0978 25.2174 26.4116C25.3281 26.5443 25.4711 26.6532 25.6358 26.7303C25.8005 26.8074 25.9826 26.8506 26.1687 26.8568C26.5232 26.8615 26.8695 26.762 27.1535 26.5739C27.4595 26.3658 27.6762 26.0714 27.768 25.7394C27.8797 25.3351 27.9084 24.9164 27.8527 24.5032ZM27.4588 24.3408L27.3938 24.1854L27.4155 24.1767C27.4515 24.2461 27.4793 24.3187 27.4982 24.3932C27.4919 24.3732 27.4797 24.3551 27.4628 24.3408H27.4588Z" fill="#141414"/>
<path d="M29.7774 11.9865C30.0244 11.7059 30.3126 11.4558 30.6342 11.2427C30.7967 11.1366 30.9671 11.0403 31.1443 10.9546C31.2349 10.9092 31.3275 10.8691 31.422 10.8307C31.5072 10.7942 31.5946 10.7621 31.684 10.7346C31.7584 10.7144 31.8213 10.6696 31.8598 10.6096C31.8982 10.5495 31.9093 10.4787 31.8908 10.4116C31.8672 10.3465 31.8161 10.292 31.7482 10.2595C31.6803 10.2269 31.6008 10.2189 31.5264 10.237C30.6725 10.5162 29.9226 10.9997 29.3599 11.6338C29.3069 11.684 29.2773 11.7502 29.2773 11.8189C29.2773 11.8876 29.3069 11.9538 29.3599 12.004C29.4153 12.053 29.4904 12.0806 29.5687 12.0806C29.647 12.0806 29.722 12.053 29.7774 12.004V11.9865Z" fill="#FFD187"/>
<path d="M29.3577 12.2589C29.4129 12.2885 29.468 12.32 29.5212 12.3531L29.6 12.402C29.6433 12.4317 29.5665 12.3776 29.6 12.402L29.6374 12.43C29.7396 12.5016 29.8351 12.5804 29.923 12.6657C29.9663 12.7076 30.0097 12.7512 30.0491 12.7949C30.057 12.8046 30.0655 12.8139 30.0747 12.8228C30.0215 12.7722 30.0629 12.8106 30.0747 12.8228L30.1259 12.8857C30.1633 12.9328 30.1988 12.9817 30.2322 13.0306L30.2795 13.1057C30.3031 13.1441 30.2795 13.1057 30.2795 13.0917V13.1057C30.27 13.0631 30.2755 13.019 30.2952 12.9794C30.315 12.9397 30.348 12.9064 30.3898 12.8839L30.5395 12.8473L30.6045 12.856L30.7345 12.9223C30.7694 12.9596 30.791 13.0052 30.7966 13.0534C30.8022 13.1016 30.7916 13.1502 30.766 13.193L30.6596 13.2872L30.5099 13.3222L30.3603 13.2855C30.4273 13.3164 30.505 13.3239 30.578 13.3064C30.6509 13.289 30.7138 13.2479 30.7542 13.1912C30.7897 13.1321 30.7987 13.0632 30.7793 12.9984C30.76 12.9337 30.7137 12.8778 30.6498 12.842C30.5907 12.8116 30.522 12.7991 30.4541 12.8064C30.3863 12.8136 30.3229 12.8402 30.2736 12.8822C30.2343 12.9183 30.2065 12.9631 30.193 13.0118C30.1795 13.0606 30.1808 13.1116 30.1968 13.1598C30.2109 13.2076 30.2387 13.2515 30.2776 13.2869C30.3165 13.3224 30.3651 13.3484 30.4186 13.3623C30.4722 13.3762 30.5289 13.3775 30.5832 13.3662C30.6375 13.3549 30.6876 13.3313 30.7286 13.2977C30.9807 13.1004 30.7424 12.7966 30.5946 12.6133C30.3465 12.2889 30.0244 12.0141 29.6492 11.8067C29.5815 11.7722 29.5011 11.7628 29.4256 11.7804C29.35 11.7981 29.2853 11.8414 29.2455 11.9009C29.2106 11.9604 29.2021 12.0292 29.2218 12.0939C29.2415 12.1586 29.2879 12.2144 29.3518 12.2501L29.3577 12.2589Z" fill="#FFD187"/>
<path d="M40.4013 8.22228C40.2241 8.0634 40.0074 7.7788 39.7455 7.72642C39.4835 7.67404 39.1428 7.85737 38.9064 7.96562C38.3202 8.20979 37.761 8.50206 37.2362 8.83861C36.6219 9.22373 36.0589 9.66948 35.5581 10.1673C35.6093 9.59028 35.6093 9.01058 35.5581 8.43355C35.4951 7.71944 35.4045 6.94597 35.046 6.29821C34.4867 5.27856 33.2872 4.67794 32.2709 3.99701C31.68 3.60067 31.1089 3.1537 30.7878 2.57054C30.7878 2.57054 30.778 2.57054 30.774 2.55658C30.7484 2.45531 30.7248 2.35579 30.7051 2.25452C30.6854 2.15325 30.5574 2.13056 30.4648 2.15849C30.4181 2.17145 30.3785 2.19938 30.3537 2.23683C30.3289 2.27427 30.3208 2.31855 30.3309 2.36103C30.3881 2.65692 30.4697 2.9487 30.5751 3.23402C30.709 3.87479 30.7563 4.53128 30.9336 5.16507C31.0993 5.76022 31.3864 6.32352 31.7805 6.82724C32.596 7.86127 33.7726 8.62878 35.1288 9.01147C35.1516 9.01834 35.1756 9.02188 35.1997 9.02194C35.2176 9.57883 35.1893 10.1361 35.115 10.6894C34.9761 10.8757 34.8561 11.0726 34.7565 11.2777C34.6994 11.4017 34.8294 11.5344 34.9692 11.5589C35.0063 11.565 35.0444 11.565 35.0815 11.5589C35.1397 11.6013 35.2141 11.6222 35.2893 11.6174C35.3645 11.6125 35.4346 11.5822 35.4853 11.5327C36.7576 10.2057 38.5519 9.34146 40.358 8.6064C40.3953 8.58785 40.4269 8.56163 40.4503 8.52993C40.4737 8.49824 40.4881 8.46202 40.4924 8.42433C40.4966 8.38665 40.4906 8.34861 40.4747 8.31344C40.4589 8.27827 40.4337 8.247 40.4013 8.22228ZM39.7159 8.3445C39.7159 8.3445 39.7159 8.3445 39.7159 8.33403V8.3445Z" fill="#70A333"/>
<path d="M32.8005 26.3818L31.9516 26.4813C31.8768 26.4862 31.8024 26.4955 31.729 26.5092C31.6783 26.5208 31.6335 26.547 31.6014 26.5837C31.5693 26.6203 31.5518 26.6654 31.5518 26.7118C31.5538 26.7624 31.5784 26.8103 31.62 26.8449C31.6617 26.8796 31.7172 26.8983 31.7743 26.8968C31.8036 26.8971 31.8326 26.8917 31.8591 26.8808C31.8857 26.8699 31.9092 26.8539 31.9279 26.834L32.0225 26.8218L32.2825 26.7921L32.8005 26.731C32.852 26.7288 32.901 26.7102 32.9383 26.6786C32.9755 26.6464 32.9967 26.6024 32.9974 26.5564C32.9817 26.4708 32.899 26.3643 32.8005 26.3818Z" fill="#FF9400"/>
<path d="M32.257 27.2778C32.7067 27.3094 33.1592 27.2829 33.6003 27.1992C33.6519 27.1935 33.6989 27.17 33.7311 27.1336C33.7632 27.0973 33.7777 27.0512 33.7716 27.0054C33.7652 26.9596 33.7386 26.9179 33.6977 26.8895C33.6567 26.861 33.6047 26.8481 33.553 26.8535C33.1472 26.9325 32.7305 26.959 32.3161 26.9321C32.2902 26.9286 32.2639 26.9297 32.2385 26.9353C32.2131 26.9409 32.1892 26.9509 32.1682 26.9647C32.1472 26.9785 32.1294 26.9958 32.1159 27.0157C32.1024 27.0355 32.0935 27.0576 32.0896 27.0805C32.0857 27.1034 32.087 27.1268 32.0933 27.1493C32.0996 27.1718 32.1109 27.193 32.1264 27.2116C32.1419 27.2303 32.1615 27.246 32.1839 27.258C32.2063 27.2699 32.2312 27.2778 32.257 27.2813V27.2778Z" fill="#FF9400"/>
<path d="M35.4475 27.5728L32.8871 27.3982C32.635 27.379 32.6369 27.7282 32.8871 27.7474L35.0891 27.9046C35.1059 27.919 35.126 27.9299 35.1482 27.9366C35.1703 27.9432 35.1939 27.9454 35.2171 27.943L35.4515 27.9307C35.478 27.9305 35.5042 27.9257 35.5286 27.9165C35.553 27.9073 35.5751 27.8939 35.5936 27.8771C35.6122 27.8603 35.6269 27.8405 35.6368 27.8187C35.6467 27.7969 35.6516 27.7735 35.6514 27.75C35.6511 27.7265 35.6456 27.7033 35.6353 27.6817C35.6249 27.6601 35.6098 27.6405 35.5909 27.624C35.5719 27.6076 35.5495 27.5946 35.5249 27.5858C35.5003 27.577 35.474 27.5726 35.4475 27.5728Z" fill="#FF9400"/>
<path d="M32.9326 28.3553C33.134 28.4393 33.3567 28.4754 33.5786 28.4601C33.6308 28.4594 33.6807 28.4413 33.7185 28.4094C33.7385 28.3939 33.7548 28.3748 33.7663 28.3535C33.7778 28.3322 33.7843 28.3091 33.7854 28.2855C33.7854 28.2392 33.7647 28.1947 33.7277 28.162C33.6908 28.1293 33.6407 28.1109 33.5885 28.1109C33.5066 28.1187 33.4241 28.1187 33.3423 28.1109H33.3954C33.3011 28.1003 33.2089 28.078 33.1217 28.0445L33.1689 28.062L33.1414 28.0515C33.0949 28.0294 33.041 28.0232 32.9897 28.034C32.94 28.0461 32.8976 28.0749 32.8715 28.1144C32.8583 28.1345 32.8497 28.1567 32.8464 28.1798C32.843 28.2029 32.8448 28.2264 32.8518 28.2488C32.8654 28.2929 32.8979 28.3305 32.9424 28.3536L32.9326 28.3553Z" fill="#FF9400"/>
<path d="M11.4545 26.0153C11.1076 25.9496 10.7478 25.9604 10.4067 26.0467C10.3817 26.0528 10.3583 26.0632 10.3379 26.0772C10.3174 26.0913 10.3003 26.1088 10.2875 26.1288C10.2747 26.1487 10.2664 26.1707 10.2632 26.1935C10.26 26.2163 10.2619 26.2394 10.2688 26.2615C10.2756 26.2836 10.2873 26.3044 10.3032 26.3225C10.3191 26.3406 10.3388 26.3558 10.3613 26.3671C10.3838 26.3785 10.4086 26.3858 10.4343 26.3886C10.46 26.3915 10.4861 26.3898 10.511 26.3837C10.5828 26.3645 10.6558 26.3493 10.7297 26.3383C10.7297 26.3383 10.8124 26.3279 10.7632 26.3383H10.8163H10.9286C11.0034 26.334 11.0784 26.334 11.1531 26.3383H11.2142C11.2575 26.3383 11.1827 26.3383 11.2299 26.3383L11.3501 26.3575C11.375 26.3636 11.4011 26.3653 11.4268 26.3624C11.4525 26.3596 11.4773 26.3522 11.4998 26.3409C11.5223 26.3296 11.542 26.3144 11.5579 26.2963C11.5738 26.2782 11.5855 26.2574 11.5923 26.2353C11.5992 26.2132 11.6011 26.1901 11.5979 26.1673C11.5946 26.1445 11.5864 26.1226 11.5736 26.1026C11.5608 26.0827 11.5437 26.0652 11.5232 26.0511C11.5028 26.037 11.4794 26.0266 11.4545 26.0206V26.0153Z" fill="#FF9400"/>
<path d="M11.5037 26.5499C11.4202 26.5756 11.3346 26.5955 11.2476 26.6093H11.1905C11.2319 26.6093 11.1767 26.6093 11.1688 26.6093H11.0369C10.9553 26.6111 10.8737 26.6076 10.7927 26.5988H10.7631L10.7001 26.5866C10.6568 26.5866 10.6134 26.5691 10.5701 26.5587C10.5197 26.5464 10.4658 26.5524 10.4204 26.5753C10.375 26.5982 10.3417 26.6362 10.3278 26.6809C10.314 26.7256 10.3207 26.7733 10.3466 26.8136C10.3725 26.8538 10.4153 26.8834 10.4657 26.8956C10.8387 26.9948 11.2367 26.9923 11.6081 26.8887C11.633 26.8826 11.6564 26.8722 11.6769 26.8581C11.6973 26.8441 11.7144 26.8266 11.7272 26.8066C11.74 26.7867 11.7483 26.7647 11.7515 26.7419C11.7547 26.7191 11.7528 26.696 11.7459 26.6739C11.7391 26.6518 11.7274 26.631 11.7115 26.6129C11.6956 26.5948 11.6759 26.5796 11.6534 26.5683C11.6309 26.5569 11.6061 26.5496 11.5804 26.5468C11.5547 26.5439 11.5286 26.5456 11.5037 26.5517V26.5499Z" fill="#FF9400"/>
<path d="M11.5525 27.126C10.7174 27.2045 9.88424 27.3163 9.06096 27.4629C9.03599 27.469 9.01261 27.4794 8.99216 27.4935C8.97172 27.5075 8.9546 27.525 8.9418 27.545C8.92899 27.5649 8.92075 27.5869 8.91754 27.6097C8.91433 27.6325 8.91621 27.6556 8.92308 27.6777C8.93995 27.7255 8.96754 27.7698 9.0042 27.808C9.04086 27.8461 9.08583 27.8773 9.13642 27.8996C9.187 27.9219 9.24216 27.935 9.29858 27.938C9.35499 27.9409 9.4115 27.9338 9.46472 27.9169C9.48969 27.9108 9.51307 27.9005 9.53351 27.8864C9.55396 27.8723 9.57107 27.8548 9.58388 27.8349C9.59668 27.8149 9.60493 27.7929 9.60814 27.7702C9.61135 27.7474 9.60946 27.7243 9.60259 27.7022C9.58712 27.6591 9.55345 27.6231 9.50865 27.6016C9.46384 27.5801 9.41139 27.5748 9.3623 27.5869C9.3623 27.5869 9.31306 27.6114 9.30518 27.5869L9.16731 27.8017C9.95514 27.6597 10.7509 27.5514 11.5544 27.4769C11.6067 27.4769 11.6568 27.4585 11.6937 27.4258C11.7307 27.393 11.7514 27.3486 11.7514 27.3023C11.7514 27.256 11.7307 27.2116 11.6937 27.1789C11.6568 27.1461 11.6067 27.1277 11.5544 27.1277L11.5525 27.126Z" fill="#FF9400"/>
<path d="M11.3613 27.4891C10.9954 27.6124 10.6033 27.6624 10.2131 27.6358C10.1608 27.6358 10.1107 27.6542 10.0738 27.6869C10.0369 27.7197 10.0161 27.7641 10.0161 27.8104C10.0161 27.8567 10.0369 27.9011 10.0738 27.9339C10.1107 27.9666 10.1608 27.985 10.2131 27.985C10.6385 28.0095 11.0651 27.9554 11.4657 27.8261C11.5161 27.8138 11.559 27.7843 11.5848 27.7441C11.6107 27.7038 11.6174 27.6561 11.6036 27.6114C11.5898 27.5667 11.5565 27.5287 11.511 27.5058C11.4656 27.4829 11.4117 27.4769 11.3613 27.4891Z" fill="#FF9400"/>
<path d="M21.838 25.0777C21.8312 25.0556 21.8195 25.0348 21.8036 25.0167C21.7878 24.9986 21.768 24.9834 21.7455 24.9721C21.723 24.9607 21.6982 24.9534 21.6725 24.9506C21.6468 24.9477 21.6207 24.9494 21.5958 24.9555L20.3628 25.1545C20.3259 25.1638 20.2928 25.1826 20.2676 25.2083C20.2425 25.2341 20.2264 25.2659 20.2214 25.2996C20.2164 25.3334 20.2226 25.3678 20.2394 25.3985C20.2561 25.4291 20.2826 25.4548 20.3156 25.4723C20.4216 25.523 20.5453 25.5367 20.6622 25.5107C20.7051 25.4999 20.7422 25.4757 20.7666 25.4426L21.7002 25.2925C21.7251 25.2864 21.7485 25.276 21.769 25.262C21.7894 25.2479 21.8065 25.2304 21.8193 25.2104C21.8321 25.1905 21.8404 25.1685 21.8436 25.1457C21.8468 25.1229 21.8449 25.0998 21.838 25.0777Z" fill="#FF9400"/>
<path d="M22.4761 25.6664C22.3815 25.5233 22.1688 25.5617 22.0132 25.5669L21.1564 25.6001C21.1042 25.6001 21.0541 25.6185 21.0172 25.6512C20.9802 25.684 20.9595 25.7284 20.9595 25.7747C20.9595 25.821 20.9802 25.8654 21.0172 25.8981C21.0541 25.9309 21.1042 25.9493 21.1564 25.9493L21.7197 25.9266H21.9896H22.1255H22.1452C22.1787 25.9524 22.2205 25.9681 22.2648 25.9715C22.309 25.975 22.3533 25.966 22.3914 25.9458C22.4184 25.9331 22.4423 25.9156 22.4614 25.8944C22.4805 25.8732 22.4945 25.8487 22.5025 25.8225C22.5104 25.7963 22.5122 25.7689 22.5076 25.742C22.5031 25.7152 22.4923 25.6894 22.4761 25.6664Z" fill="#FF9400"/>
<path d="M19.6203 26.7942C20.779 26.7727 21.9379 26.8229 23.0887 26.9444C23.3389 26.9706 23.3369 26.6214 23.0887 26.5952C21.9379 26.4737 20.779 26.4235 19.6203 26.445C19.5681 26.445 19.518 26.4634 19.481 26.4962C19.4441 26.5289 19.4233 26.5733 19.4233 26.6196C19.4233 26.6659 19.4441 26.7104 19.481 26.7431C19.518 26.7758 19.5681 26.7942 19.6203 26.7942Z" fill="#FF9400"/>
<path d="M21.5976 27.2708C21.8915 27.343 22.2014 27.3472 22.4977 27.2831C22.5481 27.2706 22.5908 27.2408 22.6165 27.2004C22.6421 27.1599 22.6486 27.1121 22.6345 27.0674C22.6204 27.0227 22.5869 26.9849 22.5413 26.9621C22.4957 26.9393 22.4417 26.9336 22.3913 26.9461L22.2928 26.9653H22.2495C22.2042 26.9653 22.2849 26.9653 22.2495 26.9653C22.1839 26.9687 22.1181 26.9687 22.0525 26.9653H21.956H21.9127H21.8831H21.9009C21.8359 26.9548 21.7709 26.9443 21.7039 26.9286C21.679 26.9225 21.6529 26.9209 21.6272 26.9237C21.6015 26.9266 21.5767 26.9339 21.5542 26.9452C21.5317 26.9566 21.512 26.9717 21.4961 26.9899C21.4802 27.008 21.4685 27.0287 21.4617 27.0508C21.4548 27.073 21.4529 27.0961 21.4561 27.1189C21.4593 27.1416 21.4676 27.1636 21.4804 27.1836C21.4932 27.2035 21.5103 27.221 21.5307 27.2351C21.5512 27.2492 21.5746 27.2595 21.5995 27.2656L21.5976 27.2708Z" fill="#FF9400"/>
<path d="M29.966 29.2456C30.4553 29.2335 30.943 29.2997 31.4058 29.4411C31.4562 29.4537 31.5101 29.4479 31.5557 29.4251C31.6014 29.4024 31.6349 29.3645 31.649 29.3198C31.6631 29.2751 31.6566 29.2273 31.6309 29.1869C31.6053 29.1464 31.5625 29.1167 31.5121 29.1042C31.0147 28.9544 30.4912 28.8841 29.966 28.8964C29.9138 28.8964 29.8637 28.9148 29.8267 28.9475C29.7898 28.9803 29.769 29.0247 29.769 29.071C29.769 29.1173 29.7898 29.1617 29.8267 29.1945C29.8637 29.2272 29.9138 29.2456 29.966 29.2456Z" fill="#FF9400"/>
<path d="M25.8103 29.1181C23.5915 29.0473 21.3705 29.1854 19.1846 29.5301C19.1571 29.5335 19.1308 29.5424 19.1078 29.5563H19.0783C19.0475 29.5554 19.0169 29.5609 18.9889 29.5723C18.9609 29.5838 18.9364 29.6009 18.9172 29.6223C18.898 29.6437 18.8848 29.6688 18.8786 29.6955C18.8723 29.7223 18.8733 29.7499 18.8813 29.7763C19.2142 31.1923 20.6539 32.3586 22.3497 32.1369C23.1671 32.0286 23.8565 31.5852 24.4533 31.1015C25.05 30.6179 25.6902 30.0539 25.9954 29.3363C26.0029 29.3109 26.0037 29.2844 25.998 29.2586C25.9922 29.2329 25.98 29.2087 25.9622 29.1877C25.9444 29.1667 25.9215 29.1496 25.8952 29.1375C25.8689 29.1255 25.8399 29.1188 25.8103 29.1181Z" fill="#E35002"/>
<path d="M26.9452 24.3829L26.9728 24.5575L27.542 24.4179C27.542 24.3987 27.5321 24.3795 27.5282 24.3603L27.54 24.4301C27.5351 24.3947 27.5351 24.359 27.54 24.3236H26.9491V24.4441C26.9505 24.5133 26.9814 24.5794 27.0358 24.6291C27.0728 24.6607 27.1183 24.6833 27.168 24.6947C27.2177 24.7062 27.2698 24.7061 27.3195 24.6945C27.3691 24.683 27.4146 24.6603 27.4515 24.6286C27.4884 24.597 27.5155 24.5575 27.5302 24.5139L27.5518 24.451L26.9826 24.3114C26.9459 24.4871 26.9183 24.6652 26.8999 24.8456C26.8999 24.9151 26.931 24.9817 26.9864 25.0308C27.0418 25.0799 27.117 25.1075 27.1953 25.1075C27.2735 25.1067 27.3483 25.0792 27.4041 25.0307L27.4514 24.9783C27.477 24.9378 27.4905 24.8921 27.4908 24.8456C27.4908 24.7706 27.5065 24.6972 27.5184 24.6221V24.692C27.5302 24.6117 27.544 24.5314 27.5617 24.451C27.5808 24.3826 27.5703 24.3103 27.5321 24.2485C27.4928 24.1896 27.4293 24.1464 27.3549 24.128C27.3171 24.1188 27.2775 24.1163 27.2386 24.1208C27.1997 24.1253 27.1622 24.1367 27.1284 24.1542C27.0623 24.1895 27.0138 24.2456 26.9925 24.3114L26.9708 24.3742L27.5499 24.4441V24.3253C27.55 24.2909 27.5425 24.2568 27.5276 24.225C27.5127 24.1933 27.4908 24.1644 27.4632 24.1403C27.4079 24.0911 27.3328 24.0635 27.2544 24.0634C27.2156 24.0632 27.1771 24.0698 27.1412 24.083C27.1054 24.0962 27.0729 24.1157 27.0457 24.1403L27.0004 24.1926C26.973 24.2326 26.9587 24.2786 26.959 24.3253C26.9508 24.4041 26.9594 24.4834 26.9846 24.5593C27.006 24.6245 27.0546 24.6801 27.1205 24.7147C27.1897 24.7498 27.2716 24.7598 27.349 24.7426C27.4225 24.7235 27.4851 24.6805 27.5243 24.6221L27.5538 24.5593C27.5696 24.5138 27.5696 24.4651 27.5538 24.4196L27.5262 24.245C27.5108 24.1954 27.4792 24.1509 27.4354 24.1171C27.3916 24.0833 27.3375 24.0617 27.2799 24.055C27.2223 24.0483 27.1638 24.0567 27.1116 24.0794C27.0594 24.102 27.0159 24.1377 26.9866 24.1822L26.957 24.245C26.9432 24.2902 26.9432 24.3378 26.957 24.3829H26.9452Z" fill="#141414"/>
<path d="M14.8892 23.7458C14.8955 23.7534 14.9008 23.7616 14.9049 23.7703L14.8754 23.7074C14.8763 23.7161 14.8763 23.7249 14.8754 23.7336L14.8635 23.6638C14.8655 23.673 14.8655 23.6825 14.8635 23.6917L14.8754 23.6219H15.4446L15.4131 23.5066C15.4056 23.473 15.3871 23.442 15.3599 23.4176C15.3404 23.3882 15.3116 23.3645 15.2772 23.3495C15.2448 23.3308 15.2074 23.3199 15.1688 23.3181C15.1301 23.3093 15.0894 23.3093 15.0507 23.3181C14.976 23.3359 14.9123 23.3792 14.8734 23.4385L14.8439 23.5014C14.83 23.5466 14.83 23.5942 14.8439 23.6393C14.8544 23.6811 14.8689 23.722 14.8872 23.7615C14.913 23.8218 14.9439 23.8801 14.9798 23.9361C15.0058 23.9749 15.0423 24.0074 15.0861 24.0304C15.1187 24.0498 15.1571 24.0602 15.1964 24.0601C15.2344 24.0697 15.2746 24.0697 15.3126 24.0601C15.3627 24.0483 15.4083 24.0248 15.4446 23.992L15.5037 23.9257L15.5155 23.9065C15.5306 23.8811 15.5438 23.8548 15.5549 23.8279C15.5549 23.8279 15.5549 23.8139 15.5549 23.8052C15.5549 23.7965 15.5549 23.7703 15.5549 23.7528C15.5567 23.7342 15.5567 23.7155 15.5549 23.6969V23.676C15.5517 23.6455 15.5464 23.6152 15.5391 23.5852L15.0743 23.8384C15.0878 23.8491 15.1003 23.8608 15.1117 23.8733L15.0644 23.8209C15.0832 23.8425 15.0991 23.8659 15.1117 23.8907L15.0822 23.8279C15.0937 23.8544 15.1023 23.8819 15.1078 23.91L15.096 23.8419C15.0999 23.8685 15.0999 23.8955 15.096 23.9222C15.0945 23.9573 15.1033 23.9922 15.1216 24.0234C15.1336 24.0555 15.1546 24.0844 15.1826 24.1072C15.209 24.1316 15.2413 24.1501 15.2772 24.1614C15.3123 24.1777 15.3517 24.1855 15.3914 24.1841C15.4696 24.1833 15.5443 24.1557 15.6002 24.1072L15.6474 24.0531C15.6733 24.0133 15.6869 23.9681 15.6868 23.9222C15.6908 23.8955 15.6908 23.8685 15.6868 23.8419C15.684 23.7949 15.6741 23.7485 15.6573 23.7039C15.6235 23.6155 15.5676 23.5349 15.4938 23.4682L15.4328 23.4263C15.3998 23.4073 15.3617 23.3965 15.3225 23.3949C15.2972 23.3897 15.2709 23.3897 15.2456 23.3949C15.2064 23.3965 15.1683 23.4073 15.1353 23.4263C15.0925 23.4504 15.0561 23.4826 15.029 23.5206C14.99 23.5816 14.9794 23.6536 14.9994 23.7214C14.9994 23.7214 14.9994 23.7319 14.9994 23.7371L14.9876 23.669C14.9896 23.6847 14.9896 23.7005 14.9876 23.7161V23.6463C14.9858 23.6601 14.9818 23.6736 14.9758 23.6865L15.0054 23.6236C14.9999 23.6369 14.9919 23.6493 14.9817 23.6603L15.027 23.6079C15.0242 23.6127 15.0202 23.6169 15.0152 23.6201L15.48 23.6725C15.4559 23.6385 15.4349 23.6029 15.417 23.566L15.4465 23.6288C15.4294 23.5895 15.415 23.5493 15.4032 23.5084L14.834 23.6463L14.8655 23.7633L14.8951 23.8261C14.9142 23.8553 14.9405 23.8804 14.9719 23.8995C14.9896 23.9157 15.0121 23.9272 15.0369 23.9326C15.0717 23.9497 15.1114 23.9576 15.1511 23.9553C15.2026 23.9535 15.2531 23.9416 15.2988 23.9204C15.3327 23.904 15.3618 23.8807 15.3835 23.8523C15.41 23.8277 15.4278 23.7968 15.4347 23.7633C15.4422 23.734 15.4468 23.7042 15.4485 23.6742C15.4479 23.6436 15.4433 23.6131 15.4347 23.5835C15.427 23.5548 15.4151 23.5272 15.3993 23.5014C15.3948 23.4929 15.3895 23.4847 15.3835 23.4769C15.3657 23.4475 15.34 23.4223 15.3087 23.4036C15.2798 23.3812 15.2454 23.3651 15.2082 23.3565C15.1307 23.342 15.0499 23.3518 14.9798 23.3844C14.9148 23.4193 14.8675 23.4751 14.8477 23.5401C14.8278 23.6051 14.8371 23.6744 14.8734 23.7336L14.8892 23.7458Z" fill="#141414"/>
<path d="M25.9623 28.9731C24.7018 28.9731 23.4393 28.9731 22.1788 28.9976C20.9773 29.0168 19.7601 29.0919 18.6178 29.4481C18.6032 29.4524 18.5894 29.4583 18.5764 29.4655C18.5032 29.4868 18.442 29.5322 18.4054 29.5923C18.3688 29.6523 18.3595 29.7226 18.3794 29.7885C18.5833 30.356 18.9274 30.876 19.3867 31.3106C19.846 31.7453 20.4089 32.0836 21.0344 32.301C21.4052 32.4369 21.8041 32.5021 22.2052 32.4925C22.6062 32.4828 23.0005 32.3986 23.3625 32.2451C24.0053 31.9778 24.5813 31.599 25.0563 31.1312C25.5929 30.6036 25.9958 29.9802 26.2381 29.3031C26.2489 29.265 26.2501 29.2253 26.2415 29.1867C26.2329 29.1482 26.2147 29.1118 26.1883 29.0803C26.162 29.0487 26.128 29.0227 26.0889 29.0042C26.0498 28.9857 26.0066 28.9751 25.9623 28.9731ZM24.4832 30.9042C23.9415 31.3896 23.1793 31.8837 22.3934 31.9727C21.6076 32.0618 20.7429 31.6864 20.158 31.2482C19.6709 30.8873 19.2897 30.4272 19.0471 29.9072L19.5415 29.8147C19.6072 29.8043 19.6658 29.7718 19.705 29.7239C20.5491 29.5831 21.4064 29.5135 22.2654 29.5161C23.3546 29.5022 24.4438 29.5004 25.533 29.4952C25.2896 30.0209 24.933 30.4994 24.4832 30.9042Z" fill="#141414"/>
</svg>
