<svg width="current" height="current" viewBox="0 0 48 48" fill="none" xmlns="http://www.w3.org/2000/svg">
<g clip-path="url(#clip0_5374_6930)">
<path d="M1.77603 5.30449L0.923596 5.82733C2.47529 8.35721 4.70536 10.7071 7.40177 12.1591C8.15449 12.5854 8.96654 12.8843 9.8053 13.0488C9.30685 13.5156 8.83279 14.0087 8.38524 14.5263L8.38428 14.5274C5.43462 17.9484 3.67039 22.3571 3.96183 26.972C4.25436 31.6874 6.47271 35.9214 10.3059 38.7361C14.1055 41.5261 18.846 42.591 23.2608 42.9737C28.0509 43.3986 33.319 42.7328 37.5695 40.0074C41.3106 37.6119 44.2799 33.7467 44.8687 29.1396L44.8687 29.1396C45.4836 24.3254 43.8958 18.6222 41.1161 14.7012L41.1155 14.7003C39.6128 12.5857 37.6722 10.8195 35.4259 9.52195C33.1795 8.22441 30.68 7.42592 28.0974 7.18082L28.0941 7.18052C26.8869 7.06998 25.6713 7.09169 24.4689 7.24525C24.3531 7.25034 24.2371 7.25598 24.121 7.26224C23.9656 6.74926 23.8155 6.23678 23.674 5.7239C23.6252 5.54575 23.5362 5.38116 23.4137 5.24282C23.2909 5.10412 23.1378 4.99557 22.9663 4.92557L22.9663 4.92557C22.7948 4.85557 22.6094 4.82599 22.4247 4.83914C22.2545 4.85125 22.089 4.89928 21.9391 4.97988L21.3086 5.29813L21.3086 5.29807L21.2976 5.30375C21.1042 5.40443 20.942 5.55627 20.8288 5.74274C20.7156 5.92922 20.6558 6.14317 20.6558 6.36129C20.6558 6.36625 20.6558 6.37121 20.6559 6.37616C20.5005 6.50172 20.3355 6.61496 20.1625 6.71484C18.2488 5.79424 16.2652 5.64363 14.3672 5.71109C13.4674 5.74308 12.5627 5.82559 11.6904 5.90516C11.6072 5.91275 11.5242 5.92032 11.4416 5.92781C10.5322 6.01028 9.65677 6.08449 8.79828 6.10177L8.79114 6.09989C8.60855 6.05176 8.41712 6.04777 8.23267 6.08826L8.23599 6.10338L8.23267 6.08826C8.21311 6.09256 8.19369 6.09734 8.17443 6.10259C7.86096 6.09783 7.55494 6.08144 7.24327 6.05432C6.27755 5.96536 5.32483 5.76979 4.4025 5.47132C4.38956 5.46254 4.37645 5.45401 4.36317 5.44572L4.339 5.43064L4.31402 5.41697C3.75889 5.1131 3.24228 4.74365 2.77527 4.31656L2.77489 4.31621C2.26987 3.85483 1.61543 3.9605 1.23665 4.23784C1.03869 4.38279 0.855496 4.60997 0.779323 4.91292C0.698259 5.23533 0.759672 5.56296 0.926127 5.83143L1.77603 5.30449ZM1.77603 5.30449C1.64793 5.09788 1.93305 4.9016 2.10041 5.05449C2.11103 5.06421 2.12168 5.0739 2.13235 5.08357C2.13287 5.08404 2.13339 5.08451 2.13391 5.08498C2.30758 5.24219 2.48726 5.39237 2.6725 5.5352L10.8016 12.1773C9.78095 12.0978 8.78464 11.7949 7.88546 11.2838C5.93085 10.2334 4.21846 8.66238 2.85697 6.88035C2.34831 6.56217 1.86928 6.1982 1.42592 5.79278M1.77603 5.30449C1.78883 5.32536 1.80167 5.34621 1.81457 5.36704L1.42554 5.79243C1.42566 5.79255 1.42579 5.79266 1.42592 5.79278M1.42592 5.79278C1.67297 6.01848 1.96849 6.0341 2.19798 5.9613C2.06599 5.76496 1.93818 5.56681 1.81469 5.36724L1.42592 5.79278ZM19.9912 7.76019L19.9904 7.75821L19.9636 7.69115L19.9629 7.68961L19.8384 7.37812C19.7753 7.38056 19.7125 7.39035 19.6512 7.40749L19.9912 7.76019ZM19.9912 7.76019C19.9908 7.75981 19.9905 7.75944 19.9901 7.75907C19.9771 7.74516 19.962 7.73327 19.9452 7.72388L19.9912 7.76019Z" fill="white" stroke="white" stroke-width="2"/>
<path d="M21.7921 6.68447C21.3028 7.21596 20.7006 7.63108 20.0298 7.89933C20.0292 7.86681 20.0201 7.83502 20.0035 7.8071C19.9868 7.77919 19.9631 7.75613 19.9347 7.74024C16.3996 5.91175 12.4493 7.07289 8.65594 7.12041L8.52577 7.08322C8.49661 7.07553 8.46603 7.0749 8.43657 7.08136C8.40711 7.08783 8.37962 7.10122 8.35635 7.12041C7.94314 7.12041 7.54645 7.10182 7.14356 7.06669C6.03541 6.96481 4.94316 6.73249 3.88947 6.37455C3.87222 6.34876 3.84968 6.32693 3.82336 6.3105C3.19799 5.96818 2.616 5.55199 2.08991 5.07085C1.92255 4.91796 1.63743 5.11424 1.76553 5.32085C3.24692 7.73611 5.36053 9.94889 7.87496 11.3001C9.15328 12.0268 10.6279 12.3325 12.0898 12.1741C12.85 12.0645 13.5989 11.8868 14.3273 11.6431C15.0835 11.4034 15.8439 11.1617 16.5815 10.8662C17.8624 10.3538 19.1248 9.59352 19.8231 8.38692C19.8563 8.39618 19.8913 8.39618 19.9244 8.38692C20.7498 8.10431 21.4922 7.62162 22.0855 6.98198C22.2653 6.77124 21.9739 6.47786 21.7921 6.68447ZM6.66836 8.33734L6.57332 8.28362C6.57358 8.2788 6.57358 8.27397 6.57332 8.26916L6.71175 8.33114C6.6977 8.32614 6.68315 8.32268 6.66836 8.32081V8.33734ZM19.0979 8.68651L19.1537 8.63899L19.0897 8.7175C19.0918 8.69064 19.0959 8.68031 19.0979 8.66998V8.68651Z" fill="#6FA232"/>
<path d="M43.8745 29.0128C43.3311 33.2648 40.5688 36.8867 37.0275 39.1635C33.0255 41.7316 28.0028 42.3825 23.3458 41.9775C19.0071 41.5973 14.4617 40.5498 10.8915 37.93C7.32126 35.3102 5.22831 31.3392 4.95972 26.9074C4.6932 22.5873 6.34194 18.4365 9.13529 15.1845C12.0278 11.8188 16.1703 9.58535 20.4988 8.72173C21.838 8.45482 23.1962 8.29454 24.5607 8.24239C25.7041 8.09225 26.8607 8.07007 28.009 8.17628C30.4458 8.40997 32.8037 9.16527 34.9227 10.3909C37.0417 11.6165 38.8722 13.2838 40.2898 15.2795C42.9448 19.0129 44.4551 24.4529 43.8745 29.0128Z" fill="#FFAF07"/>
<path d="M23.5814 31.2361C22.7847 29.6069 21.3779 28.3575 19.6661 27.7589C19.2136 27.6018 19.0174 28.3208 19.4595 28.4778C20.5509 28.8656 21.5087 29.5574 22.2198 30.4716C21.9057 30.349 21.5824 30.2516 21.2529 30.1803C20.8594 30.0954 20.459 30.0463 20.0566 30.0336C19.85 30.0336 19.6641 30.0336 19.4678 30.0439C19.3252 30.0439 19.1765 30.0853 19.0339 30.0956C18.9667 30.0684 18.893 30.0614 18.8218 30.0753C18.7507 30.0892 18.6851 30.1236 18.6331 30.1741L18.6227 30.1844C18.5542 30.255 18.5159 30.3495 18.5159 30.4479C18.5159 30.5462 18.5542 30.6407 18.6227 30.7113C18.7922 30.8766 18.9595 30.8435 19.1744 30.8167C19.3691 30.7922 19.565 30.7791 19.7612 30.7774C20.1462 30.7683 20.5311 30.7988 20.9099 30.8683C21.6783 31.0131 22.4102 31.3095 23.0628 31.7402C23.4078 31.9675 23.7301 31.546 23.5814 31.2361Z" fill="#141414"/>
<path d="M34.0917 29.2751C34.0638 29.1808 34.0004 29.101 33.9149 29.0525C33.8293 29.0039 33.7283 28.9904 33.633 29.0148C32.2679 29.3199 31.041 30.0655 30.1414 31.1367C30.0797 31.2014 30.0434 31.2861 30.0388 31.3754C30.0343 31.4646 30.0618 31.5526 30.1165 31.6233C30.1712 31.694 30.2495 31.7427 30.337 31.7607C30.4246 31.7787 30.5157 31.7647 30.5938 31.7214C31.4812 31.3177 32.4743 31.2077 33.4285 31.4073C33.5235 31.4316 33.6242 31.418 33.7094 31.3695C33.7946 31.3209 33.8576 31.2411 33.8851 31.147C33.9106 31.0522 33.8978 30.9512 33.8495 30.8658C33.8012 30.7804 33.7212 30.7174 33.6268 30.6904C33.0299 30.564 32.4157 30.5402 31.8108 30.6201C32.4199 30.195 33.1063 29.8932 33.8314 29.7317C33.9255 29.7042 34.0053 29.6412 34.0539 29.556C34.1024 29.4708 34.116 29.3701 34.0917 29.2751Z" fill="#141414"/>
<path d="M25.5418 32.6821C25.0646 32.9982 24.5749 33.4279 24.641 34.0602C24.7113 34.7275 25.2836 35.0932 25.8683 35.2833C26.4951 35.4829 27.1599 35.5336 27.8098 35.4314C28.4597 35.3292 29.0767 35.0769 29.612 34.6944C29.7473 34.6007 29.8581 34.476 29.9354 34.3308C30.0127 34.1855 30.0542 34.0239 30.0565 33.8594C30.0587 33.6949 30.0216 33.5322 29.9482 33.3849C29.8749 33.2376 29.7674 33.11 29.6348 33.0126C29.3249 32.7833 29.0273 33.3019 29.3331 33.5292C29.4073 33.6013 29.4533 33.6976 29.4628 33.8006C29.4723 33.9037 29.4446 34.0067 29.3848 34.0911C29.1867 34.2996 28.9416 34.4576 28.6699 34.5519C28.1365 34.7923 27.5541 34.9041 26.9695 34.8783C26.4737 34.8577 25.7753 34.7523 25.4158 34.3763C24.9675 33.9052 25.4427 33.4631 25.8435 33.1986C26.1637 32.992 25.8642 32.4693 25.5418 32.6821Z" fill="#141414"/>
<path d="M24.321 9.42238C24.0553 9.35412 23.781 9.32557 23.5069 9.33767C23.5586 9.57113 23.6082 9.80254 23.6598 10.0339C23.7115 10.2653 23.3912 10.412 23.2817 10.193C23.1722 9.97402 23.0896 9.8108 22.9946 9.61865C22.7134 9.7327 22.4519 9.89028 22.2198 10.0856C22.1876 10.1202 22.1446 10.1427 22.0978 10.1494C22.051 10.1561 22.0034 10.1466 21.9628 10.1224C21.9222 10.0983 21.8911 10.0609 21.8747 10.0166C21.8583 9.97233 21.8576 9.92375 21.8727 9.87898C21.9236 9.65404 22.0222 9.44265 22.1619 9.25916L21.8479 9.07527C21.8166 9.05711 21.7906 9.03104 21.7725 8.99968C21.7544 8.96831 21.7449 8.93275 21.7449 8.89656C21.7449 8.86036 21.7544 8.8248 21.7725 8.79344C21.7906 8.76207 21.8166 8.736 21.8479 8.71784C22.0091 8.62534 22.1893 8.57093 22.3747 8.55875C22.1709 7.88245 21.9643 7.20684 21.7549 6.53192C21.7238 6.51538 21.6978 6.49067 21.6796 6.46047C21.6614 6.43026 21.6519 6.39568 21.6519 6.36043C21.6519 6.32519 21.6614 6.29061 21.6796 6.2604C21.6978 6.23019 21.7238 6.20549 21.7549 6.18895L22.4057 5.85837C22.4329 5.84273 22.4633 5.83347 22.4945 5.83131C22.5258 5.82914 22.5572 5.83411 22.5862 5.84586C22.6153 5.85761 22.6413 5.87581 22.6623 5.8991C22.6833 5.92239 22.6987 5.95015 22.7074 5.98027C22.9401 6.81635 23.1874 7.64761 23.4491 8.47404L23.5379 8.44718C23.5661 8.43826 23.596 8.43596 23.6252 8.44046C23.6544 8.44496 23.6822 8.45615 23.7064 8.47314C23.7306 8.49013 23.7505 8.51248 23.7647 8.53843C23.7788 8.56439 23.7868 8.59326 23.7879 8.6228C24.0627 8.71711 24.3137 8.8701 24.5235 9.07114C24.5595 9.10261 24.5835 9.14563 24.5914 9.19284C24.5993 9.24005 24.5905 9.28852 24.5666 9.32999C24.5427 9.37145 24.5051 9.40334 24.4603 9.42019C24.4155 9.43704 24.3663 9.43781 24.321 9.42238Z" fill="#ABC569"/>
<path d="M30.5793 27.2091C30.5386 27.1886 30.4942 27.1766 30.4487 27.1738C30.4033 27.1709 30.3577 27.1773 30.3148 27.1926C30.2588 27.1886 30.2028 27.2007 30.1534 27.2274C30.104 27.2541 30.0632 27.2944 30.0359 27.3434C29.7856 27.8406 29.5729 28.3558 29.3995 28.8847C29.3803 28.957 29.3879 29.0338 29.421 29.101C29.454 29.1681 29.5101 29.2211 29.5791 29.25C29.6481 29.279 29.7253 29.282 29.7963 29.2585C29.8673 29.2351 29.9275 29.1867 29.9656 29.1223C29.9656 29.1223 29.976 29.1017 29.9801 29.0893C30.025 29.0495 30.0591 28.999 30.0793 28.9426L30.1516 28.7587C30.164 28.7318 30.1743 28.707 30.1847 28.6802V28.6616V28.6492L30.2714 28.4529C30.3727 28.2463 30.478 28.0624 30.5896 27.8703C30.6123 27.8283 30.625 27.7816 30.6268 27.7339C30.6454 27.7008 30.6599 27.6657 30.6784 27.6327C30.7198 27.5629 30.7326 27.4799 30.7141 27.4009C30.6956 27.322 30.6473 27.2533 30.5793 27.2091Z" fill="#FCC249"/>
<path d="M21.0134 9.5937C20.3496 9.67457 19.7306 9.97066 19.2511 10.4367C19.061 10.6226 19.3523 10.916 19.5424 10.7301C19.9428 10.338 20.4584 10.0845 21.0134 10.0069C21.0682 10.0069 21.1208 9.98515 21.1595 9.94641C21.1983 9.90766 21.22 9.85511 21.22 9.80031C21.22 9.70114 21.125 9.57924 21.0134 9.5937Z" fill="#FCC249"/>
<path d="M25.455 9.27116C25.6285 9.09141 25.9281 9.1286 26.1574 9.15752C26.4922 9.19903 26.8213 9.27732 27.1388 9.39099C27.1917 9.40551 27.2482 9.39843 27.2959 9.37131C27.3435 9.34419 27.3784 9.29924 27.393 9.24636C27.4075 9.19349 27.4004 9.137 27.3733 9.08935C27.3462 9.04169 27.3012 9.00676 27.2483 8.99223C26.8736 8.86087 26.4845 8.77486 26.0893 8.73604C25.9263 8.70346 25.758 8.70849 25.5973 8.75074C25.4365 8.79299 25.2875 8.87134 25.1616 8.97984C24.9777 9.17198 25.269 9.4633 25.455 9.27116Z" fill="#FCC249"/>
<path d="M24.1433 10.6433C24.3688 10.7792 24.5614 10.9634 24.7073 11.1826C24.7445 11.2404 24.7776 11.2983 24.8106 11.3603C24.8437 11.4222 24.8416 11.4243 24.8561 11.4574C24.8706 11.4904 24.8561 11.4574 24.8561 11.476C24.8639 11.4921 24.8708 11.5087 24.8768 11.5255C24.9261 11.6591 24.9608 11.7977 24.9801 11.9388C24.9872 11.965 24.9995 11.9895 25.0162 12.0109C25.0328 12.0324 25.0535 12.0503 25.0771 12.0638C25.1007 12.0772 25.1268 12.0858 25.1537 12.0892C25.1807 12.0926 25.208 12.0906 25.2342 12.0834C25.2604 12.0762 25.2849 12.064 25.3064 12.0473C25.3278 12.0306 25.3458 12.0099 25.3592 11.9863C25.3726 11.9627 25.3813 11.9367 25.3846 11.9097C25.388 11.8828 25.386 11.8554 25.3788 11.8293C25.3315 11.5111 25.2143 11.2073 25.0357 10.9397C24.8571 10.6722 24.6215 10.4475 24.3458 10.2818C24.3223 10.2668 24.296 10.2568 24.2685 10.2523C24.241 10.2477 24.2128 10.2488 24.1858 10.2554C24.1587 10.2621 24.1333 10.2741 24.111 10.2908C24.0887 10.3075 24.07 10.3286 24.0561 10.3527C24.0421 10.3768 24.0332 10.4035 24.0298 10.4312C24.0265 10.4589 24.0287 10.4869 24.0365 10.5137C24.0443 10.5404 24.0574 10.5654 24.075 10.5869C24.0926 10.6085 24.1145 10.6263 24.1392 10.6392L24.1433 10.6433Z" fill="#FCC249"/>
</g>
<defs>
<clipPath id="clip0_5374_6930">
<rect width="48" height="48" fill="white"/>
</clipPath>
</defs>
</svg>
