<svg width="current" height="current" viewBox="0 0 48 48" fill="none" xmlns="http://www.w3.org/2000/svg">
<path d="M29.8015 11.3536C30.3036 11.5011 30.8124 11.7197 31.28 12.0601C31.3258 12.0932 31.3691 12.1293 31.4096 12.1681C35.3299 13.3559 38.8054 16.0883 40.9031 19.5542C43.0738 23.1407 43.7944 27.5659 41.9251 31.8759C40.0802 36.1296 36.0249 38.8601 32.1076 40.4412L29.8015 11.3536ZM29.8015 11.3536C29.8301 11.319 29.8589 11.2848 29.8877 11.2511C30.0887 11.0273 30.199 10.7374 30.199 10.438C30.199 10.1261 30.0793 9.8245 29.862 9.59717L29.8479 9.58241L29.8333 9.56825C29.4826 9.23 29.022 9.02809 28.5341 9.00148L28.5038 8.99983L28.4735 9.00002C28.3253 9.00093 28.1784 9.02571 28.0384 9.07321C27.7979 9.14824 27.5788 9.27856 27.3981 9.45323C27.2148 9.63035 27.0765 9.84785 26.9933 10.0875C26.9076 10.3175 26.8338 10.5516 26.7722 10.789C26.6349 10.8078 26.4958 10.8306 26.361 10.8578L26.3504 10.8599L26.34 10.8623L26.2362 10.8856C25.9828 10.915 25.7342 10.9767 25.4963 11.0691C25.3218 11.1225 25.1496 11.1834 24.9803 11.2515C24.0444 11.2809 23.1222 11.3664 22.2807 11.4508C19.8921 11.6836 17.5098 12.1707 15.2346 13.1236C11.265 14.7837 7.70633 17.7551 5.9986 21.948C4.19229 26.3721 4.84379 31.3274 7.89619 35.0428L7.89672 35.0434C10.6683 38.4114 14.928 40.548 18.9996 41.4446L29.8015 11.3536ZM18.9998 41.4446C23.3372 42.4005 27.9457 42.1226 32.1072 40.4413L18.9998 41.4446Z" fill="white" stroke="white" stroke-width="2"/>
<path d="M28.8024 12.624C28.6598 12.606 28.5193 12.592 28.3767 12.578C26.4718 12.06 24.2898 12.246 22.379 12.436C20.0583 12.668 17.7793 13.14 15.621 14.036C11.8331 15.62 8.51046 18.436 6.92441 22.316C5.25123 26.424 5.85912 30.99 8.66887 34.408C11.2628 37.56 15.3002 39.608 19.2148 40.47C23.373 41.386 27.7728 41.114 31.7329 39.514C35.5387 37.98 39.3127 35.388 41.0077 31.478C44.7421 22.872 37.3168 13.704 28.8024 12.624ZM19.3237 36.92H19.3396L19.3574 36.934L19.3237 36.92Z" fill="#FF8C00"/>
<path d="M18.2744 24.588C18.0364 24.3276 17.7485 24.1187 17.4283 23.974C17.108 23.8292 16.7619 23.7517 16.4111 23.746C16.2494 23.7284 16.0865 23.7237 15.924 23.732C15.3783 23.7422 14.84 23.8611 14.3399 24.082C13.3281 24.568 12.8984 25.788 12.8984 26.856C12.8892 27.4066 13.0101 27.9515 13.2512 28.4455C13.4923 28.9394 13.8465 29.3681 14.2845 29.696C14.7158 30.007 15.2263 30.1865 15.7555 30.2135C16.2847 30.2404 16.8104 30.1136 17.2705 29.848C17.7173 29.5998 18.1071 29.2588 18.4142 28.8476C18.7214 28.4364 18.9389 27.9642 19.0526 27.462C19.1591 26.955 19.1441 26.4296 19.0088 25.9297C18.8734 25.4297 18.6216 24.9697 18.2744 24.588Z" fill="white"/>
<path d="M17.8604 24.2001C17.8454 24.1911 17.8294 24.1837 17.8129 24.1781C17.7542 24.127 17.692 24.0802 17.6268 24.0381C17.4103 23.9045 17.1634 23.8295 16.91 23.8201H16.8308H16.7852C16.7353 23.8221 16.6857 23.8281 16.6367 23.8381C16.4966 23.8629 16.3624 23.9137 16.2407 23.9881C15.8821 24.1253 15.579 24.3794 15.3794 24.7101C15.1077 25.1937 14.9644 25.74 14.9635 26.2961C14.9282 26.8627 15.0008 27.431 15.1774 27.9701C15.4863 28.8581 16.3654 30.0821 17.4545 29.7101C18.3792 29.3921 18.9534 28.2561 19.0841 27.3401C19.2366 26.2421 18.8603 24.8021 17.8604 24.2001Z" fill="#141414"/>
<path d="M33.5427 24.8019C33.3046 24.5416 33.0168 24.3327 32.6965 24.188C32.3762 24.0433 32.0302 23.9657 31.6794 23.9599C31.5177 23.9422 31.3548 23.9376 31.1923 23.9459C30.6466 23.9559 30.1082 24.0748 29.6082 24.2959C28.5964 24.7819 28.1647 26.0019 28.1647 27.0699C28.156 27.6204 28.2771 28.1651 28.5182 28.659C28.7592 29.1529 29.1132 29.5816 29.5508 29.9099C29.9821 30.2208 30.4926 30.4004 31.0218 30.4273C31.551 30.4543 32.0767 30.3275 32.5368 30.0619C32.9838 29.8138 33.3737 29.4729 33.6809 29.0617C33.988 28.6504 34.2055 28.1781 34.3189 27.6759C34.4254 27.169 34.4105 26.6438 34.2755 26.1439C34.1405 25.644 33.8893 25.1839 33.5427 24.8019Z" fill="white"/>
<path d="M33.127 24.4239C33.1133 24.4156 33.0986 24.4089 33.0834 24.4039C32.814 24.166 32.467 24.0371 32.1092 24.0419H32.0934L31.9963 24.0519H31.9191C31.7643 24.0744 31.6159 24.1296 31.4835 24.2139C31.1336 24.3529 30.8376 24.6027 30.64 24.9259C30.3698 25.41 30.2273 25.9561 30.2261 26.5119C30.1898 27.0786 30.2624 27.647 30.44 28.1859C30.7489 29.0739 31.6281 30.2979 32.7151 29.9259C33.6418 29.6079 34.214 28.4719 34.3467 27.5559C34.5031 26.4559 34.1289 25.0239 33.127 24.4239Z" fill="#141414"/>
<path d="M20.8721 31.914C21.2166 33.092 22.5829 33.608 23.6918 33.692C24.2818 33.722 24.8681 33.5826 25.3829 33.2899C25.8977 32.9972 26.3199 32.5631 26.6005 32.038C26.8401 31.584 26.157 31.18 25.9174 31.638C25.7139 32.0284 25.4063 32.3535 25.0295 32.5765C24.6526 32.7995 24.2215 32.9116 23.7848 32.9C23.0344 32.872 21.876 32.53 21.6344 31.7C21.4919 31.208 20.7276 31.418 20.8721 31.914Z" fill="#141414"/>
<path d="M11.7995 29.106L11.7836 29C11.7718 28.968 11.7579 28.936 11.744 28.904L11.6827 28.824C11.6484 28.7854 11.6047 28.7564 11.5559 28.74C11.5252 28.7224 11.4903 28.7134 11.455 28.714C11.3878 28.706 11.3198 28.7149 11.2569 28.74C11.2073 28.7558 11.1629 28.7849 11.1282 28.824C11.0935 28.8575 11.0629 28.8951 11.0372 28.936C11.0372 28.95 11.0213 28.962 11.0134 28.978C10.9924 29.0218 10.9751 29.0673 10.9619 29.114C10.9619 29.156 10.95 29.198 10.9441 29.24C10.9451 29.2487 10.9451 29.2574 10.9441 29.266C10.946 29.3165 10.952 29.3666 10.9619 29.416C10.9653 29.4317 10.97 29.4471 10.9758 29.462C10.9896 29.5002 11.0054 29.5376 11.0233 29.574L11.0352 29.596L11.0728 29.642C11.0898 29.6877 11.1162 29.7292 11.1504 29.7637C11.1845 29.7982 11.2256 29.8249 11.2708 29.842C11.3175 29.8676 11.3703 29.8794 11.4233 29.876L11.5282 29.862C11.5944 29.8446 11.6546 29.8093 11.7025 29.76L11.7638 29.678C11.7986 29.6171 11.8177 29.5484 11.8193 29.478C11.7995 29.356 11.7995 29.224 11.7995 29.106Z" fill="#F76A00"/>
<path d="M10.2154 30.744C10.1944 30.6687 10.1549 30.5999 10.1006 30.544L10.0887 30.53C10.059 30.5037 10.028 30.479 9.99561 30.456C9.92589 30.4146 9.84681 30.3918 9.76592 30.39C9.68567 30.388 9.60655 30.4095 9.53821 30.452C9.47531 30.4895 9.42285 30.5425 9.38574 30.606V30.62C9.36654 30.6542 9.35127 30.6904 9.3402 30.728C9.32735 30.7722 9.32134 30.818 9.32238 30.864C9.32558 30.9036 9.33087 30.943 9.33822 30.982C9.33708 30.9886 9.33708 30.9954 9.33822 31.002C9.35193 31.0463 9.36983 31.0892 9.39168 31.13C9.39822 31.1425 9.40549 31.1545 9.41346 31.166C9.44871 31.2163 9.48849 31.2632 9.53227 31.306C9.56655 31.3447 9.61023 31.3737 9.659 31.39C9.70711 31.4125 9.75947 31.4241 9.81245 31.4241C9.86544 31.4241 9.9178 31.4125 9.96591 31.39C10.0147 31.3737 10.0584 31.3447 10.0926 31.306L10.154 31.226C10.1889 31.1653 10.2074 31.0963 10.2075 31.026C10.2075 31.016 10.2075 31.008 10.2075 30.998C10.2075 30.988 10.2075 30.982 10.2075 30.972C10.2306 30.8982 10.2333 30.8193 10.2154 30.744Z" fill="#F76A00"/>
<path d="M13.3499 31.2101C13.3343 31.1605 13.3063 31.1158 13.2687 31.0801C13.2338 31.0426 13.1903 31.0145 13.142 30.9981C13.0946 30.9728 13.0412 30.961 12.9876 30.9641L12.8826 30.9781C12.8165 30.9956 12.7563 31.0308 12.7084 31.0801L12.647 31.1621C12.6122 31.223 12.5932 31.2918 12.5916 31.3621V31.4621C12.5894 31.5157 12.6017 31.569 12.6272 31.6161C12.6441 31.6633 12.6703 31.7064 12.7044 31.7429C12.7385 31.7793 12.7796 31.8083 12.8252 31.8281C12.8724 31.8523 12.9248 31.864 12.9777 31.8621L13.0846 31.8481C13.1506 31.8293 13.2107 31.7934 13.2588 31.7441L13.3202 31.6641C13.3551 31.6033 13.3736 31.5344 13.3737 31.4641V31.3641C13.3809 31.3115 13.3727 31.258 13.3499 31.2101Z" fill="#F76A00"/>
<path d="M22.2939 29.1901C22.2939 29.1541 22.2939 29.1161 22.2801 29.0801C22.2801 29.0801 22.2801 29.0801 22.2801 29.0701C22.2682 29.0401 22.2523 29.0001 22.2385 28.9721V28.9601L22.2048 28.9181L22.1731 28.8761C22.1473 28.8539 22.1202 28.8332 22.092 28.8141H22.0821C22.0682 28.8141 22.0246 28.7901 22.0345 28.7921L21.9831 28.7721C21.9446 28.7633 21.9056 28.758 21.8662 28.7561H21.8543C21.8157 28.7585 21.7773 28.7638 21.7395 28.7721H21.7276C21.6916 28.7842 21.6566 28.7989 21.6227 28.8161L21.5395 28.8801V28.8901L21.4742 28.9741V28.9841C21.4583 29.0161 21.4445 29.0521 21.4306 29.0841C21.4297 29.0934 21.4297 29.1028 21.4306 29.1121C21.424 29.1478 21.4194 29.1839 21.4167 29.2201V29.2241C21.4167 29.2481 21.4266 29.3101 21.4306 29.3321C21.4346 29.3541 21.4306 29.3421 21.4306 29.3461C21.4429 29.3826 21.4581 29.4181 21.4761 29.4521C21.492 29.4821 21.5494 29.5481 21.5435 29.5441H21.5554C21.5894 29.5826 21.6332 29.611 21.6821 29.6261C21.714 29.643 21.7491 29.6532 21.785 29.6561L21.8048 29.6661C21.8737 29.6841 21.9459 29.6841 22.0147 29.6661C22.0554 29.6557 22.0942 29.6388 22.1296 29.6161L22.2088 29.5541L22.2721 29.4721V29.4621C22.28 29.446 22.2866 29.4292 22.2919 29.4121C22.3003 29.3966 22.3076 29.3806 22.3137 29.3641C22.3137 29.3641 22.3137 29.3641 22.3137 29.3521C22.3137 29.3401 22.3137 29.3521 22.3137 29.3401C22.3137 29.3281 22.3236 29.2661 22.3276 29.2321C22.3205 29.2152 22.3088 29.2006 22.2939 29.1901Z" fill="#F76A00"/>
<path d="M23.7393 27.594V27.794C23.7371 27.8475 23.7487 27.9005 23.7729 27.948C23.7898 27.9975 23.8184 28.0421 23.8561 28.078C23.8907 28.1159 23.9343 28.1442 23.9828 28.16C24.03 28.1842 24.0824 28.1959 24.1353 28.194L24.2402 28.18C24.3067 28.1621 24.3675 28.1269 24.4164 28.078L24.4778 27.996C24.5127 27.9353 24.5312 27.8663 24.5313 27.796V27.596C24.5346 27.5425 24.5229 27.4892 24.4976 27.442C24.4805 27.3931 24.4528 27.3487 24.4164 27.312C24.3801 27.2754 24.3362 27.2473 24.2877 27.23C24.241 27.2047 24.1882 27.1929 24.1353 27.196L24.0303 27.21C23.9642 27.2275 23.904 27.2628 23.8561 27.312L23.7947 27.394C23.7582 27.4542 23.739 27.5235 23.7393 27.594Z" fill="#F76A00"/>
<path d="M26.1293 29.4019V29.5039C26.1265 29.5574 26.1381 29.6106 26.163 29.6579C26.1787 29.7069 26.2067 29.751 26.2442 29.7859C26.3222 29.856 26.4212 29.8975 26.5254 29.9039L26.6303 29.8899C26.6963 29.8711 26.7564 29.8352 26.8045 29.7859L26.8659 29.7059C26.9015 29.6453 26.9206 29.5763 26.9214 29.5059V29.4039C26.9156 29.2992 26.8743 29.1996 26.8045 29.1219C26.7696 29.0844 26.7261 29.0563 26.6778 29.0399C26.6312 29.0142 26.5785 29.0017 26.5254 29.0039L26.4184 29.0199C26.3526 29.0382 26.2926 29.0733 26.2442 29.1219L26.1828 29.2019C26.1479 29.2627 26.1295 29.3317 26.1293 29.4019Z" fill="#F76A00"/>
<path d="M35.0872 30.7101V30.8101C35.0841 30.8636 35.0958 30.9169 35.1209 30.9641C35.1371 31.0135 35.1649 31.0581 35.2021 31.0941C35.2795 31.1647 35.379 31.2057 35.4832 31.2101L35.5882 31.1961C35.654 31.1778 35.714 31.1427 35.7624 31.0941L35.8238 31.0121C35.8586 30.9512 35.8776 30.8824 35.8792 30.8121V30.7121C35.8816 30.6584 35.8693 30.6051 35.8436 30.5581C35.8269 30.5069 35.7976 30.4608 35.7585 30.4241C35.682 30.3532 35.583 30.3121 35.4793 30.3081L35.3723 30.3221C35.3071 30.3417 35.2474 30.3766 35.1981 30.4241L35.1367 30.5061C35.1018 30.5669 35.0834 30.6359 35.0833 30.7061L35.0872 30.7101Z" fill="#F76A00"/>
<path d="M37.7664 27.8101C37.682 27.8357 37.6047 27.8809 37.5407 27.9421L37.5288 27.9541C37.507 27.9801 37.4852 28.0101 37.4654 28.0381C37.4584 28.0466 37.4524 28.056 37.4476 28.0661L37.4258 28.1201C37.4174 28.1376 37.4101 28.1556 37.4041 28.1741V28.1901C37.3942 28.2341 37.3883 28.279 37.3862 28.3241C37.3862 28.3698 37.3908 28.4153 37.4001 28.4601C37.4022 28.4711 37.4055 28.4818 37.41 28.4921C37.4212 28.5431 37.4458 28.59 37.4813 28.6281C37.5086 28.6719 37.5468 28.7078 37.5922 28.7321C37.6364 28.7598 37.6867 28.7763 37.7387 28.7801C37.7906 28.794 37.8452 28.794 37.8971 28.7801L37.9921 28.7401C38.0504 28.705 38.0988 28.6554 38.1327 28.5961L38.1743 28.5001C38.1922 28.4306 38.1922 28.3576 38.1743 28.2881C38.1726 28.2775 38.1726 28.2667 38.1743 28.2561L38.1882 28.3621C38.1862 28.3488 38.1862 28.3353 38.1882 28.3221L38.1743 28.4281C38.1761 28.4142 38.1801 28.4007 38.1862 28.3881L38.1466 28.4841C38.1511 28.47 38.1585 28.457 38.1684 28.4461L38.105 28.5261C38.1133 28.5164 38.1226 28.5077 38.1327 28.5001L38.0515 28.5621L38.0812 28.5461L37.9862 28.5861H37.9981C38.0486 28.5748 38.0951 28.5499 38.1327 28.5141C38.1758 28.486 38.2112 28.4475 38.2357 28.4021C38.2632 28.3575 38.2789 28.3065 38.2812 28.2541C38.2951 28.2017 38.2951 28.1465 38.2812 28.0941L38.2416 27.9981C38.2067 27.9388 38.1577 27.8893 38.0991 27.8541L38.004 27.8141C37.9352 27.796 37.863 27.796 37.7941 27.8141L37.7664 27.8101Z" fill="#F76A00"/>
<path d="M38.7683 29.9059V30.2079C38.7741 30.3126 38.8154 30.4122 38.8851 30.4899C38.92 30.5273 38.9636 30.5555 39.0119 30.5719C39.0585 30.5976 39.1112 30.6101 39.1643 30.6079L39.2713 30.5919C39.3371 30.5736 39.3971 30.5385 39.4455 30.4899L39.5069 30.4099C39.5418 30.3491 39.5602 30.2801 39.5603 30.2099V29.9079C39.5634 29.8544 39.5518 29.8011 39.5267 29.7539C39.5096 29.705 39.4818 29.6606 39.4455 29.6239C39.4092 29.5872 39.3652 29.5592 39.3168 29.5419C39.2701 29.5163 39.2173 29.5046 39.1643 29.5079L39.0594 29.5219C38.9936 29.5401 38.9335 29.5753 38.8851 29.6239L38.8238 29.7059C38.789 29.7668 38.7699 29.8356 38.7683 29.9059Z" fill="#F76A00"/>
<path d="M30.533 13.256C30.4162 13.228 30.3033 13.196 30.1885 13.166C30.1661 13.1795 30.141 13.188 30.115 13.1907C30.089 13.1935 30.0627 13.1905 30.038 13.182C29.7707 13.09 29.5054 12.996 29.246 12.898L28.3292 12.624C28.462 12.9605 28.5293 13.3197 28.5272 13.682C28.5279 13.7179 28.5196 13.7534 28.5031 13.7852C28.4866 13.8171 28.4625 13.8442 28.4329 13.8641C28.4033 13.884 28.3692 13.8961 28.3338 13.8992C28.2984 13.9024 28.2627 13.8964 28.2302 13.882C28.187 13.8751 28.1474 13.854 28.1173 13.822C28.0872 13.8264 28.0564 13.8232 28.0277 13.8127C27.9991 13.8022 27.9734 13.7848 27.953 13.762C27.8357 13.7178 27.7352 13.6373 27.6659 13.532C27.531 13.3424 27.4452 13.1217 27.4164 12.89C27.3706 12.7651 27.3348 12.6367 27.3094 12.506C27.1483 12.5728 26.9821 12.6263 26.8124 12.666C26.7273 12.706 26.6382 12.742 26.5491 12.774C26.3647 12.8374 26.1742 12.881 25.9808 12.904C25.9008 12.9157 25.82 12.9204 25.7392 12.918C25.5901 12.9336 25.4394 12.9282 25.2917 12.902H25.2105C25.178 12.8999 25.1463 12.8905 25.1178 12.8745C25.0893 12.8585 25.0647 12.8363 25.0457 12.8095C25.0268 12.7827 25.014 12.7519 25.0082 12.7195C25.0025 12.6871 25.004 12.6538 25.0125 12.622C25.0125 12.622 25.0125 12.608 25.0125 12.602C25.0135 12.5981 25.0135 12.5939 25.0125 12.59C24.9914 12.5426 24.9884 12.489 25.0041 12.4395C25.0198 12.39 25.0532 12.3481 25.0977 12.322C25.335 12.2124 25.5799 12.1201 25.8303 12.046C26.0132 11.9713 26.2061 11.9241 26.4026 11.906L26.563 11.87C26.761 11.83 26.9788 11.8 27.1847 11.78C27.2288 11.776 27.2732 11.776 27.3174 11.78C27.3994 11.7621 27.4829 11.7521 27.5669 11.75L27.6084 11.662C27.6084 11.628 27.6282 11.596 27.6381 11.562C27.7005 11.1739 27.8 10.7928 27.9352 10.424C27.9667 10.3284 28.0209 10.242 28.093 10.1723C28.1652 10.1026 28.253 10.0517 28.349 10.024C28.3908 10.0084 28.4351 10.0003 28.4797 10C28.7264 10.0135 28.9603 10.1156 29.139 10.288C29.1775 10.3283 29.199 10.382 29.199 10.438C29.199 10.494 29.1775 10.5477 29.139 10.588C28.8915 10.876 28.6579 11.188 28.4361 11.488C28.3193 11.654 28.2064 11.824 28.0955 11.996L28.2698 12.07C29.1252 12.18 29.9885 12.356 30.6934 12.87C30.7333 12.898 30.7624 12.9389 30.776 12.986C30.7895 13.033 30.7867 13.0834 30.7679 13.1286C30.7491 13.1738 30.7155 13.2111 30.6728 13.2343C30.63 13.2575 30.5807 13.2651 30.533 13.256Z" fill="#7BC91F"/>
</svg>
