<svg width="current" height="current" viewBox="0 0 48 48" fill="none" xmlns="http://www.w3.org/2000/svg">
<path d="M21.0481 7.43326L20.8683 7.60177L21.0481 7.43326ZM43.9761 29.7105C44.3314 27.6427 44.2827 25.5259 43.8331 23.477L21.7338 41.6916C23.4873 41.8711 25.3208 41.6916 27.0592 41.51L27.162 42.5047C27.1624 42.5047 27.1627 42.5046 27.1631 42.5046C30.0212 42.2091 33.2653 41.8068 36.0883 40.438C36.2724 40.4219 36.4531 40.3703 36.6199 40.2843L36.62 40.2844L36.6274 40.2805C40.6957 38.1408 43.253 34.0766 43.9761 29.7105ZM12.3565 40.6896C15.3144 42.1344 18.5084 42.712 21.6875 42.692L17.0365 8.06874C17.1886 8.14491 17.3562 8.18493 17.5262 8.18566L17.5417 8.18573L17.5572 8.18531C17.5942 8.18432 17.6313 8.18457 17.6685 8.18602C17.3144 8.39873 16.9773 8.63896 16.6602 8.90464C13.3065 10.2893 10.3906 12.6824 8.2104 15.4784C5.6876 18.7043 3.90093 22.5169 3.79167 26.6696C3.7023 28.6161 4.00505 30.5607 4.68196 32.388C5.36009 34.2186 6.39986 35.8938 7.73927 37.314L7.73925 37.314L7.74356 37.3185C8.24505 37.8436 8.7857 38.3298 9.36086 38.773C9.75668 39.0937 10.1677 39.3951 10.5926 39.6761C10.7312 39.8101 10.8956 39.9147 11.0757 39.9836C11.4906 40.2387 11.9174 40.4739 12.3546 40.6887L12.3565 40.6896ZM18.0666 5.48408C17.9002 5.44834 17.7274 5.4515 17.5618 5.49378L18.0666 5.48408ZM17.5618 5.49378C17.3718 5.54228 17.1982 5.6405 17.0588 5.77833L17.0212 5.81548L16.9878 5.85638C16.7832 6.1065 16.6189 6.38692 16.5005 6.68758L16.4821 6.73446L16.4684 6.78296C16.4224 6.94666 16.4148 7.11878 16.4462 7.28589L16.4462 7.28595C16.4777 7.45308 16.5473 7.61067 16.6497 7.74644L17.5618 5.49378ZM16.6497 7.74648C16.7521 7.88223 16.8844 7.99253 17.0365 8.06873L16.6497 7.74648Z" fill="white" stroke="white" stroke-width="2"/>
<path d="M42.843 23.631C42.7903 23.0354 42.6949 22.4443 42.5576 21.8624C41.5111 17.4494 38.1079 13.8429 34.4408 11.3737C30.2808 8.57372 25.0917 7.36075 20.229 8.84832C20.1706 8.86561 20.1122 8.88724 20.0538 8.9067C19.9436 8.92832 19.8376 8.94778 19.723 8.97156C15.4354 9.92507 11.6581 12.6753 8.98571 16.0872C5.9868 19.9186 4.16626 24.5197 4.95761 29.417C5.68626 33.9575 8.7068 37.7845 12.8063 39.7845C15.6171 41.1575 18.6722 41.711 21.7446 41.6851C23.4981 41.8645 25.3317 41.6851 27.07 41.5035C30.603 41.138 34.4517 40.6386 37.4095 38.5002C42.2614 35.0018 44.0754 29.1575 42.843 23.631Z" fill="#FE5101"/>
<path d="M14.6224 20.8656L14.5683 20.9196C14.2856 21.1747 14.0753 21.4999 13.9586 21.8623C13.792 22.2141 13.7056 22.5985 13.7056 22.9877C13.7056 23.377 13.792 23.7614 13.9586 24.1131C14.0741 24.4733 14.2821 24.7969 14.5618 25.0515L15.1521 25.5077C15.5985 25.7696 16.107 25.9069 16.6245 25.9056L17.4008 25.8018C17.8912 25.6691 18.3385 25.4105 18.6981 25.0515L18.7521 24.9975C19.0321 24.7422 19.2402 24.4179 19.3554 24.0569C19.5219 23.7055 19.6083 23.3215 19.6083 22.9326C19.6083 22.5437 19.5219 22.1597 19.3554 21.8083C19.2398 21.4481 19.0318 21.1245 18.7521 20.8699L18.1618 20.4137C17.7156 20.1512 17.2071 20.0131 16.6894 20.0137L15.9132 20.1175C15.4226 20.2509 14.9754 20.5103 14.6159 20.8699L14.6224 20.8656Z" fill="white"/>
<path d="M31.6385 25.5488H31.6883C32.4574 25.5147 33.1893 25.2081 33.7531 24.6839C34.0326 24.4282 34.2405 24.104 34.3564 23.7434C34.539 23.3978 34.6256 23.0095 34.6072 22.619L34.4991 21.8623C34.366 21.372 34.1074 20.9249 33.7488 20.565L33.1585 20.1088C32.711 19.8476 32.2021 19.7103 31.6839 19.7109H31.6299C30.8629 19.7425 30.132 20.0452 29.5672 20.565C29.2881 20.821 29.0802 21.1451 28.9639 21.5055C28.7807 21.851 28.6933 22.2392 28.711 22.6299L28.8169 23.4061C28.9492 23.8967 29.2079 24.344 29.5672 24.7034L30.1575 25.1596C30.6043 25.4205 31.1125 25.5578 31.6299 25.5574L31.6385 25.5488Z" fill="white"/>
<path d="M13.5002 35.3715C13.2343 36.6688 12.7802 37.9834 11.8332 38.9499C11.7882 38.9959 11.7326 39.03 11.6711 39.049C11.6097 39.0681 11.5445 39.0716 11.4814 39.0591C11.4183 39.0467 11.3593 39.0187 11.3098 38.9777C11.2602 38.9368 11.2216 38.8841 11.1975 38.8245C8.80424 37.3654 6.92733 35.1942 5.82969 32.6151C4.73205 30.0359 4.46866 27.1781 5.07643 24.4418C5.06251 24.4028 5.0545 24.362 5.05265 24.3207C5.06272 24.2122 5.11237 24.1113 5.19214 24.0371C5.2719 23.9629 5.37618 23.9207 5.48508 23.9185C6.9294 23.752 8.44508 24.3964 9.63643 25.1661C10.6661 25.8254 11.5501 26.6884 12.2339 27.7021C12.9177 28.7157 13.3869 29.8585 13.6126 31.0601C13.849 32.4914 13.8109 33.9545 13.5002 35.3715Z" fill="#FF1D00"/>
<path d="M43.1845 27.7693C42.9683 32.5261 40.4602 37.1337 36.1726 39.3888C36.12 39.42 36.061 39.4388 36.0001 39.4438C35.9391 39.4489 35.8778 39.44 35.8208 39.418C35.7638 39.3959 35.7125 39.3612 35.6708 39.3164C35.6291 39.2717 35.5981 39.2181 35.5802 39.1596C35.5651 39.1034 35.5499 39.0472 35.5326 38.991C35.5234 38.9728 35.5154 38.954 35.5088 38.9348C35.5088 38.9218 35.4851 38.9088 35.4742 38.8937C35.1016 38.2956 34.8531 37.6287 34.7434 36.9326C34.5933 36.1836 34.4958 35.425 34.4515 34.6623C34.3067 32.0937 34.8602 29.4407 36.2915 27.2785C37.0166 26.2186 37.9073 25.282 38.9294 24.5045C39.8569 23.778 40.9553 23.1272 42.1726 23.2072C42.2191 23.1721 42.273 23.1482 42.3303 23.1374C42.3875 23.1266 42.4464 23.1292 42.5025 23.1449C42.5586 23.1606 42.6102 23.189 42.6535 23.2279C42.6968 23.2668 42.7306 23.3152 42.7521 23.3693C42.8013 23.4448 42.8227 23.535 42.8126 23.6245C43.1117 24.9848 43.2367 26.3776 43.1845 27.7693Z" fill="#FF1D00"/>
<path d="M23.3208 23.6158C23.2701 23.603 23.2164 23.6102 23.1709 23.636C23.1254 23.6618 23.0916 23.7041 23.0765 23.7542L22.644 24.8699C22.6313 24.9163 22.6359 24.9659 22.6569 25.0092C22.678 25.0526 22.714 25.0869 22.7584 25.1056C22.8028 25.1244 22.8526 25.1264 22.8983 25.1113C22.9441 25.0961 22.9828 25.0649 23.0073 25.0234L23.0721 24.9174C23.09 24.8844 23.0975 24.8467 23.0938 24.8093L23.47 23.8601C23.4764 23.8343 23.4776 23.8074 23.4736 23.7811C23.4696 23.7548 23.4603 23.7295 23.4465 23.7068C23.4326 23.684 23.4143 23.6643 23.3928 23.6487C23.3712 23.6331 23.3467 23.6219 23.3208 23.6158Z" fill="#FF1D00"/>
<path d="M24.6244 23.659C24.5733 23.6488 24.5202 23.6573 24.4749 23.6832C24.4296 23.709 24.3952 23.7503 24.3779 23.7995L23.9887 24.9541C23.9784 24.9962 23.9819 25.0406 23.9988 25.0806C24.0157 25.1205 24.0451 25.1539 24.0825 25.1758C24.12 25.1977 24.1635 25.2069 24.2066 25.202C24.2497 25.1971 24.2901 25.1784 24.3217 25.1487L24.3693 25.099C24.3905 25.0751 24.4061 25.0468 24.4151 25.0162C24.4241 24.9855 24.4262 24.9532 24.4212 24.9217C24.5336 24.583 24.6475 24.2442 24.7628 23.9055C24.7768 23.8544 24.7701 23.8 24.7442 23.7538C24.7183 23.7077 24.6753 23.6736 24.6244 23.659Z" fill="#FF1D00"/>
<path d="M26.0774 23.603C26.0266 23.5926 25.9737 23.6009 25.9284 23.6263C25.8832 23.6517 25.8486 23.6926 25.8309 23.7414C25.6753 24.1378 25.5362 24.5385 25.4137 24.9435C25.4067 24.9688 25.4048 24.9952 25.408 25.0212C25.4113 25.0472 25.4196 25.0723 25.4326 25.0951C25.4455 25.1179 25.4628 25.1379 25.4835 25.154C25.5042 25.1701 25.5278 25.182 25.5531 25.1889C25.5784 25.1959 25.6048 25.1978 25.6308 25.1946C25.6568 25.1913 25.6819 25.183 25.7047 25.17C25.7275 25.1571 25.7475 25.1398 25.7636 25.1191C25.7797 25.0984 25.7916 25.0747 25.7985 25.0495C25.9225 24.643 26.0616 24.2423 26.2158 23.8473C26.2298 23.7966 26.223 23.7424 26.1971 23.6966C26.1712 23.6508 26.1281 23.6171 26.0774 23.603Z" fill="#FF1D00"/>
<path d="M17.5974 20.7812L17.6342 20.7985C17.6604 20.8162 17.6912 20.8259 17.7228 20.8266C17.754 20.8351 17.7868 20.8351 17.818 20.8266C17.8476 20.8195 17.875 20.8055 17.898 20.7855C17.9235 20.7686 17.9443 20.7455 17.9585 20.7185L17.9823 20.6622C17.9931 20.6204 17.9931 20.5765 17.9823 20.5347L17.9585 20.4785C17.9373 20.4442 17.9084 20.4154 17.8742 20.3941L17.8374 20.3768C17.8112 20.3591 17.7804 20.3494 17.7488 20.3487C17.7184 20.3401 17.6862 20.3401 17.6558 20.3487C17.6252 20.3561 17.597 20.3709 17.5736 20.392C17.5481 20.4089 17.5273 20.4319 17.5131 20.459L17.4893 20.5152C17.4785 20.5563 17.4785 20.5995 17.4893 20.6406L17.5131 20.6968C17.5337 20.7322 17.5626 20.7619 17.5974 20.7833V20.7812Z" fill="#141414"/>
<path d="M17.5866 20.7575C17.6038 20.7885 17.627 20.8157 17.6548 20.8377C17.6827 20.8596 17.7146 20.8757 17.7488 20.8851C17.7742 20.892 17.8003 20.8956 17.8266 20.8959C17.8729 20.8944 17.9182 20.8818 17.9585 20.8591C17.9963 20.8377 18.0273 20.806 18.048 20.7678C18.0686 20.7296 18.0781 20.6863 18.0753 20.6429C18.0753 20.6011 18.0641 20.56 18.0428 20.524C18.0216 20.4898 17.9927 20.4609 17.9585 20.4397C17.9243 20.414 17.8873 20.3922 17.8482 20.3748C17.7965 20.3512 17.743 20.3317 17.6882 20.3164C17.5711 20.2937 17.4508 20.2937 17.3337 20.3164C17.2743 20.3335 17.2238 20.3731 17.1931 20.4267C17.1677 20.4728 17.1578 20.5259 17.165 20.578C17.1696 20.6298 17.1926 20.6781 17.2299 20.7143C17.2749 20.7584 17.3354 20.7832 17.3985 20.7834C17.4833 20.7737 17.5689 20.7737 17.6536 20.7834H17.5909C17.6302 20.7886 17.6692 20.7958 17.7077 20.8051C17.7631 20.8194 17.8217 20.8133 17.873 20.7879C17.9242 20.7625 17.9645 20.7194 17.9866 20.6667C18.0106 20.6145 18.014 20.5551 17.9959 20.5005C17.9778 20.4459 17.9398 20.4002 17.8893 20.3726C17.8051 20.329 17.7147 20.2983 17.6212 20.2818C17.5655 20.2725 17.5091 20.2674 17.4526 20.2667C17.3947 20.2685 17.3369 20.2736 17.2796 20.2818C17.2202 20.2989 17.1698 20.3385 17.1391 20.3921C17.1127 20.4379 17.1028 20.4913 17.1109 20.5434C17.1187 20.5997 17.1462 20.6512 17.1887 20.6889C17.2311 20.7266 17.2856 20.7478 17.3423 20.7489C17.5045 20.7489 17.6645 20.7597 17.8245 20.7726C17.8868 20.7719 17.9464 20.7471 17.9909 20.7035C18.0269 20.6664 18.0497 20.6185 18.0558 20.5672C18.0642 20.5109 18.0517 20.4534 18.0206 20.4056C17.9896 20.3578 17.9421 20.323 17.8872 20.3078L17.5023 20.2256L17.4374 20.6905H17.5174H17.4547C17.5304 20.6905 17.6061 20.7164 17.6709 20.7337C17.7268 20.7509 17.7871 20.7467 17.84 20.7219C17.893 20.6972 17.9348 20.6536 17.9575 20.5997C17.9801 20.5458 17.9819 20.4854 17.9625 20.4303C17.9431 20.3751 17.904 20.3292 17.8526 20.3013C17.7399 20.2449 17.6153 20.2167 17.4893 20.2191C17.4271 20.2203 17.3676 20.2451 17.3228 20.2883C17.2792 20.3328 17.2544 20.3925 17.2536 20.4548C17.2533 20.4861 17.2592 20.5172 17.2711 20.5462C17.283 20.5751 17.3006 20.6014 17.3228 20.6235L17.3704 20.6602C17.4064 20.6815 17.4475 20.6927 17.4893 20.6926H17.5499H17.485C17.5536 20.702 17.6214 20.7157 17.6882 20.7337C17.7496 20.749 17.8145 20.7405 17.8699 20.7099C17.897 20.6945 17.9208 20.6738 17.9399 20.6491C17.9589 20.6243 17.9729 20.596 17.981 20.5659C17.989 20.5357 17.991 20.5042 17.9867 20.4733C17.9825 20.4423 17.9722 20.4125 17.9564 20.3856C17.9229 20.3335 17.8725 20.2945 17.8137 20.2753L17.5477 20.1997L17.4223 20.658L17.6688 20.7013C17.7309 20.7153 17.796 20.7068 17.8526 20.6775C17.9052 20.6452 17.9438 20.5942 17.9607 20.5348C17.9693 20.5045 17.9716 20.4728 17.9675 20.4415C17.9634 20.4103 17.953 20.3802 17.9369 20.3532C17.9062 20.2996 17.8557 20.26 17.7964 20.2429L17.6255 20.2083L17.5001 20.6645L17.6385 20.6883C17.683 20.6922 17.7271 20.6994 17.7704 20.7099L17.7142 20.6862H17.7272L17.6796 20.6494L17.6428 20.6018L17.6342 20.5651V20.5002V20.4375L17.658 20.3813L17.6947 20.3337L17.7985 20.271H17.8612C17.7982 20.2717 17.7379 20.2964 17.6926 20.3402C17.6484 20.3853 17.6236 20.4458 17.6234 20.5089C17.625 20.571 17.6497 20.6303 17.6926 20.6753C17.7387 20.7179 17.7985 20.7424 17.8612 20.7445C17.8998 20.7455 17.9379 20.7371 17.9726 20.7202C18.0072 20.7033 18.0372 20.6782 18.0601 20.6472C18.0817 20.6209 18.0974 20.5904 18.1063 20.5576C18.1153 20.5248 18.1172 20.4905 18.112 20.457C18.1102 20.4218 18.0998 20.3877 18.0818 20.3575C18.0583 20.3211 18.0274 20.2901 17.9909 20.2667C17.9627 20.25 17.9321 20.2376 17.9001 20.2299C17.818 20.2148 17.7358 20.204 17.6515 20.191C17.5901 20.176 17.5253 20.1845 17.4699 20.2148C17.4433 20.2298 17.4201 20.2499 17.4015 20.2741C17.383 20.2982 17.3694 20.3259 17.3618 20.3553C17.3532 20.386 17.3509 20.4181 17.355 20.4496C17.3591 20.4812 17.3695 20.5116 17.3855 20.5391C17.4165 20.5921 17.4669 20.6309 17.5261 20.6472L17.6947 20.684L17.8223 20.2256L17.5737 20.1824C17.5115 20.1684 17.4464 20.1768 17.3899 20.2062C17.3378 20.2391 17.2994 20.2898 17.2818 20.3489C17.2656 20.4102 17.2741 20.4754 17.3055 20.5305C17.3378 20.5837 17.3887 20.623 17.4482 20.6407L17.7142 20.7164L17.8396 20.258C17.7331 20.2313 17.6247 20.2132 17.5153 20.204V20.6775C17.5462 20.6742 17.5773 20.6742 17.6082 20.6775H17.5455C17.5886 20.6837 17.6308 20.6953 17.6709 20.7121L17.6147 20.6883H17.6407L17.8223 20.2559C17.7016 20.2259 17.5787 20.2057 17.4547 20.1953C17.3985 20.1972 17.3448 20.2189 17.3031 20.2566C17.2613 20.2943 17.2343 20.3455 17.2268 20.4013C17.2193 20.457 17.2318 20.5136 17.262 20.561C17.2923 20.6084 17.3383 20.6435 17.392 20.6602L17.7769 20.7424L17.8418 20.2775C17.6818 20.2645 17.5218 20.2559 17.3596 20.2537L17.4245 20.7186H17.3618C17.4278 20.7099 17.4947 20.7099 17.5607 20.7186H17.498C17.5618 20.7282 17.6243 20.7457 17.6839 20.7705L17.6255 20.7467L17.6601 20.7618L17.8418 20.3294C17.7003 20.2951 17.5543 20.2841 17.4093 20.297L17.472 20.7618H17.4958H17.4331C17.4834 20.7553 17.5342 20.7553 17.5845 20.7618H17.5218C17.5723 20.7681 17.6217 20.7812 17.6688 20.8007L17.6126 20.777C17.6538 20.7951 17.6929 20.8175 17.7293 20.844V20.4353L17.7855 20.4116H17.8482H17.9109H17.9001L17.9564 20.4353L18.0039 20.4721L18.0407 20.5197C18.0099 20.466 17.9595 20.4265 17.9001 20.4094C17.8381 20.3933 17.7723 20.4019 17.7164 20.4332C17.6633 20.465 17.6245 20.5162 17.6082 20.5759C17.5932 20.6373 17.6017 20.7021 17.632 20.7575H17.5866Z" fill="#141414"/>
<path d="M19.5802 22.4114C19.4116 21.4817 18.8299 20.6125 17.9283 20.2666C17.9051 20.2564 17.8801 20.2512 17.8548 20.2512C17.8295 20.2512 17.8045 20.2564 17.7813 20.2666C17.4756 20.1628 17.1442 20.1628 16.8386 20.2666C16.417 20.4182 16.0655 20.7189 15.8505 21.112C15.418 21.8644 15.3186 22.939 15.8332 23.6785C16.1181 24.0584 16.5028 24.3518 16.9445 24.526C17.3971 24.7472 17.9088 24.8169 18.404 24.7249C18.6276 24.6745 18.8367 24.574 19.0158 24.4309C19.1948 24.2878 19.339 24.1059 19.4375 23.899C19.6423 23.431 19.6923 22.9098 19.5802 22.4114Z" fill="#141414"/>
<path d="M34.5726 22.1284C34.404 21.2008 33.8202 20.3294 32.9208 19.9835C32.8729 19.9641 32.8194 19.9641 32.7716 19.9835C32.4668 19.8786 32.1358 19.8786 31.831 19.9835C31.4087 20.1336 31.0562 20.4337 30.8408 20.8267C30.4083 21.5792 30.311 22.6538 30.8256 23.3932C31.109 23.7737 31.4932 24.0673 31.9348 24.2408C32.3881 24.4619 32.9005 24.5317 33.3964 24.4397C33.62 24.3893 33.8292 24.2887 34.0082 24.1456C34.1872 24.0026 34.3314 23.8207 34.4299 23.6138C34.6333 23.1461 34.6832 22.6261 34.5726 22.1284Z" fill="#141414"/>
<path d="M17.6473 22.8114C17.7062 22.8058 17.7609 22.7784 17.8007 22.7346C17.8405 22.6908 17.8625 22.6338 17.8625 22.5746C17.8625 22.5155 17.8405 22.4585 17.8007 22.4147C17.7609 22.3709 17.7062 22.3435 17.6473 22.3379C17.5884 22.3435 17.5338 22.3709 17.494 22.4147C17.4542 22.4585 17.4321 22.5155 17.4321 22.5746C17.4321 22.6338 17.4542 22.6908 17.494 22.7346C17.5338 22.7784 17.5884 22.8058 17.6473 22.8114Z" fill="#141414"/>
<path d="M23.1615 32.906C24.6924 32.9705 26.224 32.7976 27.7021 32.3936C27.7604 32.3749 27.8093 32.3343 27.8385 32.2805C27.8677 32.2266 27.8749 32.1635 27.8588 32.1044C27.8426 32.0453 27.8042 31.9947 27.7517 31.9632C27.6991 31.9317 27.6364 31.9216 27.5766 31.9352C26.1417 32.3281 24.6544 32.4959 23.168 32.4325C22.8631 32.4196 22.8631 32.8952 23.168 32.906H23.1615Z" fill="#141414"/>
<path d="M24.6073 8.31204C24.0803 8.33956 23.5566 8.41189 23.0419 8.52826C22.9219 8.55656 22.8036 8.5912 22.6873 8.63204C22.6218 8.64303 22.5593 8.66731 22.5035 8.70339C22.4343 8.77258 22.4841 8.86339 22.5035 8.9369L22.7197 9.7542C22.7248 9.77419 22.7239 9.79521 22.7172 9.81469C22.7104 9.83418 22.6982 9.85128 22.6819 9.8639C22.6656 9.87652 22.646 9.88412 22.6254 9.88576C22.6049 9.88739 22.5843 9.883 22.5662 9.87312C22.3225 9.6985 22.0544 9.5608 21.7705 9.46447C21.5176 9.37799 21.1932 9.27853 20.9489 9.44285C20.7542 9.62042 20.5969 9.83507 20.4862 10.0742C20.3219 10.3337 20.1511 10.5888 19.9716 10.8396C19.9634 10.8533 19.9522 10.8649 19.9389 10.8736C19.9256 10.8823 19.9105 10.8879 19.8947 10.89C19.8789 10.8921 19.8628 10.8906 19.8477 10.8856C19.8326 10.8806 19.8188 10.8723 19.8073 10.8612C19.6689 10.6854 19.5681 10.483 19.5111 10.2666C19.4668 10.0393 19.3406 9.83621 19.1565 9.69582C18.897 9.5488 18.5532 9.61798 18.2765 9.66771C17.9721 9.71917 17.6716 9.79141 17.377 9.88393C17.3555 9.89651 17.3302 9.90111 17.3057 9.8969C17.2985 9.89816 17.2912 9.89816 17.2841 9.8969H17.2689C17.2536 9.88946 17.2403 9.87835 17.2303 9.86457C17.2203 9.85078 17.2138 9.83473 17.2114 9.81785C17.2091 9.80096 17.2109 9.78376 17.2168 9.76775C17.2227 9.75175 17.2324 9.73744 17.2451 9.72609C17.6856 9.34966 18.1715 9.03005 18.6916 8.77474C19.1376 8.54548 19.6126 8.37747 20.1035 8.27528C19.3727 7.6742 18.5014 7.17474 17.5305 7.1942C17.5146 7.19413 17.4988 7.19037 17.4845 7.18321C17.4702 7.17604 17.4578 7.16567 17.4481 7.15291C17.4385 7.14014 17.4319 7.12532 17.429 7.1096C17.426 7.09389 17.4268 7.0777 17.4311 7.06231C17.5114 6.85818 17.623 6.6678 17.7619 6.49799C17.7748 6.48465 17.791 6.47501 17.8089 6.47006C17.8267 6.46512 17.8456 6.46506 17.8635 6.46988C18.3452 6.55811 18.8113 6.71617 19.2473 6.93907C19.6289 7.13473 19.9835 7.37891 20.3024 7.66555C20.3868 7.74339 20.4711 7.82339 20.5489 7.90771C20.6268 7.99204 20.6851 8.08934 20.7868 8.10231C20.9278 8.09342 21.0672 8.06728 21.2019 8.02447C21.3143 8.00934 21.4181 7.9942 21.5392 7.98339C22.5714 7.87112 23.6144 7.90972 24.6354 8.09798C24.7695 8.12825 24.7176 8.30339 24.6073 8.31204Z" fill="#ADC46A"/>
</svg>
