<svg width="48" height="48" viewBox="0 0 48 48" fill="none" xmlns="http://www.w3.org/2000/svg">
<path d="M46.9993 28.6134L46.9992 28.6158C46.9669 29.348 46.5155 29.8288 46.0419 30.0678C45.6052 30.2882 45.1131 30.3352 44.7104 30.2839L44.694 30.2818L44.6776 30.2791C44.2699 30.2133 43.8807 30.0629 43.5343 29.8382C43.3268 29.7036 43.1375 29.5441 42.97 29.3639C42.841 30.645 42.5263 31.904 42.0327 33.0992C41.2594 34.9716 40.0678 36.6371 38.5507 37.9632C35.451 40.7001 31.5299 41.9829 27.6884 42.5811L27.6871 42.5813C20.2672 43.727 11.258 42.7687 6.41732 35.5699L6.41682 35.5691C2.02198 29.0208 4.04722 20.2072 9.03057 14.9156L9.03175 14.9144C12.986 10.7299 19.2182 7.72764 25.2298 7.83766C25.4526 6.19724 25.7968 4.57574 26.2599 2.98701C26.2975 2.85756 26.3543 2.73426 26.4287 2.62135C26.5745 2.38287 26.7947 2.19515 27.0595 2.09052C27.3396 1.97985 27.6492 1.9704 27.9353 2.06359L28.8187 2.33527C28.8197 2.33558 28.8207 2.33589 28.8217 2.33621C29.0143 2.39491 29.1903 2.49617 29.3373 2.63146L46.9993 28.6134ZM46.9993 28.6134C47.0141 28.259 46.882 27.9075 46.6055 27.6567C46.3503 27.4251 46.0377 27.3378 45.7663 27.34C45.4936 27.3422 45.1926 27.4346 44.9466 27.6538C44.9156 27.6815 44.8862 27.7105 44.8585 27.7407M46.9993 28.6134L44.8585 27.7407M44.8585 27.7407C44.7819 27.6757 44.7166 27.5967 44.6663 27.5072C44.6409 27.3905 44.5988 27.2773 44.5405 27.1714C44.5287 27.1495 44.5169 27.1284 44.5056 27.1084C44.4979 27.0828 44.4911 27.0581 44.4849 27.0343L44.485 27.0343L44.4817 27.0222C44.2035 25.9956 44.1654 24.8574 44.1277 23.6369L44.1276 23.6355C44.1089 23.055 44.103 22.4543 44.097 21.8408C44.0799 20.0957 44.0618 18.2469 43.7432 16.462C43.6112 15.7036 43.4192 14.9574 43.1689 14.2304C43.1565 14.1072 43.1252 13.986 43.0755 13.8711M44.8585 27.7407L29.674 3.11881C29.7482 3.30337 29.7806 3.50188 29.7692 3.69997C29.7588 3.88096 29.712 4.05827 29.6313 4.22108C29.4836 4.55193 29.3423 4.88505 29.2076 5.22046M43.0755 13.8711C43.0755 13.8711 43.0756 13.8712 43.0756 13.8712L42.1578 14.2683L43.0755 13.8711ZM43.0755 13.8711C43.0457 13.8021 43.0095 13.7362 42.9675 13.6742M42.9675 13.6742C42.545 12.5995 41.9398 11.6072 41.1784 10.7432L41.1784 10.7431L41.1724 10.7364C39.5272 8.90295 37.2155 8.12234 35.0708 7.80515M42.9675 13.6742C42.8933 13.5644 42.801 13.4668 42.6934 13.386L42.0925 14.1853M42.9675 13.6742C42.9886 13.7278 43.0092 13.7816 43.0294 13.8356L42.0925 14.1853M35.0708 7.80515C34.6487 7.74271 34.1889 7.69647 33.7455 7.65187C33.5834 7.63558 33.4236 7.6195 33.2686 7.60294C32.666 7.53855 32.0948 7.46344 31.5649 7.33753C30.5501 7.0964 29.8111 6.70003 29.361 5.96893M35.0708 7.80515L34.9245 8.79439M35.0708 7.80515L34.9245 8.79439M29.361 5.96893C29.3056 5.71852 29.254 5.46918 29.2076 5.22046M29.361 5.96893C29.3451 5.94311 29.3295 5.91688 29.3144 5.89022C29.2744 5.81549 29.2257 5.74545 29.1692 5.6816L28.4203 6.34431M29.361 5.96893C29.3723 6.02023 29.3838 6.07158 29.3955 6.12298L28.5432 6.31643L28.4351 6.36688M29.2076 5.22046C29.1635 5.33033 29.12 5.44045 29.0773 5.55081L28.3841 5.28246M29.2076 5.22046C29.2024 5.19263 29.1973 5.16482 29.1922 5.137C29.1488 4.89025 29.0306 4.66081 28.8508 4.48159L28.1448 5.18979M28.3841 5.28246L28.7292 3.78894C28.522 4.2515 28.3272 4.71845 28.1448 5.18979M28.3841 5.28246L28.2076 5.31201M28.3841 5.28246L28.3797 5.28074M28.1448 5.18979L28.3797 5.28074M28.1448 5.18979C28.1779 5.22278 28.1999 5.26555 28.2076 5.31201M28.3797 5.28074L42.0925 14.1853M28.3797 5.28074L28.2076 5.31201M28.2076 5.31201C28.2705 5.65799 28.3426 6.00209 28.4203 6.34431M28.4203 6.34431C28.4263 6.35107 28.4313 6.35867 28.4351 6.36688M28.4203 6.34431L28.5125 6.32338L28.4351 6.36688M28.4351 6.36688C29.4807 8.22805 31.6934 8.4506 33.6682 8.64923C34.1035 8.69301 34.5273 8.73563 34.9245 8.79439M34.9245 8.79439C36.9587 9.09524 39.0041 9.81729 40.4281 11.4043C41.1463 12.2194 41.7106 13.1622 42.0925 14.1853M42.1739 14.3733V14.4147C42.4313 15.1364 42.6269 15.8794 42.7583 16.6354L42.1739 14.3733ZM42.1739 14.3733L42.2637 14.3827L42.2899 14.3733H42.1739Z" fill="white" stroke="white" stroke-width="2"/>
<path d="M45.5269 28.5717C45.5177 28.7898 45.157 28.8293 45.0036 28.8256C44.7471 28.8138 44.5 28.7248 44.2934 28.5698C44.0234 28.3689 43.8129 28.0963 43.685 27.782C43.6892 27.7334 43.6782 27.6847 43.6535 27.6428C43.6295 27.5996 43.6036 27.5563 43.5796 27.5112C43.5518 27.4341 43.5278 27.3551 43.5074 27.278C43.1949 26.1179 43.1561 24.8562 43.1191 23.6603C43.0451 21.3155 43.1672 18.9482 42.7492 16.6278C42.6161 15.872 42.42 15.1291 42.163 14.4072V14.3677C42.1669 14.3318 42.1614 14.2956 42.1471 14.2625C42.1328 14.2295 42.1102 14.2009 42.0816 14.1796C41.6986 13.157 41.1344 12.2144 40.4172 11.3986C38.9913 9.81162 36.9552 9.09146 34.9117 8.78872C32.7128 8.46342 29.6984 8.63453 28.4242 6.36121L28.4075 6.34053C28.3299 5.99643 28.2577 5.65233 28.1949 5.30634C28.1394 5.00173 27.6826 5.13147 27.7381 5.43421C28.4057 9.09146 29.9221 12.6133 32.4372 15.3511C33.5284 16.5413 34.8192 17.5135 36.0083 18.5947C37.2435 19.722 38.3957 20.9399 39.4555 22.2387C40.8372 23.9452 42.0669 25.7732 43.1302 27.7011C43.2158 27.9564 43.3353 28.1987 43.4852 28.4213C43.6379 28.6515 43.8356 28.8473 44.0659 28.9965C44.2963 29.1456 44.5544 29.2449 44.8242 29.2881C45.3105 29.352 45.9615 29.1565 45.9874 28.5679C46.0133 28.2633 45.5417 28.2633 45.5269 28.5717ZM28.9679 8.27915L28.9401 8.1983L28.9679 8.27915ZM39.4537 21.4829L39.6127 21.6577L39.6774 21.748L39.4537 21.4829Z" fill="#70A233"/>
<path d="M42.0148 27.2422C41.534 18.8748 36.3318 10.1801 27.6195 9.05566C27.5801 9.05566 27.5412 9.05566 27.503 9.05566C21.1783 7.98763 14.0638 11.0413 9.7604 15.6086C5.00758 20.6554 3.17858 28.959 7.25084 35.0193C11.754 41.7246 20.2295 42.7437 27.5363 41.6005C31.2831 41.0176 34.9929 39.7822 37.8927 37.2193C39.2939 35.9954 40.3958 34.4568 41.1113 32.7252C41.8267 30.9936 42.1361 29.1164 42.0148 27.2422Z" fill="#FF6B02"/>
<path d="M14.7075 27.9868C15.3677 28.5754 16.2499 28.7521 17.1117 28.7596C18.0429 28.7635 18.9631 28.5547 19.8043 28.1485C20.1927 27.9605 19.8543 27.3795 19.4677 27.5637C18.7551 27.9012 17.9792 28.0782 17.1931 28.0827C16.5014 28.0827 15.7136 27.9887 15.181 27.5073C14.861 27.2215 14.3876 27.6954 14.7112 27.9868H14.7075Z" fill="#141414"/>
<path d="M25.5835 28.5189C26.3215 28.9809 27.1666 29.236 28.0329 29.2581C28.8993 29.2803 29.7559 29.0687 30.5158 28.6449C30.8856 28.4324 30.5564 27.8476 30.181 28.0601C29.5244 28.4234 28.7848 28.6031 28.0375 28.5809C27.2903 28.5588 26.5623 28.3356 25.9275 27.9341C25.5577 27.701 25.2285 28.2876 25.5909 28.5189H25.5835Z" fill="#141414"/>
<path d="M18.8629 31.7267C19.4695 32.9189 21.0692 33.2667 22.2712 33.2667C23.4104 33.2667 24.8992 33.0975 25.5797 32.0389C25.8146 31.6722 25.2376 31.3319 25.0027 31.6967C24.7512 32.0897 24.3148 32.2796 23.8839 32.3943C23.3564 32.5263 22.8145 32.5894 22.2712 32.5823C21.304 32.5823 19.9318 32.351 19.4399 31.3789C19.242 30.9897 18.6669 31.3338 18.8629 31.7211V31.7267Z" fill="#141414"/>
<path d="M27.5234 3.63468C27.3639 3.93455 27.2546 4.25924 27.1997 4.59553L26.9501 5.65604C26.9255 5.74256 26.9358 5.83545 26.9787 5.91426C27.0215 5.99307 27.0934 6.05136 27.1785 6.07629C27.2636 6.10123 27.3549 6.09077 27.4324 6.04722C27.5099 6.00367 27.5673 5.93059 27.5918 5.84407L27.8341 4.82117C27.8692 4.6651 27.9043 4.50903 27.945 4.35485C27.9654 4.28095 27.9895 4.20816 28.0171 4.13673C27.995 4.19502 28.0338 4.101 28.0356 4.09912C28.0541 4.05963 28.0763 4.02203 28.0985 3.98442C28.1425 3.90697 28.1548 3.81502 28.1326 3.72846C28.1105 3.6419 28.0557 3.56768 27.9802 3.52186C27.9034 3.47846 27.8131 3.46675 27.7281 3.48915C27.6431 3.51155 27.5698 3.56635 27.5234 3.6422V3.63468Z" fill="#B3C975"/>
<path d="M28.5294 3.29235L27.6251 3.0197C27.559 2.99584 27.4868 2.99675 27.4214 3.02226C27.3559 3.04777 27.3016 3.09621 27.2682 3.15885C27.2444 3.19257 27.2263 3.23005 27.2145 3.26979C26.6091 5.35456 26.2144 7.49669 26.0365 9.66292C26.0306 9.71261 26.037 9.763 26.055 9.80959C26.0254 9.94685 25.9921 10.0841 25.9644 10.2214C25.8775 10.6482 26.5192 10.8306 26.6079 10.4094C27.0696 8.13253 27.7811 5.91552 28.7291 3.80004C28.7554 3.75453 28.7711 3.70351 28.775 3.65089C28.7789 3.59827 28.7709 3.54544 28.7516 3.49645C28.7323 3.44745 28.7023 3.40359 28.6638 3.36821C28.6253 3.33284 28.5793 3.30689 28.5294 3.29235Z" fill="#B3C975"/>
<path d="M24.8141 9.70628C24.2061 9.72003 23.6001 9.78291 23.0018 9.89431C22.9783 9.90085 22.9564 9.91203 22.9372 9.92719C22.918 9.94236 22.902 9.96121 22.8899 9.98269C22.8779 10.0042 22.8702 10.0278 22.8672 10.0524C22.8641 10.0769 22.8659 10.1018 22.8723 10.1256C22.8788 10.1494 22.8898 10.1717 22.9047 10.1912C22.9196 10.2107 22.9381 10.2271 22.9593 10.2393C22.9804 10.2515 23.0037 10.2594 23.0278 10.2625C23.0519 10.2655 23.0764 10.2638 23.0998 10.2572C23.6655 10.1486 24.2387 10.0857 24.8141 10.0692C24.8632 10.0692 24.9102 10.0494 24.9449 10.0141C24.9796 9.97885 24.9991 9.93102 24.9991 9.88115C24.9991 9.83128 24.9796 9.78345 24.9449 9.74819C24.9102 9.71293 24.8632 9.69312 24.8141 9.69312V9.70628Z" fill="#FFAD56"/>
<path d="M18.0141 11.7089C19.2686 11.1199 20.6057 10.733 21.9772 10.5619C22.2102 10.5318 22.2121 10.1557 21.9772 10.1858C20.5414 10.3618 19.1414 10.764 17.8273 11.3779C17.6109 11.4795 17.7995 11.8048 18.0122 11.7032L18.0141 11.7089Z" fill="#FFAD56"/>
</svg>
