<svg width="current" height="current" viewBox="0 0 48 48" fill="none" xmlns="http://www.w3.org/2000/svg">
<g clip-path="url(#clip0_5374_7903)">
<path d="M38.2874 38.4294C35.5215 39.5839 32.2924 39.1344 29.6695 37.6953C27.0467 36.2563 25.1366 33.8232 23.9652 31.1724L23.9396 31.1179C23.1186 33.0638 21.8305 34.7873 20.1786 36.1504C18.5425 37.4731 16.6186 38.4311 14.5404 38.958C12.4622 39.485 10.2795 39.5683 8.14347 39.2022C7.22666 39.0481 7.05056 37.8745 7.60537 37.3272C10.5051 34.4577 11.1973 30.1578 14.181 27.3254C14.8771 26.676 15.6495 26.1063 16.4832 25.6273C14.0149 25.2992 11.598 24.3787 9.93573 22.5157C7.87277 20.2029 7.13825 16.9585 7.01705 14.0139C6.89203 11.0335 8.11771 7.81801 11.3453 6.95023C11.6411 6.87952 11.9566 6.92339 12.2245 7.07249C12.4924 7.2216 12.6915 7.46414 12.7793 7.74841C13.9439 12.2364 16.5106 16.3014 20.13 19.3902C18.319 13.3555 19.3728 6.6763 23.259 1.66267C23.7417 1.0411 24.8113 0.875317 25.2631 1.69233C27.3192 5.38106 28.2544 9.53259 27.9596 13.6621C27.8274 15.5613 27.4337 17.4297 26.7889 19.2184C31.1872 15.7046 35.5881 12.1958 39.9914 8.6919C40.7683 8.07404 41.8795 8.50366 41.9752 9.49817C42.2483 12.2765 42.4915 15.1804 41.6673 17.8772C40.9368 20.2675 39.3748 22.142 37.3029 23.5814C35.5398 24.8049 32.9765 26.1401 30.4137 26.6438C30.9836 27.1628 31.5225 27.7193 32.0421 28.2542C33.2542 29.4947 34.5181 30.456 36.2539 30.879C38.0652 31.3204 39.9625 31.2409 41.8015 31.1787C42.3697 31.1606 43.0446 31.7169 42.9825 32.2992C42.8368 33.6393 42.3264 34.9111 41.5023 35.9871C40.6783 37.063 39.5696 37.9053 38.2874 38.4294Z" fill="white"/>
<path d="M28.601 19.957C28.5239 20.0517 28.4432 20.1455 28.3643 20.2397C28.2519 20.3011 28.1503 20.3788 28.063 20.4703C26.8267 21.7662 25.4811 22.9614 24.0395 24.0442C24.0768 21.7832 24.0314 19.5213 23.9031 17.2586C23.8951 17.062 23.8353 16.8695 23.7292 16.6992C23.6463 15.5781 21.7666 15.1916 21.4493 16.4546C20.7033 19.3825 20.8037 22.4684 21.7398 25.3822C21.808 25.6235 21.9613 25.8361 22.1732 25.9832C22.3851 26.1303 22.6422 26.2026 22.8999 26.1876C23.0258 26.2642 23.158 26.3309 23.2949 26.3868C23.4567 26.4518 23.6245 26.5011 23.7958 26.5339C24.0025 26.6243 24.2308 26.6549 24.4525 26.6219C24.8883 26.8834 25.4621 26.9089 25.8304 26.4856C26.0864 26.1879 26.3401 25.9061 26.5944 25.6152C27.877 24.8305 28.9404 23.7595 29.6966 22.4904C29.7514 22.3975 29.7941 22.2982 29.8237 22.1948C30.0331 21.914 30.2323 21.626 30.4211 21.3311C31.0939 20.2934 29.4155 18.9554 28.601 19.957Z" fill="#DBDB86"/>
<path d="M18.8117 19.911C18.7732 19.8433 18.7255 19.7806 18.67 19.7247L18.5996 19.6014C18.5008 19.4266 18.398 19.2525 18.3145 19.0708L18.3494 19.1479C18.2525 18.9316 18.0874 18.7488 17.8779 18.626C17.7457 18.5502 17.5999 18.5 17.4487 18.4781C17.2976 18.4562 17.1441 18.4631 16.9971 18.4984C16.85 18.5337 16.7123 18.5966 16.5919 18.6837C16.4714 18.7708 16.3705 18.8803 16.2949 19.0058C16.218 19.1333 16.1689 19.2749 16.1505 19.4223C16.1321 19.5696 16.1448 19.7197 16.1877 19.8636L16.2177 19.9375C16.2199 19.9491 16.2233 19.9604 16.2278 19.9714C16.2442 20.0106 16.2587 20.0493 16.2755 20.0867C16.3399 20.2468 16.4066 20.4057 16.475 20.5651C16.5601 20.7991 16.7117 21.0067 16.9124 21.164C17.0186 21.3048 17.1481 21.428 17.2956 21.5286C17.4731 21.6325 17.6754 21.6889 17.8811 21.6918C18.0868 21.6947 18.2883 21.6439 18.464 21.5449C18.6398 21.4474 18.7849 21.3066 18.8848 21.1368C18.9848 20.9669 19.0362 20.7738 19.0338 20.5767C19.0086 20.3434 18.9329 20.1166 18.8117 19.911Z" fill="#F2CC8F"/>
<path d="M22.6192 12.803L22.6231 12.6814C22.6197 12.4303 22.5277 12.1859 22.3622 11.9882C22.1967 11.7904 21.9675 11.6512 21.7121 11.5932C21.4568 11.5352 21.1905 11.562 20.957 11.669C20.7234 11.7761 20.5364 11.9572 20.4266 12.1826C20.3629 12.2776 20.32 12.3844 20.3003 12.4967C20.2742 12.5941 20.2723 12.6943 20.265 12.7931L20.2608 12.8085C20.2557 12.8915 20.2564 12.9749 20.2629 13.0581C20.2635 13.2707 20.264 13.4833 20.2663 13.6964C20.2746 13.991 20.4029 14.2733 20.6235 14.4825C20.8442 14.6917 21.1396 14.811 21.446 14.8147C21.6287 14.8118 21.8072 14.7682 21.9676 14.6872C22.128 14.6062 22.2657 14.4901 22.3701 14.348C22.506 14.2621 22.618 14.1458 22.6966 14.0087C22.8117 13.8262 22.8655 13.613 22.851 13.3975C22.8366 13.1821 22.7545 12.9744 22.6157 12.8021L22.6192 12.803Z" fill="#F2CC8F"/>
<path d="M26.8794 13.7943C26.8709 13.504 26.7475 13.2253 26.5345 13.015C26.1034 12.6285 25.3103 12.5204 24.8957 12.988C24.797 13.0989 24.7077 13.2105 24.626 13.3223C24.531 13.433 24.4507 13.5548 24.387 13.685C24.252 13.9142 24.1377 14.1544 24.0452 14.403C24.0064 14.5438 23.9976 14.6912 24.0191 14.8367C24.0407 14.9821 24.0923 15.1226 24.1708 15.2498C24.3034 15.4588 24.5012 15.6229 24.7352 15.7179C24.9938 15.8255 25.2819 15.8404 25.5466 15.7599C25.8112 15.6793 26.0344 15.5086 26.1749 15.2795L26.2043 15.2269C26.3387 15.0889 26.434 14.9199 26.4817 14.7353L26.5704 14.5759C26.5736 14.564 26.5772 14.5503 26.5809 14.5366C26.7701 14.3333 26.876 14.07 26.8794 13.7943Z" fill="#F2CC8F"/>
<path d="M34.1356 18.5443C34.0975 18.3031 33.9796 18.0785 33.7996 17.9039C33.6195 17.7292 33.3869 17.6139 33.1364 17.5751C32.9469 17.5274 32.7489 17.5274 32.5616 17.5749L31.5303 17.8481C31.2368 17.9265 30.9894 18.1127 30.8407 18.367C30.692 18.6214 30.6538 18.9238 30.7343 19.2098C30.8113 19.4476 30.9654 19.657 31.1738 19.8068C31.3821 19.9567 31.6336 20.039 31.891 20.0418C32.0421 20.0956 32.203 20.1164 32.362 20.1026C32.5209 20.0887 32.6738 20.0406 32.8092 19.9618C32.8685 19.9264 32.9274 19.8927 32.9889 19.8634C32.9889 19.8634 33.0952 19.8241 33.1181 19.8175C33.1862 19.7991 33.2553 19.7846 33.3221 19.7714C33.8774 19.6656 34.2154 19.062 34.1356 18.5443Z" fill="#F2CC8F"/>
</g>
<defs>
<clipPath id="clip0_5374_7903">
<rect width="48" height="48" fill="white"/>
</clipPath>
</defs>
</svg>
