<svg width="current" height="current" viewBox="0 0 48 48" fill="none" xmlns="http://www.w3.org/2000/svg">
<path d="M22.1244 12.5969C22.2402 11.0122 22.5579 9.38386 23.2739 7.87545C23.6421 7.09399 24.166 6.41088 24.6143 5.82635C24.6607 5.76574 24.7064 5.70619 24.751 5.6477C25.2515 4.99129 25.6452 4.43646 25.8721 3.81895C25.9547 3.58234 26.108 3.37746 26.3104 3.23139C26.5192 3.08066 26.7699 3 27.0265 3C27.2831 3 27.5337 3.08066 27.7425 3.23139C27.9445 3.37713 28.0976 3.58145 28.1803 3.81747C28.431 4.49852 28.7414 5.42854 28.6336 6.40166L28.6322 6.41464L28.6304 6.42758C28.5437 7.05915 28.3259 7.66389 27.9929 8.20417C29.0248 7.85484 30.1062 7.66475 31.1994 7.64209L31.2143 7.64179L31.2291 7.64192C31.8967 7.64789 32.5626 7.70878 33.2201 7.82399C33.4868 7.867 33.6791 7.88729 33.8328 7.87571C33.9539 7.86658 33.9947 7.84152 34.0083 7.83063C34.2146 7.6398 34.4803 7.52626 34.7602 7.50855C35.0534 7.48999 35.3443 7.57776 35.5787 7.75687L34.9777 8.5435L35.5787 7.75687C35.8133 7.93615 35.9758 8.19512 36.0339 8.48649M22.1244 12.5969L35.0533 8.68225M22.1244 12.5969C21.8348 12.0954 21.5374 11.5981 21.2321 11.1052M22.1244 12.5969L21.2321 11.1052M36.0339 8.48649L35.0533 8.68225M36.0339 8.48649C36.0339 8.48648 36.0339 8.48647 36.0339 8.48646L35.0533 8.68225M36.0339 8.48649C36.0909 8.77178 36.0437 9.0674 35.9019 9.32025M35.0533 8.68225C35.0637 8.73425 35.0547 8.78822 35.028 8.83413M35.9019 9.32025C35.9033 9.3177 35.9047 9.31514 35.9061 9.31257L35.028 8.83413M35.9019 9.32025C35.418 10.2057 34.737 10.9689 33.9114 11.5519L33.9075 11.5547C32.2042 12.7452 30.187 12.7139 28.5747 12.6572L28.5629 12.6568L28.5512 12.6561C28.0449 12.6264 27.5374 12.626 27.0311 12.655M35.9019 9.32025C35.8989 9.32572 35.8958 9.33117 35.8926 9.3366L35.028 8.83413M35.028 8.83413L27.0311 12.655M27.0311 12.655C26.3805 12.7204 25.7403 12.8621 25.124 13.0769C24.7683 13.524 24.462 14.0064 24.2096 14.5156C24.2946 14.5287 24.3791 14.5454 24.4629 14.5656C25.046 14.6256 25.6217 14.7438 26.1813 14.9184L26.1818 14.9185C26.6861 15.0762 27.1735 15.2826 27.6372 15.5348C28.6182 15.9015 29.5139 16.464 30.2688 17.1883C32.4989 19.2861 34.4299 22.2481 35.0098 25.3906C36.0684 31.1216 33.6009 36.753 28.9069 40.1089C27.6719 41.0296 26.2304 41.6374 24.7068 41.8805C23.1828 42.1236 21.6222 41.9945 20.1595 41.5042C17.7896 40.7554 15.4749 39.4062 13.8175 37.4332C9.99277 32.8865 10.1593 25.6301 13.2613 20.8643L13.2627 20.8621C14.2538 19.3482 15.5646 18.0681 17.1032 17.1101C18.1247 16.1629 19.3353 15.445 20.6527 15.001C20.5938 14.9027 20.5366 14.8062 20.4811 14.7124C20.3948 14.5665 20.3124 14.4275 20.2341 14.2997C19.892 13.7416 19.5747 13.3005 19.1741 12.9673C18.9871 12.8192 18.8523 12.6132 18.7923 12.3795L18.7923 12.3795C18.7721 12.3006 18.7608 12.2203 18.7584 12.14C18.7504 12.0798 18.7471 12.0188 18.7486 11.9575C18.7538 11.7554 18.8115 11.5585 18.9157 11.386L18.9157 11.386C19.0139 11.2235 19.1499 11.0881 19.3114 10.9908C19.4861 10.8226 19.6975 10.6949 19.9304 10.6186L19.9505 10.6121L19.9708 10.6063C20.2105 10.5388 20.4661 10.5532 20.6969 10.6474L27.0311 12.655ZM19.8317 11.8449L19.7677 11.731L19.8317 11.8449ZM19.8317 11.8449C19.807 11.8588 19.7863 11.8788 19.7717 11.903C19.7571 11.9271 19.7491 11.9546 19.7483 11.9827C19.7483 11.9828 19.7483 11.9829 19.7483 11.9829C19.7481 11.9929 19.7487 12.0029 19.7503 12.0127C19.7531 12.0305 19.759 12.0479 19.7676 12.064M19.8317 11.8449L19.7676 12.064M19.7676 12.064L19.5477 12.182C19.5484 12.183 19.5491 12.1841 19.5498 12.1851C19.5874 12.2392 19.6306 12.2887 19.6786 12.3327L19.7991 12.1865M19.7676 12.064C19.7575 12.0848 19.7552 12.1085 19.7609 12.1309C19.7667 12.1533 19.7802 12.173 19.7991 12.1865M19.7991 12.1865L19.6882 12.3414C19.755 12.4008 19.8307 12.45 19.9128 12.4869C19.9222 12.4912 19.9318 12.4953 19.9414 12.4992C20.0236 12.5327 20.1098 12.5534 20.197 12.5611C20.1328 12.4927 20.0665 12.426 19.9976 12.3614C19.9976 12.3613 19.9976 12.3613 19.9976 12.3613C19.9697 12.3352 19.9415 12.3093 19.9128 12.2838C19.8756 12.2508 19.8377 12.2184 19.7991 12.1865ZM19.9371 12.8233C19.929 12.8098 19.9209 12.7963 19.9128 12.7827C19.8307 12.6462 19.7481 12.51 19.6648 12.3741L19.9371 12.8233ZM19.9371 12.8233C19.929 12.8235 19.9209 12.8237 19.9128 12.8237H19.9373M19.9371 12.8233L19.9373 12.8237M19.9373 12.8237C20.3399 13.495 20.7275 14.1744 21.1002 14.8618L19.9373 12.8237ZM21.2321 11.1052C21.1074 10.8984 20.9194 10.7381 20.6969 10.6474L21.2321 11.1052ZM34.0682 8.85363C33.9863 8.86743 33.9026 8.87496 33.8181 8.87765C33.94 8.71163 34.0509 8.53729 34.1499 8.35569L34.1565 8.34358L34.1634 8.33166C34.1588 8.33962 34.1543 8.34765 34.15 8.35574C34.0686 8.50778 34.0397 8.68287 34.0682 8.85363ZM34.3461 9.8182C34.6804 9.74624 35.0348 9.598 35.3515 9.31268L35.3686 9.2972L35.3851 9.28095C35.3741 9.29182 35.3628 9.30232 35.3513 9.31246C35.2216 9.42632 35.058 9.4937 34.8865 9.50455C34.7961 9.51028 34.7059 9.50014 34.62 9.47516C34.5332 9.59306 34.4418 9.7075 34.3461 9.8182ZM19.5486 12.1854C19.5845 12.2436 19.6204 12.3018 19.6561 12.36L19.5468 12.1825C19.5474 12.1835 19.548 12.1845 19.5486 12.1854ZM20.7482 11.9747C20.7483 11.9859 20.7483 11.9971 20.748 12.0083C20.7464 12.07 20.7381 12.131 20.7233 12.1902C20.686 12.1283 20.6485 12.0666 20.611 12.0049C20.5948 11.9783 20.5787 11.9518 20.5625 11.9252L20.7295 11.8824C20.7374 11.9129 20.7436 11.9438 20.7482 11.9747Z" fill="white" stroke="white" stroke-width="2"/>
<path d="M34.0217 25.5599C33.4894 22.6761 31.6944 19.8957 29.5751 17.9011C28.8999 17.2551 28.0966 16.7558 27.2164 16.4351C26.7917 16.1981 26.3434 16.0056 25.8786 15.8608C25.3602 15.6985 24.8257 15.5922 24.2843 15.5436C24.0403 15.4773 23.7864 15.4545 23.5344 15.4763C23.411 15.4883 23.2924 15.5003 23.1715 15.5171C21.1256 15.6434 19.1921 16.4904 17.7186 17.9059C16.2665 18.7912 15.0317 19.9874 14.1043 21.4073C11.2012 25.8651 11.0924 32.63 14.5881 36.7874C16.1001 38.585 18.2411 39.8466 20.4741 40.5508C21.7861 40.9914 23.1865 41.1077 24.554 40.8895C25.9215 40.6713 27.2148 40.1253 28.322 39.2987C32.708 36.1458 34.9893 30.8925 34.0217 25.5599Z" fill="#FF9D03"/>
<path d="M22.5861 24.4905C22.4691 24.3736 22.3282 24.283 22.173 24.225C22.0177 24.1669 21.8516 24.1428 21.6861 24.1541H21.6571C21.4762 24.1104 21.2866 24.1187 21.1103 24.1781C20.8062 24.2955 20.5277 24.4701 20.2902 24.6924C19.8525 25.0918 19.5202 25.5919 19.3225 26.1487C19.1198 26.6652 19.0371 27.2205 19.0806 27.7732C19.1022 28.1077 19.2519 28.4213 19.4988 28.6496C19.7458 28.878 20.0714 29.0038 20.4088 29.0012C20.7346 28.9912 21.0534 28.9044 21.3389 28.7482C21.6245 28.5919 21.8687 28.3706 22.0514 28.1025C22.4648 27.5725 22.7645 26.964 22.932 26.3145C23.0699 25.7089 23.0602 24.9664 22.5861 24.4905Z" fill="white"/>
<path d="M28.259 26.8193C28.1426 26.2803 27.9162 25.7708 27.5937 25.3221C27.2407 24.8052 26.7329 24.4117 26.1422 24.1975C25.951 24.1422 25.7479 24.1422 25.5567 24.1975C25.2481 24.2031 24.9523 24.3213 24.7256 24.5296C24.499 24.7379 24.3574 25.0217 24.3278 25.3269C24.2238 26.0335 24.485 26.7304 24.8334 27.3336C25.1479 27.8791 25.5471 28.4679 26.1277 28.761C26.7083 29.0542 27.4631 29.0735 27.9542 28.6193C28.4453 28.1651 28.3945 27.4393 28.259 26.8193Z" fill="white"/>
<path d="M22.6221 24.4089C22.0584 23.8802 21.1706 23.9835 20.5899 24.4089C20.2731 24.6107 20.0476 24.9269 19.961 25.2908C19.944 25.4047 19.944 25.5205 19.961 25.6345C19.9449 25.9491 20.0367 26.2598 20.2212 26.5159C20.4057 26.7721 20.6721 26.9586 20.977 27.0451C21.3071 27.1269 21.6546 27.1055 21.972 26.9837C22.2894 26.862 22.5612 26.6459 22.7503 26.365C22.9632 26.0758 23.0669 25.7214 23.0435 25.3638C23.02 25.0063 22.8709 24.6683 22.6221 24.4089Z" fill="#141414"/>
<path d="M27.3445 25.2765C27.2427 24.9155 27.0089 24.6052 26.6889 24.4065C26.3886 24.1919 26.0305 24.0714 25.6607 24.0605C25.4797 24.0576 25.2998 24.0902 25.1314 24.1564C24.9629 24.2226 24.8093 24.3211 24.6792 24.4463C24.5492 24.5715 24.4452 24.721 24.3733 24.8861C24.3013 25.0512 24.2629 25.2288 24.26 25.4086C24.259 25.7604 24.3665 26.104 24.5681 26.3931C24.7696 26.6823 25.0556 26.9032 25.3874 27.026C25.701 27.1437 26.0454 27.153 26.365 27.0523C26.6846 26.9515 26.9607 26.7467 27.1486 26.4708C27.3147 26.2251 27.3875 25.9287 27.3542 25.6345C27.3702 25.5154 27.367 25.3945 27.3445 25.2765Z" fill="#141414"/>
<path d="M34.6845 8.5794C34.2394 8.97832 33.6031 8.90863 33.054 8.81971C32.4484 8.71367 31.8351 8.65661 31.2202 8.64909C29.9591 8.67523 28.7155 8.94712 27.5599 9.44934C25.9367 10.1488 24.5479 11.2933 23.5561 12.7489C23.599 12.0632 23.6903 11.3815 23.8295 10.7086C23.8559 10.7057 23.881 10.6958 23.9021 10.6798C25.0149 9.89392 26.1495 9.08406 26.9527 7.969C27.3217 7.47705 27.5582 6.8997 27.6398 6.2916C27.7196 5.55623 27.4898 4.83288 27.2382 4.15279C27.2237 4.10838 27.1953 4.06968 27.1573 4.04223C27.1193 4.01478 27.0735 4 27.0265 4C26.9795 4 26.9337 4.01478 26.8957 4.04223C26.8576 4.06968 26.8293 4.10838 26.8148 4.15279C26.2463 5.71003 24.8794 6.81308 24.1779 8.30303C23.4328 9.87229 23.1497 11.617 23.0844 13.3497C23.082 13.3953 23.0957 13.4403 23.1231 13.477C22.827 14.0182 22.584 14.5863 22.3973 15.1736C21.7683 13.9641 21.0958 12.7809 20.3797 11.6242C20.3656 11.6016 20.3447 11.5841 20.3199 11.5741C20.2951 11.5642 20.2677 11.5624 20.2418 11.5689C20.1058 11.6135 19.9895 11.7035 19.9128 11.8237C19.8844 11.8237 19.8565 11.831 19.8317 11.8449C19.807 11.8588 19.7864 11.8788 19.7717 11.903C19.7571 11.9272 19.7491 11.9547 19.7483 11.9829C19.7476 12.0112 19.7543 12.0391 19.7676 12.064C19.7577 12.0845 19.7555 12.1078 19.7612 12.1298C19.767 12.1518 19.7804 12.171 19.7991 12.1841C20.8756 13.0733 21.3619 14.4311 22.1893 15.5173C21.9511 15.6024 21.7212 15.7085 21.5022 15.8345C21.478 15.852 21.4612 15.8778 21.455 15.9069C21.4488 15.936 21.4537 15.9664 21.4688 15.9921C21.4838 16.0178 21.508 16.0371 21.5365 16.0461C21.565 16.0552 21.5959 16.0534 21.6232 16.0412C21.8917 15.9042 22.2957 15.9186 22.4191 16.2406C22.4274 16.2725 22.4482 16.2998 22.4768 16.3165C22.5054 16.3331 22.5394 16.3378 22.5715 16.3296C22.6036 16.3213 22.631 16.3007 22.6478 16.2723C22.6646 16.2439 22.6694 16.21 22.661 16.1782C22.6175 15.9883 22.9029 15.9378 23.0336 15.9114C23.2344 15.8756 23.4301 15.8159 23.6166 15.7336C23.6367 15.7211 23.6527 15.7032 23.6628 15.682C23.6729 15.6607 23.6767 15.6371 23.6736 15.6138C23.6705 15.5905 23.6608 15.5685 23.6456 15.5506C23.6303 15.5326 23.6102 15.5194 23.5876 15.5125C23.3979 15.4841 23.2059 15.4737 23.0142 15.4813H22.9828C22.9054 15.4813 22.8304 15.4812 22.753 15.5029C23.1095 14.3118 23.708 13.206 24.5117 12.2538H24.5287C25.3104 11.9521 26.1301 11.758 26.9648 11.6771C27.5167 11.6434 28.0701 11.6434 28.622 11.6771C30.2622 11.7323 31.9508 11.7275 33.3467 10.7542C34.0495 10.257 34.6287 9.60682 35.0401 8.85336C35.0767 8.80651 35.093 8.74715 35.0856 8.68834C35.0781 8.62952 35.0474 8.57607 35.0002 8.53975C34.9531 8.50342 34.8933 8.48718 34.8341 8.49462C34.7749 8.50206 34.7211 8.53255 34.6845 8.5794ZM22.482 15.9162H22.5014H22.482Z" fill="#ABC569"/>
<path d="M25.1189 31.2676L25.0608 31.2555C25.0451 31.2374 25.0252 31.2234 25.0028 31.2147C23.3996 30.623 21.7381 30.2009 20.0458 29.9554C20.0199 29.9492 19.9927 29.9498 19.9671 29.9571C19.9414 29.9643 19.9181 29.9781 19.8994 29.9969C19.8806 30.0158 19.8671 30.0391 19.8601 30.0647C19.8532 30.0903 19.8529 30.1172 19.8595 30.1429C19.9877 30.8158 20.4063 31.3997 20.8272 31.9308C21.186 32.4496 21.7021 32.8411 22.3005 33.0483C23.5609 33.4064 24.7584 32.5917 25.2277 31.4526C25.2328 31.4334 25.2341 31.4133 25.2314 31.3936C25.2287 31.3738 25.2221 31.3548 25.2119 31.3377C25.2018 31.3205 25.1884 31.3054 25.1724 31.2934C25.1565 31.2814 25.1383 31.2726 25.1189 31.2676Z" fill="#E35002"/>
<path d="M25.5302 31.2842C25.5181 31.2711 25.5043 31.2598 25.4891 31.2505C24.6826 30.8275 23.8139 30.5339 22.915 30.3806C21.9328 30.1811 20.9458 30.0057 19.9612 29.8182C19.9224 29.8109 19.8824 29.8131 19.8447 29.8246C19.8069 29.8361 19.7726 29.8566 19.7447 29.8844C19.7168 29.9121 19.6961 29.9462 19.6845 29.9837C19.6729 30.0212 19.6707 30.0609 19.6781 30.0994C19.7742 30.8037 20.0461 31.4729 20.4692 32.046C20.8732 32.5915 21.4369 33.1394 22.1119 33.3292C23.469 33.7113 24.981 32.7357 25.6028 31.5822C25.6312 31.5327 25.6395 31.4742 25.626 31.4188C25.6125 31.3635 25.5783 31.3153 25.5302 31.2842ZM23.9843 32.5867C23.4569 32.875 22.7409 33.0673 22.153 32.8654C21.5775 32.6151 21.0929 32.1958 20.7644 31.6639C20.4877 31.2533 20.2923 30.7941 20.1886 30.3109C21.0232 30.4695 21.8627 30.6209 22.6973 30.7915C23.3591 30.9079 24.0074 31.0899 24.6327 31.3346C24.6596 31.3788 24.6992 31.4139 24.7464 31.4356L25.0633 31.5653C24.7932 31.9865 24.4225 32.3348 23.9843 32.5795V32.5867Z" fill="#141414"/>
</svg>
