<svg width="20" height="20" viewBox="0 0 20 20" fill="none" xmlns="http://www.w3.org/2000/svg">
<path d="M10 4.44444C10.4602 4.44444 10.8333 4.81754 10.8333 5.27778V9.16667H14.7222C15.1825 9.16667 15.5556 9.53976 15.5556 10C15.5556 10.4602 15.1825 10.8333 14.7222 10.8333H10.8333V14.7222C10.8333 15.1825 10.4602 15.5556 10 15.5556C9.53976 15.5556 9.16667 15.1825 9.16667 14.7222V10.8333H5.27778C4.81754 10.8333 4.44444 10.4602 4.44444 10C4.44444 9.53976 4.81754 9.16667 5.27778 9.16667H9.16667V5.27778C9.16667 4.81754 9.53976 4.44444 10 4.44444ZM0 3.61111C0 1.61675 1.61675 0 3.61111 0H16.3889C18.3833 0 20 1.61675 20 3.61111V16.3889C20 18.3833 18.3833 20 16.3889 20H3.61111C1.61675 20 0 18.3833 0 16.3889V3.61111ZM3.61111 1.66667C2.53722 1.66667 1.66667 2.53722 1.66667 3.61111V16.3889C1.66667 17.4628 2.53722 18.3333 3.61111 18.3333H16.3889C17.4628 18.3333 18.3333 17.4628 18.3333 16.3889V3.61111C18.3333 2.53722 17.4628 1.66667 16.3889 1.66667H3.61111Z" fill="#FFA317"/>
</svg>
