<svg width="24" height="24" viewBox="0 0 24 24" fill="none" xmlns="http://www.w3.org/2000/svg">
<rect x="2" y="2" width="20" height="20" rx="6" fill="#DCDCDC"/>
<path d="M12 6.44446C12.4603 6.44446 12.8333 6.81755 12.8333 7.27779V11.1667H16.7222C17.1825 11.1667 17.5556 11.5398 17.5556 12C17.5556 12.4603 17.1825 12.8333 16.7222 12.8333H12.8333V16.7222C12.8333 17.1825 12.4603 17.5556 12 17.5556C11.5398 17.5556 11.1667 17.1825 11.1667 16.7222V12.8333H7.27779C6.81755 12.8333 6.44446 12.4603 6.44446 12C6.44446 11.5398 6.81755 11.1667 7.27779 11.1667H11.1667V7.27779C11.1667 6.81755 11.5398 6.44446 12 6.44446Z" fill="white"/>
</svg>
