<svg width="32" height="32" viewBox="0 0 32 32" fill="none" xmlns="http://www.w3.org/2000/svg">
<rect width="32" height="32" rx="16" fill="#FEEED5"/>
<path d="M18.7471 22.7517C18.4858 24.0346 17.3512 25 15.9912 25C14.6311 25 13.4966 24.0346 13.2353 22.7517H18.7471ZM15.9885 7C17.2143 7 18.3654 7.31447 19.358 7.86654C18.6722 8.48429 18.241 9.37929 18.241 10.375C18.241 12.239 19.752 13.75 21.616 13.75C22.0105 13.75 22.3892 13.6823 22.7412 13.5579L22.7401 17.584L23.813 20.4945L23.8418 20.5896L23.8593 20.6872L23.8651 20.7864C23.8651 21.1409 23.645 21.4506 23.2779 21.582L23.1502 21.619L23.0214 21.6301H8.96145C8.86189 21.6301 8.76312 21.6125 8.6697 21.5781C8.34694 21.4591 8.13458 21.1598 8.12695 20.7725L8.13212 20.6403L8.16975 20.4946L9.24006 17.5874L9.24128 13.5169L9.24612 13.2643C9.38406 9.75754 12.3586 7 15.9885 7Z" fill="#FFBA50"/>
<path d="M23.866 10.375C23.866 11.6176 22.8586 12.625 21.616 12.625C20.3733 12.625 19.366 11.6176 19.366 10.375C19.366 9.13236 20.3733 8.125 21.616 8.125C22.8586 8.125 23.866 9.13236 23.866 10.375Z" fill="#DC2626"/>
</svg>
