<svg width="14" height="14" viewBox="0 0 14 14" fill="none" xmlns="http://www.w3.org/2000/svg">
<path d="M6 8.5C7.38071 8.5 8.5 7.38071 8.5 6C8.5 4.61929 7.38071 3.5 6 3.5C4.61929 3.5 3.5 4.61929 3.5 6C3.5 7.38071 4.61929 8.5 6 8.5ZM0 3C0 1.34315 1.34315 0 3 0H11C12.6569 0 14 1.34315 14 3V11C14 12.6569 12.6569 14 11 14H3C1.34315 14 0 12.6569 0 11V3ZM6 9.5C6.7862 9.5 7.51185 9.24078 8.09615 8.80314L10.6464 11.3535C10.8417 11.5488 11.1583 11.5488 11.3535 11.3535C11.5488 11.1583 11.5488 10.8417 11.3536 10.6464L8.80324 8.09602C9.24082 7.51174 9.5 6.78614 9.5 6C9.5 4.067 7.933 2.5 6 2.5C4.067 2.5 2.5 4.067 2.5 6C2.5 7.933 4.067 9.5 6 9.5Z" fill="currentColor"/>
</svg>
