<svg width="20" height="14" viewBox="0 0 20 14" fill="none" xmlns="http://www.w3.org/2000/svg">
<path d="M8.75 2H15C16.5977 2 17.9037 3.24892 17.9949 4.82373L18 5V6L19.0006 6.01784C19.1827 6.01784 19.3535 6.06654 19.5006 6.15164C19.7663 6.30533 19.9548 6.57777 19.9933 6.89635L20.0006 7.01784V9.01784C20.0006 9.38794 19.7995 9.71114 19.5006 9.88404C19.3903 9.94786 19.2667 9.99121 19.1349 10.0089L19.0006 10.0178L18 10V11C18 12.5977 16.7511 13.9037 15.1763 13.9949L15 14H5.99757C5.58336 14 5.24757 13.6642 5.24757 13.25C5.24757 12.8703 5.52973 12.5565 5.8958 12.5068L5.99757 12.5H15C15.7797 12.5 16.4204 11.9051 16.4931 11.1445L16.5 11V5C16.5 4.2203 15.9051 3.57955 15.1445 3.50687L15 3.5H8.75C8.33579 3.5 8 3.16421 8 2.75C8 2.3703 8.28215 2.05651 8.64823 2.00685L8.75 2H15H8.75ZM4.251 6.998L4.25178 13.25C4.25178 13.6642 3.91599 14 3.50178 14C3.12208 14 2.80829 13.7178 2.75862 13.3518L2.75178 13.25L2.75178 6.99797L1.75 6.99884C0.783502 6.99884 0 6.21534 0 5.24884V2.75C0 2.33579 0.335786 2 0.75 2H1.501L1.50108 0.75C1.50108 0.370304 1.78324 0.0565088 2.14931 0.00684643L2.25108 0C2.63078 0 2.94457 0.282154 2.99423 0.64823L3.00108 0.75L3.001 2H3.996L3.9969 0.75C3.9969 0.370304 4.27906 0.0565088 4.64513 0.00684643L4.7469 0C5.1266 0 5.44039 0.282154 5.49005 0.64823L5.4969 0.75L5.496 2H6.25355C6.66777 2 7.00355 2.33579 7.00355 2.75V5.24884C7.00355 6.21534 6.22005 6.99884 5.25355 6.99884L4.251 6.998L4.25178 13.25L4.251 6.998ZM5.50355 3.5H1.5V5.24884C1.5 5.38692 1.61193 5.49884 1.75 5.49884H5.25355C5.39162 5.49884 5.50355 5.38692 5.50355 5.24884V3.5Z" fill="#FFA317"/>
</svg>
