<svg width="29" height="37" viewBox="0 0 29 37" fill="none" xmlns="http://www.w3.org/2000/svg">
<path fill-rule="evenodd" clip-rule="evenodd" d="M14.5 0C6.50906 0 0 6.4032 0 14.2642C0 16.4672 0.928274 18.8122 2.20332 21.2403C3.47837 23.6686 5.14446 26.1601 6.80254 28.417C10.1187 32.9305 13.4238 36.5297 13.4238 36.5297C13.5598 36.6778 13.7258 36.7962 13.9112 36.8772C14.0966 36.9583 14.2972 37.0001 14.5 37.0001C14.7029 37.0001 14.9034 36.9583 15.0888 36.8772C15.2742 36.7962 15.4402 36.6778 15.5762 36.5297C15.5762 36.5297 18.8813 32.9305 22.1975 28.417C23.8555 26.1601 25.5216 23.6686 26.7967 21.2403C28.0717 18.8122 29 16.4672 29 14.2642C29 6.4032 22.4909 0 14.5 0ZM26.0999 14.2641C26.0999 11.5747 25.1624 9.10765 23.5902 7.16074C25.1624 9.10767 26.1 11.5748 26.1 14.2642C26.1 15.6065 25.397 17.6991 24.2252 19.9309C23.0534 22.1624 21.457 24.5618 19.8525 26.7454C17.4001 30.0835 15.632 32.043 14.7226 33.0509L14.7215 33.0522C14.6408 33.1415 14.567 33.2233 14.5 33.298L14.4999 33.2979C14.5671 33.2231 14.6411 33.141 14.722 33.0514L14.7226 33.0508C15.632 32.0429 17.4001 30.0834 19.8525 26.7453C21.4569 24.5617 23.0533 22.1623 24.2251 19.9308C25.397 17.699 26.0999 15.6064 26.0999 14.2641ZM8.84251 11.584C8.74926 11.9879 8.7 12.4075 8.7 12.8378C8.7 13.2681 8.74926 13.6878 8.84251 14.0916V14.0919C8.74922 13.6879 8.69993 13.2681 8.69993 12.8377C8.69993 12.4073 8.74922 11.9876 8.84251 11.5836V11.584ZM14.5 7.1321C13.257 7.1321 12.1011 7.52351 11.1535 8.18702H11.1533C12.1009 7.52346 13.2569 7.13203 14.4999 7.13203C15.743 7.13203 16.8989 7.52346 17.8465 8.18702H17.8465C16.8989 7.52351 15.743 7.1321 14.5 7.1321Z" fill="#FFCB7C"/>
<path d="M15.9331 7.40039C15.5141 7.40039 15.1744 7.73923 15.1744 8.15721C15.1744 8.57519 15.5141 8.91403 15.9331 8.91403H16.8441L17.1867 10.4277H13.1512V9.67085C13.1512 9.25287 12.8115 8.91403 12.3924 8.91403H10.875C10.456 8.91403 10.1163 9.25287 10.1163 9.67085C10.1163 10.0888 10.456 10.4277 10.875 10.4277H11.6337V11.1097L11.2643 12.9524C9.50244 13.0136 8.09302 14.4576 8.09302 16.2299C8.09302 18.0412 9.56502 19.5095 11.3808 19.5095C13.1966 19.5095 14.6686 18.0412 14.6686 16.2299C14.6686 15.7502 14.5653 15.2945 14.3797 14.8837L17.6307 12.3893L17.8054 13.1613C16.5634 13.6298 15.6802 14.827 15.6802 16.2299C15.6802 18.0412 17.1522 19.5095 18.968 19.5095C20.7838 19.5095 22.2558 18.0412 22.2558 16.2299C22.2558 14.5364 20.969 13.1427 19.3175 12.9687L18.1907 7.99053C18.1126 7.64546 17.8052 7.40039 17.4506 7.40039H15.9331ZM12.7524 13.2485L13.0145 11.9413H15.7257L13.454 13.6844C13.2406 13.5113 13.0051 13.3644 12.7524 13.2485ZM9.61047 16.2299C9.61047 15.4026 10.1808 14.7082 10.9507 14.5165L10.6369 16.0815C10.5748 16.3908 10.7117 16.7061 10.9802 16.8727C11.2488 17.0392 11.5928 17.0221 11.8435 16.8298L13.1116 15.8568C13.1375 15.9771 13.1512 16.1019 13.1512 16.2299C13.1512 17.2052 12.3586 17.9958 11.3808 17.9958C10.4031 17.9958 9.61047 17.2052 9.61047 16.2299ZM18.1459 14.6656L18.4806 16.1443C18.5729 16.5521 18.9791 16.808 19.3878 16.7159C19.7966 16.6238 20.0531 16.2187 19.9608 15.811L19.6906 14.6174C20.3082 14.8931 20.7384 15.5114 20.7384 16.2299C20.7384 17.2052 19.9458 17.9958 18.968 17.9958C17.9903 17.9958 17.1977 17.2052 17.1977 16.2299C17.1977 15.5507 17.5822 14.961 18.1459 14.6656Z" fill="white"/>
</svg>
