<svg width="43" height="55" viewBox="0 0 43 55" fill="none" xmlns="http://www.w3.org/2000/svg">
<path fill-rule="evenodd" clip-rule="evenodd" d="M21.5 0C9.65136 0 0 9.51827 0 21.2036C0 24.4782 1.37641 27.9641 3.26699 31.5734C5.15758 35.1831 7.628 38.8866 10.0865 42.2415C15.0036 48.9507 19.9043 54.301 19.9043 54.301C20.1059 54.5211 20.3521 54.6971 20.6269 54.8175C20.9018 54.9379 21.1992 55.0002 21.5 55.0002C21.8008 55.0002 22.0982 54.9379 22.3731 54.8175C22.6479 54.6971 22.8941 54.5211 23.0957 54.301C23.0957 54.301 27.9964 48.9507 32.9135 42.2415C35.372 38.8866 37.8424 35.1831 39.733 31.5734C41.6236 27.9641 43 24.4782 43 21.2036C43 9.51827 33.3486 0 21.5 0ZM38.6999 21.2034C38.6999 17.415 37.4515 13.9233 35.3369 11.1052C37.4516 13.9233 38.7 17.4151 38.7 21.2036C38.7 23.1988 37.6577 26.3095 35.9201 29.627C34.1826 32.9441 31.8155 36.5108 29.4365 39.7567C25.8002 44.7187 23.1785 47.6315 21.8301 49.1297C21.7099 49.2632 21.5998 49.3855 21.5 49.497L21.4999 49.4969C21.5994 49.3857 21.7091 49.2638 21.8289 49.1307L21.83 49.1295L21.83 49.1295C23.1785 47.6313 25.8001 44.7185 29.4364 39.7565C31.8154 36.5107 34.1825 32.944 35.92 29.6269C37.6576 26.3094 38.6999 23.1987 38.6999 21.2034ZM13.1113 17.2195C12.973 17.8198 12.9 18.4436 12.9 19.0832C12.9 19.7228 12.973 20.3467 13.1113 20.947V20.9474C12.973 20.3469 12.8999 19.7229 12.8999 19.0831C12.8999 18.4433 12.973 17.8194 13.1113 17.2189V17.2195ZM21.5 10.6018C19.6569 10.6018 17.943 11.1836 16.5379 12.1699H16.5377C17.9427 11.1835 19.6568 10.6017 21.4999 10.6017C23.343 10.6017 25.057 11.1835 26.4621 12.1699H26.4621C25.057 11.1836 23.3431 10.6018 21.5 10.6018Z" fill="#FFA317"/>
<path d="M23.625 11C23.0037 11 22.5 11.5037 22.5 12.125C22.5 12.7463 23.0037 13.25 23.625 13.25H24.9757L25.4837 15.5H19.5V14.375C19.5 13.7537 18.9963 13.25 18.375 13.25H16.125C15.5037 13.25 15 13.7537 15 14.375C15 14.9963 15.5037 15.5 16.125 15.5H17.25V16.5139L16.7022 19.253C14.0898 19.344 12 21.4905 12 24.125C12 26.8174 14.1826 29 16.875 29C19.5674 29 21.75 26.8174 21.75 24.125C21.75 23.4118 21.5969 22.7344 21.3217 22.1239L26.142 18.4159L26.4012 19.5635C24.5595 20.2599 23.25 22.0395 23.25 24.125C23.25 26.8174 25.4326 29 28.125 29C30.8174 29 33 26.8174 33 24.125C33 21.6076 31.0919 19.5359 28.6432 19.2772L26.9724 11.8772C26.8566 11.3643 26.4009 11 25.875 11H23.625ZM18.9087 19.6932L19.2973 17.75H23.3174L19.949 20.3411C19.6327 20.0838 19.2835 19.8654 18.9087 19.6932ZM14.25 24.125C14.25 22.8952 15.0957 21.863 16.2372 21.578L15.7719 23.9044C15.6799 24.3642 15.8828 24.8328 16.2811 25.0804C16.6793 25.328 17.1893 25.3026 17.561 25.0167L19.4413 23.5703C19.4797 23.7491 19.5 23.9347 19.5 24.125C19.5 25.5747 18.3247 26.75 16.875 26.75C15.4253 26.75 14.25 25.5747 14.25 24.125ZM26.906 21.7996L27.4023 23.9978C27.5392 24.6038 28.1414 24.9842 28.7475 24.8474C29.3535 24.7105 29.7339 24.1083 29.5971 23.5022L29.1965 21.7279C30.1121 22.1378 30.75 23.0569 30.75 24.125C30.75 25.5747 29.5747 26.75 28.125 26.75C26.6753 26.75 25.5 25.5747 25.5 24.125C25.5 23.1153 26.0701 22.2387 26.906 21.7996Z" fill="white"/>
</svg>
