<svg width="20" height="16" viewBox="0 0 20 16" fill="none" xmlns="http://www.w3.org/2000/svg">
<path d="M10.75 0C10.3358 0 10 0.335786 10 0.75C10 1.16421 10.3358 1.5 10.75 1.5H12.1772L13.1317 5H6.5V2.75C6.5 2.33579 6.16421 2 5.75 2H5.74898H2.75C2.33579 2 2 2.33579 2 2.75C2 3.16421 2.33579 3.5 2.75 3.5H5V5.68793L4.69794 7.50031C2.37472 7.5282 0.5 9.42017 0.5 11.75C0.5 14.0972 2.40279 16 4.75 16C7.09721 16 9 14.0972 9 11.75C9 11.6879 8.99867 11.6261 8.99603 11.5646L13.6522 6.90847L13.9255 7.91047C12.4913 8.59321 11.5 10.0558 11.5 11.75C11.5 14.0972 13.4028 16 15.75 16C18.0972 16 20 14.0972 20 11.75C20 9.40279 18.0972 7.5 15.75 7.5C15.6229 7.5 15.4971 7.50558 15.3728 7.51651L13.4736 0.552662C13.3846 0.226366 13.0882 0 12.75 0H10.75ZM14.3302 9.3944L15.0264 11.9473C15.1354 12.347 15.5477 12.5826 15.9473 12.4736C16.347 12.3646 16.5826 11.9523 16.4736 11.5527L15.7774 9.00013C17.2836 9.01485 18.5 10.2404 18.5 11.75C18.5 13.2688 17.2688 14.5 15.75 14.5C14.2312 14.5 13 13.2688 13 11.75C13 10.7507 13.533 9.87594 14.3302 9.3944ZM8.56485 9.87449C8.07929 8.88871 7.22288 8.11844 6.17772 7.74576L6.38535 6.5H11.9393L8.56485 9.87449ZM5.92486 9.26288C6.63556 9.59919 7.17903 10.2312 7.39648 11H5.63535L5.92486 9.26288ZM4.4452 9.0167L4.0102 11.6267C3.97396 11.8442 4.03523 12.0666 4.17773 12.2348C4.32024 12.403 4.52954 12.5 4.75 12.5H7.39648C7.07002 13.6543 6.00878 14.5 4.75 14.5C3.23122 14.5 2 13.2688 2 11.75C2 10.3342 3.06985 9.16835 4.4452 9.0167Z" fill="#FFA317"/>
</svg>
