<svg width="12" height="12" viewBox="0 0 12 12" fill="none" xmlns="http://www.w3.org/2000/svg">
<path d="M0.157278 0.290326L0.21967 0.21967C0.490033 -0.0506929 0.915456 -0.0714903 1.20967 0.157278L1.28033 0.21967L6 4.93875L10.7197 0.21967C11.0126 -0.0732231 11.4874 -0.0732231 11.7803 0.21967C12.0732 0.512563 12.0732 0.987437 11.7803 1.28033L7.06125 6L11.7803 10.7197C12.0507 10.99 12.0715 11.4155 11.8427 11.7097L11.7803 11.7803C11.51 12.0507 11.0845 12.0715 10.7903 11.8427L10.7197 11.7803L6 7.06125L1.28033 11.7803C0.987437 12.0732 0.512563 12.0732 0.21967 11.7803C-0.0732231 11.4874 -0.0732231 11.0126 0.21967 10.7197L4.93875 6L0.21967 1.28033C-0.0506929 1.00997 -0.0714903 0.584544 0.157278 0.290326L0.21967 0.21967L0.157278 0.290326Z" fill="#717171"/>
</svg>
