<svg width="28" height="24" viewBox="0 0 28 24" fill="none" xmlns="http://www.w3.org/2000/svg">
<path d="M4.79688 6.03125C2.76562 6.03125 1.35156 7.125 1.35938 8.78125C1.35156 10.2422 2.5 11.2812 4.21875 11.4688V12.875C2.89062 12.9219 1.625 12.9297 0.546875 12.9219L0.703125 13.9375C3.10156 13.9453 6.42969 13.8984 9.375 13.375L9.28125 12.4531C8.07031 12.6328 6.75 12.75 5.45312 12.8203V11.4609C7.125 11.25 8.24219 10.2188 8.25 8.78125C8.24219 7.125 6.82812 6.03125 4.79688 6.03125ZM2.51562 8.78125C2.5 7.70312 3.44531 6.98438 4.79688 6.98438C6.15625 6.98438 7.08594 7.70312 7.09375 8.78125C7.08594 9.83594 6.15625 10.5547 4.79688 10.5625C3.44531 10.5547 2.5 9.83594 2.51562 8.78125ZM2.57812 18.9531H11.9062V17.9219H3.8125V15.0938H2.57812V18.9531ZM10.1719 16.0156H11.4062V11.1406H13.4844V10.0938H11.4062V5.39062H10.1719V16.0156ZM26.5094 16.5156H23.0562V13.875H25.2281V12.8594H16.6031V10.6094H24.9V6.40625H15.3531V7.42188H23.6969V9.59375H15.3844V13.875H17.3687V16.5156H13.7906V17.5469H26.5094V16.5156ZM18.5719 16.5156V13.875H21.8531V16.5156H18.5719Z" fill="#FFA317"/>
</svg>
