<svg width="24" height="24" viewBox="0 0 24 24" fill="none" xmlns="http://www.w3.org/2000/svg">
<path d="M6.15728 6.29033L6.21967 6.21967C6.49003 5.94931 6.91546 5.92851 7.20967 6.15728L7.28033 6.21967L12 10.9388L16.7197 6.21967C17.0126 5.92678 17.4874 5.92678 17.7803 6.21967C18.0732 6.51256 18.0732 6.98744 17.7803 7.28033L13.0612 12L17.7803 16.7197C18.0507 16.99 18.0715 17.4155 17.8427 17.7097L17.7803 17.7803C17.51 18.0507 17.0845 18.0715 16.7903 17.8427L16.7197 17.7803L12 13.0612L7.28033 17.7803C6.98744 18.0732 6.51256 18.0732 6.21967 17.7803C5.92678 17.4874 5.92678 17.0126 6.21967 16.7197L10.9388 12L6.21967 7.28033C5.94931 7.00997 5.92851 6.58454 6.15728 6.29033L6.21967 6.21967L6.15728 6.29033Z" fill="#717171"/>
</svg>
