<svg width="14" height="14" viewBox="0 0 14 14" fill="none" xmlns="http://www.w3.org/2000/svg">
<circle cx="7" cy="7" r="6" fill="#717171"/>
<path d="M8.85355 5.14645C9.04882 5.34171 9.04882 5.65829 8.85355 5.85355L7.70711 7L8.85355 8.14645C9.04882 8.34171 9.04882 8.65829 8.85355 8.85355C8.65829 9.04882 8.34171 9.04882 8.14645 8.85355L7 7.70711L5.85355 8.85355C5.65829 9.04882 5.34171 9.04882 5.14645 8.85355C4.95118 8.65829 4.95118 8.34171 5.14645 8.14645L6.29289 7L5.14645 5.85355C4.95118 5.65829 4.95118 5.34171 5.14645 5.14645C5.34171 4.95118 5.65829 4.95118 5.85355 5.14645L7 6.29289L8.14645 5.14645C8.34171 4.95118 8.65829 4.95118 8.85355 5.14645Z" fill="white"/>
</svg>
