<svg width="29" height="37" viewBox="0 0 29 37" fill="none" xmlns="http://www.w3.org/2000/svg">
<path fill-rule="evenodd" clip-rule="evenodd" d="M14.5 0C6.50906 0 0 6.4032 0 14.2642C0 16.4672 0.928274 18.8122 2.20332 21.2403C3.47837 23.6686 5.14446 26.1601 6.80254 28.417C10.1187 32.9305 13.4238 36.5297 13.4238 36.5297C13.5598 36.6778 13.7258 36.7962 13.9112 36.8772C14.0966 36.9583 14.2972 37.0001 14.5 37.0001C14.7029 37.0001 14.9034 36.9583 15.0888 36.8772C15.2742 36.7962 15.4402 36.6778 15.5762 36.5297C15.5762 36.5297 18.8813 32.9305 22.1975 28.417C23.8555 26.1601 25.5216 23.6686 26.7967 21.2403C28.0717 18.8122 29 16.4672 29 14.2642C29 6.4032 22.4909 0 14.5 0ZM26.0999 14.2641C26.0999 11.5747 25.1624 9.10765 23.5902 7.16074C25.1624 9.10767 26.1 11.5748 26.1 14.2642C26.1 15.6065 25.397 17.6991 24.2252 19.9309C23.0534 22.1624 21.457 24.5618 19.8525 26.7454C17.4001 30.0835 15.632 32.043 14.7226 33.0509L14.7215 33.0522C14.6408 33.1415 14.567 33.2233 14.5 33.298L14.4999 33.2979C14.5671 33.2231 14.6411 33.141 14.722 33.0514L14.7226 33.0508C15.632 32.0429 17.4001 30.0834 19.8525 26.7453C21.4569 24.5617 23.0533 22.1623 24.2251 19.9308C25.397 17.699 26.0999 15.6064 26.0999 14.2641ZM8.84251 11.584C8.74926 11.9879 8.7 12.4075 8.7 12.8378C8.7 13.2681 8.74926 13.6878 8.84251 14.0916V14.0919C8.74922 13.6879 8.69993 13.2681 8.69993 12.8377C8.69993 12.4073 8.74922 11.9876 8.84251 11.5836V11.584ZM14.5 7.1321C13.257 7.1321 12.1011 7.52351 11.1535 8.18702H11.1533C12.1009 7.52346 13.2569 7.13203 14.4999 7.13203C15.743 7.13203 16.8989 7.52346 17.8465 8.18702H17.8465C16.8989 7.52351 15.743 7.1321 14.5 7.1321Z" fill="#FFCB7C"/>
<path d="M14.4896 9.61042L18.0829 9.61529C19.3176 9.61529 20.3268 10.575 20.3973 11.7851L20.4013 11.9206V12.689H21.4831C21.6239 12.689 21.7559 12.7264 21.8695 12.7918C22.0748 12.9099 22.2204 13.1193 22.2503 13.3641L22.2559 13.4574V14.9943C22.2559 15.2787 22.1005 15.527 21.8695 15.6599C21.7843 15.7089 21.6887 15.7422 21.5869 15.7558L21.4831 15.7627H20.4013V16.5311C20.4013 17.7588 19.4362 18.7624 18.2192 18.8325L18.0829 18.8364L12.1672 18.8315C11.8738 18.8315 11.6313 18.6147 11.5929 18.3334L11.5876 18.2552V14.7973C11.5876 14.5055 11.8056 14.2644 12.0885 14.2262L12.1672 14.221H12.8456C13.3989 14.221 13.8535 13.8012 13.9051 13.2645L13.91 13.1626V10.1867C13.91 9.89497 14.128 9.65384 14.4109 9.61568L14.4896 9.61042L18.0829 9.61529L14.4896 9.61042ZM11.3978 8.07802L11.4764 8.07275C11.7699 8.07275 12.0124 8.28968 12.0507 8.57113L12.056 8.64938L12.0553 9.61042L12.4031 9.61566C12.7232 9.61566 12.9827 9.87382 12.9827 10.1923V11.956C12.9827 12.6991 12.3772 13.3015 11.6303 13.3015L10.7797 13.3008L10.7803 18.2598C10.7803 18.5517 10.5622 18.7929 10.2793 18.8311L10.2007 18.8364C9.90726 18.8364 9.66477 18.6195 9.62639 18.338L9.6211 18.2598L9.6211 13.3008L8.77105 13.3015C8.02417 13.3015 7.4187 12.6991 7.4187 11.956V10.1923C7.4187 9.87382 7.67819 9.61566 7.99828 9.61566H8.34596L8.34603 8.65462C8.34603 8.3627 8.56407 8.12144 8.84696 8.08326L8.92561 8.078C9.21902 8.078 9.46152 8.29492 9.49989 8.57637L9.50518 8.65462L9.50512 9.61566L10.8962 9.61042L10.8969 8.64938C10.8969 8.35746 11.1149 8.1162 11.3978 8.07802L11.4764 8.07275L11.3978 8.07802Z" fill="white"/>
</svg>
