<svg width="43" height="55" viewBox="0 0 43 55" fill="none" xmlns="http://www.w3.org/2000/svg">
<path fill-rule="evenodd" clip-rule="evenodd" d="M21.5 0C9.65136 0 0 9.51827 0 21.2036C0 24.4782 1.37641 27.9641 3.26699 31.5734C5.15758 35.1831 7.628 38.8866 10.0865 42.2415C15.0036 48.9507 19.9043 54.301 19.9043 54.301C20.1059 54.5211 20.3521 54.6971 20.6269 54.8175C20.9018 54.9379 21.1992 55.0002 21.5 55.0002C21.8008 55.0002 22.0982 54.9379 22.3731 54.8175C22.6479 54.6971 22.8941 54.5211 23.0957 54.301C23.0957 54.301 27.9964 48.9507 32.9135 42.2415C35.372 38.8866 37.8424 35.1831 39.733 31.5734C41.6236 27.9641 43 24.4782 43 21.2036C43 9.51827 33.3486 0 21.5 0ZM38.6999 21.2034C38.6999 17.415 37.4515 13.9233 35.3369 11.1052C37.4516 13.9233 38.7 17.4151 38.7 21.2036C38.7 23.1988 37.6577 26.3095 35.9201 29.627C34.1826 32.9441 31.8155 36.5108 29.4365 39.7567C25.8002 44.7187 23.1785 47.6315 21.8301 49.1297C21.7099 49.2632 21.5998 49.3855 21.5 49.497L21.4999 49.4969C21.5994 49.3857 21.7091 49.2638 21.8289 49.1307L21.83 49.1295L21.83 49.1295C23.1785 47.6313 25.8001 44.7185 29.4364 39.7565C31.8154 36.5107 34.1825 32.944 35.92 29.6269C37.6576 26.3094 38.6999 23.1987 38.6999 21.2034ZM13.1113 17.2195C12.973 17.8198 12.9 18.4436 12.9 19.0832C12.9 19.7228 12.973 20.3467 13.1113 20.947V20.9474C12.973 20.3469 12.8999 19.7229 12.8999 19.0831C12.8999 18.4433 12.973 17.8194 13.1113 17.2189V17.2195ZM21.5 10.6018C19.6569 10.6018 17.943 11.1836 16.5379 12.1699H16.5377C17.9427 11.1835 19.6568 10.6017 21.4999 10.6017C23.343 10.6017 25.057 11.1835 26.4621 12.1699H26.4621C25.057 11.1836 23.3431 10.6018 21.5 10.6018Z" fill="#FFA317"/>
<path d="M21.4844 14.2857L26.8125 14.293C28.6432 14.293 30.1396 15.7195 30.2442 17.5184L30.25 17.7197V18.862H31.8542C32.0628 18.862 32.2585 18.9176 32.4271 19.0148C32.7315 19.1904 32.9474 19.5016 32.9916 19.8655L33 20.0042V22.2887C33 22.7115 32.7696 23.0807 32.4271 23.2782C32.3007 23.3511 32.159 23.4006 32.008 23.4208L31.8542 23.431H30.25V24.5732C30.25 26.3982 28.819 27.89 27.0145 27.9942L26.8125 28L18.0408 27.9928C17.6058 27.9928 17.2462 27.6705 17.1893 27.2523L17.1815 27.1361V21.9959C17.1815 21.5622 17.5048 21.2038 17.9242 21.1471L18.0408 21.1392H19.0468C19.8671 21.1392 20.5413 20.5153 20.6178 19.7175L20.625 19.5659V15.1424C20.625 14.7087 20.9483 14.3503 21.3678 14.2935L21.4844 14.2857L26.8125 14.293L21.4844 14.2857ZM16.9 12.0078L17.0167 12C17.4517 12 17.8113 12.3225 17.8682 12.7408L17.876 12.8571L17.875 14.2857L18.3906 14.2935C18.8652 14.2935 19.25 14.6773 19.25 15.1506V17.7724C19.25 18.877 18.3522 19.7724 17.2448 19.7724L15.9835 19.7715L15.9844 27.1429C15.9844 27.5768 15.6611 27.9354 15.2416 27.9922L15.125 28C14.6899 28 14.3304 27.6775 14.2735 27.2592L14.2656 27.1429L14.2656 19.7714L13.0052 19.7724C11.8978 19.7724 11 18.877 11 17.7724V15.1506C11 14.6773 11.3848 14.2935 11.8594 14.2935H12.3749L12.375 12.8649C12.375 12.431 12.6983 12.0724 13.1178 12.0156L13.2344 12.0078C13.6694 12.0078 14.029 12.3303 14.0859 12.7486L14.0938 12.8649L14.0937 14.2935L16.1562 14.2857L16.1573 12.8571C16.1573 12.4232 16.4806 12.0646 16.9 12.0078L17.0167 12L16.9 12.0078Z" fill="white"/>
</svg>
