<svg width="14" height="15" viewBox="0 0 14 15" fill="none" xmlns="http://www.w3.org/2000/svg">
<path d="M8.0025 0.384317C7.43233 -0.128105 6.56767 -0.128106 5.9975 0.384316L0.497502 5.32728C0.180859 5.61186 0 6.0176 0 6.4434V13.4996C0 14.3282 0.671573 15 1.5 15H12.5C13.3284 15 14 14.3282 14 13.4996V6.4434C14 6.0176 13.8191 5.61186 13.5025 5.32728L8.0025 0.384317ZM4 9C3.44772 9 3 8.55228 3 8C3 7.44772 3.44772 7 4 7C4.55228 7 5 7.44772 5 8C5 8.55228 4.55228 9 4 9ZM8 8C8 8.55228 7.55228 9 7 9C6.44772 9 6 8.55228 6 8C6 7.44772 6.44772 7 7 7C7.55228 7 8 7.44772 8 8ZM10 9C9.44771 9 9 8.55228 9 8C9 7.44772 9.44771 7 10 7C10.5523 7 11 7.44772 11 8C11 8.55228 10.5523 9 10 9ZM5 11C5 11.5523 4.55228 12 4 12C3.44772 12 3 11.5523 3 11C3 10.4477 3.44772 10 4 10C4.55228 10 5 10.4477 5 11ZM7 12C6.44772 12 6 11.5523 6 11C6 10.4477 6.44772 10 7 10C7.55228 10 8 10.4477 8 11C8 11.5523 7.55228 12 7 12ZM11 11C11 11.5523 10.5523 12 10 12C9.44771 12 9 11.5523 9 11C9 10.4477 9.44771 10 10 10C10.5523 10 11 10.4477 11 11Z" fill="currentColor"/>
</svg>
