<svg width="20" height="16" viewBox="0 0 20 16" fill="none" xmlns="http://www.w3.org/2000/svg">
<path d="M1.24929 13C1.93925 13 2.49858 13.5593 2.49858 14.2493C2.49858 14.9393 1.93925 15.4986 1.24929 15.4986C0.559326 15.4986 0 14.9393 0 14.2493C0 13.5593 0.559326 13 1.24929 13ZM4.75 13.5H19.25C19.6642 13.5 20 13.8358 20 14.25C20 14.6297 19.7178 14.9435 19.3518 14.9932L19.25 15H4.75C4.33579 15 4 14.6642 4 14.25C4 13.8703 4.28215 13.5565 4.64823 13.5068L4.75 13.5H19.25H4.75ZM1.24929 6.5C1.93925 6.5 2.49858 7.05933 2.49858 7.74929C2.49858 8.43925 1.93925 8.99858 1.24929 8.99858C0.559326 8.99858 0 8.43925 0 7.74929C0 7.05933 0.559326 6.5 1.24929 6.5ZM4.75 7H19.25C19.6642 7 20 7.33579 20 7.75C20 8.1297 19.7178 8.44349 19.3518 8.49315L19.25 8.5H4.75C4.33579 8.5 4 8.16421 4 7.75C4 7.3703 4.28215 7.05651 4.64823 7.00685L4.75 7H19.25H4.75ZM1.24929 0C1.93925 0 2.49858 0.559326 2.49858 1.24929C2.49858 1.93925 1.93925 2.49858 1.24929 2.49858C0.559326 2.49858 0 1.93925 0 1.24929C0 0.559326 0.559326 0 1.24929 0ZM4.75 0.5H19.25C19.6642 0.5 20 0.835786 20 1.25C20 1.6297 19.7178 1.94349 19.3518 1.99315L19.25 2H4.75C4.33579 2 4 1.66421 4 1.25C4 0.870304 4.28215 0.556509 4.64823 0.506846L4.75 0.5H19.25H4.75Z" fill="#FFA317"/>
</svg>