<svg width="14" height="14" viewBox="0 0 14 14" fill="none" xmlns="http://www.w3.org/2000/svg">
<path d="M2 0C0.89543 0 0 0.895431 0 2V12C0 13.1046 0.895431 14 2 14H12C13.1046 14 14 13.1046 14 12V2C14 0.89543 13.1046 0 12 0H2ZM4.5 4.25C4.5 4.66421 4.16421 5 3.75 5C3.33579 5 3 4.66421 3 4.25C3 3.83579 3.33579 3.5 3.75 3.5C4.16421 3.5 4.5 3.83579 4.5 4.25ZM3.75 8C3.33579 8 3 7.66421 3 7.25C3 6.83579 3.33579 6.5 3.75 6.5C4.16421 6.5 4.5 6.83579 4.5 7.25C4.5 7.66421 4.16421 8 3.75 8ZM4.5 10.25C4.5 10.6642 4.16421 11 3.75 11C3.33579 11 3 10.6642 3 10.25C3 9.83579 3.33579 9.5 3.75 9.5C4.16421 9.5 4.5 9.83579 4.5 10.25ZM6.5 4H10.5C10.7761 4 11 4.22386 11 4.5C11 4.77614 10.7761 5 10.5 5H6.5C6.22386 5 6 4.77614 6 4.5C6 4.22386 6.22386 4 6.5 4ZM6 7.5C6 7.22386 6.22386 7 6.5 7H10.5C10.7761 7 11 7.22386 11 7.5C11 7.77614 10.7761 8 10.5 8H6.5C6.22386 8 6 7.77614 6 7.5ZM6.5 10H10.5C10.7761 10 11 10.2239 11 10.5C11 10.7761 10.7761 11 10.5 11H6.5C6.22386 11 6 10.7761 6 10.5C6 10.2239 6.22386 10 6.5 10Z" fill="currentColor"/>
</svg>
