<svg width="29" height="38" viewBox="0 0 29 38" fill="none" xmlns="http://www.w3.org/2000/svg">
<path fill-rule="evenodd" clip-rule="evenodd" d="M14.5 0C6.50906 0 0 6.4193 0 14.3001C0 16.5086 0.928274 18.8595 2.20332 21.2937C3.47837 23.7281 5.14446 26.2259 6.80254 28.4884C10.1187 33.0132 13.4238 36.6216 13.4238 36.6216C13.5598 36.77 13.7258 36.8887 13.9112 36.9699C14.0966 37.0512 14.2972 37.0931 14.5 37.0931C14.7029 37.0931 14.9034 37.0512 15.0888 36.9699C15.2742 36.8887 15.4402 36.77 15.5762 36.6216C15.5762 36.6216 18.8813 33.0132 22.1975 28.4884C23.8555 26.2259 25.5216 23.7281 26.7967 21.2937C28.0717 18.8595 29 16.5086 29 14.3001C29 6.4193 22.4909 0 14.5 0ZM26.0999 14.3C26.0999 11.6091 25.166 9.14013 23.5993 7.19008C25.1661 9.14014 26.1 11.6091 26.1 14.3001C26.1 15.6457 25.397 17.7436 24.2252 19.981C23.0534 22.2181 21.457 24.6236 19.8525 26.8126C17.4002 30.1591 15.6321 32.1235 14.7227 33.1339L14.7226 33.134C14.6415 33.224 14.5673 33.3065 14.5 33.3817L14.4999 33.3816C14.5669 33.3068 14.6407 33.2248 14.7213 33.1352L14.7225 33.1339C15.632 32.1235 17.4001 30.159 19.8525 26.8125C21.4569 24.6235 23.0533 22.218 24.2251 19.9809C25.397 17.7435 26.0999 15.6456 26.0999 14.3ZM8.84251 11.6131C8.74926 12.018 8.7 12.4387 8.7 12.8701C8.7 13.3014 8.74926 13.7222 8.84251 14.1271V14.1273C8.74922 13.7223 8.69993 13.3015 8.69993 12.87C8.69993 12.4385 8.74922 12.0177 8.84251 11.6127V11.6131ZM14.5 7.15003C13.257 7.15003 12.1011 7.54242 11.1535 8.2076H11.1533C12.1009 7.54238 13.2569 7.14996 14.4999 7.14996C15.743 7.14996 16.8989 7.54238 17.8465 8.2076H17.8465C16.8989 7.54242 15.743 7.15003 14.5 7.15003Z" fill="#FFA317"/>
<ellipse cx="14.5" cy="13.8253" rx="5.73256" ry="5.73256" fill="white"/>
</svg>
