<svg width="16" height="14" viewBox="0 0 16 14" fill="none" xmlns="http://www.w3.org/2000/svg">
<path d="M15.7309 0.0565121C15.8963 0.142611 16 0.313564 16 0.500001V10.5C16 10.6756 15.9079 10.8384 15.7572 10.9287L10.7572 13.9287C10.604 14.0207 10.4134 14.0239 10.2572 13.9371L5.74616 11.431C5.58395 11.3354 5.41042 11.3367 5.25749 11.4286L5.24282 11.4371L0.742821 13.9371C0.587956 14.0231 0.399125 14.0208 0.246436 13.9309C0.0937472 13.8411 0 13.6772 0 13.5V4C0 3.83684 0.0796055 3.68395 0.213269 3.59039L5.21327 0.0903855C5.38543 -0.0301265 5.61457 -0.0301265 5.78673 0.0903855L10.5 3.38967L15.2133 0.0903855C15.366 -0.0165295 15.5655 -0.0295868 15.7309 0.0565121ZM1 4.26033V12.6502L4.75049 10.5666C4.83139 10.5187 4.91486 10.4792 5 10.448V1.46033L1 4.26033ZM6.24782 10.5657L10.0036 12.6523L10.0001 4.26041L6 1.46033V10.4491C6.08477 10.4801 6.16769 10.519 6.24782 10.5657ZM11.0036 12.6147L15 10.2169V1.46033L11.0001 4.26025L11.0036 12.6147Z" fill="#FFA317"/>
</svg>