<svg width="26" height="15" viewBox="0 0 26 15" fill="none" xmlns="http://www.w3.org/2000/svg">
<path d="M7.53125 1.67188V0.875H6.26562V1.67188C6.26562 3.66406 3.72656 5.32031 1.21875 5.67188L1.71875 6.67188C3.88281 6.3125 6.01562 5.13281 6.90625 3.41406C7.79688 5.11719 9.9375 6.3125 12.0938 6.67188L12.5938 5.67188C10.0859 5.32031 7.53906 3.63281 7.53125 1.67188ZM0.5625 9.23438H6.26562V14.2656H7.46875V9.23438H13.2188V8.20312H0.5625V9.23438ZM25.3062 0.375H24.0719V4H21.275V5.01562H24.0719V8.65625H25.3062V0.375ZM13.8531 7.54688L14.4937 8.53125C16.15 7.89844 17.4391 6.60156 18.0328 4.97656C18.6344 6.40625 19.8453 7.57812 21.4 8.14062L22.0406 7.15625C20.0094 6.46094 18.6187 4.73438 18.6187 2.92188V2.42188H21.7281V1.39062H14.2437V2.42188H17.3844V2.9375C17.3844 4.92188 15.9156 6.80469 13.8531 7.54688ZM16.0406 11.6719C16.0328 13.3125 17.8062 14.25 20.6969 14.2656C23.5797 14.25 25.3531 13.3125 25.3531 11.6719C25.3531 10.0391 23.5797 9.08594 20.6969 9.09375C17.8062 9.08594 16.0328 10.0391 16.0406 11.6719ZM17.2594 11.6719C17.2516 10.6562 18.5641 10.0469 20.6969 10.0469C22.8219 10.0469 24.1344 10.6562 24.1344 11.6719C24.1344 12.6797 22.8219 13.2891 20.6969 13.2812C18.5641 13.2891 17.2516 12.6797 17.2594 11.6719Z" fill="#FFA317"/>
</svg>
