<svg width="32" height="32" viewBox="0 0 32 32" fill="none" xmlns="http://www.w3.org/2000/svg">
<rect width="32" height="32" rx="16" fill="#FEEED5"/>
<path d="M16 8C13.7909 8 12 9.79086 12 12C12 14.2091 13.7909 16 16 16C18.2091 16 20 14.2091 20 12C20 9.79086 18.2091 8 16 8ZM11.0087 17C9.90315 17 9 17.8869 9 19C9 20.6912 9.83281 21.9663 11.135 22.7966C12.417 23.614 14.1453 24 16 24C17.8547 24 19.583 23.614 20.865 22.7966C22.1672 21.9663 23 20.6912 23 19C23 17.8956 22.1045 17 21 17L11.0087 17Z" fill="#FFBA50"/>
</svg>
