<svg width="24" height="24" viewBox="0 0 24 24" fill="none" xmlns="http://www.w3.org/2000/svg">
<path d="M11.9973 4C12.301 4 12.5521 4.24174 12.5918 4.55552L12.5973 4.64275L12.5983 10.8574H18.4001C18.7314 10.8574 19 11.1453 19 11.5003C19 11.8258 18.7743 12.0948 18.4815 12.1373L18.4001 12.1432H12.5983L12.5999 18.357C12.6 18.712 12.3315 19 12.0001 19C11.6964 19 11.4453 18.7583 11.4056 18.4445L11.4001 18.3572L11.3984 12.1432H5.59993C5.2686 12.1432 5 11.8554 5 11.5003C5 11.1748 5.2257 10.9059 5.51852 10.8633L5.59993 10.8574H11.3984L11.3975 4.64301C11.3974 4.28796 11.6659 4 11.9973 4Z" fill="#C2C2C2"/>
</svg>
