<svg width="14" height="16" viewBox="0 0 14 16" fill="none" xmlns="http://www.w3.org/2000/svg">
<path d="M2 0C0.895431 0 0 0.895431 0 2V14C0 15.1046 0.89543 16 2 16H10C11.1046 16 12 15.1046 12 14V2C12 0.895431 11.1046 0 10 0H2ZM2 3.5C2 3.22386 2.22386 3 2.5 3H9.5C9.77614 3 10 3.22386 10 3.5V4.5C10 4.77614 9.77614 5 9.5 5H2.5C2.22386 5 2 4.77614 2 4.5V3.5ZM13 4H13.5C13.7761 4 14 4.22386 14 4.5V6C14 6.27614 13.7761 6.5 13.5 6.5H13V4ZM13 7.5H13.5C13.7761 7.5 14 7.72386 14 8V9.5C14 9.77614 13.7761 10 13.5 10H13V7.5ZM13 11H13.5C13.7761 11 14 11.2239 14 11.5V13C14 13.2761 13.7761 13.5 13.5 13.5H13V11Z" fill="currentColor" />
</svg>
