<svg width="24" height="24" viewBox="0 0 24 24" fill="none" xmlns="http://www.w3.org/2000/svg">
<path d="M13.5 6C13.5 5.17157 12.8284 4.5 12 4.5C11.1716 4.5 10.5 5.17157 10.5 6H9.5C9.5 4.61929 10.6193 3.5 12 3.5C13.3807 3.5 14.5 4.61929 14.5 6H19C19.2761 6 19.5 6.22386 19.5 6.5C19.5 6.77614 19.2761 7 19 7H18.446L17.1499 18.2292C17.0335 19.2384 16.179 20 15.1631 20H8.83688C7.821 20 6.9665 19.2384 6.85006 18.2292L5.553 7H5C4.75454 7 4.55039 6.82312 4.50806 6.58988L4.5 6.5C4.5 6.22386 4.72386 6 5 6H13.5ZM17.438 7H6.561L7.84347 18.1146C7.90169 18.6192 8.32894 19 8.83688 19H15.1631C15.6711 19 16.0983 18.6192 16.1565 18.1146L17.438 7ZM10.5 9.5C10.7455 9.5 10.9496 9.65477 10.9919 9.85886L11 9.9375V16.0625C11 16.3041 10.7761 16.5 10.5 16.5C10.2545 16.5 10.0504 16.3452 10.0081 16.1411L10 16.0625V9.9375C10 9.69588 10.2239 9.5 10.5 9.5ZM13.5 9.5C13.7455 9.5 13.9496 9.65477 13.9919 9.85886L14 9.9375V16.0625C14 16.3041 13.7761 16.5 13.5 16.5C13.2545 16.5 13.0504 16.3452 13.0081 16.1411L13 16.0625V9.9375C13 9.69588 13.2239 9.5 13.5 9.5Z" fill="#717171"/>
</svg>
