<svg width="43" height="55" viewBox="0 0 43 55" fill="none" xmlns="http://www.w3.org/2000/svg">
<path fill-rule="evenodd" clip-rule="evenodd" d="M21.5 0C9.65136 0 0 9.51827 0 21.2036C0 24.4782 1.37641 27.9641 3.26699 31.5734C5.15758 35.1831 7.628 38.8866 10.0865 42.2415C15.0036 48.9507 19.9043 54.301 19.9043 54.301C20.1059 54.5211 20.3521 54.6971 20.6269 54.8175C20.9018 54.9379 21.1992 55.0002 21.5 55.0002C21.8008 55.0002 22.0982 54.9379 22.3731 54.8175C22.6479 54.6971 22.8941 54.5211 23.0957 54.301C23.0957 54.301 27.9964 48.9507 32.9135 42.2415C35.372 38.8866 37.8424 35.1831 39.733 31.5734C41.6236 27.9641 43 24.4782 43 21.2036C43 9.51827 33.3486 0 21.5 0ZM38.6999 21.2034C38.6999 17.415 37.4515 13.9233 35.3369 11.1052C37.4516 13.9233 38.7 17.4151 38.7 21.2036C38.7 23.1988 37.6577 26.3095 35.9201 29.627C34.1826 32.9441 31.8155 36.5108 29.4365 39.7567C25.8002 44.7187 23.1785 47.6315 21.8301 49.1297C21.7099 49.2632 21.5998 49.3855 21.5 49.497L21.4999 49.4969C21.5994 49.3857 21.7091 49.2638 21.8289 49.1307L21.83 49.1295L21.83 49.1295C23.1785 47.6313 25.8001 44.7185 29.4364 39.7565C31.8154 36.5107 34.1825 32.944 35.92 29.6269C37.6576 26.3094 38.6999 23.1987 38.6999 21.2034ZM13.1113 17.2195C12.973 17.8198 12.9 18.4436 12.9 19.0832C12.9 19.7228 12.973 20.3467 13.1113 20.947V20.9474C12.973 20.3469 12.8999 19.7229 12.8999 19.0831C12.8999 18.4433 12.973 17.8194 13.1113 17.2189V17.2195ZM21.5 10.6018C19.6569 10.6018 17.943 11.1836 16.5379 12.1699H16.5377C17.9427 11.1835 19.6568 10.6017 21.4999 10.6017C23.343 10.6017 25.057 11.1835 26.4621 12.1699H26.4621C25.057 11.1836 23.3431 10.6018 21.5 10.6018Z" fill="#FFA317"/>
<path d="M13.241 12.9307C12.3175 12.9307 11.5688 13.6627 11.5688 14.5658V18.7724C11.5688 21.9987 14.2434 24.6141 17.5427 24.6141C17.6118 24.6141 17.6807 24.6129 17.7493 24.6107C17.4572 23.8053 17.2982 22.9382 17.2982 22.0349C17.2982 21.2724 17.4114 20.5359 17.6224 19.8404L18.2099 18.4342C19.0482 16.8864 20.4102 15.6516 22.065 14.9553C20.9696 13.7153 19.3498 12.9307 17.5427 12.9307H13.241ZM20.1405 25.9698L17.5868 28.4689C17.3072 28.7425 17.3074 29.1859 17.5871 29.4593C17.8669 29.7327 18.3204 29.7326 18.5999 29.459L21.1535 26.96C22.256 27.8223 23.6544 28.3378 25.176 28.3378C28.7357 28.3378 31.6214 25.5159 31.6214 22.0349V17.4509C31.6214 16.5016 30.8344 15.732 29.8636 15.732L25.176 15.732C21.6162 15.732 18.7305 18.5539 18.7305 22.0349C18.7305 23.5234 19.2581 24.8914 20.1405 25.9698Z" fill="white"/>
</svg>
